<?xml version="1.0" encoding="utf-8" standalone="no"?>
<!DOCTYPE svg PUBLIC "-//W3C//DTD SVG 1.1//EN"
  "http://www.w3.org/Graphics/SVG/1.1/DTD/svg11.dtd">
<svg xmlns:xlink="http://www.w3.org/1999/xlink" width="404.36875pt" height="299.558887pt" viewBox="0 0 404.36875 299.558887" xmlns="http://www.w3.org/2000/svg" version="1.1">
 <metadata>
  <rdf:RDF xmlns:dc="http://purl.org/dc/elements/1.1/" xmlns:cc="http://creativecommons.org/ns#" xmlns:rdf="http://www.w3.org/1999/02/22-rdf-syntax-ns#">
   <cc:Work>
    <dc:type rdf:resource="http://purl.org/dc/dcmitype/StillImage"/>
    <dc:date>2024-01-16T11:34:09.877321</dc:date>
    <dc:format>image/svg+xml</dc:format>
    <dc:creator>
     <cc:Agent>
      <dc:title>Matplotlib v3.7.3, https://matplotlib.org/</dc:title>
     </cc:Agent>
    </dc:creator>
   </cc:Work>
  </rdf:RDF>
 </metadata>
 <defs>
  <style type="text/css">*{stroke-linejoin: round; stroke-linecap: butt}</style>
 </defs>
 <g id="figure_1">
  <g id="patch_1">
   <path d="M 0 299.558887 
L 404.36875 299.558887 
L 404.36875 0 
L 0 0 
z
" style="fill: #ffffff"/>
  </g>
  <g id="axes_1">
   <g id="patch_2">
    <path d="M 40.04875 242.208 
L 397.16875 242.208 
L 397.16875 7.2 
L 40.04875 7.2 
z
" style="fill: #ffffff"/>
   </g>
   <g id="matplotlib.axis_1">
    <g id="xtick_1">
     <g id="line2d_1">
      <defs>
       <path id="m8df02fab22" d="M 0 0 
L 0 3.5 
" style="stroke: #323034; stroke-width: 0.8"/>
      </defs>
      <g>
       <use xlink:href="#m8df02fab22" x="55.541945" y="242.208" style="fill: #323034; stroke: #323034; stroke-width: 0.8"/>
      </g>
     </g>
     <g id="text_1">
      <!-- 2017-01 -->
      <g style="fill: #323034" transform="translate(19.60253 276.303432) rotate(-30) scale(0.12 -0.12)">
       <defs>
        <path id="STIXGeneral-Regular-32" d="M 3034 877 
L 2688 0 
L 186 0 
L 186 77 
L 1325 1286 
Q 1773 1754 1965 2144 
Q 2157 2534 2157 2950 
Q 2157 3379 1920 3616 
Q 1683 3853 1267 3853 
Q 922 3853 720 3673 
Q 518 3494 326 3021 
L 192 3053 
Q 301 3648 630 3987 
Q 960 4326 1523 4326 
Q 2054 4326 2380 4006 
Q 2707 3686 2707 3200 
Q 2707 2477 1888 1613 
L 832 486 
L 2330 486 
Q 2541 486 2665 569 
Q 2790 653 2944 915 
L 3034 877 
z
" transform="scale(0.015625)"/>
        <path id="STIXGeneral-Regular-30" d="M 3046 2112 
Q 3046 1683 2963 1302 
Q 2880 922 2717 602 
Q 2554 282 2266 96 
Q 1978 -90 1600 -90 
Q 1210 -90 915 108 
Q 621 307 461 640 
Q 301 973 227 1350 
Q 154 1728 154 2150 
Q 154 2746 301 3222 
Q 448 3699 790 4012 
Q 1133 4326 1626 4326 
Q 2253 4326 2649 3712 
Q 3046 3098 3046 2112 
z
M 2432 2080 
Q 2432 3091 2217 3625 
Q 2003 4160 1587 4160 
Q 1190 4160 979 3622 
Q 768 3085 768 2106 
Q 768 1120 979 598 
Q 1190 77 1600 77 
Q 2003 77 2217 598 
Q 2432 1120 2432 2080 
z
" transform="scale(0.015625)"/>
        <path id="STIXGeneral-Regular-31" d="M 2522 0 
L 755 0 
L 755 96 
Q 1107 115 1235 227 
Q 1363 339 1363 608 
L 1363 3482 
Q 1363 3795 1171 3795 
Q 1082 3795 883 3718 
L 710 3654 
L 710 3744 
L 1856 4326 
L 1914 4307 
L 1914 486 
Q 1914 275 2042 185 
Q 2170 96 2522 96 
L 2522 0 
z
" transform="scale(0.015625)"/>
        <path id="STIXGeneral-Regular-37" d="M 2874 4134 
L 1517 -51 
L 1101 -51 
L 2368 3763 
L 992 3763 
Q 717 3763 582 3667 
Q 448 3571 243 3238 
L 128 3296 
L 512 4237 
L 2874 4237 
L 2874 4134 
z
" transform="scale(0.015625)"/>
        <path id="STIXGeneral-Regular-2d" d="M 1824 1242 
L 250 1242 
L 250 1645 
L 1824 1645 
L 1824 1242 
z
" transform="scale(0.015625)"/>
       </defs>
       <use xlink:href="#STIXGeneral-Regular-32"/>
       <use xlink:href="#STIXGeneral-Regular-30" x="49.999985"/>
       <use xlink:href="#STIXGeneral-Regular-31" x="99.999969"/>
       <use xlink:href="#STIXGeneral-Regular-37" x="149.999954"/>
       <use xlink:href="#STIXGeneral-Regular-2d" x="199.999939"/>
       <use xlink:href="#STIXGeneral-Regular-30" x="233.299927"/>
       <use xlink:href="#STIXGeneral-Regular-31" x="283.299911"/>
      </g>
     </g>
    </g>
    <g id="xtick_2">
     <g id="line2d_2">
      <g>
       <use xlink:href="#m8df02fab22" x="88.820885" y="242.208" style="fill: #323034; stroke: #323034; stroke-width: 0.8"/>
      </g>
     </g>
     <g id="text_2">
      <!-- 2017-04 -->
      <g style="fill: #323034" transform="translate(52.88147 276.303432) rotate(-30) scale(0.12 -0.12)">
       <defs>
        <path id="STIXGeneral-Regular-34" d="M 3027 1069 
L 2368 1069 
L 2368 0 
L 1869 0 
L 1869 1069 
L 77 1069 
L 77 1478 
L 2086 4326 
L 2368 4326 
L 2368 1478 
L 3027 1478 
L 3027 1069 
z
M 1869 1478 
L 1869 3674 
L 333 1478 
L 1869 1478 
z
" transform="scale(0.015625)"/>
       </defs>
       <use xlink:href="#STIXGeneral-Regular-32"/>
       <use xlink:href="#STIXGeneral-Regular-30" x="49.999985"/>
       <use xlink:href="#STIXGeneral-Regular-31" x="99.999969"/>
       <use xlink:href="#STIXGeneral-Regular-37" x="149.999954"/>
       <use xlink:href="#STIXGeneral-Regular-2d" x="199.999939"/>
       <use xlink:href="#STIXGeneral-Regular-30" x="233.299927"/>
       <use xlink:href="#STIXGeneral-Regular-34" x="283.299911"/>
      </g>
     </g>
    </g>
    <g id="xtick_3">
     <g id="line2d_3">
      <g>
       <use xlink:href="#m8df02fab22" x="122.469591" y="242.208" style="fill: #323034; stroke: #323034; stroke-width: 0.8"/>
      </g>
     </g>
     <g id="text_3">
      <!-- 2017-07 -->
      <g style="fill: #323034" transform="translate(86.530176 276.303432) rotate(-30) scale(0.12 -0.12)">
       <use xlink:href="#STIXGeneral-Regular-32"/>
       <use xlink:href="#STIXGeneral-Regular-30" x="49.999985"/>
       <use xlink:href="#STIXGeneral-Regular-31" x="99.999969"/>
       <use xlink:href="#STIXGeneral-Regular-37" x="149.999954"/>
       <use xlink:href="#STIXGeneral-Regular-2d" x="199.999939"/>
       <use xlink:href="#STIXGeneral-Regular-30" x="233.299927"/>
       <use xlink:href="#STIXGeneral-Regular-37" x="283.299911"/>
      </g>
     </g>
    </g>
    <g id="xtick_4">
     <g id="line2d_4">
      <g>
       <use xlink:href="#m8df02fab22" x="156.488062" y="242.208" style="fill: #323034; stroke: #323034; stroke-width: 0.8"/>
      </g>
     </g>
     <g id="text_4">
      <!-- 2017-10 -->
      <g style="fill: #323034" transform="translate(120.548648 276.303432) rotate(-30) scale(0.12 -0.12)">
       <use xlink:href="#STIXGeneral-Regular-32"/>
       <use xlink:href="#STIXGeneral-Regular-30" x="49.999985"/>
       <use xlink:href="#STIXGeneral-Regular-31" x="99.999969"/>
       <use xlink:href="#STIXGeneral-Regular-37" x="149.999954"/>
       <use xlink:href="#STIXGeneral-Regular-2d" x="199.999939"/>
       <use xlink:href="#STIXGeneral-Regular-31" x="233.299927"/>
       <use xlink:href="#STIXGeneral-Regular-30" x="283.299911"/>
      </g>
     </g>
    </g>
    <g id="xtick_5">
     <g id="line2d_5">
      <g>
       <use xlink:href="#m8df02fab22" x="190.506534" y="242.208" style="fill: #323034; stroke: #323034; stroke-width: 0.8"/>
      </g>
     </g>
     <g id="text_5">
      <!-- 2018-01 -->
      <g style="fill: #323034" transform="translate(154.567119 276.303432) rotate(-30) scale(0.12 -0.12)">
       <defs>
        <path id="STIXGeneral-Regular-38" d="M 2848 992 
Q 2848 499 2505 204 
Q 2163 -90 1587 -90 
Q 1050 -90 704 204 
Q 358 499 358 954 
Q 358 1293 524 1533 
Q 691 1773 1190 2125 
Q 710 2522 553 2765 
Q 397 3008 397 3328 
Q 397 3782 745 4054 
Q 1094 4326 1638 4326 
Q 2106 4326 2410 4060 
Q 2714 3795 2714 3411 
Q 2714 3059 2531 2848 
Q 2349 2637 1856 2374 
Q 2432 1990 2640 1689 
Q 2848 1389 2848 992 
z
M 2272 3411 
Q 2272 3744 2086 3945 
Q 1901 4147 1574 4147 
Q 1248 4147 1059 3977 
Q 870 3808 870 3513 
Q 870 3219 1059 2979 
Q 1248 2739 1670 2490 
Q 1997 2682 2134 2896 
Q 2272 3110 2272 3411 
z
M 1734 1741 
L 1357 1997 
Q 1075 1766 960 1545 
Q 845 1325 845 1011 
Q 845 576 1065 333 
Q 1286 90 1658 90 
Q 1971 90 2166 285 
Q 2362 480 2362 794 
Q 2362 1082 2214 1299 
Q 2067 1517 1734 1741 
z
" transform="scale(0.015625)"/>
       </defs>
       <use xlink:href="#STIXGeneral-Regular-32"/>
       <use xlink:href="#STIXGeneral-Regular-30" x="49.999985"/>
       <use xlink:href="#STIXGeneral-Regular-31" x="99.999969"/>
       <use xlink:href="#STIXGeneral-Regular-38" x="149.999954"/>
       <use xlink:href="#STIXGeneral-Regular-2d" x="199.999939"/>
       <use xlink:href="#STIXGeneral-Regular-30" x="233.299927"/>
       <use xlink:href="#STIXGeneral-Regular-31" x="283.299911"/>
      </g>
     </g>
    </g>
    <g id="xtick_6">
     <g id="line2d_6">
      <g>
       <use xlink:href="#m8df02fab22" x="223.785474" y="242.208" style="fill: #323034; stroke: #323034; stroke-width: 0.8"/>
      </g>
     </g>
     <g id="text_6">
      <!-- 2018-04 -->
      <g style="fill: #323034" transform="translate(187.846059 276.303432) rotate(-30) scale(0.12 -0.12)">
       <use xlink:href="#STIXGeneral-Regular-32"/>
       <use xlink:href="#STIXGeneral-Regular-30" x="49.999985"/>
       <use xlink:href="#STIXGeneral-Regular-31" x="99.999969"/>
       <use xlink:href="#STIXGeneral-Regular-38" x="149.999954"/>
       <use xlink:href="#STIXGeneral-Regular-2d" x="199.999939"/>
       <use xlink:href="#STIXGeneral-Regular-30" x="233.299927"/>
       <use xlink:href="#STIXGeneral-Regular-34" x="283.299911"/>
      </g>
     </g>
    </g>
    <g id="xtick_7">
     <g id="line2d_7">
      <g>
       <use xlink:href="#m8df02fab22" x="257.43418" y="242.208" style="fill: #323034; stroke: #323034; stroke-width: 0.8"/>
      </g>
     </g>
     <g id="text_7">
      <!-- 2018-07 -->
      <g style="fill: #323034" transform="translate(221.494765 276.303432) rotate(-30) scale(0.12 -0.12)">
       <use xlink:href="#STIXGeneral-Regular-32"/>
       <use xlink:href="#STIXGeneral-Regular-30" x="49.999985"/>
       <use xlink:href="#STIXGeneral-Regular-31" x="99.999969"/>
       <use xlink:href="#STIXGeneral-Regular-38" x="149.999954"/>
       <use xlink:href="#STIXGeneral-Regular-2d" x="199.999939"/>
       <use xlink:href="#STIXGeneral-Regular-30" x="233.299927"/>
       <use xlink:href="#STIXGeneral-Regular-37" x="283.299911"/>
      </g>
     </g>
    </g>
    <g id="xtick_8">
     <g id="line2d_8">
      <g>
       <use xlink:href="#m8df02fab22" x="291.452651" y="242.208" style="fill: #323034; stroke: #323034; stroke-width: 0.8"/>
      </g>
     </g>
     <g id="text_8">
      <!-- 2018-10 -->
      <g style="fill: #323034" transform="translate(255.513237 276.303432) rotate(-30) scale(0.12 -0.12)">
       <use xlink:href="#STIXGeneral-Regular-32"/>
       <use xlink:href="#STIXGeneral-Regular-30" x="49.999985"/>
       <use xlink:href="#STIXGeneral-Regular-31" x="99.999969"/>
       <use xlink:href="#STIXGeneral-Regular-38" x="149.999954"/>
       <use xlink:href="#STIXGeneral-Regular-2d" x="199.999939"/>
       <use xlink:href="#STIXGeneral-Regular-31" x="233.299927"/>
       <use xlink:href="#STIXGeneral-Regular-30" x="283.299911"/>
      </g>
     </g>
    </g>
    <g id="xtick_9">
     <g id="line2d_9">
      <g>
       <use xlink:href="#m8df02fab22" x="325.471123" y="242.208" style="fill: #323034; stroke: #323034; stroke-width: 0.8"/>
      </g>
     </g>
     <g id="text_9">
      <!-- 2019-01 -->
      <g style="fill: #323034" transform="translate(289.531708 276.303432) rotate(-30) scale(0.12 -0.12)">
       <defs>
        <path id="STIXGeneral-Regular-39" d="M 378 -141 
L 358 -13 
Q 1094 115 1603 608 
Q 2112 1101 2304 1882 
Q 1933 1517 1344 1517 
Q 826 1517 509 1875 
Q 192 2234 192 2816 
Q 192 3462 573 3894 
Q 954 4326 1523 4326 
Q 2131 4326 2528 3840 
Q 2938 3328 2938 2522 
Q 2938 1958 2742 1462 
Q 2547 966 2170 621 
Q 1773 262 1395 105 
Q 1018 -51 378 -141 
z
M 2317 2272 
L 2317 2522 
Q 2317 4147 1472 4147 
Q 1171 4147 1005 3930 
Q 909 3802 845 3546 
Q 781 3290 781 3034 
Q 781 2464 995 2128 
Q 1210 1792 1568 1792 
Q 1824 1792 2070 1917 
Q 2317 2042 2317 2272 
z
" transform="scale(0.015625)"/>
       </defs>
       <use xlink:href="#STIXGeneral-Regular-32"/>
       <use xlink:href="#STIXGeneral-Regular-30" x="49.999985"/>
       <use xlink:href="#STIXGeneral-Regular-31" x="99.999969"/>
       <use xlink:href="#STIXGeneral-Regular-39" x="149.999954"/>
       <use xlink:href="#STIXGeneral-Regular-2d" x="199.999939"/>
       <use xlink:href="#STIXGeneral-Regular-30" x="233.299927"/>
       <use xlink:href="#STIXGeneral-Regular-31" x="283.299911"/>
      </g>
     </g>
    </g>
    <g id="xtick_10">
     <g id="line2d_10">
      <g>
       <use xlink:href="#m8df02fab22" x="358.750063" y="242.208" style="fill: #323034; stroke: #323034; stroke-width: 0.8"/>
      </g>
     </g>
     <g id="text_10">
      <!-- 2019-04 -->
      <g style="fill: #323034" transform="translate(322.810648 276.303432) rotate(-30) scale(0.12 -0.12)">
       <use xlink:href="#STIXGeneral-Regular-32"/>
       <use xlink:href="#STIXGeneral-Regular-30" x="49.999985"/>
       <use xlink:href="#STIXGeneral-Regular-31" x="99.999969"/>
       <use xlink:href="#STIXGeneral-Regular-39" x="149.999954"/>
       <use xlink:href="#STIXGeneral-Regular-2d" x="199.999939"/>
       <use xlink:href="#STIXGeneral-Regular-30" x="233.299927"/>
       <use xlink:href="#STIXGeneral-Regular-34" x="283.299911"/>
      </g>
     </g>
    </g>
    <g id="xtick_11">
     <g id="line2d_11">
      <g>
       <use xlink:href="#m8df02fab22" x="392.398769" y="242.208" style="fill: #323034; stroke: #323034; stroke-width: 0.8"/>
      </g>
     </g>
     <g id="text_11">
      <!-- 2019-07 -->
      <g style="fill: #323034" transform="translate(356.459354 276.303432) rotate(-30) scale(0.12 -0.12)">
       <use xlink:href="#STIXGeneral-Regular-32"/>
       <use xlink:href="#STIXGeneral-Regular-30" x="49.999985"/>
       <use xlink:href="#STIXGeneral-Regular-31" x="99.999969"/>
       <use xlink:href="#STIXGeneral-Regular-39" x="149.999954"/>
       <use xlink:href="#STIXGeneral-Regular-2d" x="199.999939"/>
       <use xlink:href="#STIXGeneral-Regular-30" x="233.299927"/>
       <use xlink:href="#STIXGeneral-Regular-37" x="283.299911"/>
      </g>
     </g>
    </g>
    <g id="text_12">
     <!-- Date -->
     <g transform="translate(207.28 289.754512) scale(0.12 -0.12)">
      <defs>
       <path id="STIXGeneral-Regular-44" d="M 102 4237 
L 1830 4237 
Q 3078 4237 3750 3654 
Q 4384 3110 4384 2138 
Q 4384 966 3514 410 
Q 2880 0 1901 0 
L 102 0 
L 102 122 
Q 474 147 570 252 
Q 666 358 666 736 
L 666 3520 
Q 666 3891 570 3990 
Q 474 4090 102 4115 
L 102 4237 
z
M 1318 3731 
L 1318 538 
Q 1318 365 1379 301 
Q 1440 237 1626 237 
Q 2125 237 2432 307 
Q 2739 378 3021 570 
Q 3686 1018 3686 2099 
Q 3686 3027 3078 3558 
Q 2803 3802 2476 3901 
Q 2150 4000 1658 4000 
Q 1472 4000 1395 3942 
Q 1318 3885 1318 3731 
z
" transform="scale(0.015625)"/>
       <path id="STIXGeneral-Regular-61" d="M 2829 422 
L 2829 243 
Q 2586 -64 2253 -64 
Q 1888 -64 1843 403 
L 1837 403 
Q 1427 -64 909 -64 
Q 608 -64 422 112 
Q 237 288 237 602 
Q 237 1050 685 1350 
Q 992 1555 1837 1869 
L 1837 2214 
Q 1837 2502 1699 2646 
Q 1562 2790 1338 2790 
Q 1146 2790 1018 2697 
Q 890 2605 890 2477 
Q 890 2419 909 2348 
Q 928 2278 928 2208 
Q 928 2112 841 2029 
Q 755 1946 634 1946 
Q 525 1946 441 2029 
Q 358 2112 358 2240 
Q 358 2547 685 2752 
Q 986 2944 1421 2944 
Q 1939 2944 2176 2656 
Q 2291 2522 2323 2384 
Q 2355 2246 2355 1946 
L 2355 723 
Q 2355 301 2554 301 
Q 2682 301 2829 422 
z
M 1837 813 
L 1837 1715 
Q 1248 1510 1018 1293 
Q 800 1094 800 800 
Q 800 557 921 432 
Q 1043 307 1242 307 
Q 1453 307 1613 410 
Q 1747 506 1792 589 
Q 1837 672 1837 813 
z
" transform="scale(0.015625)"/>
       <path id="STIXGeneral-Regular-74" d="M 1702 493 
L 1786 422 
Q 1478 -64 1011 -64 
Q 448 -64 448 749 
L 448 2675 
L 109 2675 
Q 83 2694 83 2720 
Q 83 2771 192 2842 
Q 435 2982 813 3526 
Q 826 3546 874 3606 
Q 922 3667 941 3706 
Q 986 3706 986 3622 
L 986 2880 
L 1632 2880 
L 1632 2675 
L 986 2675 
L 986 845 
Q 986 538 1062 403 
Q 1139 269 1318 269 
Q 1510 269 1702 493 
z
" transform="scale(0.015625)"/>
       <path id="STIXGeneral-Regular-65" d="M 2611 1050 
L 2714 1005 
Q 2330 -64 1376 -64 
Q 813 -64 486 329 
Q 160 723 160 1389 
Q 160 2074 525 2509 
Q 890 2944 1485 2944 
Q 2061 2944 2374 2502 
Q 2560 2246 2592 1773 
L 621 1773 
Q 646 1370 700 1158 
Q 755 947 915 730 
Q 1184 378 1626 378 
Q 1939 378 2153 531 
Q 2368 685 2611 1050 
z
M 634 1978 
L 1939 1978 
Q 1882 2381 1750 2547 
Q 1619 2714 1312 2714 
Q 1043 2714 864 2525 
Q 685 2336 634 1978 
z
" transform="scale(0.015625)"/>
      </defs>
      <use xlink:href="#STIXGeneral-Regular-44"/>
      <use xlink:href="#STIXGeneral-Regular-61" x="72.199982"/>
      <use xlink:href="#STIXGeneral-Regular-74" x="116.599976"/>
      <use xlink:href="#STIXGeneral-Regular-65" x="144.399963"/>
     </g>
    </g>
   </g>
   <g id="matplotlib.axis_2">
    <g id="ytick_1">
     <g id="line2d_12">
      <defs>
       <path id="mee35898cd3" d="M 0 0 
L -3.5 0 
" style="stroke: #323034; stroke-width: 0.8"/>
      </defs>
      <g>
       <use xlink:href="#mee35898cd3" x="40.04875" y="210.250617" style="fill: #323034; stroke: #323034; stroke-width: 0.8"/>
      </g>
     </g>
     <g id="text_13">
      <!-- $\mathdefault{30}$ -->
      <g style="fill: #323034" transform="translate(21.04875 214.348429) scale(0.12 -0.12)">
       <defs>
        <path id="STIXGeneral-Regular-33" d="M 390 3264 
L 288 3290 
Q 435 3770 748 4048 
Q 1062 4326 1542 4326 
Q 1990 4326 2265 4083 
Q 2541 3840 2541 3450 
Q 2541 2925 1946 2566 
Q 2298 2413 2477 2227 
Q 2758 1914 2758 1402 
Q 2758 890 2464 506 
Q 2246 211 1840 60 
Q 1434 -90 979 -90 
Q 262 -90 262 275 
Q 262 378 339 442 
Q 416 506 525 506 
Q 685 506 915 339 
Q 1197 141 1466 141 
Q 1818 141 2058 425 
Q 2298 710 2298 1120 
Q 2298 1856 1632 2048 
Q 1434 2112 979 2112 
L 979 2202 
Q 1338 2323 1517 2432 
Q 2035 2726 2035 3290 
Q 2035 3610 1852 3776 
Q 1670 3942 1344 3942 
Q 768 3942 390 3264 
z
" transform="scale(0.015625)"/>
       </defs>
       <use xlink:href="#STIXGeneral-Regular-33" transform="translate(0 0.40625)"/>
       <use xlink:href="#STIXGeneral-Regular-30" transform="translate(49.999985 0.40625)"/>
      </g>
     </g>
    </g>
    <g id="ytick_2">
     <g id="line2d_13">
      <g>
       <use xlink:href="#mee35898cd3" x="40.04875" y="172.975403" style="fill: #323034; stroke: #323034; stroke-width: 0.8"/>
      </g>
     </g>
     <g id="text_14">
      <!-- $\mathdefault{35}$ -->
      <g style="fill: #323034" transform="translate(21.04875 177.073215) scale(0.12 -0.12)">
       <defs>
        <path id="STIXGeneral-Regular-35" d="M 2803 4358 
L 2573 3814 
Q 2534 3731 2400 3731 
L 1158 3731 
L 902 3187 
Q 1606 3053 1920 2896 
Q 2234 2739 2502 2368 
Q 2726 2061 2726 1555 
Q 2726 1094 2576 780 
Q 2426 467 2099 224 
Q 1664 -90 1011 -90 
Q 646 -90 422 19 
Q 198 128 198 307 
Q 198 550 486 550 
Q 717 550 960 352 
Q 1210 147 1414 147 
Q 1747 147 2012 480 
Q 2278 813 2278 1229 
Q 2278 1843 1850 2189 
Q 1293 2637 486 2637 
Q 410 2637 410 2688 
L 416 2720 
L 1114 4237 
L 2438 4237 
Q 2547 4237 2608 4269 
Q 2669 4301 2746 4403 
L 2803 4358 
z
" transform="scale(0.015625)"/>
       </defs>
       <use xlink:href="#STIXGeneral-Regular-33" transform="translate(0 0.203125)"/>
       <use xlink:href="#STIXGeneral-Regular-35" transform="translate(49.999985 0.203125)"/>
      </g>
     </g>
    </g>
    <g id="ytick_3">
     <g id="line2d_14">
      <g>
       <use xlink:href="#mee35898cd3" x="40.04875" y="135.700188" style="fill: #323034; stroke: #323034; stroke-width: 0.8"/>
      </g>
     </g>
     <g id="text_15">
      <!-- $\mathdefault{40}$ -->
      <g style="fill: #323034" transform="translate(21.04875 139.798001) scale(0.12 -0.12)">
       <use xlink:href="#STIXGeneral-Regular-34" transform="translate(0 0.40625)"/>
       <use xlink:href="#STIXGeneral-Regular-30" transform="translate(49.999985 0.40625)"/>
      </g>
     </g>
    </g>
    <g id="ytick_4">
     <g id="line2d_15">
      <g>
       <use xlink:href="#mee35898cd3" x="40.04875" y="98.424974" style="fill: #323034; stroke: #323034; stroke-width: 0.8"/>
      </g>
     </g>
     <g id="text_16">
      <!-- $\mathdefault{45}$ -->
      <g style="fill: #323034" transform="translate(21.04875 102.522786) scale(0.12 -0.12)">
       <use xlink:href="#STIXGeneral-Regular-34" transform="translate(0 0.203125)"/>
       <use xlink:href="#STIXGeneral-Regular-35" transform="translate(49.999985 0.203125)"/>
      </g>
     </g>
    </g>
    <g id="ytick_5">
     <g id="line2d_16">
      <g>
       <use xlink:href="#mee35898cd3" x="40.04875" y="61.14976" style="fill: #323034; stroke: #323034; stroke-width: 0.8"/>
      </g>
     </g>
     <g id="text_17">
      <!-- $\mathdefault{50}$ -->
      <g style="fill: #323034" transform="translate(21.04875 65.247572) scale(0.12 -0.12)">
       <use xlink:href="#STIXGeneral-Regular-35" transform="translate(0 0.203125)"/>
       <use xlink:href="#STIXGeneral-Regular-30" transform="translate(49.999985 0.203125)"/>
      </g>
     </g>
    </g>
    <g id="ytick_6">
     <g id="line2d_17">
      <g>
       <use xlink:href="#mee35898cd3" x="40.04875" y="23.874545" style="fill: #323034; stroke: #323034; stroke-width: 0.8"/>
      </g>
     </g>
     <g id="text_18">
      <!-- $\mathdefault{55}$ -->
      <g style="fill: #323034" transform="translate(21.04875 27.972358) scale(0.12 -0.12)">
       <use xlink:href="#STIXGeneral-Regular-35" transform="translate(0 0.203125)"/>
       <use xlink:href="#STIXGeneral-Regular-35" transform="translate(49.999985 0.203125)"/>
      </g>
     </g>
    </g>
    <g id="text_19">
     <!-- Close ($) -->
     <g transform="translate(15.444375 146.868375) rotate(-90) scale(0.12 -0.12)">
      <defs>
       <path id="STIXGeneral-Regular-43" d="M 3930 838 
L 4051 723 
Q 3482 -90 2304 -90 
Q 1376 -90 794 480 
Q 179 1082 179 2080 
Q 179 3014 755 3661 
Q 1357 4326 2310 4326 
Q 2720 4326 3072 4230 
Q 3475 4115 3514 4115 
Q 3725 4115 3782 4326 
L 3910 4326 
L 3968 2874 
L 3821 2874 
Q 3718 3334 3488 3584 
Q 3034 4070 2458 4070 
Q 1747 4070 1334 3548 
Q 922 3027 922 2182 
Q 922 1152 1382 653 
Q 1811 192 2522 192 
Q 2944 192 3251 339 
Q 3558 486 3930 838 
z
" transform="scale(0.015625)"/>
       <path id="STIXGeneral-Regular-6c" d="M 1645 0 
L 134 0 
L 134 96 
Q 435 122 531 221 
Q 627 320 627 589 
L 627 3590 
Q 627 3821 569 3910 
Q 512 4000 358 4000 
Q 224 4000 122 3987 
L 122 4090 
Q 730 4237 1133 4371 
L 1165 4346 
L 1165 557 
Q 1165 288 1254 201 
Q 1344 115 1645 96 
L 1645 0 
z
" transform="scale(0.015625)"/>
       <path id="STIXGeneral-Regular-6f" d="M 3008 1478 
Q 3008 806 2608 371 
Q 2208 -64 1568 -64 
Q 979 -64 582 368 
Q 186 800 186 1459 
Q 186 2125 582 2534 
Q 979 2944 1626 2944 
Q 2221 2944 2614 2537 
Q 3008 2131 3008 1478 
z
M 2432 1306 
Q 2432 2035 2112 2445 
Q 1856 2765 1504 2765 
Q 1171 2765 966 2493 
Q 762 2221 762 1747 
Q 762 928 1101 435 
Q 1318 115 1677 115 
Q 2029 115 2230 432 
Q 2432 749 2432 1306 
z
" transform="scale(0.015625)"/>
       <path id="STIXGeneral-Regular-73" d="M 998 1926 
L 1664 1523 
Q 1984 1331 2105 1164 
Q 2227 998 2227 736 
Q 2227 416 1961 176 
Q 1696 -64 1331 -64 
Q 1030 -64 864 -6 
Q 691 51 570 51 
Q 461 51 416 -26 
L 333 -26 
L 333 979 
L 435 979 
Q 538 512 730 294 
Q 922 77 1248 77 
Q 1485 77 1632 211 
Q 1779 346 1779 550 
Q 1779 845 1440 1030 
L 1094 1222 
Q 326 1651 326 2150 
Q 326 2522 566 2730 
Q 806 2938 1210 2938 
Q 1491 2938 1638 2867 
Q 1754 2816 1818 2816 
Q 1862 2816 1920 2880 
L 1990 2880 
L 2022 2010 
L 1926 2010 
Q 1818 2445 1654 2621 
Q 1491 2797 1203 2797 
Q 986 2797 854 2688 
Q 723 2579 723 2362 
Q 723 2253 796 2128 
Q 870 2003 998 1926 
z
" transform="scale(0.015625)"/>
       <path id="STIXGeneral-Regular-20" transform="scale(0.015625)"/>
       <path id="STIXGeneral-Regular-28" d="M 1946 -1030 
L 1869 -1133 
Q 1126 -710 716 32 
Q 307 774 307 1613 
Q 307 3386 1888 4326 
L 1946 4224 
Q 1293 3667 1075 3126 
Q 858 2586 858 1632 
Q 858 685 1082 96 
Q 1306 -493 1946 -1030 
z
" transform="scale(0.015625)"/>
       <path id="STIXGeneral-Regular-24" d="M 1690 4077 
L 1690 2502 
Q 2234 2208 2445 2045 
Q 2656 1882 2797 1664 
Q 2931 1466 2931 1088 
Q 2931 570 2614 326 
Q 2298 83 1690 0 
L 1690 -557 
L 1472 -557 
L 1472 0 
Q 1062 0 806 73 
Q 550 147 282 326 
L 282 1158 
L 378 1158 
Q 480 685 761 432 
Q 1043 179 1472 179 
L 1472 1984 
Q 800 2362 566 2624 
Q 333 2886 333 3283 
Q 333 3731 659 3974 
Q 986 4218 1472 4250 
L 1472 4653 
L 1690 4653 
L 1690 4250 
Q 2426 4205 2720 3910 
L 2720 3200 
L 2624 3200 
Q 2528 3597 2301 3814 
Q 2074 4032 1690 4077 
z
M 1472 2605 
L 1472 4077 
Q 806 3942 806 3405 
Q 806 3194 937 3037 
Q 1069 2880 1472 2605 
z
M 1690 1875 
L 1690 179 
Q 2086 262 2252 432 
Q 2419 602 2419 941 
Q 2419 1235 2272 1427 
Q 2125 1619 1690 1875 
z
" transform="scale(0.015625)"/>
       <path id="STIXGeneral-Regular-29" d="M 186 4224 
L 262 4326 
Q 992 3891 1408 3148 
Q 1824 2406 1824 1581 
Q 1824 -166 243 -1133 
L 186 -1030 
Q 845 -486 1059 54 
Q 1274 595 1274 1562 
Q 1274 2534 1059 3120 
Q 845 3706 186 4224 
z
" transform="scale(0.015625)"/>
      </defs>
      <use xlink:href="#STIXGeneral-Regular-43"/>
      <use xlink:href="#STIXGeneral-Regular-6c" x="66.699997"/>
      <use xlink:href="#STIXGeneral-Regular-6f" x="94.499985"/>
      <use xlink:href="#STIXGeneral-Regular-73" x="144.499969"/>
      <use xlink:href="#STIXGeneral-Regular-65" x="183.399963"/>
      <use xlink:href="#STIXGeneral-Regular-20" x="227.799957"/>
      <use xlink:href="#STIXGeneral-Regular-28" x="252.799942"/>
      <use xlink:href="#STIXGeneral-Regular-24" x="286.09993"/>
      <use xlink:href="#STIXGeneral-Regular-29" x="336.099915"/>
     </g>
    </g>
   </g>
   <g id="line2d_18">
    <path d="M 56.281477 231.302912 
L 56.651243 231.525818 
L 57.021009 230.478385 
L 57.390775 228.248581 
L 58.500073 226.367674 
L 58.869839 226.144768 
L 59.239605 225.030239 
L 59.609371 225.877132 
L 59.979137 226.271504 
L 61.458201 224.599338 
L 61.827967 224.614248 
L 62.197733 224.970599 
L 62.567499 224.599338 
L 63.676797 224.435327 
L 64.046563 224.658978 
L 64.416329 221.3139 
L 65.155861 221.19462 
L 66.265159 221.782077 
L 66.634925 222.227889 
L 67.004691 209.347811 
L 67.374457 209.689252 
L 67.744223 208.797629 
L 68.853521 206.605101 
L 69.223287 204.508743 
L 69.593053 203.64694 
L 69.962819 201.900223 
L 70.332585 202.44295 
L 71.441883 200.377158 
L 71.811649 197.388431 
L 72.181415 196.511718 
L 72.551181 196.787555 
L 72.920947 196.133002 
L 74.400011 194.416106 
L 74.769777 193.701913 
L 75.139543 194.779912 
L 75.509309 194.483201 
L 76.988373 193.925564 
L 77.358139 188.997781 
L 77.727905 190.499226 
L 78.097671 189.012691 
L 79.206969 189.815599 
L 79.576735 189.488322 
L 79.946501 190.424676 
L 80.316267 190.989768 
L 80.686033 190.17195 
L 81.795331 190.053415 
L 82.165097 190.447041 
L 82.534863 187.831066 
L 82.904629 187.44415 
L 83.274395 188.678705 
L 84.383693 186.091059 
L 84.753459 188.92323 
L 85.123225 186.16561 
L 85.492991 187.050523 
L 85.862757 187.5187 
L 86.972055 187.125074 
L 87.341821 181.99675 
L 87.711587 181.454023 
L 88.081353 181.773844 
L 88.451119 182.256931 
L 89.560417 182.18238 
L 89.930183 180.294018 
L 90.299949 181.602378 
L 91.039481 182.829478 
L 92.148779 183.126189 
L 92.518545 185.816714 
L 92.888311 185.497638 
L 93.258077 186.812708 
L 94.737141 185.445453 
L 95.476673 187.466515 
L 95.846439 184.367454 
L 96.216205 184.65 
L 97.325503 182.294206 
L 97.695269 180.710755 
L 98.065035 182.219656 
L 98.434801 182.01837 
L 98.804567 182.271841 
L 100.283631 175.47806 
L 101.023163 177.217322 
L 101.392929 172.951546 
L 102.871993 164.121794 
L 103.241759 165.444318 
L 103.611525 163.1258 
L 103.981291 159.320001 
L 105.090589 160.033448 
L 105.460355 160.420365 
L 105.830121 169.613924 
L 106.199887 165.571054 
L 106.569653 164.67123 
L 107.678951 163.051249 
L 108.048717 163.326341 
L 108.418483 164.158323 
L 108.788249 163.214515 
L 109.158015 163.675237 
L 110.637079 163.564902 
L 111.006845 165.221412 
L 111.376611 164.456525 
L 111.746377 160.441984 
L 112.855675 163.139964 
L 113.225441 162.234177 
L 113.595207 160.591085 
L 113.964973 161.282913 
L 114.334739 171.866092 
L 115.444037 178.123855 
L 115.813803 176.005877 
L 116.183569 178.592032 
L 116.553335 180.071858 
L 116.923101 183.654006 
L 118.032399 176.474054 
L 118.402165 178.838048 
L 118.771931 177.314237 
L 119.141697 177.730229 
L 119.511463 176.58588 
L 120.620761 177.403698 
L 120.990527 181.082762 
L 121.360293 177.388788 
L 121.730059 181.178932 
L 122.099825 180.5624 
L 123.209123 181.498753 
L 123.948655 180.443119 
L 124.318421 182.859298 
L 124.688187 180.271653 
L 125.797485 178.741133 
L 126.167251 177.916605 
L 126.537017 177.543853 
L 126.906783 173.98407 
L 127.276549 171.746811 
L 128.385847 170.810458 
L 128.755613 169.903925 
L 129.125379 168.246669 
L 129.495145 169.458113 
L 129.864911 169.591559 
L 131.713741 163.936163 
L 132.083507 169.071197 
L 132.453273 170.907374 
L 133.562571 172.311904 
L 133.932337 169.963565 
L 134.302103 157.506934 
L 134.671869 160.257099 
L 136.150933 154.526408 
L 136.890465 150.587163 
L 137.260231 159.617457 
L 137.629997 155.790038 
L 138.739295 151.642797 
L 139.109061 148.558646 
L 139.478827 149.679885 
L 139.848593 155.120575 
L 140.218359 155.760218 
L 141.327657 156.29549 
L 141.697423 151.769533 
L 142.067189 151.397526 
L 142.436955 152.653701 
L 143.916019 148.795717 
L 144.285785 146.172287 
L 144.655551 145.406654 
L 145.025317 144.313745 
L 145.395083 144.240685 
L 146.874147 147.703553 
L 147.243913 148.001009 
L 147.613679 149.122993 
L 147.983445 153.730955 
L 149.092743 148.736822 
L 149.462509 149.843896 
L 150.202041 154.363143 
L 150.571807 151.583157 
L 151.681105 153.65715 
L 152.050871 153.5826 
L 152.790403 163.051249 
L 153.160169 165.66797 
L 154.269467 168.023763 
L 154.639233 163.430711 
L 155.008998 161.557259 
L 155.378764 163.214515 
L 155.74853 161.758545 
L 156.857828 162.307982 
L 157.227594 161.133812 
L 157.59736 162.910349 
L 157.967126 159.491467 
L 158.336892 159.662187 
L 159.44619 158.673648 
L 159.815956 158.562568 
L 160.185722 157.469659 
L 160.555488 158.406012 
L 162.034552 151.583157 
L 162.404318 150.513358 
L 162.774084 151.806063 
L 163.14385 158.420922 
L 163.513616 158.019841 
L 164.622914 158.131667 
L 164.99268 156.503485 
L 165.362446 157.722385 
L 165.732212 155.924229 
L 166.101978 145.912106 
L 167.211276 139.497787 
L 167.581042 135.365457 
L 167.950808 139.223441 
L 168.320574 137.023458 
L 168.69034 129.300779 
L 170.169404 125.220634 
L 170.53917 122.671755 
L 170.908936 123.303197 
L 171.278702 124.358832 
L 172.388 125.562075 
L 173.127532 134.265838 
L 173.497298 130.63896 
L 173.867064 132.355856 
L 174.976362 132.674932 
L 175.346128 127.041901 
L 175.715894 123.845925 
L 176.455426 123.823559 
L 177.564724 125.3839 
L 177.93449 127.160437 
L 178.304256 133.530025 
L 178.674022 129.36042 
L 179.043788 130.735875 
L 180.153086 132.958223 
L 180.522852 133.232569 
L 180.892618 134.318023 
L 181.262384 133.827481 
L 181.63215 133.730566 
L 182.741448 127.888794 
L 183.111214 129.635511 
L 183.48098 128.594787 
L 183.850746 128.691702 
L 184.220512 125.562075 
L 185.32981 121.22995 
L 185.699576 124.610812 
L 186.069342 124.909014 
L 186.439108 123.749009 
L 186.808874 123.749009 
L 188.287938 131.620043 
L 188.657704 131.567858 
L 189.02747 130.68369 
L 189.397236 133.990747 
L 190.8763 128.617152 
L 191.246066 128.669337 
L 191.615832 127.226787 
L 191.985598 123.771374 
L 193.094896 124.834463 
L 193.834428 125.026803 
L 194.204194 123.251012 
L 194.57396 120.099766 
L 196.053024 121.638486 
L 196.42279 116.487052 
L 196.792556 116.197796 
L 197.162322 117.609781 
L 198.27162 120.218301 
L 198.641386 120.151951 
L 199.380918 130.62405 
L 199.750684 129.954587 
L 201.229748 137.988886 
L 201.96928 136.570192 
L 202.339046 149.457724 
L 203.448344 156.592946 
L 203.81811 144.968298 
L 204.557642 158.918919 
L 204.927408 155.551476 
L 206.776238 136.06474 
L 207.146004 126.053363 
L 207.51577 127.064267 
L 208.994834 128.104245 
L 209.3646 129.508775 
L 209.734366 126.937531 
L 210.104132 121.578846 
L 211.21343 115.424708 
L 211.583196 116.442321 
L 211.952962 116.903789 
L 212.322728 122.477924 
L 212.692494 120.345036 
L 213.801792 119.289402 
L 214.171558 119.564493 
L 214.541324 122.425739 
L 214.91109 119.067242 
L 215.280856 113.641462 
L 216.390154 110.54911 
L 217.129686 116.361807 
L 217.499452 115.989055 
L 217.869218 117.089419 
L 218.978516 121.950107 
L 219.348282 122.039568 
L 219.718048 129.152424 
L 220.087814 133.418945 
L 220.45758 140.360336 
L 221.566878 126.454444 
L 221.936644 134.362754 
L 222.30641 137.647445 
L 222.676176 135.313271 
L 224.15524 137.298549 
L 224.525006 134.265838 
L 224.894772 128.528437 
L 225.264538 126.402259 
L 225.634304 134.288203 
L 226.743602 131.307677 
L 227.113368 125.584441 
L 227.483134 127.041901 
L 227.8529 124.04572 
L 228.222666 122.953556 
L 229.331964 121.028664 
L 229.70173 116.703248 
L 230.071496 117.424151 
L 230.441262 126.402259 
L 230.811028 139.0147 
L 231.920326 139.839974 
L 232.290092 144.002124 
L 233.029624 141.66795 
L 233.39939 145.042848 
L 234.508688 139.810153 
L 234.878454 132.973134 
L 235.24822 119.735214 
L 235.617986 119.155212 
L 235.987752 106.758966 
L 237.09705 104.417337 
L 237.466816 102.812267 
L 237.836582 100.515368 
L 238.206348 95.75085 
L 238.576114 97.015225 
L 239.685412 97.809933 
L 240.055178 100.87992 
L 240.424944 97.750293 
L 240.79471 99.875725 
L 241.164476 101.09537 
L 242.273774 98.724667 
L 242.64354 99.556649 
L 243.013306 97.423762 
L 243.383072 97.809933 
L 243.752838 97.030135 
L 245.231902 98.270655 
L 245.601668 98.961737 
L 245.971434 100.099377 
L 246.3412 94.063774 
L 247.450498 91.218184 
L 247.820264 88.593263 
L 248.19003 87.382564 
L 248.559796 88.318918 
L 248.929562 91.440344 
L 250.03886 92.302893 
L 250.408626 90.466716 
L 250.778392 93.224336 
L 251.148158 93.045415 
L 251.517924 96.561959 
L 252.627222 96.731934 
L 252.996988 102.202444 
L 253.366754 100.768094 
L 253.73652 102.588615 
L 254.106286 103.562989 
L 255.215584 108.490027 
L 255.58535 104.454613 
L 255.955116 104.952609 
L 256.324882 102.52152 
L 256.694648 103.228258 
L 257.803946 99.519374 
L 258.173712 105.376056 
L 258.913244 102.692986 
L 259.28301 98.137209 
L 260.392308 93.447242 
L 260.762074 93.871434 
L 261.13184 98.30793 
L 261.501606 92.614513 
L 261.871372 92.109807 
L 262.98067 92.838165 
L 263.350436 91.886156 
L 263.720202 93.781973 
L 264.089968 91.128723 
L 264.459734 91.908521 
L 265.569032 91.589445 
L 265.938798 89.150901 
L 266.308564 85.902738 
L 266.67833 86.959118 
L 267.048096 92.711429 
L 268.157394 94.666141 
L 268.52716 93.989223 
L 268.896926 73.92994 
L 269.266692 63.427275 
L 269.636458 62.357477 
L 270.745756 60.417674 
L 271.115522 63.947637 
L 271.485288 63.695657 
L 271.855054 60.76657 
L 272.22482 61.866935 
L 273.334118 59.518596 
L 273.703884 57.89116 
L 274.07365 57.028612 
L 274.443416 51.514117 
L 274.813182 43.888353 
L 275.92248 47.678497 
L 276.292246 48.421765 
L 276.662012 48.406855 
L 277.031778 47.627057 
L 277.401544 46.407412 
L 278.510842 43.241256 
L 278.880608 40.075099 
L 279.250374 34.210962 
L 279.989906 25.857587 
L 281.46897 24.511951 
L 281.838736 27.217386 
L 282.208502 33.988056 
L 282.578267 37.184033 
L 283.687565 42.520353 
L 284.057331 32.605891 
L 284.427097 37.593315 
L 284.796863 28.049369 
L 285.166629 32.628257 
L 286.275927 43.345626 
L 286.645693 42.684364 
L 287.015459 42.446548 
L 287.385225 39.503297 
L 287.754991 43.739252 
L 288.864289 38.113677 
L 289.234055 35.615492 
L 289.603821 38.781649 
L 289.973587 30.651179 
L 290.343353 29.230994 
L 291.452651 26.533014 
L 291.822417 22.899426 
L 292.192183 17.882182 
L 292.931715 31.788073 
L 294.041013 32.754992 
L 294.410779 27.217386 
L 294.780545 46.051061 
L 295.150311 49.499019 
L 295.520077 35.764593 
L 296.629375 44.259614 
L 296.999141 35.690043 
L 297.368907 37.369664 
L 297.738673 46.653429 
L 298.108439 40.759472 
L 299.217737 38.373113 
L 299.587503 34.656774 
L 299.957269 48.33305 
L 300.327035 39.904378 
L 300.696801 46.147977 
L 301.806099 53.416644 
L 302.175865 51.536482 
L 302.545631 41.561634 
L 302.915397 35.555852 
L 303.285163 61.94894 
L 304.394461 72.509754 
L 304.764227 68.63835 
L 305.133993 57.555683 
L 305.503759 58.864789 
L 305.873525 66.07307 
L 306.982823 84.610034 
L 307.352589 88.095267 
L 307.722355 97.884483 
L 308.092121 89.612368 
L 308.461887 85.777494 
L 309.571185 99.556649 
L 309.940951 115.535788 
L 310.310717 115.87872 
L 311.050249 123.99428 
L 312.159547 119.824674 
L 312.529313 120.471027 
L 312.899079 108.415477 
L 313.268845 110.928572 
L 313.638611 112.667833 
L 314.747909 101.436811 
L 315.117675 116.02633 
L 315.857207 119.639044 
L 316.226973 130.80968 
L 317.336271 128.817693 
L 317.706037 130.549499 
L 318.075803 129.710061 
L 318.445569 126.379894 
L 318.815335 136.228005 
L 319.924633 138.99979 
L 320.294399 135.150752 
L 321.403697 162.776158 
L 322.512995 169.763025 
L 323.252527 151.182076 
L 323.622293 153.024962 
L 323.992059 152.875861 
L 325.101357 150.141352 
L 325.840889 149.828985 
L 326.210655 178.123855 
L 326.580421 167.2134 
L 327.689719 167.823222 
L 328.429251 158.131667 
L 328.799017 157.246753 
L 329.168783 159.944733 
L 330.278081 164.047243 
L 330.647847 158.525293 
L 331.017613 155.165305 
L 331.757145 151.820973 
L 333.236209 158.146577 
L 333.605975 157.053667 
L 333.975741 159.216375 
L 334.345507 150.104077 
L 335.454805 152.750617 
L 335.824571 155.640937 
L 336.194337 136.658907 
L 336.564103 134.488744 
L 336.933869 134.362754 
L 338.043167 125.830457 
L 338.412933 120.582852 
L 338.782699 120.471027 
L 339.152465 126.402259 
L 339.522231 126.030998 
L 340.631529 127.821699 
L 341.001295 125.183359 
L 341.371061 126.454444 
L 341.740827 125.339915 
L 342.110593 126.008633 
L 343.589657 125.116264 
L 343.959423 123.102657 
L 344.329189 124.879194 
L 344.698955 121.42229 
L 345.808253 119.155212 
L 346.178019 118.970327 
L 346.547785 117.989243 
L 346.917551 121.080849 
L 347.287317 117.810322 
L 348.396615 116.197796 
L 348.766381 116.777798 
L 349.136147 118.635595 
L 349.505913 122.255018 
L 349.875679 121.526661 
L 351.354743 107.055677 
L 351.724509 105.628782 
L 352.464041 97.661578 
L 353.573339 94.227785 
L 353.943105 96.925765 
L 354.312871 93.966858 
L 354.682637 81.481152 
L 355.052403 88.764729 
L 356.161701 92.89706 
L 356.531467 96.442678 
L 356.901233 93.395056 
L 357.270999 92.934335 
L 357.640765 90.756717 
L 358.750063 88.408378 
L 359.119829 83.376224 
L 359.489595 80.998066 
L 359.859361 80.396444 
L 360.229127 78.002629 
L 361.338425 72.376309 
L 361.708191 73.484128 
L 362.077957 71.476485 
L 362.447723 74.487577 
L 362.817489 74.635932 
L 363.926787 73.967215 
L 364.296553 73.92994 
L 364.666319 66.936364 
L 365.036085 65.627258 
L 366.515149 64.409104 
L 366.884915 59.087695 
L 367.254681 59.666952 
L 367.624447 63.041104 
L 367.994213 64.810186 
L 369.103511 64.260749 
L 369.473277 71.38106 
L 369.843043 53.564999 
L 370.212809 56.054983 
L 370.582575 51.365016 
L 371.691873 57.288793 
L 372.061639 67.41125 
L 372.431405 67.35981 
L 373.170937 76.308098 
L 374.280235 97.08903 
L 375.019767 87.65691 
L 375.759299 91.143634 
L 376.868597 101.868458 
L 377.238363 95.51378 
L 377.977895 108.081491 
L 378.347661 109.345121 
L 379.826725 110.6751 
L 380.196491 112.221276 
L 380.566257 110.54911 
L 380.936023 116.398337 
L 380.936023 116.398337 
" clip-path="url(#p072d8060e2)" style="fill: none; stroke: #bc80bd; stroke-opacity: 0.5; stroke-width: 2; stroke-linecap: square"/>
   </g>
   <g id="line2d_19">
    <path d="M 56.281477 231.302912 
L 56.651243 231.414365 
L 57.021009 231.102372 
L 57.390775 230.388924 
L 58.500073 229.584674 
L 59.239605 228.442625 
L 59.979137 227.916335 
L 61.458201 227.584635 
L 62.197733 227.119267 
L 62.567499 226.925426 
L 64.046563 226.608323 
L 65.155861 225.713908 
L 66.634925 225.343016 
L 67.744223 223.247609 
L 68.853521 222.554171 
L 70.332585 219.778534 
L 71.441883 219.109521 
L 72.920947 216.393843 
L 74.400011 215.747439 
L 75.509309 214.010215 
L 76.618607 213.484418 
L 78.097671 211.305789 
L 79.206969 210.806018 
L 80.316267 209.468729 
L 80.686033 209.058159 
L 81.795331 208.662227 
L 83.274395 207.118997 
L 84.383693 206.722244 
L 85.862757 205.367315 
L 86.972055 205.052794 
L 88.451119 203.557155 
L 89.560417 203.217873 
L 91.039481 201.935952 
L 92.148779 201.659338 
L 93.258077 200.999465 
L 94.737141 200.783437 
L 96.216205 199.992684 
L 97.325503 199.762834 
L 98.804567 198.876035 
L 99.913865 198.610722 
L 101.392929 197.53462 
L 102.502227 197.170633 
L 103.981291 195.668758 
L 105.090589 195.281418 
L 105.830121 194.637497 
L 106.569653 194.022573 
L 107.678951 193.703281 
L 109.158015 192.510818 
L 110.637079 192.227035 
L 111.746377 191.402643 
L 112.855675 191.136014 
L 114.334739 190.149015 
L 115.813803 189.91537 
L 116.923101 189.676864 
L 118.402165 189.47138 
L 119.511463 189.164848 
L 121.360293 188.907781 
L 122.099825 188.779187 
L 124.688187 188.546288 
L 126.167251 188.390297 
L 129.495145 187.542194 
L 129.864911 187.413053 
L 131.343975 187.106553 
L 132.453273 186.707907 
L 133.932337 186.494617 
L 135.041635 185.938006 
L 136.150933 185.728595 
L 137.629997 184.919882 
L 138.739295 184.705191 
L 140.218359 183.889459 
L 141.327657 183.716996 
L 142.806721 182.940004 
L 143.916019 182.733069 
L 145.395083 181.840767 
L 146.874147 181.63996 
L 147.983445 181.096232 
L 149.092743 180.910259 
L 150.571807 180.25949 
L 152.050871 179.963495 
L 153.160169 179.674508 
L 154.639233 179.523727 
L 155.74853 179.246914 
L 157.227594 179.062429 
L 158.336892 178.776816 
L 159.815956 178.57006 
L 160.925254 178.25122 
L 162.404318 177.97919 
L 163.513616 177.65559 
L 164.99268 177.457171 
L 167.581042 176.729247 
L 168.69034 176.144083 
L 169.799638 175.910603 
L 171.278702 174.956071 
L 172.388 174.730527 
L 173.867064 173.961845 
L 174.976362 173.777529 
L 175.715894 173.349797 
L 176.455426 173.13162 
L 177.564724 172.9222 
L 179.043788 172.185554 
L 180.522852 171.85145 
L 181.63215 171.371795 
L 182.741448 171.189093 
L 184.220512 170.477224 
L 185.32981 170.27456 
L 186.808874 169.529295 
L 188.287938 169.376436 
L 189.397236 168.930671 
L 190.8763 168.770696 
L 191.985598 168.274051 
L 193.464662 167.936461 
L 194.57396 167.415569 
L 196.053024 167.240178 
L 197.162322 166.666595 
L 198.27162 166.491319 
L 199.750684 165.896221 
L 201.229748 165.683765 
L 202.339046 165.414207 
L 204.187876 165.257358 
L 206.406472 165.041255 
L 207.51577 164.668222 
L 209.3646 164.417441 
L 210.104132 164.138557 
L 211.583196 163.806109 
L 212.692494 163.356649 
L 214.171558 163.058821 
L 215.280856 162.609015 
L 216.75992 162.272307 
L 217.869218 161.818919 
L 219.348282 161.557777 
L 220.45758 161.292382 
L 222.30641 161.017744 
L 222.676176 160.935358 
L 224.525006 160.775147 
L 225.634304 160.481435 
L 227.113368 160.280586 
L 228.222666 159.948907 
L 229.70173 159.695309 
L 230.811028 159.400982 
L 233.029624 159.191337 
L 235.24822 158.895206 
L 235.987752 158.622576 
L 237.466816 158.298046 
L 238.576114 157.767015 
L 240.055178 157.427352 
L 241.164476 156.927177 
L 242.64354 156.596022 
L 243.752838 156.091692 
L 245.231902 155.927893 
L 246.3412 155.437278 
L 247.450498 155.257393 
L 248.929562 154.522505 
L 250.03886 154.350628 
L 251.517924 153.683676 
L 252.996988 153.389022 
L 254.106286 152.975956 
L 255.58535 152.726607 
L 256.694648 152.33438 
L 258.173712 152.070429 
L 260.392308 151.645406 
L 261.871372 151.04884 
L 263.350436 150.745549 
L 264.459734 150.295761 
L 265.938798 149.990018 
L 267.048096 149.523191 
L 268.52716 149.245128 
L 269.636458 148.625076 
L 270.745756 148.405108 
L 272.22482 147.557346 
L 273.334118 147.340501 
L 274.813182 146.416014 
L 275.92248 146.175777 
L 277.401544 145.226765 
L 278.510842 144.981607 
L 279.989906 143.911946 
L 281.46897 143.628336 
L 282.578267 142.844148 
L 283.687565 142.608092 
L 285.166629 141.583487 
L 286.275927 141.355027 
L 287.754991 140.440173 
L 288.864289 140.20494 
L 290.343353 139.233322 
L 291.452651 138.977184 
L 292.931715 137.945313 
L 294.041013 137.70893 
L 295.520077 136.835203 
L 296.629375 136.629479 
L 298.108439 135.779159 
L 299.217737 135.56508 
L 300.696801 134.751968 
L 301.806099 134.575153 
L 303.285163 133.825804 
L 304.764227 133.554337 
L 305.873525 133.089157 
L 307.722355 132.816535 
L 308.461887 132.626148 
L 317.706037 132.145903 
L 320.664165 132.182455 
L 323.992059 132.478529 
L 326.210655 132.638566 
L 326.580421 132.707031 
L 328.799017 132.933215 
L 331.017613 133.139744 
L 331.757145 133.215612 
L 335.454805 133.429445 
L 336.564103 133.480115 
L 339.522231 133.390889 
L 345.808253 133.22498 
L 354.312871 132.53176 
L 355.052403 132.361836 
L 356.901233 132.158002 
L 357.640765 132.014796 
L 359.119829 131.851531 
L 360.229127 131.576606 
L 361.708191 131.370829 
L 362.817489 131.068015 
L 364.296553 130.869339 
L 365.036085 130.645465 
L 366.884915 130.407479 
L 367.994213 130.057471 
L 369.473277 129.844332 
L 370.582575 129.454983 
L 372.061639 129.227123 
L 373.170937 128.93535 
L 375.019767 128.749934 
L 375.759299 128.620712 
L 380.936023 128.30638 
L 380.936023 128.30638 
" clip-path="url(#p072d8060e2)" style="fill: none; stroke-dasharray: 2,3.3; stroke-dashoffset: 0; stroke: #fb8072; stroke-width: 2"/>
   </g>
   <g id="line2d_20">
    <path d="M 56.281477 231.302912 
L 56.651243 231.416063 
L 57.021009 231.093936 
L 57.390775 230.349775 
L 58.500073 229.504115 
L 59.239605 228.296029 
L 59.979137 227.749145 
L 61.458201 227.389271 
L 62.197733 226.888505 
L 62.567499 226.678473 
L 64.046563 226.335294 
L 65.155861 225.281146 
L 66.634925 224.857169 
L 67.744223 222.155218 
L 68.853521 221.255644 
L 70.332585 217.625145 
L 71.441883 216.743032 
L 72.920947 213.115327 
L 74.400011 212.245584 
L 75.509309 209.93113 
L 76.618607 209.235452 
L 77.358139 207.740825 
L 78.097671 206.267249 
L 79.206969 205.591257 
L 80.316267 203.821368 
L 80.686033 203.283332 
L 81.795331 202.766698 
L 83.274395 200.719161 
L 84.383693 200.171276 
L 85.862757 198.393308 
L 86.972055 197.985576 
L 88.451119 195.808081 
L 89.560417 195.328998 
L 90.669715 193.924927 
L 91.039481 193.542357 
L 92.148779 193.184809 
L 93.258077 192.481017 
L 94.737141 192.243442 
L 96.216205 191.413847 
L 97.325503 191.111267 
L 98.434801 190.207092 
L 98.804567 189.946971 
L 99.913865 189.527675 
L 101.392929 187.785848 
L 102.502227 187.078315 
L 103.981291 184.124574 
L 105.090589 183.355157 
L 105.460355 182.624087 
L 106.199887 181.681716 
L 106.569653 181.142435 
L 107.678951 180.569867 
L 109.158015 178.528445 
L 110.637079 178.058513 
L 111.746377 176.717069 
L 112.855675 176.292957 
L 113.964973 174.939983 
L 114.334739 174.844415 
L 116.183569 175.091106 
L 116.923101 175.505408 
L 118.402165 175.637312 
L 119.511463 175.777636 
L 120.620761 175.827673 
L 121.360293 176.032258 
L 122.099825 176.324418 
L 123.948655 176.604402 
L 124.688187 176.902293 
L 126.906783 176.912574 
L 127.276549 176.75494 
L 128.385847 176.573636 
L 129.864911 175.727178 
L 130.974209 175.44233 
L 132.083507 174.617912 
L 132.453273 174.505192 
L 133.562571 174.438589 
L 133.932337 174.302748 
L 135.041635 172.939813 
L 136.150933 172.381623 
L 136.890465 171.133502 
L 137.629997 170.330711 
L 138.739295 169.765037 
L 139.478827 168.535071 
L 140.218359 167.755317 
L 141.327657 167.408873 
L 142.806721 165.61353 
L 143.916019 165.105661 
L 145.395083 162.786743 
L 146.874147 162.331681 
L 147.613679 161.51406 
L 147.983445 161.279359 
L 149.092743 160.901195 
L 149.832275 160.310037 
L 150.571807 159.873245 
L 151.681105 159.685959 
L 152.050871 159.502094 
L 152.420637 159.465486 
L 155.378764 160.244806 
L 157.59736 160.450939 
L 160.555488 160.15447 
L 162.034552 159.796087 
L 162.774084 159.285138 
L 165.732212 158.972295 
L 166.101978 158.579793 
L 167.211276 158.006347 
L 168.69034 155.380485 
L 169.799638 154.503156 
L 171.278702 150.986045 
L 172.388 150.222358 
L 173.497298 148.604758 
L 173.867064 148.116743 
L 174.976362 147.652984 
L 175.715894 146.337643 
L 176.455426 145.661548 
L 177.564724 145.052632 
L 177.93449 144.515364 
L 178.674022 143.740361 
L 179.043788 143.349893 
L 180.153086 143.037885 
L 181.63215 141.975257 
L 182.741448 141.552362 
L 184.220512 140.005396 
L 185.32981 139.441789 
L 186.808874 137.697111 
L 188.287938 137.514704 
L 189.397236 137.042115 
L 190.8763 136.789249 
L 191.615832 136.265857 
L 191.985598 135.890864 
L 193.094896 135.559035 
L 194.57396 134.148892 
L 196.053024 133.773448 
L 197.162322 132.288665 
L 198.27162 131.926441 
L 198.641386 131.573099 
L 199.011152 131.380456 
L 199.750684 131.315651 
L 200.859982 131.463061 
L 201.96928 131.96651 
L 202.339046 132.491371 
L 203.81811 133.567275 
L 204.187876 134.0974 
L 204.927408 135.463607 
L 206.776238 135.907722 
L 207.51577 135.35556 
L 208.994834 135.137983 
L 209.734366 134.728094 
L 210.104132 134.333556 
L 211.21343 133.766205 
L 211.952962 132.756065 
L 212.692494 132.084551 
L 213.801792 131.700647 
L 215.280856 130.196974 
L 216.390154 129.607473 
L 217.129686 128.745836 
L 217.869218 128.02485 
L 218.978516 127.842591 
L 219.348282 127.668484 
L 219.718048 127.713006 
L 220.087814 127.884199 
L 220.45758 128.258515 
L 221.566878 128.204388 
L 222.676176 128.866329 
L 224.894772 129.251361 
L 225.264538 129.165882 
L 225.634304 129.319561 
L 226.743602 129.379209 
L 229.331964 128.626337 
L 230.071496 127.943275 
L 230.441262 127.897042 
L 230.811028 128.230588 
L 231.920326 128.578885 
L 233.39939 130.274687 
L 234.878454 130.633136 
L 235.617986 129.971645 
L 235.987752 129.275241 
L 237.09705 128.529478 
L 238.206348 126.004911 
L 238.576114 125.135195 
L 239.685412 124.315413 
L 241.164476 121.516023 
L 242.273774 120.832265 
L 243.752838 118.204911 
L 245.231902 117.606871 
L 246.3412 115.86478 
L 247.450498 115.125368 
L 248.929562 112.125149 
L 250.03886 111.530471 
L 251.148158 109.84862 
L 251.517924 109.450014 
L 252.996988 108.862483 
L 253.73652 108.438715 
L 254.106286 108.292441 
L 255.215584 108.298369 
L 258.173712 107.466055 
L 258.913244 107.322861 
L 259.28301 107.047289 
L 260.392308 106.639284 
L 261.871372 105.210512 
L 262.98067 104.839339 
L 264.459734 103.385648 
L 265.569032 103.03176 
L 267.048096 101.390865 
L 268.157394 101.189122 
L 268.52716 100.973124 
L 268.896926 100.161824 
L 269.636458 97.958707 
L 270.745756 96.83247 
L 272.22482 92.898223 
L 273.334118 91.89683 
L 274.443416 88.710793 
L 274.813182 87.366115 
L 275.92248 86.175482 
L 277.401544 81.760868 
L 278.510842 80.605276 
L 279.62014 76.608742 
L 279.989906 75.086203 
L 281.46897 73.568971 
L 282.208502 71.032706 
L 282.578267 70.017244 
L 283.687565 69.192335 
L 285.166629 65.004454 
L 286.275927 64.354688 
L 287.754991 61.801306 
L 288.864289 61.090676 
L 290.343353 57.921859 
L 291.452651 56.980192 
L 292.561949 53.926676 
L 292.931715 53.262517 
L 294.041013 52.64729 
L 294.410779 51.884392 
L 295.150311 51.643081 
L 295.520077 51.166726 
L 296.629375 50.959512 
L 297.368907 50.107474 
L 297.738673 50.003853 
L 298.108439 49.726521 
L 299.217737 49.385919 
L 299.587503 48.944044 
L 299.957269 48.925714 
L 300.327035 48.655074 
L 300.696801 48.579861 
L 302.175865 48.80931 
L 302.545631 48.591879 
L 302.915397 48.200798 
L 303.285163 48.613243 
L 304.394461 49.330139 
L 304.764227 49.909385 
L 305.503759 50.400555 
L 305.873525 50.870731 
L 306.982823 51.882911 
L 308.461887 56.287665 
L 309.571185 57.585735 
L 310.310717 61.020873 
L 311.050249 62.910076 
L 312.159547 64.617515 
L 312.899079 67.556792 
L 313.638611 70.172243 
L 314.747909 71.110181 
L 315.117675 72.457666 
L 315.857207 73.873108 
L 316.226973 75.581205 
L 317.336271 77.178301 
L 318.815335 83.325688 
L 319.924633 84.995911 
L 320.664165 88.240544 
L 321.403697 92.32637 
L 323.252527 96.345449 
L 323.992059 99.690736 
L 325.101357 101.204255 
L 325.840889 102.662997 
L 326.580421 106.795421 
L 327.689719 108.626256 
L 328.799017 113.053337 
L 329.168783 114.460079 
L 330.278081 115.947694 
L 331.387379 119.418247 
L 331.757145 120.390329 
L 333.236209 121.523016 
L 334.345507 124.480249 
L 335.454805 125.32836 
L 335.824571 126.237737 
L 336.564103 126.788524 
L 336.933869 127.015751 
L 338.043167 126.980192 
L 338.782699 126.598754 
L 343.589657 126.472586 
L 346.178019 125.758899 
L 347.287317 125.164997 
L 348.396615 124.895981 
L 349.136147 124.47193 
L 349.875679 124.31906 
L 350.984977 123.910636 
L 352.094275 122.244936 
L 352.464041 121.507435 
L 353.573339 120.689045 
L 354.312871 119.195868 
L 355.052403 117.185436 
L 356.161701 116.456784 
L 357.270999 114.515076 
L 357.640765 113.802326 
L 358.750063 113.040507 
L 360.229127 109.322753 
L 361.338425 108.214359 
L 362.817489 104.237637 
L 363.926787 103.329524 
L 364.666319 101.382201 
L 365.036085 100.309553 
L 366.515149 99.23254 
L 367.624447 95.862269 
L 367.994213 94.930707 
L 369.103511 94.010608 
L 369.473277 93.331722 
L 370.582575 89.865472 
L 371.691873 88.888172 
L 372.801171 87.127346 
L 373.170937 86.802769 
L 376.868597 87.868473 
L 377.238363 88.097832 
L 377.977895 89.114945 
L 378.347661 89.72185 
L 379.826725 90.350448 
L 380.936023 92.337013 
L 380.936023 92.337013 
" clip-path="url(#p072d8060e2)" style="fill: none; stroke-dasharray: 7.4,3.2; stroke-dashoffset: 0; stroke: #b3de69; stroke-width: 2"/>
   </g>
   <g id="line2d_21">
    <path d="M 70.332585 219.778534 
L 71.441883 218.674043 
L 72.920947 214.038338 
L 74.400011 212.905171 
L 75.509309 209.540391 
L 76.618607 208.448626 
L 77.727905 204.849997 
L 78.097671 203.584903 
L 79.206969 202.340497 
L 80.686033 197.896466 
L 81.795331 196.747378 
L 83.274395 193.888848 
L 84.383693 193.231074 
L 85.862757 191.134316 
L 86.972055 190.767768 
L 88.451119 188.754666 
L 89.560417 188.343255 
L 90.669715 186.945407 
L 91.039481 186.549119 
L 92.518545 186.172186 
L 93.258077 185.939403 
L 95.106907 185.656723 
L 95.846439 185.323589 
L 96.216205 185.13061 
L 97.325503 184.839438 
L 98.434801 184.160683 
L 99.913865 183.602753 
L 101.392929 181.961259 
L 102.502227 181.385223 
L 103.611525 179.499763 
L 103.981291 178.68325 
L 105.090589 177.959658 
L 105.460355 177.203157 
L 106.199887 176.135249 
L 106.569653 175.476143 
L 107.678951 174.663091 
L 109.158015 171.451166 
L 110.637079 170.597537 
L 111.746377 168.412118 
L 112.855675 167.784589 
L 113.964973 165.555958 
L 114.334739 165.368303 
L 116.183569 165.503133 
L 116.553335 165.75743 
L 116.923101 166.392653 
L 118.032399 166.833805 
L 118.771931 167.818883 
L 119.511463 169.067549 
L 120.620761 169.674097 
L 121.360293 170.50576 
L 122.099825 171.720719 
L 123.209123 172.369734 
L 123.948655 172.951333 
L 124.688187 174.245662 
L 125.797485 174.78767 
L 127.276549 176.499508 
L 128.385847 176.805804 
L 129.125379 177.387111 
L 129.495145 177.301111 
L 129.864911 176.996386 
L 130.974209 176.652097 
L 132.453273 174.879474 
L 133.562571 174.646397 
L 133.932337 174.383873 
L 135.041635 172.413479 
L 136.150933 171.465037 
L 137.629997 167.813025 
L 138.739295 166.784442 
L 139.478827 164.466856 
L 140.218359 162.831965 
L 141.327657 162.073095 
L 142.436955 159.904503 
L 142.806721 159.251521 
L 143.916019 158.556844 
L 145.395083 155.323778 
L 146.874147 154.744042 
L 147.983445 152.549916 
L 150.202041 151.06583 
L 150.571807 150.960714 
L 152.420637 151.065857 
L 152.790403 151.325186 
L 153.160169 151.826085 
L 154.269467 152.521268 
L 154.639233 153.012369 
L 155.74853 153.703584 
L 156.857828 154.079957 
L 158.336892 155.463187 
L 159.44619 155.909665 
L 160.925254 157.676723 
L 162.774084 157.785566 
L 163.513616 158.423425 
L 164.99268 158.718352 
L 165.362446 158.93761 
L 165.732212 159.018577 
L 166.101978 158.744631 
L 167.211276 158.073597 
L 168.69034 153.814292 
L 169.799638 152.550795 
L 171.278702 147.091494 
L 172.388 145.757627 
L 173.867064 141.868917 
L 174.976362 140.983391 
L 175.715894 138.68974 
L 176.455426 137.698326 
L 177.564724 136.800845 
L 179.043788 133.029712 
L 180.153086 132.18881 
L 180.892618 130.542523 
L 181.262384 130.11093 
L 181.63215 129.904957 
L 182.741448 129.637934 
L 183.48098 128.994484 
L 186.808874 128.848232 
L 188.657704 128.800972 
L 193.464662 128.794582 
L 194.57396 127.892841 
L 196.053024 127.488565 
L 197.162322 125.664156 
L 199.380918 124.817663 
L 199.750684 124.862766 
L 200.859982 125.243692 
L 201.599514 126.290566 
L 201.96928 126.707037 
L 202.339046 127.625205 
L 203.81811 129.274926 
L 204.187876 129.977298 
L 204.927408 131.755725 
L 206.036706 132.31898 
L 206.776238 133.090923 
L 207.51577 133.252059 
L 208.994834 133.364603 
L 209.734366 133.656335 
L 210.104132 133.709159 
L 211.583196 133.485641 
L 211.952962 133.510855 
L 212.322728 133.684717 
L 213.801792 133.658438 
L 214.541324 133.166033 
L 214.91109 132.777199 
L 215.280856 131.970537 
L 216.390154 130.990545 
L 217.499452 128.233936 
L 217.869218 126.823096 
L 218.978516 126.001018 
L 220.087814 123.104813 
L 221.936644 122.364767 
L 222.676176 123.073449 
L 224.894772 123.62853 
L 225.264538 123.800795 
L 225.634304 124.474491 
L 226.743602 125.005397 
L 227.113368 125.31542 
L 228.222666 125.741449 
L 229.331964 125.793741 
L 229.70173 125.589366 
L 230.071496 125.530684 
L 230.441262 125.986427 
L 230.811028 127.003055 
L 231.920326 127.938184 
L 233.39939 131.581889 
L 234.878454 132.353007 
L 235.24822 131.864302 
L 235.987752 130.403567 
L 237.09705 129.334087 
L 238.576114 124.032966 
L 239.685412 122.935877 
L 240.055178 122.024365 
L 240.79471 119.59687 
L 241.164476 118.72226 
L 242.273774 117.71093 
L 243.752838 114.392691 
L 245.231902 113.708637 
L 245.601668 112.728619 
L 246.3412 109.703921 
L 247.450498 107.818781 
L 248.929562 100.194242 
L 250.03886 98.741733 
L 250.778392 96.770327 
L 251.148158 96.280557 
L 251.517924 96.000008 
L 252.627222 95.782853 
L 252.996988 95.843106 
L 254.106286 96.426809 
L 255.215584 96.698599 
L 255.955116 97.119356 
L 257.803946 97.329801 
L 258.173712 97.613812 
L 259.28301 97.827745 
L 260.392308 97.65548 
L 261.13184 97.409704 
L 261.871372 97.389788 
L 263.350436 97.702234 
L 263.720202 97.897343 
L 265.938798 97.766747 
L 267.048096 97.025103 
L 268.157394 96.75595 
L 268.52716 96.513847 
L 268.896926 95.490323 
L 269.636458 92.409313 
L 270.745756 90.836566 
L 272.22482 85.124246 
L 273.334118 83.486479 
L 274.813182 77.135528 
L 275.92248 75.327334 
L 277.401544 68.949279 
L 278.510842 67.144253 
L 279.250374 63.260282 
L 279.989906 58.81894 
L 281.46897 56.626412 
L 282.578267 50.342583 
L 283.687565 48.504409 
L 284.057331 47.028551 
L 284.427097 46.105909 
L 285.166629 43.88814 
L 286.275927 43.152354 
L 287.754991 40.385415 
L 288.864289 39.679076 
L 289.234055 38.914322 
L 289.973587 37.986835 
L 290.343353 37.327995 
L 291.452651 36.546254 
L 292.561949 33.815126 
L 292.931715 33.406084 
L 294.041013 33.144651 
L 294.410779 32.894881 
L 294.780545 33.449376 
L 295.150311 34.293713 
L 295.520077 34.695593 
L 296.629375 35.304244 
L 297.738673 35.519269 
L 298.108439 35.810468 
L 299.217737 35.838318 
L 299.587503 36.074297 
L 299.957269 36.635182 
L 300.327035 36.512281 
L 301.806099 37.02777 
L 302.175865 37.457527 
L 302.915397 37.288404 
L 303.285163 38.228884 
L 304.394461 39.433459 
L 305.133993 41.80174 
L 305.503759 42.956446 
L 305.873525 44.498362 
L 306.982823 46.8815 
L 308.461887 55.610822 
L 309.571185 57.521736 
L 310.310717 62.741411 
L 311.050249 65.589078 
L 312.159547 68.593886 
L 312.899079 73.767579 
L 313.638611 78.927002 
L 314.747909 81.312003 
L 315.117675 83.72962 
L 315.857207 86.577287 
L 316.226973 89.600919 
L 317.336271 92.293814 
L 318.815335 104.160405 
L 319.924633 106.535049 
L 320.294399 108.910492 
L 321.403697 118.788663 
L 323.252527 124.082942 
L 323.992059 128.311655 
L 325.101357 130.610364 
L 325.840889 132.405805 
L 326.580421 136.474474 
L 327.689719 138.039794 
L 329.168783 144.412551 
L 330.278081 146.24753 
L 330.647847 148.286404 
L 331.387379 150.894631 
L 331.757145 151.645034 
L 333.236209 152.692494 
L 334.345507 155.540161 
L 335.454805 156.130254 
L 335.824571 156.724581 
L 336.194337 156.778443 
L 336.564103 156.420894 
L 336.933869 155.797919 
L 338.043167 154.478429 
L 338.412933 152.721995 
L 339.522231 149.715616 
L 340.631529 148.918485 
L 341.001295 148.038284 
L 341.740827 144.697466 
L 342.110593 143.204088 
L 343.589657 141.859891 
L 344.698955 138.077069 
L 345.808253 136.473782 
L 346.917551 132.574475 
L 347.287317 131.359809 
L 348.396615 129.861638 
L 349.505913 125.979292 
L 349.875679 124.86415 
L 350.984977 123.259293 
L 352.464041 119.008747 
L 353.573339 118.067494 
L 353.943105 117.226592 
L 354.312871 116.068185 
L 355.052403 113.082227 
L 356.161701 111.929145 
L 357.640765 107.308057 
L 358.750063 106.068975 
L 360.229127 100.295631 
L 361.338425 98.666597 
L 362.817489 92.317217 
L 363.926787 90.721918 
L 365.036085 85.436452 
L 366.515149 83.91336 
L 367.254681 80.740015 
L 367.994213 78.452941 
L 369.103511 77.286333 
L 369.843043 75.482692 
L 370.582575 72.831199 
L 371.691873 71.432846 
L 372.801171 68.896028 
L 373.170937 68.463876 
L 374.280235 68.953619 
L 375.389533 69.996765 
L 375.759299 70.667027 
L 376.868597 71.680753 
L 377.608129 73.537831 
L 378.347661 75.995812 
L 379.826725 77.308139 
L 380.936023 82.386567 
L 380.936023 82.386567 
" clip-path="url(#p072d8060e2)" style="fill: none; stroke-dasharray: 12.8,3.2,2,3.2; stroke-dashoffset: 0; stroke: #fdb462; stroke-width: 2"/>
   </g>
   <g id="patch_3">
    <path d="M 40.04875 242.208 
L 40.04875 7.2 
" style="fill: none; stroke: #000000; stroke-width: 0.6; stroke-linejoin: miter; stroke-linecap: square"/>
   </g>
   <g id="patch_4">
    <path d="M 40.04875 242.208 
L 397.16875 242.208 
" style="fill: none; stroke: #000000; stroke-width: 0.6; stroke-linejoin: miter; stroke-linecap: square"/>
   </g>
   <g id="legend_1">
    <g id="patch_5">
     <path d="M 47.04875 64.890625 
L 154.750313 64.890625 
Q 156.750313 64.890625 156.750313 62.890625 
L 156.750313 14.2 
Q 156.750313 12.2 154.750313 12.2 
L 47.04875 12.2 
Q 45.04875 12.2 45.04875 14.2 
L 45.04875 62.890625 
Q 45.04875 64.890625 47.04875 64.890625 
z
" style="fill: #ffffff; opacity: 0.8; stroke: #e6e6e6; stroke-width: 0.8; stroke-linejoin: miter"/>
    </g>
    <g id="line2d_22">
     <path d="M 47.04875 17.7 
L 57.04875 17.7 
L 67.04875 17.7 
" style="fill: none; stroke: #bc80bd; stroke-opacity: 0.5; stroke-width: 2; stroke-linecap: square"/>
    </g>
    <g id="text_20">
     <!-- Raw -->
     <g style="fill: #323034" transform="translate(75.04875 21.2) scale(0.1 -0.1)">
      <defs>
       <path id="STIXGeneral-Regular-52" d="M 4224 0 
L 3187 0 
L 1664 1971 
L 1306 1958 
L 1306 717 
Q 1306 352 1405 249 
Q 1504 147 1875 122 
L 1875 0 
L 109 0 
L 109 122 
Q 474 154 563 262 
Q 653 371 653 794 
L 653 3526 
Q 653 3885 563 3987 
Q 474 4090 109 4115 
L 109 4237 
L 1850 4237 
Q 2726 4237 3187 3859 
Q 3501 3603 3501 3091 
Q 3501 2221 2342 2042 
L 3622 422 
Q 3757 256 3878 198 
Q 4000 141 4224 122 
L 4224 0 
z
M 1306 3731 
L 1306 2195 
Q 1766 2202 1990 2246 
Q 2214 2291 2438 2413 
Q 2803 2618 2803 3142 
Q 2803 4000 1632 4000 
Q 1459 4000 1382 3945 
Q 1306 3891 1306 3731 
z
" transform="scale(0.015625)"/>
       <path id="STIXGeneral-Regular-77" d="M 4442 2880 
L 4442 2784 
Q 4346 2752 4301 2691 
Q 4256 2630 4179 2438 
L 3296 224 
Q 3168 -90 3117 -90 
Q 3085 -90 3062 -48 
Q 3040 -6 2963 186 
L 2381 1696 
L 1664 160 
Q 1549 -90 1504 -90 
Q 1446 -90 1338 192 
L 474 2381 
Q 378 2630 314 2700 
Q 250 2771 134 2784 
L 134 2880 
L 1286 2880 
L 1286 2784 
Q 1120 2765 1056 2720 
Q 992 2675 992 2573 
Q 992 2477 1030 2381 
L 1664 710 
L 2246 1984 
L 2118 2342 
Q 2029 2598 1942 2681 
Q 1856 2765 1677 2784 
L 1677 2880 
L 2976 2880 
L 2976 2784 
Q 2752 2752 2678 2707 
Q 2605 2662 2605 2560 
Q 2605 2458 2714 2176 
L 3251 742 
L 3827 2163 
Q 3936 2432 3936 2592 
Q 3936 2669 3875 2710 
Q 3814 2752 3654 2784 
L 3654 2880 
L 4442 2880 
z
" transform="scale(0.015625)"/>
      </defs>
      <use xlink:href="#STIXGeneral-Regular-52"/>
      <use xlink:href="#STIXGeneral-Regular-61" x="66.699997"/>
      <use xlink:href="#STIXGeneral-Regular-77" x="111.099991"/>
     </g>
    </g>
    <g id="line2d_23">
     <path d="M 47.04875 30.870312 
L 57.04875 30.870312 
L 67.04875 30.870312 
" style="fill: none; stroke-dasharray: 2,3.3; stroke-dashoffset: 0; stroke: #fb8072; stroke-width: 2"/>
    </g>
    <g id="text_21">
     <!-- Expanding Average -->
     <g style="fill: #323034" transform="translate(75.04875 34.370312) scale(0.1 -0.1)">
      <defs>
       <path id="STIXGeneral-Regular-45" d="M 3821 1082 
L 3526 0 
L 77 0 
L 77 122 
Q 442 147 538 252 
Q 634 358 634 730 
L 634 3520 
Q 634 3878 534 3987 
Q 435 4096 77 4115 
L 77 4237 
L 3469 4237 
L 3494 3322 
L 3334 3322 
Q 3264 3750 3085 3872 
Q 2906 3994 2349 3994 
L 1510 3994 
Q 1370 3994 1328 3952 
Q 1286 3910 1286 3763 
L 1286 2355 
L 2253 2355 
Q 2656 2355 2787 2470 
Q 2918 2586 2976 2970 
L 3123 2970 
L 3123 1472 
L 2976 1472 
Q 2918 1875 2790 1984 
Q 2662 2093 2253 2093 
L 1286 2093 
L 1286 538 
Q 1286 346 1420 291 
Q 1555 237 1933 237 
L 2163 237 
Q 2848 237 3136 403 
Q 3424 570 3642 1082 
L 3821 1082 
z
" transform="scale(0.015625)"/>
       <path id="STIXGeneral-Regular-78" d="M 3066 0 
L 1779 0 
L 1779 96 
Q 1939 109 1987 137 
Q 2035 166 2035 250 
Q 2035 307 1997 365 
L 1414 1261 
L 909 474 
Q 781 275 781 211 
Q 781 96 1037 96 
L 1037 0 
L 109 0 
L 109 96 
Q 269 109 355 169 
Q 442 230 576 422 
L 1306 1478 
L 704 2400 
Q 557 2624 454 2704 
Q 352 2784 211 2784 
L 154 2784 
L 154 2880 
L 1478 2880 
L 1478 2784 
Q 1203 2778 1203 2643 
Q 1203 2509 1498 2074 
Q 1581 1958 1587 1946 
Q 1619 1990 1779 2227 
Q 1811 2285 1856 2349 
Q 1901 2413 1923 2451 
Q 1946 2490 1971 2528 
Q 1997 2566 2006 2595 
Q 2016 2624 2016 2643 
Q 2016 2765 1760 2784 
L 1760 2880 
L 2771 2880 
L 2771 2784 
Q 2445 2771 2253 2502 
L 1722 1734 
L 2541 480 
Q 2790 96 3066 96 
L 3066 0 
z
" transform="scale(0.015625)"/>
       <path id="STIXGeneral-Regular-70" d="M 1018 2931 
L 1018 2438 
Q 1421 2944 1939 2944 
Q 2406 2944 2707 2560 
Q 3008 2176 3008 1581 
Q 3008 883 2621 409 
Q 2234 -64 1664 -64 
Q 1466 -64 1328 -6 
Q 1190 51 1018 211 
L 1018 -794 
Q 1018 -1094 1120 -1180 
Q 1222 -1267 1581 -1274 
L 1581 -1389 
L 32 -1389 
L 32 -1280 
Q 314 -1254 397 -1171 
Q 480 -1088 480 -838 
L 480 2157 
Q 480 2381 429 2451 
Q 378 2522 218 2522 
Q 115 2522 58 2515 
L 58 2618 
Q 506 2752 979 2944 
L 1018 2931 
z
M 1018 2138 
L 1018 563 
Q 1018 422 1238 281 
Q 1459 141 1683 141 
Q 2029 141 2243 467 
Q 2458 794 2458 1325 
Q 2458 1888 2243 2224 
Q 2029 2560 1670 2560 
Q 1446 2560 1232 2419 
Q 1018 2278 1018 2138 
z
" transform="scale(0.015625)"/>
       <path id="STIXGeneral-Regular-6e" d="M 3104 0 
L 1773 0 
L 1779 96 
Q 2016 115 2096 233 
Q 2176 352 2176 672 
L 2176 1946 
Q 2176 2592 1709 2592 
Q 1549 2592 1408 2515 
Q 1267 2438 1050 2227 
L 1050 461 
Q 1050 269 1136 192 
Q 1222 115 1466 96 
L 1466 0 
L 115 0 
L 115 96 
Q 358 115 435 214 
Q 512 314 512 602 
L 512 2157 
Q 512 2394 467 2483 
Q 422 2573 288 2573 
Q 160 2573 102 2547 
L 102 2656 
Q 550 2784 979 2944 
L 1030 2925 
L 1030 2426 
L 1037 2426 
Q 1491 2944 1958 2944 
Q 2323 2944 2518 2688 
Q 2714 2432 2714 1958 
L 2714 544 
Q 2714 288 2790 205 
Q 2867 122 3104 96 
L 3104 0 
z
" transform="scale(0.015625)"/>
       <path id="STIXGeneral-Regular-64" d="M 3142 269 
L 2202 -64 
L 2176 -45 
L 2176 365 
Q 1869 -64 1357 -64 
Q 826 -64 499 317 
Q 173 698 173 1312 
Q 173 1990 563 2467 
Q 954 2944 1504 2944 
Q 1850 2944 2176 2669 
L 2176 3667 
Q 2176 3866 2118 3930 
Q 2061 3994 1882 3994 
Q 1792 3994 1741 3987 
L 1741 4090 
Q 2323 4243 2682 4371 
L 2714 4358 
L 2714 730 
Q 2714 506 2768 435 
Q 2822 365 2995 365 
Q 3034 365 3142 371 
L 3142 269 
z
M 2176 653 
L 2176 2125 
Q 2176 2381 1981 2573 
Q 1786 2765 1523 2765 
Q 1158 2765 940 2438 
Q 723 2112 723 1568 
Q 723 979 963 624 
Q 1203 269 1606 269 
Q 1907 269 2080 474 
Q 2176 582 2176 653 
z
" transform="scale(0.015625)"/>
       <path id="STIXGeneral-Regular-69" d="M 1152 4045 
Q 1152 3904 1056 3811 
Q 960 3718 819 3718 
Q 685 3718 592 3811 
Q 499 3904 499 4045 
Q 499 4179 595 4275 
Q 691 4371 826 4371 
Q 966 4371 1059 4275 
Q 1152 4179 1152 4045 
z
M 1619 0 
L 102 0 
L 102 96 
Q 435 115 521 211 
Q 608 307 608 666 
L 608 2118 
Q 608 2342 563 2432 
Q 518 2522 397 2522 
Q 243 2522 128 2490 
L 128 2592 
L 1120 2944 
L 1146 2918 
L 1146 672 
Q 1146 314 1226 218 
Q 1306 122 1619 96 
L 1619 0 
z
" transform="scale(0.015625)"/>
       <path id="STIXGeneral-Regular-67" d="M 3008 2483 
L 2477 2483 
Q 2598 2208 2598 1946 
Q 2598 1453 2265 1203 
Q 1933 954 1600 954 
Q 1530 954 1357 973 
L 1235 986 
Q 1107 947 979 812 
Q 851 678 851 582 
Q 851 435 1350 410 
L 2176 371 
Q 2528 358 2739 172 
Q 2950 -13 2950 -314 
Q 2950 -685 2566 -986 
Q 2035 -1395 1286 -1395 
Q 826 -1395 502 -1212 
Q 179 -1030 179 -774 
Q 179 -595 320 -419 
Q 461 -243 806 6 
Q 602 102 534 172 
Q 467 243 467 346 
Q 467 531 762 787 
Q 909 915 1037 1043 
Q 717 1203 579 1401 
Q 442 1600 442 1901 
Q 442 2336 752 2640 
Q 1062 2944 1510 2944 
Q 1766 2944 2022 2848 
L 2163 2797 
Q 2349 2733 2515 2733 
L 3008 2733 
L 3008 2483 
z
M 973 2163 
L 973 2144 
Q 973 1683 1155 1398 
Q 1338 1114 1632 1114 
Q 1850 1114 1978 1270 
Q 2106 1427 2106 1690 
Q 2106 2112 1914 2464 
Q 1754 2765 1446 2765 
Q 1222 2765 1097 2605 
Q 973 2445 973 2163 
z
M 2771 -410 
Q 2771 -230 2595 -163 
Q 2419 -96 1978 -96 
Q 1344 -96 941 -13 
Q 749 -243 688 -348 
Q 627 -454 627 -563 
Q 627 -774 880 -902 
Q 1133 -1030 1555 -1030 
Q 2099 -1030 2435 -860 
Q 2771 -691 2771 -410 
z
" transform="scale(0.015625)"/>
       <path id="STIXGeneral-Regular-41" d="M 4525 0 
L 2893 0 
L 2893 122 
Q 3149 122 3245 179 
Q 3334 224 3334 333 
Q 3334 499 3213 781 
L 2950 1382 
L 1274 1382 
L 979 653 
Q 922 506 922 384 
Q 922 237 1027 179 
Q 1133 122 1370 122 
L 1370 0 
L 96 0 
L 96 122 
Q 365 147 486 316 
Q 608 486 902 1190 
L 2221 4314 
L 2349 4314 
L 3923 710 
Q 4064 378 4176 262 
Q 4288 147 4525 122 
L 4525 0 
z
M 2861 1645 
L 2118 3405 
L 1382 1645 
L 2861 1645 
z
" transform="scale(0.015625)"/>
       <path id="STIXGeneral-Regular-76" d="M 3053 2880 
L 3053 2784 
Q 2906 2771 2835 2688 
Q 2765 2605 2637 2285 
L 1818 230 
Q 1690 -90 1638 -90 
Q 1587 -90 1523 77 
Q 1510 96 1497 141 
Q 1485 186 1472 211 
L 704 2048 
Q 499 2534 403 2652 
Q 307 2771 122 2784 
L 122 2880 
L 1376 2880 
L 1376 2784 
Q 1210 2771 1146 2732 
Q 1082 2694 1082 2611 
Q 1082 2509 1139 2368 
L 1792 730 
L 2426 2387 
Q 2464 2483 2464 2579 
Q 2464 2758 2163 2784 
L 2163 2880 
L 3053 2880 
z
" transform="scale(0.015625)"/>
       <path id="STIXGeneral-Regular-72" d="M 1024 2931 
L 1024 2342 
Q 1267 2688 1430 2816 
Q 1594 2944 1792 2944 
Q 1958 2944 2051 2854 
Q 2144 2765 2144 2605 
Q 2144 2470 2077 2393 
Q 2010 2317 1894 2317 
Q 1773 2317 1638 2445 
Q 1536 2541 1472 2541 
Q 1338 2541 1181 2355 
Q 1024 2170 1024 2016 
L 1024 576 
Q 1024 301 1133 205 
Q 1242 109 1568 96 
L 1568 0 
L 32 0 
L 32 96 
Q 339 154 412 224 
Q 486 294 486 538 
L 486 2138 
Q 486 2349 438 2435 
Q 390 2522 269 2522 
Q 166 2522 45 2496 
L 45 2598 
Q 448 2726 992 2944 
L 1024 2931 
z
" transform="scale(0.015625)"/>
      </defs>
      <use xlink:href="#STIXGeneral-Regular-45"/>
      <use xlink:href="#STIXGeneral-Regular-78" x="61.099991"/>
      <use xlink:href="#STIXGeneral-Regular-70" x="111.099976"/>
      <use xlink:href="#STIXGeneral-Regular-61" x="161.09996"/>
      <use xlink:href="#STIXGeneral-Regular-6e" x="205.499954"/>
      <use xlink:href="#STIXGeneral-Regular-64" x="255.499939"/>
      <use xlink:href="#STIXGeneral-Regular-69" x="305.499924"/>
      <use xlink:href="#STIXGeneral-Regular-6e" x="333.299911"/>
      <use xlink:href="#STIXGeneral-Regular-67" x="383.299896"/>
      <use xlink:href="#STIXGeneral-Regular-20" x="433.299881"/>
      <use xlink:href="#STIXGeneral-Regular-41" x="458.299866"/>
      <use xlink:href="#STIXGeneral-Regular-76" x="530.499847"/>
      <use xlink:href="#STIXGeneral-Regular-65" x="580.499832"/>
      <use xlink:href="#STIXGeneral-Regular-72" x="624.899826"/>
      <use xlink:href="#STIXGeneral-Regular-61" x="658.199814"/>
      <use xlink:href="#STIXGeneral-Regular-67" x="702.599808"/>
      <use xlink:href="#STIXGeneral-Regular-65" x="752.599792"/>
     </g>
    </g>
    <g id="line2d_24">
     <path d="M 47.04875 44.05 
L 57.04875 44.05 
L 67.04875 44.05 
" style="fill: none; stroke-dasharray: 7.4,3.2; stroke-dashoffset: 0; stroke: #b3de69; stroke-width: 2"/>
    </g>
    <g id="text_22">
     <!-- EWMA ($\alpha=$0.03) -->
     <g style="fill: #323034" transform="translate(75.04875 47.55) scale(0.1 -0.1)">
      <defs>
       <path id="STIXGeneral-Regular-57" d="M 5965 4237 
L 5965 4115 
Q 5709 4064 5616 3990 
Q 5523 3917 5434 3667 
Q 4704 1709 4128 -70 
L 4032 -70 
Q 3642 1011 3008 2637 
L 2022 -70 
L 1926 -70 
Q 1709 576 1277 1753 
Q 845 2931 698 3347 
Q 538 3808 406 3958 
Q 275 4109 32 4115 
L 32 4237 
L 1594 4237 
L 1594 4115 
Q 1357 4109 1270 4064 
Q 1184 4019 1184 3917 
Q 1184 3808 1254 3616 
L 2176 1210 
L 2842 3021 
L 2662 3501 
Q 2509 3917 2400 4013 
Q 2291 4109 2010 4115 
L 2010 4237 
L 3706 4237 
L 3706 4115 
Q 3213 4102 3213 3891 
Q 3213 3808 3322 3520 
L 4237 1190 
L 5043 3360 
Q 5152 3667 5152 3853 
Q 5152 4109 4704 4115 
L 4704 4237 
L 5965 4237 
z
" transform="scale(0.015625)"/>
       <path id="STIXGeneral-Regular-4d" d="M 5530 0 
L 3738 0 
L 3738 122 
Q 4115 147 4214 265 
Q 4314 384 4314 787 
L 4314 3661 
L 2682 0 
L 2592 0 
L 979 3514 
L 979 966 
Q 979 448 1088 294 
Q 1197 141 1574 122 
L 1574 0 
L 77 0 
L 77 122 
Q 358 141 480 205 
Q 602 269 650 432 
Q 698 595 698 966 
L 698 3514 
Q 698 3878 589 3984 
Q 480 4090 90 4115 
L 90 4237 
L 1357 4237 
L 2835 1024 
L 4250 4237 
L 5523 4237 
L 5523 4115 
Q 5178 4109 5072 3993 
Q 4966 3878 4966 3520 
L 4966 717 
Q 4966 378 5072 262 
Q 5178 147 5530 122 
L 5530 0 
z
" transform="scale(0.015625)"/>
       <path id="STIXGeneral-Italic-3b1" d="M 3514 2739 
L 2605 1069 
L 2605 954 
Q 2605 704 2662 512 
Q 2720 320 2822 320 
Q 2970 320 3149 794 
L 3251 749 
Q 3014 -58 2605 -58 
Q 2291 -58 2272 614 
Q 1709 -70 1030 -70 
Q 589 -70 381 198 
Q 173 467 173 902 
Q 173 1293 329 1673 
Q 486 2054 755 2330 
Q 973 2547 1270 2684 
Q 1568 2822 1862 2822 
Q 2246 2822 2457 2595 
Q 2669 2368 2669 2061 
L 2963 2739 
L 3514 2739 
z
M 2298 1741 
Q 2298 2688 1805 2688 
Q 1472 2688 1085 2099 
Q 698 1510 698 800 
Q 698 493 806 278 
Q 915 64 1139 64 
Q 1606 64 2195 1286 
Q 2202 1325 2230 1411 
Q 2259 1498 2278 1581 
Q 2298 1664 2298 1741 
z
" transform="scale(0.015625)"/>
       <path id="STIXGeneral-Regular-3d" d="M 4077 2048 
L 307 2048 
L 307 2470 
L 4077 2470 
L 4077 2048 
z
M 4077 768 
L 307 768 
L 307 1190 
L 4077 1190 
L 4077 768 
z
" transform="scale(0.015625)"/>
       <path id="STIXGeneral-Regular-2e" d="M 1158 275 
Q 1158 134 1052 32 
Q 947 -70 800 -70 
Q 653 -70 550 32 
Q 448 134 448 281 
Q 448 429 553 534 
Q 659 640 806 640 
Q 947 640 1052 531 
Q 1158 422 1158 275 
z
" transform="scale(0.015625)"/>
      </defs>
      <use xlink:href="#STIXGeneral-Regular-45" transform="translate(0 0.40625)"/>
      <use xlink:href="#STIXGeneral-Regular-57" transform="translate(61.099991 0.40625)"/>
      <use xlink:href="#STIXGeneral-Regular-4d" transform="translate(155.499985 0.40625)"/>
      <use xlink:href="#STIXGeneral-Regular-41" transform="translate(244.399979 0.40625)"/>
      <use xlink:href="#STIXGeneral-Regular-20" transform="translate(316.59996 0.40625)"/>
      <use xlink:href="#STIXGeneral-Regular-28" transform="translate(341.599945 0.40625)"/>
      <use xlink:href="#STIXGeneral-Italic-3b1" transform="translate(374.899933 0.40625)"/>
      <use xlink:href="#STIXGeneral-Regular-3d" transform="translate(444.539926 0.40625)"/>
      <use xlink:href="#STIXGeneral-Regular-30" transform="translate(527.479907 0.40625)"/>
      <use xlink:href="#STIXGeneral-Regular-2e" transform="translate(577.479892 0.40625)"/>
      <use xlink:href="#STIXGeneral-Regular-30" transform="translate(602.479877 0.40625)"/>
      <use xlink:href="#STIXGeneral-Regular-33" transform="translate(652.479861 0.40625)"/>
      <use xlink:href="#STIXGeneral-Regular-29" transform="translate(702.479846 0.40625)"/>
     </g>
    </g>
    <g id="line2d_25">
     <path d="M 47.04875 57.220312 
L 57.04875 57.220312 
L 67.04875 57.220312 
" style="fill: none; stroke-dasharray: 12.8,3.2,2,3.2; stroke-dashoffset: 0; stroke: #fdb462; stroke-width: 2"/>
    </g>
    <g id="text_23">
     <!-- 28D MA -->
     <g style="fill: #323034" transform="translate(75.04875 60.720312) scale(0.1 -0.1)">
      <use xlink:href="#STIXGeneral-Regular-32"/>
      <use xlink:href="#STIXGeneral-Regular-38" x="49.999985"/>
      <use xlink:href="#STIXGeneral-Regular-44" x="99.999969"/>
      <use xlink:href="#STIXGeneral-Regular-20" x="172.199951"/>
      <use xlink:href="#STIXGeneral-Regular-4d" x="197.199936"/>
      <use xlink:href="#STIXGeneral-Regular-41" x="286.09993"/>
     </g>
    </g>
   </g>
  </g>
 </g>
 <defs>
  <clipPath id="p072d8060e2">
   <rect x="40.04875" y="7.2" width="357.12" height="235.008"/>
  </clipPath>
 </defs>
</svg>