<?xml version="1.0" encoding="utf-8" standalone="no"?>
<!DOCTYPE svg PUBLIC "-//W3C//DTD SVG 1.1//EN"
  "http://www.w3.org/Graphics/SVG/1.1/DTD/svg11.dtd">
<svg xmlns:xlink="http://www.w3.org/1999/xlink" width="393.809756pt" height="312.112pt" viewBox="0 0 393.809756 312.112" xmlns="http://www.w3.org/2000/svg" version="1.1">
 <metadata>
  <rdf:RDF xmlns:dc="http://purl.org/dc/elements/1.1/" xmlns:cc="http://creativecommons.org/ns#" xmlns:rdf="http://www.w3.org/1999/02/22-rdf-syntax-ns#">
   <cc:Work>
    <dc:type rdf:resource="http://purl.org/dc/dcmitype/StillImage"/>
    <dc:date>2023-07-28T22:22:47.706060</dc:date>
    <dc:format>image/svg+xml</dc:format>
    <dc:creator>
     <cc:Agent>
      <dc:title>Matplotlib v3.7.2, https://matplotlib.org/</dc:title>
     </cc:Agent>
    </dc:creator>
   </cc:Work>
  </rdf:RDF>
 </metadata>
 <defs>
  <style type="text/css">*{stroke-linejoin: round; stroke-linecap: butt}</style>
 </defs>
 <g id="figure_1">
  <g id="patch_1">
   <path d="M 0 312.112 
L 393.809756 312.112 
L 393.809756 0 
L 0 0 
z
" style="fill: #ffffff"/>
  </g>
  <g id="axes_1">
   <g id="patch_2">
    <path d="M 26.2 273.312 
L 383.32 273.312 
L 383.32 7.2 
L 26.2 7.2 
z
" style="fill: #ffffff"/>
   </g>
   <g id="matplotlib.axis_1">
    <g id="xtick_1">
     <g id="line2d_1">
      <defs>
       <path id="m16dbbb86db" d="M 0 0 
L 0 3.5 
" style="stroke: #323034; stroke-width: 0.8"/>
      </defs>
      <g>
       <use xlink:href="#m16dbbb86db" x="61.040976" y="273.312" style="fill: #323034; stroke: #323034; stroke-width: 0.8"/>
      </g>
     </g>
     <g id="text_1">
      <!-- 2011 -->
      <g style="fill: #323034" transform="translate(49.040976 288.507625) scale(0.12 -0.12)">
       <defs>
        <path id="STIXGeneral-Regular-32" d="M 3034 877 
L 2688 0 
L 186 0 
L 186 77 
L 1325 1286 
Q 1773 1754 1965 2144 
Q 2157 2534 2157 2950 
Q 2157 3379 1920 3616 
Q 1683 3853 1267 3853 
Q 922 3853 720 3673 
Q 518 3494 326 3021 
L 192 3053 
Q 301 3648 630 3987 
Q 960 4326 1523 4326 
Q 2054 4326 2380 4006 
Q 2707 3686 2707 3200 
Q 2707 2477 1888 1613 
L 832 486 
L 2330 486 
Q 2541 486 2665 569 
Q 2790 653 2944 915 
L 3034 877 
z
" transform="scale(0.015625)"/>
        <path id="STIXGeneral-Regular-30" d="M 3046 2112 
Q 3046 1683 2963 1302 
Q 2880 922 2717 602 
Q 2554 282 2266 96 
Q 1978 -90 1600 -90 
Q 1210 -90 915 108 
Q 621 307 461 640 
Q 301 973 227 1350 
Q 154 1728 154 2150 
Q 154 2746 301 3222 
Q 448 3699 790 4012 
Q 1133 4326 1626 4326 
Q 2253 4326 2649 3712 
Q 3046 3098 3046 2112 
z
M 2432 2080 
Q 2432 3091 2217 3625 
Q 2003 4160 1587 4160 
Q 1190 4160 979 3622 
Q 768 3085 768 2106 
Q 768 1120 979 598 
Q 1190 77 1600 77 
Q 2003 77 2217 598 
Q 2432 1120 2432 2080 
z
" transform="scale(0.015625)"/>
        <path id="STIXGeneral-Regular-31" d="M 2522 0 
L 755 0 
L 755 96 
Q 1107 115 1235 227 
Q 1363 339 1363 608 
L 1363 3482 
Q 1363 3795 1171 3795 
Q 1082 3795 883 3718 
L 710 3654 
L 710 3744 
L 1856 4326 
L 1914 4307 
L 1914 486 
Q 1914 275 2042 185 
Q 2170 96 2522 96 
L 2522 0 
z
" transform="scale(0.015625)"/>
       </defs>
       <use xlink:href="#STIXGeneral-Regular-32"/>
       <use xlink:href="#STIXGeneral-Regular-30" x="49.999985"/>
       <use xlink:href="#STIXGeneral-Regular-31" x="99.999969"/>
       <use xlink:href="#STIXGeneral-Regular-31" x="149.999954"/>
      </g>
     </g>
    </g>
    <g id="xtick_2">
     <g id="line2d_2">
      <g>
       <use xlink:href="#m16dbbb86db" x="113.302439" y="273.312" style="fill: #323034; stroke: #323034; stroke-width: 0.8"/>
      </g>
     </g>
     <g id="text_2">
      <!-- 2013 -->
      <g style="fill: #323034" transform="translate(101.302439 288.507625) scale(0.12 -0.12)">
       <defs>
        <path id="STIXGeneral-Regular-33" d="M 390 3264 
L 288 3290 
Q 435 3770 748 4048 
Q 1062 4326 1542 4326 
Q 1990 4326 2265 4083 
Q 2541 3840 2541 3450 
Q 2541 2925 1946 2566 
Q 2298 2413 2477 2227 
Q 2758 1914 2758 1402 
Q 2758 890 2464 506 
Q 2246 211 1840 60 
Q 1434 -90 979 -90 
Q 262 -90 262 275 
Q 262 378 339 442 
Q 416 506 525 506 
Q 685 506 915 339 
Q 1197 141 1466 141 
Q 1818 141 2058 425 
Q 2298 710 2298 1120 
Q 2298 1856 1632 2048 
Q 1434 2112 979 2112 
L 979 2202 
Q 1338 2323 1517 2432 
Q 2035 2726 2035 3290 
Q 2035 3610 1852 3776 
Q 1670 3942 1344 3942 
Q 768 3942 390 3264 
z
" transform="scale(0.015625)"/>
       </defs>
       <use xlink:href="#STIXGeneral-Regular-32"/>
       <use xlink:href="#STIXGeneral-Regular-30" x="49.999985"/>
       <use xlink:href="#STIXGeneral-Regular-31" x="99.999969"/>
       <use xlink:href="#STIXGeneral-Regular-33" x="149.999954"/>
      </g>
     </g>
    </g>
    <g id="xtick_3">
     <g id="line2d_3">
      <g>
       <use xlink:href="#m16dbbb86db" x="165.563902" y="273.312" style="fill: #323034; stroke: #323034; stroke-width: 0.8"/>
      </g>
     </g>
     <g id="text_3">
      <!-- 2015 -->
      <g style="fill: #323034" transform="translate(153.563902 288.507625) scale(0.12 -0.12)">
       <defs>
        <path id="STIXGeneral-Regular-35" d="M 2803 4358 
L 2573 3814 
Q 2534 3731 2400 3731 
L 1158 3731 
L 902 3187 
Q 1606 3053 1920 2896 
Q 2234 2739 2502 2368 
Q 2726 2061 2726 1555 
Q 2726 1094 2576 780 
Q 2426 467 2099 224 
Q 1664 -90 1011 -90 
Q 646 -90 422 19 
Q 198 128 198 307 
Q 198 550 486 550 
Q 717 550 960 352 
Q 1210 147 1414 147 
Q 1747 147 2012 480 
Q 2278 813 2278 1229 
Q 2278 1843 1850 2189 
Q 1293 2637 486 2637 
Q 410 2637 410 2688 
L 416 2720 
L 1114 4237 
L 2438 4237 
Q 2547 4237 2608 4269 
Q 2669 4301 2746 4403 
L 2803 4358 
z
" transform="scale(0.015625)"/>
       </defs>
       <use xlink:href="#STIXGeneral-Regular-32"/>
       <use xlink:href="#STIXGeneral-Regular-30" x="49.999985"/>
       <use xlink:href="#STIXGeneral-Regular-31" x="99.999969"/>
       <use xlink:href="#STIXGeneral-Regular-35" x="149.999954"/>
      </g>
     </g>
    </g>
    <g id="xtick_4">
     <g id="line2d_4">
      <g>
       <use xlink:href="#m16dbbb86db" x="217.825366" y="273.312" style="fill: #323034; stroke: #323034; stroke-width: 0.8"/>
      </g>
     </g>
     <g id="text_4">
      <!-- 2017 -->
      <g style="fill: #323034" transform="translate(205.825366 288.507625) scale(0.12 -0.12)">
       <defs>
        <path id="STIXGeneral-Regular-37" d="M 2874 4134 
L 1517 -51 
L 1101 -51 
L 2368 3763 
L 992 3763 
Q 717 3763 582 3667 
Q 448 3571 243 3238 
L 128 3296 
L 512 4237 
L 2874 4237 
L 2874 4134 
z
" transform="scale(0.015625)"/>
       </defs>
       <use xlink:href="#STIXGeneral-Regular-32"/>
       <use xlink:href="#STIXGeneral-Regular-30" x="49.999985"/>
       <use xlink:href="#STIXGeneral-Regular-31" x="99.999969"/>
       <use xlink:href="#STIXGeneral-Regular-37" x="149.999954"/>
      </g>
     </g>
    </g>
    <g id="xtick_5">
     <g id="line2d_5">
      <g>
       <use xlink:href="#m16dbbb86db" x="270.086829" y="273.312" style="fill: #323034; stroke: #323034; stroke-width: 0.8"/>
      </g>
     </g>
     <g id="text_5">
      <!-- 2019 -->
      <g style="fill: #323034" transform="translate(258.086829 288.507625) scale(0.12 -0.12)">
       <defs>
        <path id="STIXGeneral-Regular-39" d="M 378 -141 
L 358 -13 
Q 1094 115 1603 608 
Q 2112 1101 2304 1882 
Q 1933 1517 1344 1517 
Q 826 1517 509 1875 
Q 192 2234 192 2816 
Q 192 3462 573 3894 
Q 954 4326 1523 4326 
Q 2131 4326 2528 3840 
Q 2938 3328 2938 2522 
Q 2938 1958 2742 1462 
Q 2547 966 2170 621 
Q 1773 262 1395 105 
Q 1018 -51 378 -141 
z
M 2317 2272 
L 2317 2522 
Q 2317 4147 1472 4147 
Q 1171 4147 1005 3930 
Q 909 3802 845 3546 
Q 781 3290 781 3034 
Q 781 2464 995 2128 
Q 1210 1792 1568 1792 
Q 1824 1792 2070 1917 
Q 2317 2042 2317 2272 
z
" transform="scale(0.015625)"/>
       </defs>
       <use xlink:href="#STIXGeneral-Regular-32"/>
       <use xlink:href="#STIXGeneral-Regular-30" x="49.999985"/>
       <use xlink:href="#STIXGeneral-Regular-31" x="99.999969"/>
       <use xlink:href="#STIXGeneral-Regular-39" x="149.999954"/>
      </g>
     </g>
    </g>
    <g id="xtick_6">
     <g id="line2d_6">
      <g>
       <use xlink:href="#m16dbbb86db" x="322.348293" y="273.312" style="fill: #323034; stroke: #323034; stroke-width: 0.8"/>
      </g>
     </g>
     <g id="text_6">
      <!-- 2021 -->
      <g style="fill: #323034" transform="translate(310.348293 288.507625) scale(0.12 -0.12)">
       <use xlink:href="#STIXGeneral-Regular-32"/>
       <use xlink:href="#STIXGeneral-Regular-30" x="49.999985"/>
       <use xlink:href="#STIXGeneral-Regular-32" x="99.999969"/>
       <use xlink:href="#STIXGeneral-Regular-31" x="149.999954"/>
      </g>
     </g>
    </g>
    <g id="xtick_7">
     <g id="line2d_7">
      <g>
       <use xlink:href="#m16dbbb86db" x="374.609756" y="273.312" style="fill: #323034; stroke: #323034; stroke-width: 0.8"/>
      </g>
     </g>
     <g id="text_7">
      <!-- 2023 -->
      <g style="fill: #323034" transform="translate(362.609756 288.507625) scale(0.12 -0.12)">
       <use xlink:href="#STIXGeneral-Regular-32"/>
       <use xlink:href="#STIXGeneral-Regular-30" x="49.999985"/>
       <use xlink:href="#STIXGeneral-Regular-32" x="99.999969"/>
       <use xlink:href="#STIXGeneral-Regular-33" x="149.999954"/>
      </g>
     </g>
    </g>
    <g id="xtick_8">
     <g id="line2d_8">
      <defs>
       <path id="m493b2b8b6a" d="M 0 0 
L 0 2 
" style="stroke: #323034; stroke-width: 0.6"/>
      </defs>
      <g>
       <use xlink:href="#m493b2b8b6a" x="34.910244" y="273.312" style="fill: #323034; stroke: #323034; stroke-width: 0.6"/>
      </g>
     </g>
    </g>
    <g id="xtick_9">
     <g id="line2d_9">
      <g>
       <use xlink:href="#m493b2b8b6a" x="87.171707" y="273.312" style="fill: #323034; stroke: #323034; stroke-width: 0.6"/>
      </g>
     </g>
    </g>
    <g id="xtick_10">
     <g id="line2d_10">
      <g>
       <use xlink:href="#m493b2b8b6a" x="139.433171" y="273.312" style="fill: #323034; stroke: #323034; stroke-width: 0.6"/>
      </g>
     </g>
    </g>
    <g id="xtick_11">
     <g id="line2d_11">
      <g>
       <use xlink:href="#m493b2b8b6a" x="191.694634" y="273.312" style="fill: #323034; stroke: #323034; stroke-width: 0.6"/>
      </g>
     </g>
    </g>
    <g id="xtick_12">
     <g id="line2d_12">
      <g>
       <use xlink:href="#m493b2b8b6a" x="243.956098" y="273.312" style="fill: #323034; stroke: #323034; stroke-width: 0.6"/>
      </g>
     </g>
    </g>
    <g id="xtick_13">
     <g id="line2d_13">
      <g>
       <use xlink:href="#m493b2b8b6a" x="296.217561" y="273.312" style="fill: #323034; stroke: #323034; stroke-width: 0.6"/>
      </g>
     </g>
    </g>
    <g id="xtick_14">
     <g id="line2d_14">
      <g>
       <use xlink:href="#m493b2b8b6a" x="348.479024" y="273.312" style="fill: #323034; stroke: #323034; stroke-width: 0.6"/>
      </g>
     </g>
    </g>
    <g id="text_8">
     <!-- date -->
     <g transform="translate(194.763438 302.307625) scale(0.12 -0.12)">
      <defs>
       <path id="STIXGeneral-Regular-64" d="M 3142 269 
L 2202 -64 
L 2176 -45 
L 2176 365 
Q 1869 -64 1357 -64 
Q 826 -64 499 317 
Q 173 698 173 1312 
Q 173 1990 563 2467 
Q 954 2944 1504 2944 
Q 1850 2944 2176 2669 
L 2176 3667 
Q 2176 3866 2118 3930 
Q 2061 3994 1882 3994 
Q 1792 3994 1741 3987 
L 1741 4090 
Q 2323 4243 2682 4371 
L 2714 4358 
L 2714 730 
Q 2714 506 2768 435 
Q 2822 365 2995 365 
Q 3034 365 3142 371 
L 3142 269 
z
M 2176 653 
L 2176 2125 
Q 2176 2381 1981 2573 
Q 1786 2765 1523 2765 
Q 1158 2765 940 2438 
Q 723 2112 723 1568 
Q 723 979 963 624 
Q 1203 269 1606 269 
Q 1907 269 2080 474 
Q 2176 582 2176 653 
z
" transform="scale(0.015625)"/>
       <path id="STIXGeneral-Regular-61" d="M 2829 422 
L 2829 243 
Q 2586 -64 2253 -64 
Q 1888 -64 1843 403 
L 1837 403 
Q 1427 -64 909 -64 
Q 608 -64 422 112 
Q 237 288 237 602 
Q 237 1050 685 1350 
Q 992 1555 1837 1869 
L 1837 2214 
Q 1837 2502 1699 2646 
Q 1562 2790 1338 2790 
Q 1146 2790 1018 2697 
Q 890 2605 890 2477 
Q 890 2419 909 2348 
Q 928 2278 928 2208 
Q 928 2112 841 2029 
Q 755 1946 634 1946 
Q 525 1946 441 2029 
Q 358 2112 358 2240 
Q 358 2547 685 2752 
Q 986 2944 1421 2944 
Q 1939 2944 2176 2656 
Q 2291 2522 2323 2384 
Q 2355 2246 2355 1946 
L 2355 723 
Q 2355 301 2554 301 
Q 2682 301 2829 422 
z
M 1837 813 
L 1837 1715 
Q 1248 1510 1018 1293 
Q 800 1094 800 800 
Q 800 557 921 432 
Q 1043 307 1242 307 
Q 1453 307 1613 410 
Q 1747 506 1792 589 
Q 1837 672 1837 813 
z
" transform="scale(0.015625)"/>
       <path id="STIXGeneral-Regular-74" d="M 1702 493 
L 1786 422 
Q 1478 -64 1011 -64 
Q 448 -64 448 749 
L 448 2675 
L 109 2675 
Q 83 2694 83 2720 
Q 83 2771 192 2842 
Q 435 2982 813 3526 
Q 826 3546 874 3606 
Q 922 3667 941 3706 
Q 986 3706 986 3622 
L 986 2880 
L 1632 2880 
L 1632 2675 
L 986 2675 
L 986 845 
Q 986 538 1062 403 
Q 1139 269 1318 269 
Q 1510 269 1702 493 
z
" transform="scale(0.015625)"/>
       <path id="STIXGeneral-Regular-65" d="M 2611 1050 
L 2714 1005 
Q 2330 -64 1376 -64 
Q 813 -64 486 329 
Q 160 723 160 1389 
Q 160 2074 525 2509 
Q 890 2944 1485 2944 
Q 2061 2944 2374 2502 
Q 2560 2246 2592 1773 
L 621 1773 
Q 646 1370 700 1158 
Q 755 947 915 730 
Q 1184 378 1626 378 
Q 1939 378 2153 531 
Q 2368 685 2611 1050 
z
M 634 1978 
L 1939 1978 
Q 1882 2381 1750 2547 
Q 1619 2714 1312 2714 
Q 1043 2714 864 2525 
Q 685 2336 634 1978 
z
" transform="scale(0.015625)"/>
      </defs>
      <use xlink:href="#STIXGeneral-Regular-64"/>
      <use xlink:href="#STIXGeneral-Regular-61" x="49.999985"/>
      <use xlink:href="#STIXGeneral-Regular-74" x="94.399979"/>
      <use xlink:href="#STIXGeneral-Regular-65" x="122.199966"/>
     </g>
    </g>
   </g>
   <g id="matplotlib.axis_2">
    <g id="ytick_1">
     <g id="line2d_15">
      <defs>
       <path id="m2177875ea6" d="M 0 0 
L -3.5 0 
" style="stroke: #323034; stroke-width: 0.8"/>
      </defs>
      <g>
       <use xlink:href="#m2177875ea6" x="26.2" y="272.212364" style="fill: #323034; stroke: #323034; stroke-width: 0.8"/>
      </g>
     </g>
     <g id="text_9">
      <!-- $\mathdefault{10}$ -->
      <g style="fill: #323034" transform="translate(7.2 276.310176) scale(0.12 -0.12)">
       <use xlink:href="#STIXGeneral-Regular-31" transform="translate(0 0.40625)"/>
       <use xlink:href="#STIXGeneral-Regular-30" transform="translate(49.999985 0.40625)"/>
      </g>
     </g>
    </g>
    <g id="ytick_2">
     <g id="line2d_16">
      <g>
       <use xlink:href="#m2177875ea6" x="26.2" y="235.557818" style="fill: #323034; stroke: #323034; stroke-width: 0.8"/>
      </g>
     </g>
     <g id="text_10">
      <!-- $\mathdefault{20}$ -->
      <g style="fill: #323034" transform="translate(7.2 239.655631) scale(0.12 -0.12)">
       <use xlink:href="#STIXGeneral-Regular-32" transform="translate(0 0.40625)"/>
       <use xlink:href="#STIXGeneral-Regular-30" transform="translate(49.999985 0.40625)"/>
      </g>
     </g>
    </g>
    <g id="ytick_3">
     <g id="line2d_17">
      <g>
       <use xlink:href="#m2177875ea6" x="26.2" y="198.903273" style="fill: #323034; stroke: #323034; stroke-width: 0.8"/>
      </g>
     </g>
     <g id="text_11">
      <!-- $\mathdefault{30}$ -->
      <g style="fill: #323034" transform="translate(7.2 203.001085) scale(0.12 -0.12)">
       <use xlink:href="#STIXGeneral-Regular-33" transform="translate(0 0.40625)"/>
       <use xlink:href="#STIXGeneral-Regular-30" transform="translate(49.999985 0.40625)"/>
      </g>
     </g>
    </g>
    <g id="ytick_4">
     <g id="line2d_18">
      <g>
       <use xlink:href="#m2177875ea6" x="26.2" y="162.248727" style="fill: #323034; stroke: #323034; stroke-width: 0.8"/>
      </g>
     </g>
     <g id="text_12">
      <!-- $\mathdefault{40}$ -->
      <g style="fill: #323034" transform="translate(7.2 166.34654) scale(0.12 -0.12)">
       <defs>
        <path id="STIXGeneral-Regular-34" d="M 3027 1069 
L 2368 1069 
L 2368 0 
L 1869 0 
L 1869 1069 
L 77 1069 
L 77 1478 
L 2086 4326 
L 2368 4326 
L 2368 1478 
L 3027 1478 
L 3027 1069 
z
M 1869 1478 
L 1869 3674 
L 333 1478 
L 1869 1478 
z
" transform="scale(0.015625)"/>
       </defs>
       <use xlink:href="#STIXGeneral-Regular-34" transform="translate(0 0.40625)"/>
       <use xlink:href="#STIXGeneral-Regular-30" transform="translate(49.999985 0.40625)"/>
      </g>
     </g>
    </g>
    <g id="ytick_5">
     <g id="line2d_19">
      <g>
       <use xlink:href="#m2177875ea6" x="26.2" y="125.594182" style="fill: #323034; stroke: #323034; stroke-width: 0.8"/>
      </g>
     </g>
     <g id="text_13">
      <!-- $\mathdefault{50}$ -->
      <g style="fill: #323034" transform="translate(7.2 129.691994) scale(0.12 -0.12)">
       <use xlink:href="#STIXGeneral-Regular-35" transform="translate(0 0.203125)"/>
       <use xlink:href="#STIXGeneral-Regular-30" transform="translate(49.999985 0.203125)"/>
      </g>
     </g>
    </g>
    <g id="ytick_6">
     <g id="line2d_20">
      <g>
       <use xlink:href="#m2177875ea6" x="26.2" y="88.939636" style="fill: #323034; stroke: #323034; stroke-width: 0.8"/>
      </g>
     </g>
     <g id="text_14">
      <!-- $\mathdefault{60}$ -->
      <g style="fill: #323034" transform="translate(7.2 93.037449) scale(0.12 -0.12)">
       <defs>
        <path id="STIXGeneral-Regular-36" d="M 2854 4378 
L 2867 4275 
Q 2112 4154 1606 3664 
Q 1101 3174 973 2451 
Q 1344 2739 1786 2739 
Q 2349 2739 2672 2380 
Q 2995 2022 2995 1402 
Q 2995 774 2669 378 
Q 2291 -90 1651 -90 
Q 870 -90 518 557 
Q 218 1107 218 1786 
Q 218 2835 915 3552 
Q 1312 3962 1731 4131 
Q 2150 4301 2854 4378 
z
M 2419 1203 
Q 2419 2445 1555 2445 
Q 1235 2445 1024 2275 
Q 813 2106 813 1702 
Q 813 954 1046 522 
Q 1280 90 1722 90 
Q 2061 90 2240 394 
Q 2419 698 2419 1203 
z
" transform="scale(0.015625)"/>
       </defs>
       <use xlink:href="#STIXGeneral-Regular-36" transform="translate(0 0.59375)"/>
       <use xlink:href="#STIXGeneral-Regular-30" transform="translate(49.999985 0.59375)"/>
      </g>
     </g>
    </g>
    <g id="ytick_7">
     <g id="line2d_21">
      <g>
       <use xlink:href="#m2177875ea6" x="26.2" y="52.285091" style="fill: #323034; stroke: #323034; stroke-width: 0.8"/>
      </g>
     </g>
     <g id="text_15">
      <!-- $\mathdefault{70}$ -->
      <g style="fill: #323034" transform="translate(7.2 56.382903) scale(0.12 -0.12)">
       <use xlink:href="#STIXGeneral-Regular-37" transform="translate(0 0.40625)"/>
       <use xlink:href="#STIXGeneral-Regular-30" transform="translate(49.999985 0.40625)"/>
      </g>
     </g>
    </g>
    <g id="ytick_8">
     <g id="line2d_22">
      <g>
       <use xlink:href="#m2177875ea6" x="26.2" y="15.630545" style="fill: #323034; stroke: #323034; stroke-width: 0.8"/>
      </g>
     </g>
     <g id="text_16">
      <!-- $\mathdefault{80}$ -->
      <g style="fill: #323034" transform="translate(7.2 19.728358) scale(0.12 -0.12)">
       <defs>
        <path id="STIXGeneral-Regular-38" d="M 2848 992 
Q 2848 499 2505 204 
Q 2163 -90 1587 -90 
Q 1050 -90 704 204 
Q 358 499 358 954 
Q 358 1293 524 1533 
Q 691 1773 1190 2125 
Q 710 2522 553 2765 
Q 397 3008 397 3328 
Q 397 3782 745 4054 
Q 1094 4326 1638 4326 
Q 2106 4326 2410 4060 
Q 2714 3795 2714 3411 
Q 2714 3059 2531 2848 
Q 2349 2637 1856 2374 
Q 2432 1990 2640 1689 
Q 2848 1389 2848 992 
z
M 2272 3411 
Q 2272 3744 2086 3945 
Q 1901 4147 1574 4147 
Q 1248 4147 1059 3977 
Q 870 3808 870 3513 
Q 870 3219 1059 2979 
Q 1248 2739 1670 2490 
Q 1997 2682 2134 2896 
Q 2272 3110 2272 3411 
z
M 1734 1741 
L 1357 1997 
Q 1075 1766 960 1545 
Q 845 1325 845 1011 
Q 845 576 1065 333 
Q 1286 90 1658 90 
Q 1971 90 2166 285 
Q 2362 480 2362 794 
Q 2362 1082 2214 1299 
Q 2067 1517 1734 1741 
z
" transform="scale(0.015625)"/>
       </defs>
       <use xlink:href="#STIXGeneral-Regular-38" transform="translate(0 0.40625)"/>
       <use xlink:href="#STIXGeneral-Regular-30" transform="translate(49.999985 0.40625)"/>
      </g>
     </g>
    </g>
   </g>
   <g id="line2d_23">
    <path d="M 26.2 220.896 
L 28.377561 217.230545 
L 41.442927 217.230545 
L 45.798049 209.899636 
L 47.97561 209.899636 
L 52.330732 202.568727 
L 56.685854 202.568727 
L 58.863415 198.903273 
L 61.040976 191.572364 
L 63.218537 187.906909 
L 65.396098 187.906909 
L 69.75122 195.237818 
L 74.106341 187.906909 
L 76.283902 187.906909 
L 78.461463 191.572364 
L 80.639024 191.572364 
L 84.994146 184.241455 
L 89.349268 191.572364 
L 93.70439 191.572364 
L 104.592195 209.899636 
L 106.769756 209.899636 
L 108.947317 206.234182 
L 111.124878 206.234182 
L 113.302439 202.568727 
L 119.835122 202.568727 
L 124.190244 195.237818 
L 128.545366 195.237818 
L 130.722927 202.568727 
L 132.900488 191.572364 
L 135.078049 187.906909 
L 137.25561 187.906909 
L 139.433171 195.237818 
L 141.610732 195.237818 
L 143.788293 191.572364 
L 148.143415 198.903273 
L 150.320976 206.234182 
L 154.676098 184.241455 
L 156.853659 169.579636 
L 159.03122 173.245091 
L 161.20878 180.576 
L 165.563902 180.576 
L 167.741463 176.910545 
L 169.919024 180.576 
L 172.096585 173.245091 
L 174.274146 176.910545 
L 176.451707 173.245091 
L 178.629268 173.245091 
L 180.806829 169.579636 
L 182.98439 162.248727 
L 185.161951 162.248727 
L 187.339512 158.583273 
L 189.517073 165.914182 
L 191.694634 158.583273 
L 193.872195 154.917818 
L 198.227317 154.917818 
L 200.404878 143.921455 
L 202.582439 140.256 
L 204.76 143.921455 
L 206.937561 162.248727 
L 209.115122 169.579636 
L 211.292683 173.245091 
L 213.470244 173.245091 
L 215.647805 165.914182 
L 217.825366 165.914182 
L 224.358049 154.917818 
L 226.53561 158.583273 
L 230.890732 151.252364 
L 233.068293 154.917818 
L 235.245854 154.917818 
L 237.423415 162.248727 
L 239.600976 151.252364 
L 241.778537 147.586909 
L 243.956098 147.586909 
L 252.666341 132.925091 
L 254.843902 132.925091 
L 257.021463 140.256 
L 261.376585 132.925091 
L 263.554146 125.594182 
L 265.731707 121.928727 
L 267.909268 114.597818 
L 274.441951 136.590545 
L 276.619512 140.256 
L 278.797073 151.252364 
L 280.974634 154.917818 
L 283.152195 154.917818 
L 285.329756 151.252364 
L 287.507317 151.252364 
L 289.684878 158.583273 
L 291.862439 158.583273 
L 294.04 147.586909 
L 296.217561 151.252364 
L 298.395122 151.252364 
L 300.572683 191.572364 
L 302.750244 228.226909 
L 304.927805 261.216 
L 307.105366 250.219636 
L 309.282927 242.888727 
L 311.460488 228.226909 
L 313.638049 217.230545 
L 315.81561 202.568727 
L 317.993171 191.572364 
L 320.170732 176.910545 
L 324.525854 162.248727 
L 328.880976 140.256 
L 331.058537 132.925091 
L 333.236098 107.266909 
L 335.413659 96.270545 
L 337.59122 74.277818 
L 339.76878 70.612364 
L 341.946341 59.616 
L 344.123902 55.950545 
L 346.301463 26.626909 
L 350.656585 26.626909 
L 352.834146 19.296 
L 355.011707 22.961455 
L 357.189268 19.296 
L 359.366829 52.285091 
L 365.899512 85.274182 
L 368.077073 92.605091 
L 370.254634 107.266909 
L 372.432195 110.932364 
L 374.609756 121.928727 
L 376.787317 114.597818 
L 378.964878 121.928727 
L 381.142439 125.594182 
L 383.32 140.256 
L 383.32 140.256 
" clip-path="url(#pb850693631)" style="fill: none; stroke: #bc80bd; stroke-width: 2; stroke-linecap: square"/>
   </g>
   <g id="line2d_24">
    <path d="M 26.2 202.568727 
L 30.555122 202.568727 
L 32.732683 198.903273 
L 34.910244 191.572364 
L 37.087805 187.906909 
L 39.265366 187.906909 
L 43.620488 195.237818 
L 47.97561 187.906909 
L 50.153171 187.906909 
L 52.330732 191.572364 
L 54.508293 191.572364 
L 58.863415 184.241455 
L 63.218537 191.572364 
L 67.573659 191.572364 
L 78.461463 209.899636 
L 80.639024 209.899636 
L 82.816585 206.234182 
L 84.994146 206.234182 
L 87.171707 202.568727 
L 93.70439 202.568727 
L 98.059512 195.237818 
L 102.414634 195.237818 
L 104.592195 202.568727 
L 106.769756 191.572364 
L 108.947317 187.906909 
L 111.124878 187.906909 
L 113.302439 195.237818 
L 115.48 195.237818 
L 117.657561 191.572364 
L 122.012683 198.903273 
L 124.190244 206.234182 
L 128.545366 184.241455 
L 130.722927 169.579636 
L 132.900488 173.245091 
L 135.078049 180.576 
L 139.433171 180.576 
L 141.610732 176.910545 
L 143.788293 180.576 
L 145.965854 173.245091 
L 148.143415 176.910545 
L 150.320976 173.245091 
L 152.498537 173.245091 
L 154.676098 169.579636 
L 156.853659 162.248727 
L 159.03122 162.248727 
L 161.20878 158.583273 
L 163.386341 165.914182 
L 165.563902 158.583273 
L 167.741463 154.917818 
L 172.096585 154.917818 
L 174.274146 143.921455 
L 176.451707 140.256 
L 178.629268 143.921455 
L 180.806829 162.248727 
L 182.98439 169.579636 
L 185.161951 173.245091 
L 187.339512 173.245091 
L 189.517073 165.914182 
L 191.694634 165.914182 
L 198.227317 154.917818 
L 200.404878 158.583273 
L 204.76 151.252364 
L 206.937561 154.917818 
L 209.115122 154.917818 
L 211.292683 162.248727 
L 213.470244 151.252364 
L 215.647805 147.586909 
L 217.825366 147.586909 
L 226.53561 132.925091 
L 228.713171 132.925091 
L 230.890732 140.256 
L 235.245854 132.925091 
L 237.423415 125.594182 
L 239.600976 121.928727 
L 241.778537 114.597818 
L 248.31122 136.590545 
L 250.48878 140.256 
L 252.666341 151.252364 
L 254.843902 154.917818 
L 257.021463 154.917818 
L 259.199024 151.252364 
L 261.376585 151.252364 
L 263.554146 158.583273 
L 265.731707 158.583273 
L 267.909268 147.586909 
L 270.086829 151.252364 
L 272.26439 151.252364 
L 274.441951 191.572364 
L 276.619512 228.226909 
L 278.797073 261.216 
L 280.974634 250.219636 
L 283.152195 242.888727 
L 285.329756 228.226909 
L 287.507317 217.230545 
L 289.684878 202.568727 
L 291.862439 191.572364 
L 294.04 176.910545 
L 298.395122 162.248727 
L 302.750244 140.256 
L 304.927805 132.925091 
L 307.105366 107.266909 
L 309.282927 96.270545 
L 311.460488 74.277818 
L 313.638049 70.612364 
L 315.81561 59.616 
L 317.993171 55.950545 
L 320.170732 26.626909 
L 324.525854 26.626909 
L 326.703415 19.296 
L 328.880976 22.961455 
L 331.058537 19.296 
L 333.236098 52.285091 
L 339.76878 85.274182 
L 341.946341 92.605091 
L 344.123902 107.266909 
L 346.301463 110.932364 
L 348.479024 121.928727 
L 350.656585 114.597818 
L 352.834146 121.928727 
L 355.011707 125.594182 
L 357.189268 140.256 
L 357.189268 140.256 
" clip-path="url(#pb850693631)" style="fill: none; stroke: #fb8072; stroke-width: 2; stroke-linecap: square"/>
   </g>
   <g id="line2d_25">
    <path d="M 26.2 228.226909 
L 28.377561 228.226909 
L 34.910244 217.230545 
L 47.97561 217.230545 
L 52.330732 209.899636 
L 54.508293 209.899636 
L 58.863415 202.568727 
L 63.218537 202.568727 
L 65.396098 198.903273 
L 67.573659 191.572364 
L 69.75122 187.906909 
L 71.92878 187.906909 
L 76.283902 195.237818 
L 80.639024 187.906909 
L 82.816585 187.906909 
L 84.994146 191.572364 
L 87.171707 191.572364 
L 91.526829 184.241455 
L 95.881951 191.572364 
L 100.237073 191.572364 
L 111.124878 209.899636 
L 113.302439 209.899636 
L 115.48 206.234182 
L 117.657561 206.234182 
L 119.835122 202.568727 
L 126.367805 202.568727 
L 130.722927 195.237818 
L 135.078049 195.237818 
L 137.25561 202.568727 
L 139.433171 191.572364 
L 141.610732 187.906909 
L 143.788293 187.906909 
L 145.965854 195.237818 
L 148.143415 195.237818 
L 150.320976 191.572364 
L 154.676098 198.903273 
L 156.853659 206.234182 
L 161.20878 184.241455 
L 163.386341 169.579636 
L 165.563902 173.245091 
L 167.741463 180.576 
L 172.096585 180.576 
L 174.274146 176.910545 
L 176.451707 180.576 
L 178.629268 173.245091 
L 180.806829 176.910545 
L 182.98439 173.245091 
L 185.161951 173.245091 
L 187.339512 169.579636 
L 189.517073 162.248727 
L 191.694634 162.248727 
L 193.872195 158.583273 
L 196.049756 165.914182 
L 198.227317 158.583273 
L 200.404878 154.917818 
L 204.76 154.917818 
L 206.937561 143.921455 
L 209.115122 140.256 
L 211.292683 143.921455 
L 213.470244 162.248727 
L 215.647805 169.579636 
L 217.825366 173.245091 
L 220.002927 173.245091 
L 222.180488 165.914182 
L 224.358049 165.914182 
L 230.890732 154.917818 
L 233.068293 158.583273 
L 237.423415 151.252364 
L 239.600976 154.917818 
L 241.778537 154.917818 
L 243.956098 162.248727 
L 246.133659 151.252364 
L 248.31122 147.586909 
L 250.48878 147.586909 
L 259.199024 132.925091 
L 261.376585 132.925091 
L 263.554146 140.256 
L 267.909268 132.925091 
L 270.086829 125.594182 
L 272.26439 121.928727 
L 274.441951 114.597818 
L 280.974634 136.590545 
L 283.152195 140.256 
L 285.329756 151.252364 
L 287.507317 154.917818 
L 289.684878 154.917818 
L 291.862439 151.252364 
L 294.04 151.252364 
L 296.217561 158.583273 
L 298.395122 158.583273 
L 300.572683 147.586909 
L 302.750244 151.252364 
L 304.927805 151.252364 
L 307.105366 191.572364 
L 309.282927 228.226909 
L 311.460488 261.216 
L 313.638049 250.219636 
L 315.81561 242.888727 
L 317.993171 228.226909 
L 320.170732 217.230545 
L 322.348293 202.568727 
L 324.525854 191.572364 
L 326.703415 176.910545 
L 331.058537 162.248727 
L 335.413659 140.256 
L 337.59122 132.925091 
L 339.76878 107.266909 
L 341.946341 96.270545 
L 344.123902 74.277818 
L 346.301463 70.612364 
L 348.479024 59.616 
L 350.656585 55.950545 
L 352.834146 26.626909 
L 357.189268 26.626909 
L 359.366829 19.296 
L 361.54439 22.961455 
L 363.721951 19.296 
L 365.899512 52.285091 
L 372.432195 85.274182 
L 374.609756 92.605091 
L 376.787317 107.266909 
L 378.964878 110.932364 
L 381.142439 121.928727 
L 383.32 114.597818 
L 383.32 114.597818 
" clip-path="url(#pb850693631)" style="fill: none; stroke: #b3de69; stroke-width: 2; stroke-linecap: square"/>
   </g>
   <g id="patch_3">
    <path d="M 26.2 273.312 
L 26.2 7.2 
" style="fill: none; stroke: #000000; stroke-width: 0.6; stroke-linejoin: miter; stroke-linecap: square"/>
   </g>
   <g id="patch_4">
    <path d="M 26.2 273.312 
L 383.32 273.312 
" style="fill: none; stroke: #000000; stroke-width: 0.6; stroke-linejoin: miter; stroke-linecap: square"/>
   </g>
   <g id="legend_1">
    <g id="patch_5">
     <path d="M 33.2 51.720312 
L 172.564062 51.720312 
Q 174.564062 51.720312 174.564062 49.720312 
L 174.564062 14.2 
Q 174.564062 12.2 172.564062 12.2 
L 33.2 12.2 
Q 31.2 12.2 31.2 14.2 
L 31.2 49.720312 
Q 31.2 51.720312 33.2 51.720312 
z
" style="fill: #ffffff; opacity: 0.8; stroke: #e6e6e6; stroke-width: 0.8; stroke-linejoin: miter"/>
    </g>
    <g id="line2d_26">
     <path d="M 33.2 17.7 
L 43.2 17.7 
L 53.2 17.7 
" style="fill: none; stroke: #bc80bd; stroke-width: 2; stroke-linecap: square"/>
    </g>
    <g id="text_17">
     <!-- Vacancies (ICT), thousands -->
     <g style="fill: #323034" transform="translate(61.2 21.2) scale(0.1 -0.1)">
      <defs>
       <path id="STIXGeneral-Regular-56" d="M 4461 4237 
L 4461 4115 
Q 4262 4109 4134 3990 
Q 4006 3872 3872 3533 
L 2451 -70 
L 2355 -70 
L 794 3411 
Q 589 3866 467 3987 
Q 346 4109 102 4115 
L 102 4237 
L 1798 4237 
L 1798 4115 
L 1619 4102 
Q 1331 4083 1331 3904 
Q 1331 3776 1581 3219 
L 2554 1030 
L 3494 3392 
Q 3616 3699 3616 3853 
Q 3616 3898 3606 3933 
Q 3597 3968 3584 3993 
Q 3571 4019 3536 4038 
Q 3501 4058 3481 4067 
Q 3462 4077 3411 4086 
Q 3360 4096 3337 4099 
Q 3315 4102 3248 4108 
Q 3181 4115 3155 4115 
L 3155 4237 
L 4461 4237 
z
" transform="scale(0.015625)"/>
       <path id="STIXGeneral-Regular-63" d="M 2547 998 
L 2637 941 
Q 2362 403 2112 205 
Q 1786 -64 1376 -64 
Q 845 -64 502 336 
Q 160 736 160 1357 
Q 160 2170 698 2618 
Q 1094 2944 1562 2944 
Q 1965 2944 2256 2749 
Q 2547 2554 2547 2285 
Q 2547 2176 2457 2096 
Q 2368 2016 2246 2016 
Q 2022 2016 1939 2310 
L 1901 2451 
Q 1850 2630 1773 2694 
Q 1696 2758 1523 2758 
Q 1133 2758 893 2451 
Q 653 2144 653 1645 
Q 653 1094 928 745 
Q 1203 397 1645 397 
Q 1920 397 2118 528 
Q 2317 659 2547 998 
z
" transform="scale(0.015625)"/>
       <path id="STIXGeneral-Regular-6e" d="M 3104 0 
L 1773 0 
L 1779 96 
Q 2016 115 2096 233 
Q 2176 352 2176 672 
L 2176 1946 
Q 2176 2592 1709 2592 
Q 1549 2592 1408 2515 
Q 1267 2438 1050 2227 
L 1050 461 
Q 1050 269 1136 192 
Q 1222 115 1466 96 
L 1466 0 
L 115 0 
L 115 96 
Q 358 115 435 214 
Q 512 314 512 602 
L 512 2157 
Q 512 2394 467 2483 
Q 422 2573 288 2573 
Q 160 2573 102 2547 
L 102 2656 
Q 550 2784 979 2944 
L 1030 2925 
L 1030 2426 
L 1037 2426 
Q 1491 2944 1958 2944 
Q 2323 2944 2518 2688 
Q 2714 2432 2714 1958 
L 2714 544 
Q 2714 288 2790 205 
Q 2867 122 3104 96 
L 3104 0 
z
" transform="scale(0.015625)"/>
       <path id="STIXGeneral-Regular-69" d="M 1152 4045 
Q 1152 3904 1056 3811 
Q 960 3718 819 3718 
Q 685 3718 592 3811 
Q 499 3904 499 4045 
Q 499 4179 595 4275 
Q 691 4371 826 4371 
Q 966 4371 1059 4275 
Q 1152 4179 1152 4045 
z
M 1619 0 
L 102 0 
L 102 96 
Q 435 115 521 211 
Q 608 307 608 666 
L 608 2118 
Q 608 2342 563 2432 
Q 518 2522 397 2522 
Q 243 2522 128 2490 
L 128 2592 
L 1120 2944 
L 1146 2918 
L 1146 672 
Q 1146 314 1226 218 
Q 1306 122 1619 96 
L 1619 0 
z
" transform="scale(0.015625)"/>
       <path id="STIXGeneral-Regular-73" d="M 998 1926 
L 1664 1523 
Q 1984 1331 2105 1164 
Q 2227 998 2227 736 
Q 2227 416 1961 176 
Q 1696 -64 1331 -64 
Q 1030 -64 864 -6 
Q 691 51 570 51 
Q 461 51 416 -26 
L 333 -26 
L 333 979 
L 435 979 
Q 538 512 730 294 
Q 922 77 1248 77 
Q 1485 77 1632 211 
Q 1779 346 1779 550 
Q 1779 845 1440 1030 
L 1094 1222 
Q 326 1651 326 2150 
Q 326 2522 566 2730 
Q 806 2938 1210 2938 
Q 1491 2938 1638 2867 
Q 1754 2816 1818 2816 
Q 1862 2816 1920 2880 
L 1990 2880 
L 2022 2010 
L 1926 2010 
Q 1818 2445 1654 2621 
Q 1491 2797 1203 2797 
Q 986 2797 854 2688 
Q 723 2579 723 2362 
Q 723 2253 796 2128 
Q 870 2003 998 1926 
z
" transform="scale(0.015625)"/>
       <path id="STIXGeneral-Regular-20" transform="scale(0.015625)"/>
       <path id="STIXGeneral-Regular-28" d="M 1946 -1030 
L 1869 -1133 
Q 1126 -710 716 32 
Q 307 774 307 1613 
Q 307 3386 1888 4326 
L 1946 4224 
Q 1293 3667 1075 3126 
Q 858 2586 858 1632 
Q 858 685 1082 96 
Q 1306 -493 1946 -1030 
z
" transform="scale(0.015625)"/>
       <path id="STIXGeneral-Regular-49" d="M 2016 0 
L 115 0 
L 115 122 
Q 518 134 627 240 
Q 736 346 736 717 
L 736 3526 
Q 736 3898 633 3994 
Q 531 4090 115 4115 
L 115 4237 
L 2016 4237 
L 2016 4115 
Q 1613 4096 1501 3993 
Q 1389 3891 1389 3526 
L 1389 717 
Q 1389 358 1504 246 
Q 1619 134 2016 122 
L 2016 0 
z
" transform="scale(0.015625)"/>
       <path id="STIXGeneral-Regular-43" d="M 3930 838 
L 4051 723 
Q 3482 -90 2304 -90 
Q 1376 -90 794 480 
Q 179 1082 179 2080 
Q 179 3014 755 3661 
Q 1357 4326 2310 4326 
Q 2720 4326 3072 4230 
Q 3475 4115 3514 4115 
Q 3725 4115 3782 4326 
L 3910 4326 
L 3968 2874 
L 3821 2874 
Q 3718 3334 3488 3584 
Q 3034 4070 2458 4070 
Q 1747 4070 1334 3548 
Q 922 3027 922 2182 
Q 922 1152 1382 653 
Q 1811 192 2522 192 
Q 2944 192 3251 339 
Q 3558 486 3930 838 
z
" transform="scale(0.015625)"/>
       <path id="STIXGeneral-Regular-54" d="M 3795 3149 
L 3642 3149 
Q 3539 3674 3353 3821 
Q 3168 3968 2656 3968 
L 2278 3968 
L 2278 710 
Q 2278 346 2387 243 
Q 2496 141 2893 122 
L 2893 0 
L 1024 0 
L 1024 122 
Q 1427 147 1526 256 
Q 1626 365 1626 787 
L 1626 3968 
L 1242 3968 
Q 723 3968 540 3817 
Q 358 3667 262 3149 
L 109 3149 
L 154 4237 
L 3750 4237 
L 3795 3149 
z
" transform="scale(0.015625)"/>
       <path id="STIXGeneral-Regular-29" d="M 186 4224 
L 262 4326 
Q 992 3891 1408 3148 
Q 1824 2406 1824 1581 
Q 1824 -166 243 -1133 
L 186 -1030 
Q 845 -486 1059 54 
Q 1274 595 1274 1562 
Q 1274 2534 1059 3120 
Q 845 3706 186 4224 
z
" transform="scale(0.015625)"/>
       <path id="STIXGeneral-Regular-2c" d="M 531 -902 
L 467 -781 
Q 998 -422 998 -96 
Q 998 -13 909 -13 
Q 883 -13 822 -25 
Q 762 -38 723 -38 
Q 352 -38 352 288 
Q 352 454 457 553 
Q 563 653 736 653 
Q 954 653 1101 496 
Q 1248 339 1248 96 
Q 1248 -198 1053 -473 
Q 858 -749 531 -902 
z
" transform="scale(0.015625)"/>
       <path id="STIXGeneral-Regular-68" d="M 3117 0 
L 1760 0 
L 1760 96 
Q 2042 128 2118 224 
Q 2195 320 2195 653 
L 2195 1920 
Q 2195 2598 1722 2598 
Q 1530 2598 1370 2508 
Q 1210 2419 1005 2195 
L 1005 653 
Q 1005 320 1081 224 
Q 1158 128 1440 96 
L 1440 0 
L 58 0 
L 58 96 
Q 333 134 400 224 
Q 467 314 467 653 
L 467 3667 
Q 467 3872 406 3933 
Q 346 3994 141 3994 
Q 83 3994 64 3987 
L 64 4090 
L 237 4141 
Q 730 4288 973 4371 
L 1005 4352 
L 1005 2406 
Q 1229 2694 1446 2819 
Q 1664 2944 1946 2944 
Q 2733 2944 2733 1926 
L 2733 653 
Q 2733 320 2793 233 
Q 2854 147 3117 96 
L 3117 0 
z
" transform="scale(0.015625)"/>
       <path id="STIXGeneral-Regular-6f" d="M 3008 1478 
Q 3008 806 2608 371 
Q 2208 -64 1568 -64 
Q 979 -64 582 368 
Q 186 800 186 1459 
Q 186 2125 582 2534 
Q 979 2944 1626 2944 
Q 2221 2944 2614 2537 
Q 3008 2131 3008 1478 
z
M 2432 1306 
Q 2432 2035 2112 2445 
Q 1856 2765 1504 2765 
Q 1171 2765 966 2493 
Q 762 2221 762 1747 
Q 762 928 1101 435 
Q 1318 115 1677 115 
Q 2029 115 2230 432 
Q 2432 749 2432 1306 
z
" transform="scale(0.015625)"/>
       <path id="STIXGeneral-Regular-75" d="M 3072 320 
L 3072 230 
Q 2573 96 2195 -58 
L 2163 -38 
L 2163 486 
L 2150 486 
Q 1747 -64 1235 -64 
Q 870 -64 662 160 
Q 454 384 454 755 
L 454 2362 
Q 454 2598 371 2688 
Q 288 2778 58 2790 
L 58 2880 
L 992 2880 
L 992 813 
Q 992 595 1123 451 
Q 1254 307 1446 307 
Q 1760 307 1984 506 
Q 2067 582 2099 649 
Q 2131 717 2131 877 
L 2131 2355 
Q 2131 2605 2041 2678 
Q 1952 2752 1658 2771 
L 1658 2880 
L 2669 2880 
L 2669 685 
Q 2669 461 2742 390 
Q 2816 320 3034 320 
L 3072 320 
z
" transform="scale(0.015625)"/>
      </defs>
      <use xlink:href="#STIXGeneral-Regular-56"/>
      <use xlink:href="#STIXGeneral-Regular-61" x="72.199982"/>
      <use xlink:href="#STIXGeneral-Regular-63" x="116.599976"/>
      <use xlink:href="#STIXGeneral-Regular-61" x="160.999969"/>
      <use xlink:href="#STIXGeneral-Regular-6e" x="205.399963"/>
      <use xlink:href="#STIXGeneral-Regular-63" x="255.399948"/>
      <use xlink:href="#STIXGeneral-Regular-69" x="299.799942"/>
      <use xlink:href="#STIXGeneral-Regular-65" x="327.59993"/>
      <use xlink:href="#STIXGeneral-Regular-73" x="371.999924"/>
      <use xlink:href="#STIXGeneral-Regular-20" x="410.899918"/>
      <use xlink:href="#STIXGeneral-Regular-28" x="435.899902"/>
      <use xlink:href="#STIXGeneral-Regular-49" x="469.19989"/>
      <use xlink:href="#STIXGeneral-Regular-43" x="502.499878"/>
      <use xlink:href="#STIXGeneral-Regular-54" x="569.199875"/>
      <use xlink:href="#STIXGeneral-Regular-29" x="630.299866"/>
      <use xlink:href="#STIXGeneral-Regular-2c" x="663.599854"/>
      <use xlink:href="#STIXGeneral-Regular-20" x="688.599838"/>
      <use xlink:href="#STIXGeneral-Regular-74" x="713.599823"/>
      <use xlink:href="#STIXGeneral-Regular-68" x="741.399811"/>
      <use xlink:href="#STIXGeneral-Regular-6f" x="791.399796"/>
      <use xlink:href="#STIXGeneral-Regular-75" x="841.39978"/>
      <use xlink:href="#STIXGeneral-Regular-73" x="891.399765"/>
      <use xlink:href="#STIXGeneral-Regular-61" x="930.299759"/>
      <use xlink:href="#STIXGeneral-Regular-6e" x="974.699753"/>
      <use xlink:href="#STIXGeneral-Regular-64" x="1024.699738"/>
      <use xlink:href="#STIXGeneral-Regular-73" x="1074.699722"/>
     </g>
    </g>
    <g id="line2d_27">
     <path d="M 33.2 30.870313 
L 43.2 30.870313 
L 53.2 30.870313 
" style="fill: none; stroke: #fb8072; stroke-width: 2; stroke-linecap: square"/>
    </g>
    <g id="text_18">
     <!-- lead (12 months) -->
     <g style="fill: #323034" transform="translate(61.2 34.370313) scale(0.1 -0.1)">
      <defs>
       <path id="STIXGeneral-Regular-6c" d="M 1645 0 
L 134 0 
L 134 96 
Q 435 122 531 221 
Q 627 320 627 589 
L 627 3590 
Q 627 3821 569 3910 
Q 512 4000 358 4000 
Q 224 4000 122 3987 
L 122 4090 
Q 730 4237 1133 4371 
L 1165 4346 
L 1165 557 
Q 1165 288 1254 201 
Q 1344 115 1645 96 
L 1645 0 
z
" transform="scale(0.015625)"/>
       <path id="STIXGeneral-Regular-6d" d="M 4960 0 
L 3565 0 
L 3565 96 
Q 3834 122 3907 208 
Q 3981 294 3981 576 
L 3981 1894 
Q 3981 2278 3869 2444 
Q 3757 2611 3488 2611 
Q 3264 2611 3107 2521 
Q 2950 2432 2803 2221 
L 2803 608 
Q 2803 301 2896 201 
Q 2989 102 3264 96 
L 3264 0 
L 1830 0 
L 1830 96 
Q 2112 115 2189 188 
Q 2266 262 2266 550 
L 2266 1901 
Q 2266 2611 1850 2611 
Q 1670 2611 1468 2531 
Q 1267 2451 1171 2336 
Q 1088 2240 1088 2227 
L 1088 448 
Q 1088 243 1177 176 
Q 1267 109 1523 96 
L 1523 0 
L 102 0 
L 102 96 
Q 371 102 460 195 
Q 550 288 550 563 
L 550 2150 
Q 550 2387 499 2480 
Q 448 2573 326 2573 
Q 230 2573 122 2547 
L 122 2656 
Q 557 2778 1011 2944 
L 1062 2925 
L 1062 2451 
L 1075 2451 
Q 1363 2752 1584 2848 
Q 1805 2944 2054 2944 
Q 2560 2944 2733 2406 
Q 3232 2944 3776 2944 
Q 4518 2944 4518 1792 
L 4518 493 
Q 4518 282 4582 202 
Q 4646 122 4794 109 
L 4960 96 
L 4960 0 
z
" transform="scale(0.015625)"/>
      </defs>
      <use xlink:href="#STIXGeneral-Regular-6c"/>
      <use xlink:href="#STIXGeneral-Regular-65" x="27.799988"/>
      <use xlink:href="#STIXGeneral-Regular-61" x="72.199982"/>
      <use xlink:href="#STIXGeneral-Regular-64" x="116.599976"/>
      <use xlink:href="#STIXGeneral-Regular-20" x="166.59996"/>
      <use xlink:href="#STIXGeneral-Regular-28" x="191.599945"/>
      <use xlink:href="#STIXGeneral-Regular-31" x="224.899933"/>
      <use xlink:href="#STIXGeneral-Regular-32" x="274.899918"/>
      <use xlink:href="#STIXGeneral-Regular-20" x="324.899902"/>
      <use xlink:href="#STIXGeneral-Regular-6d" x="349.899887"/>
      <use xlink:href="#STIXGeneral-Regular-6f" x="427.699875"/>
      <use xlink:href="#STIXGeneral-Regular-6e" x="477.69986"/>
      <use xlink:href="#STIXGeneral-Regular-74" x="527.699844"/>
      <use xlink:href="#STIXGeneral-Regular-68" x="555.499832"/>
      <use xlink:href="#STIXGeneral-Regular-73" x="605.499817"/>
      <use xlink:href="#STIXGeneral-Regular-29" x="644.399811"/>
     </g>
    </g>
    <g id="line2d_28">
     <path d="M 33.2 44.040625 
L 43.2 44.040625 
L 53.2 44.040625 
" style="fill: none; stroke: #b3de69; stroke-width: 2; stroke-linecap: square"/>
    </g>
    <g id="text_19">
     <!-- lag (3 months) -->
     <g style="fill: #323034" transform="translate(61.2 47.540625) scale(0.1 -0.1)">
      <defs>
       <path id="STIXGeneral-Regular-67" d="M 3008 2483 
L 2477 2483 
Q 2598 2208 2598 1946 
Q 2598 1453 2265 1203 
Q 1933 954 1600 954 
Q 1530 954 1357 973 
L 1235 986 
Q 1107 947 979 812 
Q 851 678 851 582 
Q 851 435 1350 410 
L 2176 371 
Q 2528 358 2739 172 
Q 2950 -13 2950 -314 
Q 2950 -685 2566 -986 
Q 2035 -1395 1286 -1395 
Q 826 -1395 502 -1212 
Q 179 -1030 179 -774 
Q 179 -595 320 -419 
Q 461 -243 806 6 
Q 602 102 534 172 
Q 467 243 467 346 
Q 467 531 762 787 
Q 909 915 1037 1043 
Q 717 1203 579 1401 
Q 442 1600 442 1901 
Q 442 2336 752 2640 
Q 1062 2944 1510 2944 
Q 1766 2944 2022 2848 
L 2163 2797 
Q 2349 2733 2515 2733 
L 3008 2733 
L 3008 2483 
z
M 973 2163 
L 973 2144 
Q 973 1683 1155 1398 
Q 1338 1114 1632 1114 
Q 1850 1114 1978 1270 
Q 2106 1427 2106 1690 
Q 2106 2112 1914 2464 
Q 1754 2765 1446 2765 
Q 1222 2765 1097 2605 
Q 973 2445 973 2163 
z
M 2771 -410 
Q 2771 -230 2595 -163 
Q 2419 -96 1978 -96 
Q 1344 -96 941 -13 
Q 749 -243 688 -348 
Q 627 -454 627 -563 
Q 627 -774 880 -902 
Q 1133 -1030 1555 -1030 
Q 2099 -1030 2435 -860 
Q 2771 -691 2771 -410 
z
" transform="scale(0.015625)"/>
      </defs>
      <use xlink:href="#STIXGeneral-Regular-6c"/>
      <use xlink:href="#STIXGeneral-Regular-61" x="27.799988"/>
      <use xlink:href="#STIXGeneral-Regular-67" x="72.199982"/>
      <use xlink:href="#STIXGeneral-Regular-20" x="122.199966"/>
      <use xlink:href="#STIXGeneral-Regular-28" x="147.199951"/>
      <use xlink:href="#STIXGeneral-Regular-33" x="180.499939"/>
      <use xlink:href="#STIXGeneral-Regular-20" x="230.499924"/>
      <use xlink:href="#STIXGeneral-Regular-6d" x="255.499908"/>
      <use xlink:href="#STIXGeneral-Regular-6f" x="333.299896"/>
      <use xlink:href="#STIXGeneral-Regular-6e" x="383.299881"/>
      <use xlink:href="#STIXGeneral-Regular-74" x="433.299866"/>
      <use xlink:href="#STIXGeneral-Regular-68" x="461.099854"/>
      <use xlink:href="#STIXGeneral-Regular-73" x="511.099838"/>
      <use xlink:href="#STIXGeneral-Regular-29" x="549.999832"/>
     </g>
    </g>
   </g>
  </g>
 </g>
 <defs>
  <clipPath id="pb850693631">
   <rect x="26.2" y="7.2" width="357.12" height="266.112"/>
  </clipPath>
 </defs>
</svg>