<?xml version="1.0" encoding="utf-8" standalone="no"?>
<!DOCTYPE svg PUBLIC "-//W3C//DTD SVG 1.1//EN"
  "http://www.w3.org/Graphics/SVG/1.1/DTD/svg11.dtd">
<svg xmlns:xlink="http://www.w3.org/1999/xlink" width="410.611827pt" height="299.558887pt" viewBox="0 0 410.611827 299.558887" xmlns="http://www.w3.org/2000/svg" version="1.1">
 <metadata>
  <rdf:RDF xmlns:dc="http://purl.org/dc/elements/1.1/" xmlns:cc="http://creativecommons.org/ns#" xmlns:rdf="http://www.w3.org/1999/02/22-rdf-syntax-ns#">
   <cc:Work>
    <dc:type rdf:resource="http://purl.org/dc/dcmitype/StillImage"/>
    <dc:date>2023-08-26T12:02:30.786489</dc:date>
    <dc:format>image/svg+xml</dc:format>
    <dc:creator>
     <cc:Agent>
      <dc:title>Matplotlib v3.7.2, https://matplotlib.org/</dc:title>
     </cc:Agent>
    </dc:creator>
   </cc:Work>
  </rdf:RDF>
 </metadata>
 <defs>
  <style type="text/css">*{stroke-linejoin: round; stroke-linecap: butt}</style>
 </defs>
 <g id="figure_1">
  <g id="patch_1">
   <path d="M 0 299.558887 
L 410.611827 299.558887 
L 410.611827 0 
L 0 0 
z
" style="fill: #ffffff"/>
  </g>
  <g id="axes_1">
   <g id="patch_2">
    <path d="M 46.291827 242.208 
L 403.411827 242.208 
L 403.411827 7.2 
L 46.291827 7.2 
z
" style="fill: #ffffff"/>
   </g>
   <g id="PolyCollection_1">
    <defs>
     <path id="m46377d646b" d="M 62.524554 -101.510836 
L 62.524554 -68.033069 
L 62.926852 -69.106303 
L 63.32915 -70.255447 
L 64.536044 -71.386871 
L 64.938343 -72.457719 
L 65.340641 -73.462648 
L 65.742939 -74.508085 
L 66.145237 -75.539334 
L 67.754429 -76.668476 
L 68.156727 -77.855734 
L 68.559025 -78.99967 
L 68.961323 -80.211357 
L 70.168217 -81.517646 
L 70.570516 -82.872104 
L 70.972814 -84.283913 
L 71.375112 -85.81034 
L 71.77741 -87.179411 
L 72.984304 -88.629126 
L 73.386602 -90.178015 
L 73.7889 -91.896766 
L 74.191198 -93.835741 
L 74.593496 -94.758016 
L 75.800391 -95.773931 
L 76.202689 -96.777466 
L 76.604987 -97.657693 
L 77.007285 -98.452312 
L 77.409583 -99.228907 
L 78.616477 -99.917377 
L 79.018775 -100.685109 
L 79.421073 -101.349593 
L 79.823371 -101.8306 
L 80.225669 -102.279121 
L 81.432564 -102.699277 
L 81.834862 -103.06596 
L 82.23716 -103.382314 
L 82.639458 -103.706935 
L 83.041756 -104.015253 
L 84.24865 -104.040965 
L 84.650948 -104.069235 
L 85.053246 -104.264049 
L 85.455544 -104.203779 
L 85.857842 -104.140555 
L 87.064737 -104.153554 
L 87.467035 -104.295826 
L 87.869333 -104.651768 
L 88.271631 -105.028843 
L 89.880823 -105.453332 
L 90.283121 -105.848152 
L 90.685419 -106.279945 
L 91.087717 -106.77738 
L 91.490015 -107.170588 
L 92.69691 -107.580528 
L 93.099208 -108.075142 
L 93.501506 -108.486076 
L 93.903804 -109.051061 
L 94.306102 -109.476022 
L 95.512996 -109.995542 
L 95.915294 -110.560552 
L 96.317592 -111.123434 
L 96.71989 -111.481414 
L 97.122188 -111.762057 
L 98.329083 -111.897346 
L 98.731381 -112.119455 
L 99.133679 -112.258542 
L 99.535977 -112.267076 
L 99.938275 -112.176895 
L 101.145169 -112.38837 
L 101.547467 -112.549303 
L 101.949765 -112.777557 
L 102.352063 -113.129578 
L 102.754361 -113.508981 
L 103.961256 -113.94278 
L 104.363554 -114.160074 
L 104.765852 -114.594227 
L 105.16815 -114.937374 
L 105.570448 -115.129387 
L 107.17964 -115.295243 
L 107.581938 -115.384798 
L 107.984236 -115.278468 
L 108.386534 -115.371978 
L 109.593429 -115.52263 
L 109.995727 -115.721435 
L 110.398025 -115.705261 
L 110.800323 -115.751551 
L 111.202621 -115.882767 
L 112.409515 -116.07187 
L 112.811813 -116.140504 
L 113.214111 -116.116224 
L 113.616409 -116.067314 
L 114.018708 -116.022146 
L 115.225602 -116.013593 
L 115.6279 -116.043565 
L 116.030198 -116.069614 
L 116.432496 -116.063094 
L 116.834794 -116.041064 
L 118.041688 -115.955302 
L 118.443986 -115.91693 
L 118.846284 -115.838093 
L 119.248582 -115.811249 
L 119.650881 -115.763101 
L 120.857775 -115.631487 
L 121.662371 -115.45794 
L 122.064669 -115.25813 
L 122.466967 -115.257071 
L 123.673861 -115.212463 
L 124.076159 -115.090448 
L 124.478457 -114.909974 
L 124.880756 -114.782995 
L 125.283054 -114.756685 
L 126.489948 -114.741156 
L 126.892246 -114.892959 
L 127.294544 -115.226056 
L 127.696842 -115.504927 
L 128.09914 -115.929229 
L 129.306034 -116.439412 
L 129.708332 -117.134766 
L 130.11063 -117.490357 
L 130.512929 -117.980848 
L 130.915227 -118.429976 
L 132.122121 -118.941872 
L 132.524419 -119.478442 
L 132.926717 -120.085364 
L 133.329015 -120.918785 
L 133.731313 -121.580586 
L 134.938207 -122.488429 
L 135.340505 -123.402156 
L 135.742803 -124.407583 
L 136.145102 -125.369509 
L 136.5474 -126.567153 
L 137.754294 -127.624688 
L 138.156592 -128.628215 
L 138.55889 -129.5384 
L 138.961188 -130.318969 
L 139.363486 -130.772263 
L 140.57038 -130.979633 
L 140.972678 -131.342829 
L 141.374977 -131.730779 
L 141.777275 -131.968994 
L 142.179573 -132.337466 
L 143.386467 -132.701205 
L 143.788765 -132.933113 
L 144.191063 -133.039954 
L 144.593361 -133.213372 
L 144.995659 -133.665368 
L 146.604851 -134.291541 
L 147.00715 -135.061984 
L 147.409448 -135.723796 
L 147.811746 -135.694377 
L 149.01864 -135.818113 
L 149.420938 -135.982508 
L 149.823236 -136.035477 
L 150.225534 -136.042218 
L 150.627832 -135.880953 
L 151.834726 -135.939454 
L 152.237025 -135.870171 
L 152.639323 -135.780624 
L 153.041621 -135.649325 
L 153.443919 -135.572112 
L 154.650813 -135.607702 
L 155.053111 -135.52818 
L 155.455409 -135.366245 
L 155.857707 -135.292519 
L 156.260005 -135.183189 
L 157.466899 -134.869119 
L 157.869198 -134.506407 
L 158.271496 -134.165987 
L 158.673794 -133.78625 
L 159.076092 -133.503442 
L 160.282986 -133.300875 
L 160.685284 -133.169317 
L 161.087582 -133.197192 
L 161.48988 -133.282515 
L 161.892178 -133.373763 
L 163.099073 -133.610943 
L 163.501371 -133.74068 
L 163.903669 -133.863094 
L 164.305967 -134.026309 
L 164.708265 -134.296473 
L 165.915159 -134.534061 
L 166.317457 -134.874007 
L 166.719755 -135.236716 
L 167.122053 -135.791624 
L 167.524351 -136.581364 
L 168.731246 -137.52634 
L 169.133544 -138.637576 
L 169.535842 -139.524599 
L 169.93814 -140.34733 
L 170.340438 -141.287589 
L 171.547332 -142.213109 
L 171.94963 -143.203166 
L 172.351928 -144.170286 
L 172.754226 -145.284316 
L 173.156524 -146.247839 
L 174.363419 -147.253388 
L 174.765717 -148.26118 
L 175.168015 -149.308869 
L 175.570313 -150.338252 
L 175.972611 -151.479183 
L 177.179505 -152.493676 
L 177.581803 -153.229769 
L 177.984101 -153.94299 
L 178.788697 -154.691466 
L 179.995592 -156.045762 
L 180.39789 -157.459718 
L 180.800188 -159.016928 
L 181.202486 -160.585626 
L 181.604784 -162.472402 
L 182.811678 -164.447315 
L 183.213976 -165.511463 
L 183.616274 -166.076574 
L 184.018572 -166.351763 
L 184.42087 -166.943816 
L 185.627765 -167.283049 
L 186.030063 -167.26101 
L 186.432361 -167.23094 
L 186.834659 -167.239399 
L 187.236957 -167.230328 
L 188.443851 -167.21316 
L 188.846149 -167.064769 
L 189.248447 -166.95757 
L 189.650745 -166.66875 
L 190.053043 -166.446672 
L 191.662236 -166.128276 
L 192.064534 -165.917686 
L 192.466832 -164.708558 
L 192.86913 -162.767449 
L 194.478322 -161.960735 
L 194.88062 -160.740159 
L 195.282918 -158.975307 
L 195.685216 -157.647352 
L 196.892111 -157.217649 
L 197.294409 -156.841945 
L 197.696707 -156.70168 
L 198.099005 -156.825573 
L 198.501303 -156.946565 
L 200.110495 -157.084325 
L 200.512793 -157.185303 
L 200.915091 -157.326242 
L 201.31739 -157.383138 
L 202.524284 -157.453715 
L 202.926582 -157.524215 
L 203.32888 -157.608005 
L 203.731178 -157.638889 
L 204.133476 -157.642061 
L 205.34037 -157.674657 
L 205.742668 -157.712156 
L 206.144966 -157.723935 
L 206.547264 -157.750795 
L 206.949563 -157.908581 
L 208.156457 -158.05133 
L 208.558755 -158.219785 
L 208.961053 -158.50631 
L 209.363351 -158.652396 
L 209.765649 -158.804659 
L 210.972543 -158.892249 
L 211.374841 -158.915944 
L 211.777139 -158.825058 
L 212.179437 -158.615203 
L 212.581736 -158.145175 
L 214.190928 -158.093174 
L 214.593226 -157.805358 
L 214.995524 -157.421747 
L 215.397822 -157.108966 
L 216.604716 -156.74201 
L 217.007014 -156.488974 
L 217.409312 -156.390814 
L 217.811611 -156.331707 
L 218.213909 -156.139154 
L 219.420803 -156.12329 
L 219.823101 -156.199114 
L 220.225399 -156.426607 
L 220.627697 -156.762001 
L 221.029995 -157.085993 
L 222.236889 -157.412492 
L 222.639187 -158.393859 
L 223.041485 -159.935896 
L 223.443784 -160.652621 
L 223.846082 -161.382452 
L 225.052976 -162.766818 
L 225.455274 -163.673084 
L 225.857572 -163.783125 
L 226.25987 -163.769714 
L 226.662168 -163.25811 
L 227.869062 -162.749303 
L 228.27136 -162.575954 
L 228.673659 -162.699927 
L 229.075957 -162.868416 
L 230.685149 -162.864191 
L 231.087447 -162.744649 
L 231.489745 -162.575812 
L 231.892043 -162.374542 
L 232.294341 -162.072742 
L 233.501235 -161.939901 
L 233.903533 -161.842825 
L 234.305832 -161.824038 
L 234.70813 -161.78112 
L 235.110428 -161.857282 
L 236.317322 -161.907566 
L 236.71962 -161.875409 
L 237.121918 -161.842642 
L 237.524216 -161.819864 
L 237.926514 -161.852889 
L 239.133408 -161.889456 
L 239.535707 -161.972614 
L 239.938005 -162.178869 
L 240.340303 -162.410441 
L 240.742601 -162.837186 
L 241.949495 -163.436885 
L 242.351793 -164.378674 
L 242.754091 -164.771212 
L 243.156389 -165.537438 
L 243.558687 -166.537477 
L 244.765581 -167.476437 
L 245.16788 -168.553842 
L 245.570178 -169.535108 
L 245.972476 -170.289148 
L 246.374774 -170.97215 
L 247.581668 -172.048244 
L 247.983966 -172.954043 
L 248.386264 -173.634286 
L 248.788562 -174.371858 
L 249.19086 -174.976662 
L 250.397754 -175.446972 
L 250.800053 -175.929787 
L 251.202351 -176.24752 
L 251.604649 -176.639274 
L 252.006947 -177.409521 
L 253.616139 -179.008128 
L 254.018437 -180.634755 
L 254.420735 -182.748466 
L 254.823033 -184.98901 
L 256.029928 -187.380684 
L 256.432226 -190.427532 
L 256.834524 -193.268763 
L 257.236822 -195.791126 
L 257.63912 -197.102013 
L 258.846014 -198.505016 
L 259.248312 -198.927314 
L 259.65061 -199.231984 
L 260.052908 -199.466757 
L 260.455206 -199.618332 
L 261.662101 -199.647131 
L 262.064399 -199.687552 
L 262.466697 -199.703466 
L 262.868995 -199.863349 
L 263.271293 -199.952395 
L 264.478187 -200.089438 
L 264.880485 -200.287927 
L 265.282783 -199.947199 
L 265.685081 -199.172153 
L 266.087379 -198.581113 
L 267.294274 -198.128928 
L 267.696572 -197.978534 
L 268.501168 -197.96175 
L 268.903466 -197.9674 
L 270.11036 -198.143151 
L 270.512658 -198.131961 
L 270.914956 -198.076354 
L 271.317254 -198.007128 
L 271.719552 -197.834324 
L 272.926447 -197.541595 
L 273.328745 -197.563782 
L 273.731043 -197.71533 
L 274.133341 -197.885979 
L 274.535639 -198.193292 
L 275.742533 -198.540241 
L 276.144831 -199.025453 
L 276.547129 -199.539011 
L 276.949427 -200.252516 
L 277.351725 -200.9353 
L 278.55862 -201.71515 
L 278.960918 -202.644857 
L 279.363216 -204.006452 
L 279.765514 -205.367922 
L 280.167812 -206.868075 
L 281.374706 -208.339437 
L 281.777004 -209.86788 
L 282.179302 -211.314872 
L 282.5816 -213.091481 
L 282.983898 -214.852198 
L 284.190793 -216.444141 
L 284.593091 -217.849285 
L 284.995389 -219.329495 
L 285.397687 -221.131207 
L 285.799985 -222.653539 
L 287.006879 -224.237541 
L 287.409177 -225.936912 
L 287.811475 -227.641638 
L 288.213773 -229.556108 
L 288.616071 -231.393931 
L 289.822966 -233.369649 
L 290.225264 -235.412074 
L 290.627562 -237.355555 
L 291.02986 -239.255732 
L 291.432158 -241.333659 
L 293.04135 -243.99451 
L 293.443648 -247.070964 
L 293.845946 -250.154024 
L 294.248245 -251.515068 
L 295.455139 -252.525603 
L 295.857437 -253.33462 
L 296.259735 -254.230367 
L 296.662033 -255.371534 
L 297.064331 -256.295515 
L 298.271225 -257.23599 
L 298.673523 -258.360968 
L 299.075821 -259.435947 
L 299.478119 -260.013338 
L 299.880418 -260.880404 
L 301.087312 -261.16677 
L 301.48961 -260.666166 
L 301.891908 -260.457776 
L 302.294206 -260.744309 
L 302.696504 -261.187089 
L 303.903398 -260.213754 
L 304.305696 -258.295272 
L 304.707994 -256.783028 
L 305.110293 -256.04536 
L 305.512591 -255.150172 
L 306.719485 -253.800835 
L 307.121783 -251.028683 
L 307.524081 -248.200733 
L 307.926379 -244.727402 
L 308.328677 -242.270148 
L 309.535571 -240.265697 
L 309.937869 -237.424273 
L 310.340167 -233.348745 
L 310.742466 -229.607963 
L 311.144764 -225.423966 
L 312.351658 -221.863505 
L 312.753956 -218.549842 
L 313.156254 -216.167628 
L 313.558552 -213.724948 
L 313.96085 -211.248096 
L 315.167744 -209.501958 
L 315.570042 -206.990197 
L 315.972341 -204.36107 
L 316.374639 -201.18197 
L 316.776937 -198.25618 
L 317.983831 -195.367862 
L 318.386129 -192.6774 
L 318.788427 -190.330823 
L 319.190725 -187.633366 
L 319.593023 -184.853761 
L 320.799917 -182.380475 
L 321.202215 -179.509452 
L 321.604514 -176.421685 
L 322.006812 -172.696236 
L 322.40911 -168.703436 
L 323.616004 -166.067454 
L 324.018302 -163.41012 
L 324.4206 -160.97047 
L 325.225196 -158.79762 
L 326.43209 -156.678842 
L 326.834388 -153.196006 
L 327.236687 -150.58521 
L 327.638985 -148.193681 
L 328.041283 -146.026803 
L 329.248177 -144.381539 
L 329.650475 -142.829196 
L 330.455071 -141.180896 
L 330.857369 -139.524953 
L 332.064263 -138.548966 
L 332.466562 -138.175812 
L 332.86886 -137.335465 
L 333.271158 -136.4869 
L 333.673456 -135.586787 
L 334.88035 -135.230159 
L 335.282648 -135.003983 
L 335.684946 -135.126035 
L 336.087244 -134.761283 
L 336.489542 -134.330363 
L 337.696436 -134.317814 
L 338.501033 -134.620733 
L 338.903331 -135.19117 
L 339.305629 -135.495604 
L 340.512523 -135.528423 
L 341.317119 -135.559047 
L 341.719417 -135.555608 
L 342.121715 -135.56472 
L 343.32861 -135.56728 
L 343.730908 -135.734609 
L 344.133206 -135.871959 
L 344.535504 -135.992534 
L 344.937802 -136.43994 
L 346.144696 -136.537246 
L 346.546994 -136.57239 
L 346.949292 -136.565968 
L 347.35159 -136.533138 
L 347.753888 -136.485434 
L 349.363081 -136.440726 
L 349.765379 -136.387123 
L 350.167677 -136.428404 
L 350.569975 -136.496488 
L 351.776869 -136.509394 
L 352.179167 -136.724411 
L 352.581465 -137.196637 
L 352.983763 -138.165551 
L 353.386061 -139.555363 
L 354.592956 -140.043189 
L 354.995254 -140.604151 
L 355.397552 -141.198042 
L 355.79985 -141.69122 
L 356.202148 -142.166433 
L 357.409042 -144.206227 
L 357.81134 -145.718017 
L 358.213638 -147.32822 
L 358.615936 -148.463883 
L 359.018234 -149.653047 
L 360.627427 -150.959071 
L 361.029725 -152.542131 
L 361.432023 -154.447322 
L 361.834321 -156.105172 
L 363.041215 -157.631843 
L 363.443513 -159.12635 
L 363.845811 -160.544392 
L 364.248109 -162.433645 
L 364.650407 -164.372243 
L 365.857302 -166.56539 
L 366.2596 -168.155333 
L 366.661898 -170.088971 
L 367.064196 -172.348585 
L 367.466494 -173.545686 
L 368.673388 -174.713693 
L 369.075686 -175.949146 
L 369.477984 -176.823121 
L 369.880282 -177.425753 
L 370.28258 -178.078741 
L 371.489475 -179.063891 
L 371.891773 -180.025026 
L 372.294071 -181.191357 
L 372.696369 -182.364253 
L 373.098667 -183.702123 
L 374.305561 -185.052412 
L 374.707859 -186.544394 
L 375.110157 -187.901892 
L 375.512455 -189.286745 
L 375.914753 -190.801561 
L 377.121648 -192.294383 
L 377.523946 -193.771676 
L 377.926244 -195.300734 
L 378.328542 -196.814943 
L 378.73084 -198.525742 
L 379.937734 -199.549925 
L 380.340032 -200.691786 
L 380.74233 -202.032667 
L 381.144628 -203.501255 
L 381.546927 -205.239058 
L 382.753821 -206.525985 
L 383.156119 -207.365914 
L 383.558417 -207.636519 
L 383.960715 -207.484494 
L 385.569907 -207.045399 
L 385.972205 -206.312232 
L 386.374503 -205.348605 
L 386.776801 -204.627639 
L 387.1791 -203.430339 
L 387.1791 -240.638754 
L 387.1791 -240.638754 
L 386.776801 -240.414581 
L 386.374503 -240.284626 
L 385.972205 -240.101596 
L 385.569907 -239.932985 
L 383.960715 -239.813426 
L 383.558417 -239.767805 
L 383.156119 -239.838538 
L 382.753821 -240.019442 
L 381.546927 -240.453552 
L 381.144628 -240.841674 
L 380.74233 -241.033738 
L 380.340032 -241.11129 
L 379.937734 -241.192022 
L 378.73084 -241.31727 
L 378.328542 -241.085727 
L 377.926244 -240.573766 
L 377.523946 -239.863845 
L 377.121648 -239.09637 
L 375.914753 -237.806937 
L 375.512455 -236.132546 
L 375.110157 -234.608722 
L 374.707859 -232.862166 
L 374.305561 -231.984283 
L 373.098667 -230.684822 
L 372.696369 -229.348427 
L 372.294071 -227.825454 
L 371.891773 -226.03508 
L 371.489475 -224.092066 
L 370.28258 -222.387816 
L 369.880282 -220.661559 
L 369.477984 -218.936887 
L 369.075686 -217.559303 
L 368.673388 -216.174663 
L 367.466494 -214.746122 
L 367.064196 -213.246092 
L 366.661898 -211.854466 
L 366.2596 -210.349347 
L 365.857302 -208.567287 
L 364.650407 -207.237201 
L 364.248109 -205.850238 
L 363.845811 -204.392618 
L 363.443513 -202.841374 
L 363.041215 -201.510742 
L 361.834321 -200.243226 
L 361.432023 -199.055594 
L 361.029725 -197.895736 
L 360.627427 -196.723936 
L 359.018234 -195.238327 
L 358.615936 -193.4182 
L 358.213638 -191.028075 
L 357.81134 -189.434225 
L 357.409042 -187.896781 
L 356.202148 -186.296977 
L 355.79985 -184.509052 
L 355.397552 -182.912863 
L 354.995254 -181.457072 
L 354.592956 -180.023784 
L 353.386061 -178.755621 
L 352.983763 -178.052832 
L 352.581465 -177.263848 
L 352.179167 -176.297066 
L 351.776869 -175.309427 
L 350.569975 -174.500111 
L 350.167677 -173.64895 
L 349.765379 -173.033114 
L 349.363081 -172.615505 
L 347.753888 -172.104883 
L 347.35159 -171.56287 
L 346.949292 -171.209211 
L 346.546994 -170.945512 
L 346.144696 -171.130915 
L 344.937802 -171.622562 
L 344.535504 -173.135948 
L 344.133206 -173.806267 
L 343.730908 -174.617163 
L 343.32861 -175.51192 
L 342.121715 -175.833369 
L 341.719417 -176.111725 
L 341.317119 -176.212749 
L 340.512523 -176.442598 
L 339.305629 -176.69437 
L 338.903331 -178.13862 
L 338.501033 -180.816793 
L 337.696436 -183.06655 
L 336.489542 -184.736121 
L 336.087244 -187.235482 
L 335.684946 -189.82682 
L 335.282648 -193.594324 
L 334.88035 -197.721623 
L 333.673456 -201.681438 
L 333.271158 -204.664391 
L 332.86886 -207.256523 
L 332.466562 -210.389184 
L 332.064263 -215.204954 
L 330.857369 -219.30311 
L 330.455071 -222.528134 
L 329.650475 -225.50126 
L 329.248177 -228.768628 
L 328.041283 -232.252327 
L 327.638985 -235.049275 
L 327.236687 -238.434802 
L 326.834388 -241.413384 
L 326.43209 -243.88972 
L 325.225196 -246.246927 
L 324.4206 -248.966364 
L 324.018302 -251.610495 
L 323.616004 -253.671644 
L 322.40911 -256.042728 
L 322.006812 -257.267248 
L 321.604514 -258.605593 
L 321.202215 -260.922759 
L 320.799917 -262.899489 
L 319.593023 -264.910305 
L 319.190725 -267.068104 
L 318.788427 -269.504751 
L 318.386129 -271.647386 
L 317.983831 -273.432974 
L 316.776937 -274.940078 
L 316.374639 -276.27297 
L 315.972341 -277.08625 
L 315.570042 -278.102252 
L 315.167744 -278.970514 
L 313.96085 -279.727425 
L 313.558552 -280.424613 
L 313.156254 -280.952835 
L 312.753956 -281.422183 
L 312.351658 -281.454392 
L 311.144764 -281.676705 
L 310.742466 -281.655011 
L 310.340167 -281.310424 
L 309.937869 -280.83258 
L 309.535571 -280.465517 
L 308.328677 -280.569158 
L 307.926379 -280.52501 
L 307.524081 -280.117375 
L 307.121783 -280.04781 
L 306.719485 -279.82447 
L 305.512591 -280.017279 
L 305.110293 -280.191629 
L 304.707994 -280.212308 
L 304.305696 -279.801846 
L 303.903398 -279.015741 
L 302.696504 -278.663721 
L 302.294206 -278.548996 
L 301.891908 -278.537922 
L 301.48961 -278.4969 
L 301.087312 -278.409654 
L 299.880418 -278.463225 
L 299.478119 -278.587404 
L 299.075821 -278.750143 
L 298.673523 -278.746561 
L 298.271225 -278.852324 
L 297.064331 -278.924847 
L 296.662033 -279.109499 
L 296.259735 -279.097654 
L 295.857437 -278.920661 
L 295.455139 -278.944553 
L 294.248245 -278.755019 
L 293.845946 -279.056196 
L 293.443648 -280.059591 
L 293.04135 -280.209969 
L 291.432158 -280.269776 
L 291.02986 -279.954261 
L 290.627562 -279.220503 
L 290.225264 -278.072188 
L 289.822966 -277.134688 
L 288.616071 -276.274271 
L 288.213773 -275.426833 
L 287.811475 -274.602548 
L 287.409177 -274.003483 
L 287.006879 -273.220408 
L 285.799985 -272.461937 
L 285.397687 -271.863952 
L 284.995389 -271.114588 
L 284.593091 -270.363872 
L 284.190793 -269.56681 
L 282.983898 -268.781772 
L 282.5816 -267.502926 
L 282.179302 -265.924932 
L 281.777004 -264.685433 
L 281.374706 -263.150121 
L 280.167812 -262.018499 
L 279.765514 -260.5787 
L 279.363216 -258.883175 
L 278.960918 -256.718982 
L 278.55862 -254.219279 
L 277.351725 -251.670367 
L 276.949427 -249.305857 
L 276.547129 -247.069741 
L 276.144831 -245.1254 
L 275.742533 -243.297441 
L 274.535639 -241.621129 
L 274.133341 -239.950331 
L 273.731043 -238.29633 
L 273.328745 -236.544217 
L 272.926447 -234.667918 
L 271.719552 -232.447693 
L 271.317254 -230.718836 
L 270.914956 -229.280265 
L 270.512658 -227.778858 
L 270.11036 -226.269021 
L 268.903466 -224.786163 
L 268.501168 -223.134823 
L 267.696572 -221.618098 
L 267.294274 -220.032512 
L 266.087379 -217.958168 
L 265.685081 -215.845875 
L 265.282783 -213.503455 
L 264.880485 -212.087078 
L 264.478187 -211.977286 
L 263.271293 -211.888326 
L 262.868995 -211.758775 
L 262.466697 -211.314742 
L 262.064399 -210.814096 
L 261.662101 -210.513344 
L 260.455206 -210.361612 
L 260.052908 -210.139804 
L 259.65061 -209.867719 
L 259.248312 -209.711003 
L 258.846014 -209.488085 
L 257.63912 -209.749397 
L 257.236822 -209.861832 
L 256.834524 -210.633349 
L 256.432226 -211.67412 
L 256.029928 -212.501039 
L 254.823033 -212.800791 
L 254.420735 -213.108049 
L 254.018437 -213.429678 
L 253.616139 -213.561184 
L 252.006947 -213.446396 
L 251.604649 -213.211303 
L 251.202351 -212.956548 
L 250.800053 -212.764512 
L 250.397754 -212.528308 
L 249.19086 -212.371158 
L 248.788562 -212.087376 
L 248.386264 -211.76411 
L 247.983966 -211.367765 
L 247.581668 -211.010914 
L 246.374774 -210.457733 
L 245.972476 -209.846197 
L 245.570178 -209.060905 
L 245.16788 -208.2617 
L 244.765581 -207.307436 
L 243.558687 -206.380509 
L 243.156389 -205.375982 
L 242.754091 -204.144724 
L 242.351793 -202.842237 
L 241.949495 -201.538255 
L 240.742601 -200.307191 
L 240.340303 -199.211712 
L 239.938005 -198.491471 
L 239.535707 -197.700439 
L 239.133408 -196.967197 
L 237.926514 -196.181284 
L 237.524216 -195.409488 
L 237.121918 -194.682503 
L 236.71962 -194.172859 
L 236.317322 -193.493577 
L 235.110428 -192.764202 
L 234.70813 -191.862094 
L 234.305832 -190.872828 
L 233.903533 -190.055396 
L 233.501235 -188.980698 
L 232.294341 -187.743228 
L 231.892043 -186.523767 
L 231.489745 -185.63155 
L 231.087447 -184.915557 
L 230.685149 -184.051511 
L 229.075957 -183.171895 
L 228.673659 -182.891223 
L 228.27136 -182.65213 
L 227.869062 -182.73512 
L 226.662168 -182.823114 
L 226.25987 -182.701 
L 225.857572 -182.697226 
L 225.455274 -182.734079 
L 225.052976 -183.139308 
L 223.846082 -183.695986 
L 223.443784 -183.895706 
L 223.041485 -183.806994 
L 222.639187 -183.649802 
L 222.236889 -183.210207 
L 221.029995 -182.86248 
L 220.627697 -182.569976 
L 220.225399 -182.300485 
L 219.823101 -182.129464 
L 219.420803 -182.015702 
L 218.213909 -182.029495 
L 217.811611 -182.233224 
L 217.409312 -182.445269 
L 217.007014 -182.707621 
L 216.604716 -183.177162 
L 215.397822 -183.725604 
L 214.995524 -184.229546 
L 214.593226 -184.540439 
L 214.190928 -184.871383 
L 212.581736 -184.958354 
L 212.179437 -185.153529 
L 211.777139 -185.310946 
L 211.374841 -185.407382 
L 210.972543 -185.355948 
L 209.765649 -185.214623 
L 209.363351 -184.864523 
L 208.961053 -184.462775 
L 208.558755 -183.984518 
L 208.156457 -183.41429 
L 206.949563 -182.645199 
L 206.547264 -182.023034 
L 206.144966 -181.846788 
L 205.742668 -181.801161 
L 205.34037 -181.606803 
L 204.133476 -181.408544 
L 203.731178 -181.373327 
L 203.32888 -181.270413 
L 202.926582 -180.842817 
L 202.524284 -180.386116 
L 201.31739 -179.840197 
L 200.915091 -179.623353 
L 200.512793 -179.469595 
L 200.110495 -179.383218 
L 198.501303 -179.251412 
L 198.099005 -179.104808 
L 197.696707 -178.929153 
L 197.294409 -179.020066 
L 196.892111 -179.168653 
L 195.685216 -179.210005 
L 195.282918 -179.113716 
L 194.88062 -178.803688 
L 194.478322 -178.77225 
L 192.86913 -178.881871 
L 192.466832 -178.222752 
L 192.064534 -177.741699 
L 191.662236 -177.713936 
L 190.053043 -177.678626 
L 189.650745 -177.618062 
L 189.248447 -177.588784 
L 188.846149 -177.672142 
L 188.443851 -177.79555 
L 187.236957 -177.858654 
L 186.834659 -177.740269 
L 186.432361 -177.531715 
L 186.030063 -177.129878 
L 185.627765 -176.539402 
L 184.42087 -175.98772 
L 184.018572 -175.816899 
L 183.616274 -175.429829 
L 183.213976 -175.290118 
L 182.811678 -175.448215 
L 181.604784 -176.079527 
L 181.202486 -176.539552 
L 180.800188 -176.688258 
L 180.39789 -176.904747 
L 179.995592 -177.045412 
L 178.788697 -177.106755 
L 177.984101 -177.082362 
L 177.581803 -176.935329 
L 177.179505 -176.803113 
L 175.972611 -176.729408 
L 175.570313 -176.36684 
L 175.168015 -175.933346 
L 174.765717 -175.52107 
L 174.363419 -175.051141 
L 173.156524 -174.389413 
L 172.754226 -173.881004 
L 172.351928 -173.510553 
L 171.94963 -173.066058 
L 171.547332 -172.63871 
L 170.340438 -172.094885 
L 169.93814 -171.756065 
L 169.535842 -171.375817 
L 169.133544 -170.999867 
L 168.731246 -170.601784 
L 167.524351 -170.127738 
L 167.122053 -169.515565 
L 166.719755 -168.815586 
L 166.317457 -168.308369 
L 165.915159 -167.498829 
L 164.708265 -166.599835 
L 164.305967 -165.545124 
L 163.903669 -164.486343 
L 163.501371 -163.619555 
L 163.099073 -163.052492 
L 161.892178 -162.362373 
L 161.48988 -161.651742 
L 161.087582 -161.141203 
L 160.685284 -160.411702 
L 160.282986 -159.469824 
L 159.076092 -158.401569 
L 158.673794 -157.159864 
L 158.271496 -155.760621 
L 157.869198 -154.397462 
L 157.466899 -152.93106 
L 156.260005 -151.603888 
L 155.857707 -150.870979 
L 155.455409 -150.252975 
L 155.053111 -149.183049 
L 154.650813 -148.398026 
L 153.443919 -148.034133 
L 153.041621 -148.227813 
L 152.639323 -148.494058 
L 152.237025 -148.615378 
L 151.834726 -148.64768 
L 150.627832 -148.636873 
L 150.225534 -148.815454 
L 149.823236 -148.797389 
L 149.420938 -148.676263 
L 149.01864 -148.528238 
L 147.811746 -148.497833 
L 147.409448 -148.507419 
L 147.00715 -148.627217 
L 146.604851 -148.801183 
L 144.995659 -148.896631 
L 144.593361 -148.940442 
L 144.191063 -148.92104 
L 143.788765 -148.926652 
L 143.386467 -148.931586 
L 142.179573 -148.979347 
L 141.777275 -149.013795 
L 141.374977 -149.033704 
L 140.972678 -149.059557 
L 140.57038 -149.102602 
L 139.363486 -149.148459 
L 138.961188 -149.240982 
L 138.55889 -149.392829 
L 138.156592 -149.451427 
L 137.754294 -149.363521 
L 136.5474 -149.26646 
L 136.145102 -149.107275 
L 135.742803 -148.937794 
L 135.340505 -148.664109 
L 134.938207 -148.2452 
L 133.731313 -147.745631 
L 133.329015 -147.381103 
L 132.926717 -146.828038 
L 132.524419 -146.159406 
L 132.122121 -145.442997 
L 130.915227 -144.502042 
L 130.512929 -143.519535 
L 130.11063 -142.559698 
L 129.708332 -141.600731 
L 129.306034 -140.783855 
L 128.09914 -140.059752 
L 127.696842 -139.358791 
L 127.294544 -138.570098 
L 126.892246 -137.759885 
L 126.489948 -137.236201 
L 125.283054 -136.981086 
L 124.880756 -136.717452 
L 124.478457 -136.04584 
L 124.076159 -135.232796 
L 123.673861 -134.729053 
L 122.466967 -134.308473 
L 122.064669 -134.064303 
L 121.662371 -133.301489 
L 120.857775 -132.637837 
L 119.650881 -132.129314 
L 119.248582 -131.848048 
L 118.846284 -131.688053 
L 118.443986 -131.368691 
L 118.041688 -131.559913 
L 116.834794 -131.766583 
L 116.432496 -131.800666 
L 116.030198 -132.169438 
L 115.6279 -132.364796 
L 115.225602 -132.651755 
L 114.018708 -132.783758 
L 113.616409 -132.918507 
L 113.214111 -133.101099 
L 112.811813 -133.18002 
L 112.409515 -133.116442 
L 111.202621 -133.027601 
L 110.800323 -132.963409 
L 110.398025 -132.944886 
L 109.995727 -132.947082 
L 109.593429 -132.956947 
L 108.386534 -132.965425 
L 107.984236 -132.974427 
L 107.581938 -132.961305 
L 107.17964 -132.970556 
L 105.570448 -132.999704 
L 105.16815 -133.026645 
L 104.765852 -133.097023 
L 104.363554 -133.133632 
L 103.961256 -133.161663 
L 102.754361 -133.187278 
L 102.352063 -133.180069 
L 101.949765 -133.181282 
L 101.547467 -133.1574 
L 101.145169 -133.145176 
L 99.938275 -133.105776 
L 99.535977 -133.1046 
L 99.133679 -133.103495 
L 98.731381 -133.086825 
L 98.329083 -133.03775 
L 97.122188 -133.014694 
L 96.71989 -132.879392 
L 96.317592 -132.33876 
L 95.915294 -131.750538 
L 95.512996 -131.218649 
L 94.306102 -130.700876 
L 93.903804 -130.009889 
L 93.501506 -129.513454 
L 93.099208 -129.019017 
L 92.69691 -128.424138 
L 91.490015 -127.802929 
L 91.087717 -127.128217 
L 90.685419 -126.485189 
L 90.283121 -125.757502 
L 89.880823 -124.975766 
L 88.271631 -124.258498 
L 87.869333 -123.557368 
L 87.467035 -123.051114 
L 87.064737 -121.918156 
L 85.857842 -120.673971 
L 85.455544 -119.258122 
L 85.053246 -118.075469 
L 84.650948 -117.034703 
L 84.24865 -115.765491 
L 83.041756 -114.549801 
L 82.639458 -113.911157 
L 82.23716 -113.520639 
L 81.834862 -113.048957 
L 81.432564 -112.519583 
L 80.225669 -112.086535 
L 79.823371 -111.917298 
L 79.421073 -111.731517 
L 79.018775 -111.608288 
L 78.616477 -111.43323 
L 77.409583 -111.271147 
L 77.007285 -111.223613 
L 76.604987 -111.144458 
L 76.202689 -111.194411 
L 75.800391 -111.232903 
L 74.593496 -111.197069 
L 74.191198 -111.141721 
L 73.7889 -111.487256 
L 73.386602 -111.64575 
L 72.984304 -111.543146 
L 71.77741 -111.327525 
L 71.375112 -111.002218 
L 70.972814 -110.660754 
L 70.570516 -110.157614 
L 70.168217 -109.671931 
L 68.961323 -109.125206 
L 68.559025 -108.478382 
L 68.156727 -107.750578 
L 67.754429 -107.017098 
L 66.145237 -106.46509 
L 65.742939 -105.869005 
L 65.340641 -105.218447 
L 64.938343 -104.479321 
L 64.536044 -103.844148 
L 63.32915 -103.049951 
L 62.926852 -102.340293 
L 62.524554 -101.510836 
z
" style="stroke: #000000; stroke-opacity: 0.2; stroke-width: 0.8"/>
    </defs>
    <g clip-path="url(#p140b28431b)">
     <use xlink:href="#m46377d646b" x="0" y="299.558887" style="fill: #bc80bd; fill-opacity: 0.2; stroke: #000000; stroke-opacity: 0.2; stroke-width: 0.8"/>
    </g>
   </g>
   <g id="matplotlib.axis_1">
    <g id="xtick_1">
     <g id="line2d_1">
      <defs>
       <path id="m9173a0582d" d="M 0 0 
L 0 3.5 
" style="stroke: #323034; stroke-width: 0.8"/>
      </defs>
      <g>
       <use xlink:href="#m9173a0582d" x="47.237227" y="242.208" style="fill: #323034; stroke: #323034; stroke-width: 0.8"/>
      </g>
     </g>
     <g id="text_1">
      <!-- 2017-01 -->
      <g style="fill: #323034" transform="translate(11.297812 276.303432) rotate(-30) scale(0.12 -0.12)">
       <defs>
        <path id="STIXGeneral-Regular-32" d="M 3034 877 
L 2688 0 
L 186 0 
L 186 77 
L 1325 1286 
Q 1773 1754 1965 2144 
Q 2157 2534 2157 2950 
Q 2157 3379 1920 3616 
Q 1683 3853 1267 3853 
Q 922 3853 720 3673 
Q 518 3494 326 3021 
L 192 3053 
Q 301 3648 630 3987 
Q 960 4326 1523 4326 
Q 2054 4326 2380 4006 
Q 2707 3686 2707 3200 
Q 2707 2477 1888 1613 
L 832 486 
L 2330 486 
Q 2541 486 2665 569 
Q 2790 653 2944 915 
L 3034 877 
z
" transform="scale(0.015625)"/>
        <path id="STIXGeneral-Regular-30" d="M 3046 2112 
Q 3046 1683 2963 1302 
Q 2880 922 2717 602 
Q 2554 282 2266 96 
Q 1978 -90 1600 -90 
Q 1210 -90 915 108 
Q 621 307 461 640 
Q 301 973 227 1350 
Q 154 1728 154 2150 
Q 154 2746 301 3222 
Q 448 3699 790 4012 
Q 1133 4326 1626 4326 
Q 2253 4326 2649 3712 
Q 3046 3098 3046 2112 
z
M 2432 2080 
Q 2432 3091 2217 3625 
Q 2003 4160 1587 4160 
Q 1190 4160 979 3622 
Q 768 3085 768 2106 
Q 768 1120 979 598 
Q 1190 77 1600 77 
Q 2003 77 2217 598 
Q 2432 1120 2432 2080 
z
" transform="scale(0.015625)"/>
        <path id="STIXGeneral-Regular-31" d="M 2522 0 
L 755 0 
L 755 96 
Q 1107 115 1235 227 
Q 1363 339 1363 608 
L 1363 3482 
Q 1363 3795 1171 3795 
Q 1082 3795 883 3718 
L 710 3654 
L 710 3744 
L 1856 4326 
L 1914 4307 
L 1914 486 
Q 1914 275 2042 185 
Q 2170 96 2522 96 
L 2522 0 
z
" transform="scale(0.015625)"/>
        <path id="STIXGeneral-Regular-37" d="M 2874 4134 
L 1517 -51 
L 1101 -51 
L 2368 3763 
L 992 3763 
Q 717 3763 582 3667 
Q 448 3571 243 3238 
L 128 3296 
L 512 4237 
L 2874 4237 
L 2874 4134 
z
" transform="scale(0.015625)"/>
        <path id="STIXGeneral-Regular-2d" d="M 1824 1242 
L 250 1242 
L 250 1645 
L 1824 1645 
L 1824 1242 
z
" transform="scale(0.015625)"/>
       </defs>
       <use xlink:href="#STIXGeneral-Regular-32"/>
       <use xlink:href="#STIXGeneral-Regular-30" x="49.999985"/>
       <use xlink:href="#STIXGeneral-Regular-31" x="99.999969"/>
       <use xlink:href="#STIXGeneral-Regular-37" x="149.999954"/>
       <use xlink:href="#STIXGeneral-Regular-2d" x="199.999939"/>
       <use xlink:href="#STIXGeneral-Regular-30" x="233.299927"/>
       <use xlink:href="#STIXGeneral-Regular-31" x="283.299911"/>
      </g>
     </g>
    </g>
    <g id="xtick_2">
     <g id="line2d_2">
      <g>
       <use xlink:href="#m9173a0582d" x="83.444054" y="242.208" style="fill: #323034; stroke: #323034; stroke-width: 0.8"/>
      </g>
     </g>
     <g id="text_2">
      <!-- 2017-04 -->
      <g style="fill: #323034" transform="translate(47.504639 276.303432) rotate(-30) scale(0.12 -0.12)">
       <defs>
        <path id="STIXGeneral-Regular-34" d="M 3027 1069 
L 2368 1069 
L 2368 0 
L 1869 0 
L 1869 1069 
L 77 1069 
L 77 1478 
L 2086 4326 
L 2368 4326 
L 2368 1478 
L 3027 1478 
L 3027 1069 
z
M 1869 1478 
L 1869 3674 
L 333 1478 
L 1869 1478 
z
" transform="scale(0.015625)"/>
       </defs>
       <use xlink:href="#STIXGeneral-Regular-32"/>
       <use xlink:href="#STIXGeneral-Regular-30" x="49.999985"/>
       <use xlink:href="#STIXGeneral-Regular-31" x="99.999969"/>
       <use xlink:href="#STIXGeneral-Regular-37" x="149.999954"/>
       <use xlink:href="#STIXGeneral-Regular-2d" x="199.999939"/>
       <use xlink:href="#STIXGeneral-Regular-30" x="233.299927"/>
       <use xlink:href="#STIXGeneral-Regular-34" x="283.299911"/>
      </g>
     </g>
    </g>
    <g id="xtick_3">
     <g id="line2d_3">
      <g>
       <use xlink:href="#m9173a0582d" x="120.053179" y="242.208" style="fill: #323034; stroke: #323034; stroke-width: 0.8"/>
      </g>
     </g>
     <g id="text_3">
      <!-- 2017-07 -->
      <g style="fill: #323034" transform="translate(84.113764 276.303432) rotate(-30) scale(0.12 -0.12)">
       <use xlink:href="#STIXGeneral-Regular-32"/>
       <use xlink:href="#STIXGeneral-Regular-30" x="49.999985"/>
       <use xlink:href="#STIXGeneral-Regular-31" x="99.999969"/>
       <use xlink:href="#STIXGeneral-Regular-37" x="149.999954"/>
       <use xlink:href="#STIXGeneral-Regular-2d" x="199.999939"/>
       <use xlink:href="#STIXGeneral-Regular-30" x="233.299927"/>
       <use xlink:href="#STIXGeneral-Regular-37" x="283.299911"/>
      </g>
     </g>
    </g>
    <g id="xtick_4">
     <g id="line2d_4">
      <g>
       <use xlink:href="#m9173a0582d" x="157.064601" y="242.208" style="fill: #323034; stroke: #323034; stroke-width: 0.8"/>
      </g>
     </g>
     <g id="text_4">
      <!-- 2017-10 -->
      <g style="fill: #323034" transform="translate(121.125187 276.303432) rotate(-30) scale(0.12 -0.12)">
       <use xlink:href="#STIXGeneral-Regular-32"/>
       <use xlink:href="#STIXGeneral-Regular-30" x="49.999985"/>
       <use xlink:href="#STIXGeneral-Regular-31" x="99.999969"/>
       <use xlink:href="#STIXGeneral-Regular-37" x="149.999954"/>
       <use xlink:href="#STIXGeneral-Regular-2d" x="199.999939"/>
       <use xlink:href="#STIXGeneral-Regular-31" x="233.299927"/>
       <use xlink:href="#STIXGeneral-Regular-30" x="283.299911"/>
      </g>
     </g>
    </g>
    <g id="xtick_5">
     <g id="line2d_5">
      <g>
       <use xlink:href="#m9173a0582d" x="194.076024" y="242.208" style="fill: #323034; stroke: #323034; stroke-width: 0.8"/>
      </g>
     </g>
     <g id="text_5">
      <!-- 2018-01 -->
      <g style="fill: #323034" transform="translate(158.136609 276.303432) rotate(-30) scale(0.12 -0.12)">
       <defs>
        <path id="STIXGeneral-Regular-38" d="M 2848 992 
Q 2848 499 2505 204 
Q 2163 -90 1587 -90 
Q 1050 -90 704 204 
Q 358 499 358 954 
Q 358 1293 524 1533 
Q 691 1773 1190 2125 
Q 710 2522 553 2765 
Q 397 3008 397 3328 
Q 397 3782 745 4054 
Q 1094 4326 1638 4326 
Q 2106 4326 2410 4060 
Q 2714 3795 2714 3411 
Q 2714 3059 2531 2848 
Q 2349 2637 1856 2374 
Q 2432 1990 2640 1689 
Q 2848 1389 2848 992 
z
M 2272 3411 
Q 2272 3744 2086 3945 
Q 1901 4147 1574 4147 
Q 1248 4147 1059 3977 
Q 870 3808 870 3513 
Q 870 3219 1059 2979 
Q 1248 2739 1670 2490 
Q 1997 2682 2134 2896 
Q 2272 3110 2272 3411 
z
M 1734 1741 
L 1357 1997 
Q 1075 1766 960 1545 
Q 845 1325 845 1011 
Q 845 576 1065 333 
Q 1286 90 1658 90 
Q 1971 90 2166 285 
Q 2362 480 2362 794 
Q 2362 1082 2214 1299 
Q 2067 1517 1734 1741 
z
" transform="scale(0.015625)"/>
       </defs>
       <use xlink:href="#STIXGeneral-Regular-32"/>
       <use xlink:href="#STIXGeneral-Regular-30" x="49.999985"/>
       <use xlink:href="#STIXGeneral-Regular-31" x="99.999969"/>
       <use xlink:href="#STIXGeneral-Regular-38" x="149.999954"/>
       <use xlink:href="#STIXGeneral-Regular-2d" x="199.999939"/>
       <use xlink:href="#STIXGeneral-Regular-30" x="233.299927"/>
       <use xlink:href="#STIXGeneral-Regular-31" x="283.299911"/>
      </g>
     </g>
    </g>
    <g id="xtick_6">
     <g id="line2d_6">
      <g>
       <use xlink:href="#m9173a0582d" x="230.282851" y="242.208" style="fill: #323034; stroke: #323034; stroke-width: 0.8"/>
      </g>
     </g>
     <g id="text_6">
      <!-- 2018-04 -->
      <g style="fill: #323034" transform="translate(194.343436 276.303432) rotate(-30) scale(0.12 -0.12)">
       <use xlink:href="#STIXGeneral-Regular-32"/>
       <use xlink:href="#STIXGeneral-Regular-30" x="49.999985"/>
       <use xlink:href="#STIXGeneral-Regular-31" x="99.999969"/>
       <use xlink:href="#STIXGeneral-Regular-38" x="149.999954"/>
       <use xlink:href="#STIXGeneral-Regular-2d" x="199.999939"/>
       <use xlink:href="#STIXGeneral-Regular-30" x="233.299927"/>
       <use xlink:href="#STIXGeneral-Regular-34" x="283.299911"/>
      </g>
     </g>
    </g>
    <g id="xtick_7">
     <g id="line2d_7">
      <g>
       <use xlink:href="#m9173a0582d" x="266.891976" y="242.208" style="fill: #323034; stroke: #323034; stroke-width: 0.8"/>
      </g>
     </g>
     <g id="text_7">
      <!-- 2018-07 -->
      <g style="fill: #323034" transform="translate(230.952561 276.303432) rotate(-30) scale(0.12 -0.12)">
       <use xlink:href="#STIXGeneral-Regular-32"/>
       <use xlink:href="#STIXGeneral-Regular-30" x="49.999985"/>
       <use xlink:href="#STIXGeneral-Regular-31" x="99.999969"/>
       <use xlink:href="#STIXGeneral-Regular-38" x="149.999954"/>
       <use xlink:href="#STIXGeneral-Regular-2d" x="199.999939"/>
       <use xlink:href="#STIXGeneral-Regular-30" x="233.299927"/>
       <use xlink:href="#STIXGeneral-Regular-37" x="283.299911"/>
      </g>
     </g>
    </g>
    <g id="xtick_8">
     <g id="line2d_8">
      <g>
       <use xlink:href="#m9173a0582d" x="303.903398" y="242.208" style="fill: #323034; stroke: #323034; stroke-width: 0.8"/>
      </g>
     </g>
     <g id="text_8">
      <!-- 2018-10 -->
      <g style="fill: #323034" transform="translate(267.963984 276.303432) rotate(-30) scale(0.12 -0.12)">
       <use xlink:href="#STIXGeneral-Regular-32"/>
       <use xlink:href="#STIXGeneral-Regular-30" x="49.999985"/>
       <use xlink:href="#STIXGeneral-Regular-31" x="99.999969"/>
       <use xlink:href="#STIXGeneral-Regular-38" x="149.999954"/>
       <use xlink:href="#STIXGeneral-Regular-2d" x="199.999939"/>
       <use xlink:href="#STIXGeneral-Regular-31" x="233.299927"/>
       <use xlink:href="#STIXGeneral-Regular-30" x="283.299911"/>
      </g>
     </g>
    </g>
    <g id="xtick_9">
     <g id="line2d_9">
      <g>
       <use xlink:href="#m9173a0582d" x="340.914821" y="242.208" style="fill: #323034; stroke: #323034; stroke-width: 0.8"/>
      </g>
     </g>
     <g id="text_9">
      <!-- 2019-01 -->
      <g style="fill: #323034" transform="translate(304.975406 276.303432) rotate(-30) scale(0.12 -0.12)">
       <defs>
        <path id="STIXGeneral-Regular-39" d="M 378 -141 
L 358 -13 
Q 1094 115 1603 608 
Q 2112 1101 2304 1882 
Q 1933 1517 1344 1517 
Q 826 1517 509 1875 
Q 192 2234 192 2816 
Q 192 3462 573 3894 
Q 954 4326 1523 4326 
Q 2131 4326 2528 3840 
Q 2938 3328 2938 2522 
Q 2938 1958 2742 1462 
Q 2547 966 2170 621 
Q 1773 262 1395 105 
Q 1018 -51 378 -141 
z
M 2317 2272 
L 2317 2522 
Q 2317 4147 1472 4147 
Q 1171 4147 1005 3930 
Q 909 3802 845 3546 
Q 781 3290 781 3034 
Q 781 2464 995 2128 
Q 1210 1792 1568 1792 
Q 1824 1792 2070 1917 
Q 2317 2042 2317 2272 
z
" transform="scale(0.015625)"/>
       </defs>
       <use xlink:href="#STIXGeneral-Regular-32"/>
       <use xlink:href="#STIXGeneral-Regular-30" x="49.999985"/>
       <use xlink:href="#STIXGeneral-Regular-31" x="99.999969"/>
       <use xlink:href="#STIXGeneral-Regular-39" x="149.999954"/>
       <use xlink:href="#STIXGeneral-Regular-2d" x="199.999939"/>
       <use xlink:href="#STIXGeneral-Regular-30" x="233.299927"/>
       <use xlink:href="#STIXGeneral-Regular-31" x="283.299911"/>
      </g>
     </g>
    </g>
    <g id="xtick_10">
     <g id="line2d_10">
      <g>
       <use xlink:href="#m9173a0582d" x="377.121648" y="242.208" style="fill: #323034; stroke: #323034; stroke-width: 0.8"/>
      </g>
     </g>
     <g id="text_10">
      <!-- 2019-04 -->
      <g style="fill: #323034" transform="translate(341.182233 276.303432) rotate(-30) scale(0.12 -0.12)">
       <use xlink:href="#STIXGeneral-Regular-32"/>
       <use xlink:href="#STIXGeneral-Regular-30" x="49.999985"/>
       <use xlink:href="#STIXGeneral-Regular-31" x="99.999969"/>
       <use xlink:href="#STIXGeneral-Regular-39" x="149.999954"/>
       <use xlink:href="#STIXGeneral-Regular-2d" x="199.999939"/>
       <use xlink:href="#STIXGeneral-Regular-30" x="233.299927"/>
       <use xlink:href="#STIXGeneral-Regular-34" x="283.299911"/>
      </g>
     </g>
    </g>
    <g id="text_11">
     <!-- Date -->
     <g transform="translate(213.523077 289.754512) scale(0.12 -0.12)">
      <defs>
       <path id="STIXGeneral-Regular-44" d="M 102 4237 
L 1830 4237 
Q 3078 4237 3750 3654 
Q 4384 3110 4384 2138 
Q 4384 966 3514 410 
Q 2880 0 1901 0 
L 102 0 
L 102 122 
Q 474 147 570 252 
Q 666 358 666 736 
L 666 3520 
Q 666 3891 570 3990 
Q 474 4090 102 4115 
L 102 4237 
z
M 1318 3731 
L 1318 538 
Q 1318 365 1379 301 
Q 1440 237 1626 237 
Q 2125 237 2432 307 
Q 2739 378 3021 570 
Q 3686 1018 3686 2099 
Q 3686 3027 3078 3558 
Q 2803 3802 2476 3901 
Q 2150 4000 1658 4000 
Q 1472 4000 1395 3942 
Q 1318 3885 1318 3731 
z
" transform="scale(0.015625)"/>
       <path id="STIXGeneral-Regular-61" d="M 2829 422 
L 2829 243 
Q 2586 -64 2253 -64 
Q 1888 -64 1843 403 
L 1837 403 
Q 1427 -64 909 -64 
Q 608 -64 422 112 
Q 237 288 237 602 
Q 237 1050 685 1350 
Q 992 1555 1837 1869 
L 1837 2214 
Q 1837 2502 1699 2646 
Q 1562 2790 1338 2790 
Q 1146 2790 1018 2697 
Q 890 2605 890 2477 
Q 890 2419 909 2348 
Q 928 2278 928 2208 
Q 928 2112 841 2029 
Q 755 1946 634 1946 
Q 525 1946 441 2029 
Q 358 2112 358 2240 
Q 358 2547 685 2752 
Q 986 2944 1421 2944 
Q 1939 2944 2176 2656 
Q 2291 2522 2323 2384 
Q 2355 2246 2355 1946 
L 2355 723 
Q 2355 301 2554 301 
Q 2682 301 2829 422 
z
M 1837 813 
L 1837 1715 
Q 1248 1510 1018 1293 
Q 800 1094 800 800 
Q 800 557 921 432 
Q 1043 307 1242 307 
Q 1453 307 1613 410 
Q 1747 506 1792 589 
Q 1837 672 1837 813 
z
" transform="scale(0.015625)"/>
       <path id="STIXGeneral-Regular-74" d="M 1702 493 
L 1786 422 
Q 1478 -64 1011 -64 
Q 448 -64 448 749 
L 448 2675 
L 109 2675 
Q 83 2694 83 2720 
Q 83 2771 192 2842 
Q 435 2982 813 3526 
Q 826 3546 874 3606 
Q 922 3667 941 3706 
Q 986 3706 986 3622 
L 986 2880 
L 1632 2880 
L 1632 2675 
L 986 2675 
L 986 845 
Q 986 538 1062 403 
Q 1139 269 1318 269 
Q 1510 269 1702 493 
z
" transform="scale(0.015625)"/>
       <path id="STIXGeneral-Regular-65" d="M 2611 1050 
L 2714 1005 
Q 2330 -64 1376 -64 
Q 813 -64 486 329 
Q 160 723 160 1389 
Q 160 2074 525 2509 
Q 890 2944 1485 2944 
Q 2061 2944 2374 2502 
Q 2560 2246 2592 1773 
L 621 1773 
Q 646 1370 700 1158 
Q 755 947 915 730 
Q 1184 378 1626 378 
Q 1939 378 2153 531 
Q 2368 685 2611 1050 
z
M 634 1978 
L 1939 1978 
Q 1882 2381 1750 2547 
Q 1619 2714 1312 2714 
Q 1043 2714 864 2525 
Q 685 2336 634 1978 
z
" transform="scale(0.015625)"/>
      </defs>
      <use xlink:href="#STIXGeneral-Regular-44"/>
      <use xlink:href="#STIXGeneral-Regular-61" x="72.199982"/>
      <use xlink:href="#STIXGeneral-Regular-74" x="116.599976"/>
      <use xlink:href="#STIXGeneral-Regular-65" x="144.399963"/>
     </g>
    </g>
   </g>
   <g id="matplotlib.axis_2">
    <g id="ytick_1">
     <g id="line2d_11">
      <defs>
       <path id="mbd04ca66bf" d="M 0 0 
L -3.5 0 
" style="stroke: #323034; stroke-width: 0.8"/>
      </defs>
      <g>
       <use xlink:href="#mbd04ca66bf" x="46.291827" y="217.35659" style="fill: #323034; stroke: #323034; stroke-width: 0.8"/>
      </g>
     </g>
     <g id="text_12">
      <!-- $\mathdefault{30}$ -->
      <g style="fill: #323034" transform="translate(27.291827 221.454403) scale(0.12 -0.12)">
       <defs>
        <path id="STIXGeneral-Regular-33" d="M 390 3264 
L 288 3290 
Q 435 3770 748 4048 
Q 1062 4326 1542 4326 
Q 1990 4326 2265 4083 
Q 2541 3840 2541 3450 
Q 2541 2925 1946 2566 
Q 2298 2413 2477 2227 
Q 2758 1914 2758 1402 
Q 2758 890 2464 506 
Q 2246 211 1840 60 
Q 1434 -90 979 -90 
Q 262 -90 262 275 
Q 262 378 339 442 
Q 416 506 525 506 
Q 685 506 915 339 
Q 1197 141 1466 141 
Q 1818 141 2058 425 
Q 2298 710 2298 1120 
Q 2298 1856 1632 2048 
Q 1434 2112 979 2112 
L 979 2202 
Q 1338 2323 1517 2432 
Q 2035 2726 2035 3290 
Q 2035 3610 1852 3776 
Q 1670 3942 1344 3942 
Q 768 3942 390 3264 
z
" transform="scale(0.015625)"/>
       </defs>
       <use xlink:href="#STIXGeneral-Regular-33" transform="translate(0 0.40625)"/>
       <use xlink:href="#STIXGeneral-Regular-30" transform="translate(49.999985 0.40625)"/>
      </g>
     </g>
    </g>
    <g id="ytick_2">
     <g id="line2d_12">
      <g>
       <use xlink:href="#mbd04ca66bf" x="46.291827" y="176.92955" style="fill: #323034; stroke: #323034; stroke-width: 0.8"/>
      </g>
     </g>
     <g id="text_13">
      <!-- $\mathdefault{35}$ -->
      <g style="fill: #323034" transform="translate(27.291827 181.027362) scale(0.12 -0.12)">
       <defs>
        <path id="STIXGeneral-Regular-35" d="M 2803 4358 
L 2573 3814 
Q 2534 3731 2400 3731 
L 1158 3731 
L 902 3187 
Q 1606 3053 1920 2896 
Q 2234 2739 2502 2368 
Q 2726 2061 2726 1555 
Q 2726 1094 2576 780 
Q 2426 467 2099 224 
Q 1664 -90 1011 -90 
Q 646 -90 422 19 
Q 198 128 198 307 
Q 198 550 486 550 
Q 717 550 960 352 
Q 1210 147 1414 147 
Q 1747 147 2012 480 
Q 2278 813 2278 1229 
Q 2278 1843 1850 2189 
Q 1293 2637 486 2637 
Q 410 2637 410 2688 
L 416 2720 
L 1114 4237 
L 2438 4237 
Q 2547 4237 2608 4269 
Q 2669 4301 2746 4403 
L 2803 4358 
z
" transform="scale(0.015625)"/>
       </defs>
       <use xlink:href="#STIXGeneral-Regular-33" transform="translate(0 0.203125)"/>
       <use xlink:href="#STIXGeneral-Regular-35" transform="translate(49.999985 0.203125)"/>
      </g>
     </g>
    </g>
    <g id="ytick_3">
     <g id="line2d_13">
      <g>
       <use xlink:href="#mbd04ca66bf" x="46.291827" y="136.502509" style="fill: #323034; stroke: #323034; stroke-width: 0.8"/>
      </g>
     </g>
     <g id="text_14">
      <!-- $\mathdefault{40}$ -->
      <g style="fill: #323034" transform="translate(27.291827 140.600322) scale(0.12 -0.12)">
       <use xlink:href="#STIXGeneral-Regular-34" transform="translate(0 0.40625)"/>
       <use xlink:href="#STIXGeneral-Regular-30" transform="translate(49.999985 0.40625)"/>
      </g>
     </g>
    </g>
    <g id="ytick_4">
     <g id="line2d_14">
      <g>
       <use xlink:href="#mbd04ca66bf" x="46.291827" y="96.075468" style="fill: #323034; stroke: #323034; stroke-width: 0.8"/>
      </g>
     </g>
     <g id="text_15">
      <!-- $\mathdefault{45}$ -->
      <g style="fill: #323034" transform="translate(27.291827 100.173281) scale(0.12 -0.12)">
       <use xlink:href="#STIXGeneral-Regular-34" transform="translate(0 0.203125)"/>
       <use xlink:href="#STIXGeneral-Regular-35" transform="translate(49.999985 0.203125)"/>
      </g>
     </g>
    </g>
    <g id="ytick_5">
     <g id="line2d_15">
      <g>
       <use xlink:href="#mbd04ca66bf" x="46.291827" y="55.648428" style="fill: #323034; stroke: #323034; stroke-width: 0.8"/>
      </g>
     </g>
     <g id="text_16">
      <!-- $\mathdefault{50}$ -->
      <g style="fill: #323034" transform="translate(27.291827 59.74624) scale(0.12 -0.12)">
       <use xlink:href="#STIXGeneral-Regular-35" transform="translate(0 0.203125)"/>
       <use xlink:href="#STIXGeneral-Regular-30" transform="translate(49.999985 0.203125)"/>
      </g>
     </g>
    </g>
    <g id="ytick_6">
     <g id="line2d_16">
      <g>
       <use xlink:href="#mbd04ca66bf" x="46.291827" y="15.221387" style="fill: #323034; stroke: #323034; stroke-width: 0.8"/>
      </g>
     </g>
     <g id="text_17">
      <!-- $\mathdefault{55}$ -->
      <g style="fill: #323034" transform="translate(27.291827 19.3192) scale(0.12 -0.12)">
       <use xlink:href="#STIXGeneral-Regular-35" transform="translate(0 0.203125)"/>
       <use xlink:href="#STIXGeneral-Regular-35" transform="translate(49.999985 0.203125)"/>
      </g>
     </g>
    </g>
    <g id="text_18">
     <!-- Close ($) -->
     <g transform="translate(21.687452 146.868375) rotate(-90) scale(0.12 -0.12)">
      <defs>
       <path id="STIXGeneral-Regular-43" d="M 3930 838 
L 4051 723 
Q 3482 -90 2304 -90 
Q 1376 -90 794 480 
Q 179 1082 179 2080 
Q 179 3014 755 3661 
Q 1357 4326 2310 4326 
Q 2720 4326 3072 4230 
Q 3475 4115 3514 4115 
Q 3725 4115 3782 4326 
L 3910 4326 
L 3968 2874 
L 3821 2874 
Q 3718 3334 3488 3584 
Q 3034 4070 2458 4070 
Q 1747 4070 1334 3548 
Q 922 3027 922 2182 
Q 922 1152 1382 653 
Q 1811 192 2522 192 
Q 2944 192 3251 339 
Q 3558 486 3930 838 
z
" transform="scale(0.015625)"/>
       <path id="STIXGeneral-Regular-6c" d="M 1645 0 
L 134 0 
L 134 96 
Q 435 122 531 221 
Q 627 320 627 589 
L 627 3590 
Q 627 3821 569 3910 
Q 512 4000 358 4000 
Q 224 4000 122 3987 
L 122 4090 
Q 730 4237 1133 4371 
L 1165 4346 
L 1165 557 
Q 1165 288 1254 201 
Q 1344 115 1645 96 
L 1645 0 
z
" transform="scale(0.015625)"/>
       <path id="STIXGeneral-Regular-6f" d="M 3008 1478 
Q 3008 806 2608 371 
Q 2208 -64 1568 -64 
Q 979 -64 582 368 
Q 186 800 186 1459 
Q 186 2125 582 2534 
Q 979 2944 1626 2944 
Q 2221 2944 2614 2537 
Q 3008 2131 3008 1478 
z
M 2432 1306 
Q 2432 2035 2112 2445 
Q 1856 2765 1504 2765 
Q 1171 2765 966 2493 
Q 762 2221 762 1747 
Q 762 928 1101 435 
Q 1318 115 1677 115 
Q 2029 115 2230 432 
Q 2432 749 2432 1306 
z
" transform="scale(0.015625)"/>
       <path id="STIXGeneral-Regular-73" d="M 998 1926 
L 1664 1523 
Q 1984 1331 2105 1164 
Q 2227 998 2227 736 
Q 2227 416 1961 176 
Q 1696 -64 1331 -64 
Q 1030 -64 864 -6 
Q 691 51 570 51 
Q 461 51 416 -26 
L 333 -26 
L 333 979 
L 435 979 
Q 538 512 730 294 
Q 922 77 1248 77 
Q 1485 77 1632 211 
Q 1779 346 1779 550 
Q 1779 845 1440 1030 
L 1094 1222 
Q 326 1651 326 2150 
Q 326 2522 566 2730 
Q 806 2938 1210 2938 
Q 1491 2938 1638 2867 
Q 1754 2816 1818 2816 
Q 1862 2816 1920 2880 
L 1990 2880 
L 2022 2010 
L 1926 2010 
Q 1818 2445 1654 2621 
Q 1491 2797 1203 2797 
Q 986 2797 854 2688 
Q 723 2579 723 2362 
Q 723 2253 796 2128 
Q 870 2003 998 1926 
z
" transform="scale(0.015625)"/>
       <path id="STIXGeneral-Regular-20" transform="scale(0.015625)"/>
       <path id="STIXGeneral-Regular-28" d="M 1946 -1030 
L 1869 -1133 
Q 1126 -710 716 32 
Q 307 774 307 1613 
Q 307 3386 1888 4326 
L 1946 4224 
Q 1293 3667 1075 3126 
Q 858 2586 858 1632 
Q 858 685 1082 96 
Q 1306 -493 1946 -1030 
z
" transform="scale(0.015625)"/>
       <path id="STIXGeneral-Regular-24" d="M 1690 4077 
L 1690 2502 
Q 2234 2208 2445 2045 
Q 2656 1882 2797 1664 
Q 2931 1466 2931 1088 
Q 2931 570 2614 326 
Q 2298 83 1690 0 
L 1690 -557 
L 1472 -557 
L 1472 0 
Q 1062 0 806 73 
Q 550 147 282 326 
L 282 1158 
L 378 1158 
Q 480 685 761 432 
Q 1043 179 1472 179 
L 1472 1984 
Q 800 2362 566 2624 
Q 333 2886 333 3283 
Q 333 3731 659 3974 
Q 986 4218 1472 4250 
L 1472 4653 
L 1690 4653 
L 1690 4250 
Q 2426 4205 2720 3910 
L 2720 3200 
L 2624 3200 
Q 2528 3597 2301 3814 
Q 2074 4032 1690 4077 
z
M 1472 2605 
L 1472 4077 
Q 806 3942 806 3405 
Q 806 3194 937 3037 
Q 1069 2880 1472 2605 
z
M 1690 1875 
L 1690 179 
Q 2086 262 2252 432 
Q 2419 602 2419 941 
Q 2419 1235 2272 1427 
Q 2125 1619 1690 1875 
z
" transform="scale(0.015625)"/>
       <path id="STIXGeneral-Regular-29" d="M 186 4224 
L 262 4326 
Q 992 3891 1408 3148 
Q 1824 2406 1824 1581 
Q 1824 -166 243 -1133 
L 186 -1030 
Q 845 -486 1059 54 
Q 1274 595 1274 1562 
Q 1274 2534 1059 3120 
Q 845 3706 186 4224 
z
" transform="scale(0.015625)"/>
      </defs>
      <use xlink:href="#STIXGeneral-Regular-43"/>
      <use xlink:href="#STIXGeneral-Regular-6c" x="66.699997"/>
      <use xlink:href="#STIXGeneral-Regular-6f" x="94.499985"/>
      <use xlink:href="#STIXGeneral-Regular-73" x="144.499969"/>
      <use xlink:href="#STIXGeneral-Regular-65" x="183.399963"/>
      <use xlink:href="#STIXGeneral-Regular-20" x="227.799957"/>
      <use xlink:href="#STIXGeneral-Regular-28" x="252.799942"/>
      <use xlink:href="#STIXGeneral-Regular-24" x="286.09993"/>
      <use xlink:href="#STIXGeneral-Regular-29" x="336.099915"/>
     </g>
    </g>
   </g>
   <g id="line2d_17">
    <path d="M 62.524554 214.786935 
L 63.32915 212.906188 
L 64.536044 211.943377 
L 66.145237 208.556675 
L 67.754429 207.7161 
L 68.961323 204.890605 
L 70.168217 203.964098 
L 71.77741 200.305419 
L 72.984304 199.472751 
L 74.191198 197.070156 
L 74.593496 196.581345 
L 75.800391 196.05547 
L 77.007285 194.720924 
L 77.409583 194.30886 
L 78.616477 193.883583 
L 79.421073 193.018332 
L 80.225669 192.376059 
L 81.432564 191.949457 
L 83.041756 190.276359 
L 84.24865 189.655659 
L 85.857842 187.151624 
L 87.064737 186.523032 
L 87.869333 185.454319 
L 88.271631 184.915216 
L 89.880823 184.344338 
L 91.490015 182.072128 
L 92.69691 181.556554 
L 94.306102 179.470438 
L 95.512996 178.951791 
L 96.71989 177.378484 
L 97.122188 177.170511 
L 98.731381 176.955747 
L 99.535977 176.873049 
L 99.938275 176.917551 
L 101.547467 176.705536 
L 102.352063 176.404063 
L 102.754361 176.210757 
L 104.363554 175.912034 
L 105.16815 175.576877 
L 105.570448 175.494341 
L 110.800323 175.201407 
L 111.202621 175.103703 
L 113.214111 174.950226 
L 114.018708 175.155935 
L 115.6279 175.354706 
L 118.443986 175.916076 
L 119.650881 175.612679 
L 120.857775 175.424225 
L 121.662371 175.179172 
L 122.064669 174.897671 
L 122.466967 174.776115 
L 123.673861 174.588129 
L 124.076159 174.397265 
L 124.880756 173.808663 
L 125.283054 173.690002 
L 126.489948 173.570208 
L 126.892246 173.232465 
L 128.09914 171.564396 
L 129.306034 170.947253 
L 130.915227 168.092878 
L 132.122121 167.366453 
L 133.731313 164.895778 
L 134.938207 164.192073 
L 136.5474 161.642081 
L 137.754294 161.064782 
L 138.55889 160.093272 
L 139.363486 159.598526 
L 140.57038 159.517769 
L 142.179573 158.90048 
L 144.593361 158.48198 
L 144.995659 158.277888 
L 146.604851 158.012525 
L 147.409448 157.44328 
L 147.811746 157.462782 
L 149.01864 157.385712 
L 149.823236 157.142454 
L 150.225534 157.130051 
L 150.627832 157.299974 
L 152.237025 157.316112 
L 153.041621 157.620318 
L 153.443919 157.755764 
L 154.650813 157.556023 
L 156.260005 156.165349 
L 157.466899 155.658798 
L 159.076092 153.606382 
L 160.282986 153.173537 
L 161.892178 151.690819 
L 163.099073 151.227169 
L 163.903669 150.384169 
L 164.708265 149.110733 
L 165.915159 148.542442 
L 167.524351 146.204336 
L 168.731246 145.494825 
L 169.535842 144.108679 
L 170.340438 142.86765 
L 171.547332 142.132977 
L 173.156524 139.240261 
L 174.363419 138.406623 
L 175.972611 135.454592 
L 177.179505 134.910492 
L 177.984101 134.046211 
L 179.995592 133.0133 
L 181.604784 130.282922 
L 182.811678 129.611122 
L 183.616274 128.805686 
L 184.42087 128.093119 
L 185.627765 127.647661 
L 186.432361 127.177559 
L 187.236957 127.014396 
L 188.443851 127.054532 
L 190.053043 127.496238 
L 192.064534 127.729195 
L 192.466832 128.093232 
L 192.86913 128.734227 
L 194.478322 129.192395 
L 195.685216 131.130208 
L 196.892111 131.365736 
L 197.294409 131.627881 
L 197.696707 131.74347 
L 198.501303 131.459899 
L 200.512793 131.231438 
L 201.31739 130.947219 
L 202.524284 130.638971 
L 203.32888 130.119678 
L 204.133476 130.033584 
L 206.144966 129.773525 
L 206.547264 129.671973 
L 206.949563 129.281997 
L 208.156457 128.826077 
L 209.363351 127.800427 
L 209.765649 127.549246 
L 211.374841 127.397224 
L 212.179437 127.674521 
L 212.581736 128.007122 
L 214.190928 128.076608 
L 215.397822 129.141602 
L 216.604716 129.599301 
L 217.007014 129.960589 
L 218.213909 130.474562 
L 219.823101 130.394598 
L 220.627697 129.892898 
L 221.029995 129.58465 
L 222.236889 129.247537 
L 223.443784 127.284723 
L 223.846082 127.019668 
L 225.857572 126.318711 
L 226.25987 126.32353 
L 226.662168 126.518275 
L 228.27136 126.944845 
L 229.075957 126.538731 
L 230.685149 126.101036 
L 232.294341 124.650902 
L 233.501235 124.098588 
L 235.110428 122.248145 
L 236.317322 121.858315 
L 237.926514 120.5418 
L 239.133408 120.13056 
L 240.340303 118.74781 
L 240.742601 117.986698 
L 241.949495 117.071317 
L 242.754091 115.100919 
L 243.558687 113.099894 
L 244.765581 112.166951 
L 245.570178 110.26088 
L 246.374774 108.843945 
L 247.581668 108.029308 
L 248.788562 106.32927 
L 249.19086 105.884977 
L 250.397754 105.571247 
L 252.006947 104.130928 
L 253.616139 103.274231 
L 254.420735 101.630629 
L 254.823033 100.663986 
L 256.029928 99.618025 
L 256.834524 97.607831 
L 257.236822 96.732408 
L 257.63912 96.133182 
L 258.846014 95.562336 
L 259.65061 95.009036 
L 260.455206 94.568914 
L 261.662101 94.478649 
L 262.466697 94.049783 
L 262.868995 93.747825 
L 263.271293 93.638526 
L 264.478187 93.525525 
L 264.880485 93.371385 
L 265.282783 92.833559 
L 266.087379 91.289246 
L 267.294274 90.478167 
L 267.696572 89.760571 
L 268.501168 89.010601 
L 268.903466 88.182105 
L 270.11036 87.352801 
L 271.719552 84.417879 
L 272.926447 83.45413 
L 274.535639 79.651676 
L 275.742533 78.640046 
L 276.547129 76.254511 
L 277.351725 73.256053 
L 278.55862 71.591672 
L 280.167812 65.1156 
L 281.374706 63.814108 
L 282.983898 57.741902 
L 284.190793 56.553411 
L 285.799985 52.001149 
L 287.006879 50.829913 
L 288.616071 45.724786 
L 289.822966 44.306719 
L 291.432158 38.757169 
L 293.04135 37.456648 
L 293.443648 35.993609 
L 293.845946 34.953777 
L 294.248245 34.423843 
L 295.455139 33.823809 
L 296.259735 32.894877 
L 296.662033 32.318371 
L 297.064331 31.948706 
L 298.271225 31.51473 
L 299.075821 30.465842 
L 299.478119 30.258516 
L 299.880418 29.887072 
L 301.087312 29.770675 
L 301.891908 30.061038 
L 302.294206 29.912234 
L 302.696504 29.633482 
L 303.903398 29.944139 
L 304.707994 31.061219 
L 305.110293 31.440392 
L 305.512591 31.975161 
L 306.719485 32.746234 
L 308.328677 38.139234 
L 309.535571 39.19328 
L 309.937869 40.430461 
L 311.144764 46.008551 
L 312.351658 47.899939 
L 313.558552 52.484106 
L 313.96085 54.071126 
L 315.167744 55.322651 
L 316.374639 60.831417 
L 316.776937 62.960758 
L 317.983831 65.158469 
L 319.593023 74.676854 
L 320.799917 76.918905 
L 322.40911 87.185805 
L 323.616004 89.689338 
L 324.4206 94.59047 
L 325.225196 97.036613 
L 326.43209 99.274606 
L 328.041283 110.419322 
L 329.248177 112.983803 
L 329.650475 115.393659 
L 330.455071 117.704372 
L 330.857369 120.144855 
L 332.064263 122.681927 
L 332.86886 127.262893 
L 333.673456 130.924774 
L 334.88035 133.082996 
L 335.684946 137.082459 
L 336.489542 140.025645 
L 337.696436 140.866705 
L 338.501033 141.840124 
L 338.903331 142.893992 
L 339.305629 143.4639 
L 341.719417 143.72522 
L 342.121715 143.859842 
L 343.32861 144.019287 
L 344.937802 145.527636 
L 346.546994 145.799936 
L 347.35159 145.510883 
L 347.753888 145.263728 
L 349.363081 145.030771 
L 349.765379 144.848769 
L 350.569975 144.060587 
L 351.776869 143.649476 
L 352.581465 142.328644 
L 353.386061 140.403395 
L 354.592956 139.525401 
L 356.202148 135.327182 
L 357.409042 133.507383 
L 359.018234 127.1132 
L 360.627427 125.717383 
L 361.834321 121.384688 
L 363.041215 119.987594 
L 364.248109 115.416945 
L 364.650407 113.754165 
L 365.857302 111.992548 
L 367.466494 105.412983 
L 368.673388 104.114709 
L 369.880282 100.515231 
L 370.28258 99.325609 
L 371.489475 97.980908 
L 373.098667 92.365414 
L 374.305561 91.040539 
L 374.707859 89.855607 
L 375.914753 85.254637 
L 377.121648 83.863511 
L 378.73084 79.637381 
L 379.937734 79.187913 
L 380.74233 78.025684 
L 381.546927 76.712582 
L 382.753821 76.286173 
L 383.156119 75.956661 
L 383.558417 75.856725 
L 385.569907 76.069695 
L 386.776801 77.037777 
L 387.1791 77.52434 
L 387.1791 77.52434 
" clip-path="url(#p140b28431b)" style="fill: none; stroke: #bc80bd; stroke-width: 2; stroke-linecap: square"/>
   </g>
   <g id="patch_3">
    <path d="M 46.291827 242.208 
L 46.291827 7.2 
" style="fill: none; stroke: #000000; stroke-width: 0.6; stroke-linejoin: miter; stroke-linecap: square"/>
   </g>
   <g id="patch_4">
    <path d="M 46.291827 242.208 
L 403.411827 242.208 
" style="fill: none; stroke: #000000; stroke-width: 0.6; stroke-linejoin: miter; stroke-linecap: square"/>
   </g>
  </g>
 </g>
 <defs>
  <clipPath id="p140b28431b">
   <rect x="46.291827" y="7.2" width="357.12" height="235.008"/>
  </clipPath>
 </defs>
</svg>