<?xml version="1.0" encoding="UTF-8" standalone="no"?>
<!DOCTYPE svg PUBLIC "-//W3C//DTD SVG 1.1//EN"
 "http://www.w3.org/Graphics/SVG/1.1/DTD/svg11.dtd">
<!-- Generated by graphviz version 2.49.1 (20210923.0004)
 -->
<!-- Pages: 1 -->
<svg width="331pt" height="279pt"
 viewBox="0.00 0.00 331.49 279.00" xmlns="http://www.w3.org/2000/svg" xmlns:xlink="http://www.w3.org/1999/xlink">
<g id="graph0" class="graph" transform="scale(1 1) rotate(0) translate(4 275)">
<polygon fill="white" stroke="transparent" points="-4,4 -4,-275 327.49,-275 327.49,4 -4,4"/>
<g id="clust1" class="cluster">
<title>cluster_0</title>
<polygon fill="lightgrey" stroke="lightgrey" points="75.75,-8 75.75,-227 191.75,-227 191.75,-8 75.75,-8"/>
<text text-anchor="middle" x="133.75" y="-211.8" font-family="Times,serif" font-size="14.00">Understand</text>
</g>
<!-- Import -->
<g id="node1" class="node">
<title>Import</title>
<ellipse fill="none" stroke="black" cx="35.75" cy="-253" rx="36" ry="18"/>
<text text-anchor="middle" x="35.75" y="-249.3" font-family="Times,serif" font-size="14.00">Import</text>
</g>
<!-- Clean -->
<g id="node2" class="node">
<title>Clean</title>
<ellipse fill="none" stroke="black" cx="35.75" cy="-178" rx="31.7" ry="18"/>
<text text-anchor="middle" x="35.75" y="-174.3" font-family="Times,serif" font-size="14.00">Clean</text>
</g>
<!-- Import&#45;&gt;Clean -->
<g id="edge1" class="edge">
<title>Import&#45;&gt;Clean</title>
<path fill="none" stroke="black" d="M35.75,-234.7C35.75,-226.25 35.75,-215.87 35.75,-206.37"/>
<polygon fill="black" stroke="black" points="39.25,-206.18 35.75,-196.18 32.25,-206.18 39.25,-206.18"/>
</g>
<!-- Analyse -->
<g id="node4" class="node">
<title>Analyse</title>
<ellipse fill="white" stroke="white" cx="123.75" cy="-106" rx="40.09" ry="18"/>
<text text-anchor="middle" x="123.75" y="-102.3" font-family="Times,serif" font-size="14.00">Analyse</text>
</g>
<!-- Clean&#45;&gt;Analyse -->
<g id="edge5" class="edge">
<title>Clean&#45;&gt;Analyse</title>
<path fill="none" stroke="black" d="M53.55,-162.83C57.84,-159.42 62.65,-155.6 67.69,-151.59"/>
<polygon fill="black" stroke="black" points="70.1,-154.14 75.75,-145.18 65.74,-148.67 70.1,-154.14"/>
</g>
<!-- Visualise -->
<g id="node3" class="node">
<title>Visualise</title>
<ellipse fill="white" stroke="white" cx="134.75" cy="-178" rx="44.39" ry="18"/>
<text text-anchor="middle" x="134.75" y="-174.3" font-family="Times,serif" font-size="14.00">Visualise</text>
</g>
<!-- Visualise&#45;&gt;Analyse -->
<g id="edge2" class="edge">
<title>Visualise&#45;&gt;Analyse</title>
<path fill="none" stroke="black" d="M132.03,-159.7C130.82,-151.98 129.36,-142.71 128.01,-134.11"/>
<polygon fill="black" stroke="black" points="131.44,-133.44 126.43,-124.1 124.53,-134.53 131.44,-133.44"/>
</g>
<!-- Transform -->
<g id="node5" class="node">
<title>Transform</title>
<ellipse fill="white" stroke="white" cx="132.75" cy="-34" rx="48.99" ry="18"/>
<text text-anchor="middle" x="132.75" y="-30.3" font-family="Times,serif" font-size="14.00">Transform</text>
</g>
<!-- Analyse&#45;&gt;Transform -->
<g id="edge3" class="edge">
<title>Analyse&#45;&gt;Transform</title>
<path fill="none" stroke="black" d="M125.97,-87.7C126.96,-79.98 128.16,-70.71 129.26,-62.11"/>
<polygon fill="black" stroke="black" points="132.74,-62.47 130.55,-52.1 125.8,-61.58 132.74,-62.47"/>
</g>
<!-- Communicate -->
<g id="node6" class="node">
<title>Communicate</title>
<ellipse fill="none" stroke="black" cx="261.75" cy="-34" rx="61.99" ry="18"/>
<text text-anchor="middle" x="261.75" y="-30.3" font-family="Times,serif" font-size="14.00">Communicate</text>
</g>
<!-- Analyse&#45;&gt;Communicate -->
<g id="edge6" class="edge">
<title>Analyse&#45;&gt;Communicate</title>
<path fill="none" stroke="black" d="M191.75,-70.51C202.62,-64.99 213.52,-59.46 223.37,-54.46"/>
<polygon fill="black" stroke="black" points="225.09,-57.52 232.42,-49.87 221.92,-51.28 225.09,-57.52"/>
</g>
<!-- Transform&#45;&gt;Visualise -->
<g id="edge4" class="edge">
<title>Transform&#45;&gt;Visualise</title>
<path fill="none" stroke="black" d="M149.23,-51.01C158.06,-60.76 168.06,-74.01 172.75,-88 177.83,-103.17 177.64,-108.77 172.75,-124 169.42,-134.35 163.25,-144.39 156.83,-152.9"/>
<polygon fill="black" stroke="black" points="153.97,-150.86 150.42,-160.85 159.42,-155.26 153.97,-150.86"/>
</g>
</g>
</svg>