<?xml version="1.0" encoding="utf-8" standalone="no"?>
<!DOCTYPE svg PUBLIC "-//W3C//DTD SVG 1.1//EN"
  "http://www.w3.org/Graphics/SVG/1.1/DTD/svg11.dtd">
<svg xmlns:xlink="http://www.w3.org/1999/xlink" width="382.04875pt" height="260.390887pt" viewBox="0 0 382.04875 260.390887" xmlns="http://www.w3.org/2000/svg" version="1.1">
 <metadata>
  <rdf:RDF xmlns:dc="http://purl.org/dc/elements/1.1/" xmlns:cc="http://creativecommons.org/ns#" xmlns:rdf="http://www.w3.org/1999/02/22-rdf-syntax-ns#">
   <cc:Work>
    <dc:type rdf:resource="http://purl.org/dc/dcmitype/StillImage"/>
    <dc:date>2023-07-06T23:27:11.257561</dc:date>
    <dc:format>image/svg+xml</dc:format>
    <dc:creator>
     <cc:Agent>
      <dc:title>Matplotlib v3.5.2, https://matplotlib.org/</dc:title>
     </cc:Agent>
    </dc:creator>
   </cc:Work>
  </rdf:RDF>
 </metadata>
 <defs>
  <style type="text/css">*{stroke-linejoin: round; stroke-linecap: butt}</style>
 </defs>
 <g id="figure_1">
  <g id="patch_1">
   <path d="M 0 260.390887 
L 382.04875 260.390887 
L 382.04875 0 
L 0 0 
L 0 260.390887 
z
" style="fill: none"/>
  </g>
  <g id="axes_1">
   <g id="patch_2">
    <path d="M 40.04875 203.04 
L 374.84875 203.04 
L 374.84875 7.2 
L 40.04875 7.2 
z
" style="fill: #ffffff"/>
   </g>
   <g id="matplotlib.axis_1">
    <g id="xtick_1">
     <g id="line2d_1">
      <defs>
       <path id="ma8d2b5a314" d="M 0 0 
L 0 3.5 
" style="stroke: #323034; stroke-width: 0.8"/>
      </defs>
      <g>
       <use xlink:href="#ma8d2b5a314" x="54.573621" y="203.04" style="fill: #323034; stroke: #323034; stroke-width: 0.8"/>
      </g>
     </g>
     <g id="text_1">
      <!-- 2017-01 -->
      <g style="fill: #323034" transform="translate(18.634206 237.135432)rotate(-30)scale(0.12 -0.12)">
       <defs>
        <path id="STIXGeneral-Regular-32" d="M 3034 877 
L 2688 0 
L 186 0 
L 186 77 
L 1325 1286 
Q 1773 1754 1965 2144 
Q 2157 2534 2157 2950 
Q 2157 3379 1920 3616 
Q 1683 3853 1267 3853 
Q 922 3853 720 3673 
Q 518 3494 326 3021 
L 192 3053 
Q 301 3648 630 3987 
Q 960 4326 1523 4326 
Q 2054 4326 2380 4006 
Q 2707 3686 2707 3200 
Q 2707 2477 1888 1613 
L 832 486 
L 2330 486 
Q 2541 486 2665 569 
Q 2790 653 2944 915 
L 3034 877 
z
" transform="scale(0.015625)"/>
        <path id="STIXGeneral-Regular-30" d="M 3046 2112 
Q 3046 1683 2963 1302 
Q 2880 922 2717 602 
Q 2554 282 2266 96 
Q 1978 -90 1600 -90 
Q 1210 -90 915 108 
Q 621 307 461 640 
Q 301 973 227 1350 
Q 154 1728 154 2150 
Q 154 2746 301 3222 
Q 448 3699 790 4012 
Q 1133 4326 1626 4326 
Q 2253 4326 2649 3712 
Q 3046 3098 3046 2112 
z
M 2432 2080 
Q 2432 3091 2217 3625 
Q 2003 4160 1587 4160 
Q 1190 4160 979 3622 
Q 768 3085 768 2106 
Q 768 1120 979 598 
Q 1190 77 1600 77 
Q 2003 77 2217 598 
Q 2432 1120 2432 2080 
z
" transform="scale(0.015625)"/>
        <path id="STIXGeneral-Regular-31" d="M 2522 0 
L 755 0 
L 755 96 
Q 1107 115 1235 227 
Q 1363 339 1363 608 
L 1363 3482 
Q 1363 3795 1171 3795 
Q 1082 3795 883 3718 
L 710 3654 
L 710 3744 
L 1856 4326 
L 1914 4307 
L 1914 486 
Q 1914 275 2042 185 
Q 2170 96 2522 96 
L 2522 0 
z
" transform="scale(0.015625)"/>
        <path id="STIXGeneral-Regular-37" d="M 2874 4134 
L 1517 -51 
L 1101 -51 
L 2368 3763 
L 992 3763 
Q 717 3763 582 3667 
Q 448 3571 243 3238 
L 128 3296 
L 512 4237 
L 2874 4237 
L 2874 4134 
z
" transform="scale(0.015625)"/>
        <path id="STIXGeneral-Regular-2d" d="M 1824 1242 
L 250 1242 
L 250 1645 
L 1824 1645 
L 1824 1242 
z
" transform="scale(0.015625)"/>
       </defs>
       <use xlink:href="#STIXGeneral-Regular-32"/>
       <use xlink:href="#STIXGeneral-Regular-30" x="49.999985"/>
       <use xlink:href="#STIXGeneral-Regular-31" x="99.999969"/>
       <use xlink:href="#STIXGeneral-Regular-37" x="149.999954"/>
       <use xlink:href="#STIXGeneral-Regular-2d" x="199.999939"/>
       <use xlink:href="#STIXGeneral-Regular-30" x="233.299927"/>
       <use xlink:href="#STIXGeneral-Regular-31" x="283.299911"/>
      </g>
     </g>
    </g>
    <g id="xtick_2">
     <g id="line2d_2">
      <g>
       <use xlink:href="#ma8d2b5a314" x="85.772627" y="203.04" style="fill: #323034; stroke: #323034; stroke-width: 0.8"/>
      </g>
     </g>
     <g id="text_2">
      <!-- 2017-04 -->
      <g style="fill: #323034" transform="translate(49.833212 237.135432)rotate(-30)scale(0.12 -0.12)">
       <defs>
        <path id="STIXGeneral-Regular-34" d="M 3027 1069 
L 2368 1069 
L 2368 0 
L 1869 0 
L 1869 1069 
L 77 1069 
L 77 1478 
L 2086 4326 
L 2368 4326 
L 2368 1478 
L 3027 1478 
L 3027 1069 
z
M 1869 1478 
L 1869 3674 
L 333 1478 
L 1869 1478 
z
" transform="scale(0.015625)"/>
       </defs>
       <use xlink:href="#STIXGeneral-Regular-32"/>
       <use xlink:href="#STIXGeneral-Regular-30" x="49.999985"/>
       <use xlink:href="#STIXGeneral-Regular-31" x="99.999969"/>
       <use xlink:href="#STIXGeneral-Regular-37" x="149.999954"/>
       <use xlink:href="#STIXGeneral-Regular-2d" x="199.999939"/>
       <use xlink:href="#STIXGeneral-Regular-30" x="233.299927"/>
       <use xlink:href="#STIXGeneral-Regular-34" x="283.299911"/>
      </g>
     </g>
    </g>
    <g id="xtick_3">
     <g id="line2d_3">
      <g>
       <use xlink:href="#ma8d2b5a314" x="117.318288" y="203.04" style="fill: #323034; stroke: #323034; stroke-width: 0.8"/>
      </g>
     </g>
     <g id="text_3">
      <!-- 2017-07 -->
      <g style="fill: #323034" transform="translate(81.378873 237.135432)rotate(-30)scale(0.12 -0.12)">
       <use xlink:href="#STIXGeneral-Regular-32"/>
       <use xlink:href="#STIXGeneral-Regular-30" x="49.999985"/>
       <use xlink:href="#STIXGeneral-Regular-31" x="99.999969"/>
       <use xlink:href="#STIXGeneral-Regular-37" x="149.999954"/>
       <use xlink:href="#STIXGeneral-Regular-2d" x="199.999939"/>
       <use xlink:href="#STIXGeneral-Regular-30" x="233.299927"/>
       <use xlink:href="#STIXGeneral-Regular-37" x="283.299911"/>
      </g>
     </g>
    </g>
    <g id="xtick_4">
     <g id="line2d_4">
      <g>
       <use xlink:href="#ma8d2b5a314" x="149.210605" y="203.04" style="fill: #323034; stroke: #323034; stroke-width: 0.8"/>
      </g>
     </g>
     <g id="text_4">
      <!-- 2017-10 -->
      <g style="fill: #323034" transform="translate(113.271191 237.135432)rotate(-30)scale(0.12 -0.12)">
       <use xlink:href="#STIXGeneral-Regular-32"/>
       <use xlink:href="#STIXGeneral-Regular-30" x="49.999985"/>
       <use xlink:href="#STIXGeneral-Regular-31" x="99.999969"/>
       <use xlink:href="#STIXGeneral-Regular-37" x="149.999954"/>
       <use xlink:href="#STIXGeneral-Regular-2d" x="199.999939"/>
       <use xlink:href="#STIXGeneral-Regular-31" x="233.299927"/>
       <use xlink:href="#STIXGeneral-Regular-30" x="283.299911"/>
      </g>
     </g>
    </g>
    <g id="xtick_5">
     <g id="line2d_5">
      <g>
       <use xlink:href="#ma8d2b5a314" x="181.102923" y="203.04" style="fill: #323034; stroke: #323034; stroke-width: 0.8"/>
      </g>
     </g>
     <g id="text_5">
      <!-- 2018-01 -->
      <g style="fill: #323034" transform="translate(145.163508 237.135432)rotate(-30)scale(0.12 -0.12)">
       <defs>
        <path id="STIXGeneral-Regular-38" d="M 2848 992 
Q 2848 499 2505 204 
Q 2163 -90 1587 -90 
Q 1050 -90 704 204 
Q 358 499 358 954 
Q 358 1293 524 1533 
Q 691 1773 1190 2125 
Q 710 2522 553 2765 
Q 397 3008 397 3328 
Q 397 3782 745 4054 
Q 1094 4326 1638 4326 
Q 2106 4326 2410 4060 
Q 2714 3795 2714 3411 
Q 2714 3059 2531 2848 
Q 2349 2637 1856 2374 
Q 2432 1990 2640 1689 
Q 2848 1389 2848 992 
z
M 2272 3411 
Q 2272 3744 2086 3945 
Q 1901 4147 1574 4147 
Q 1248 4147 1059 3977 
Q 870 3808 870 3513 
Q 870 3219 1059 2979 
Q 1248 2739 1670 2490 
Q 1997 2682 2134 2896 
Q 2272 3110 2272 3411 
z
M 1734 1741 
L 1357 1997 
Q 1075 1766 960 1545 
Q 845 1325 845 1011 
Q 845 576 1065 333 
Q 1286 90 1658 90 
Q 1971 90 2166 285 
Q 2362 480 2362 794 
Q 2362 1082 2214 1299 
Q 2067 1517 1734 1741 
z
" transform="scale(0.015625)"/>
       </defs>
       <use xlink:href="#STIXGeneral-Regular-32"/>
       <use xlink:href="#STIXGeneral-Regular-30" x="49.999985"/>
       <use xlink:href="#STIXGeneral-Regular-31" x="99.999969"/>
       <use xlink:href="#STIXGeneral-Regular-38" x="149.999954"/>
       <use xlink:href="#STIXGeneral-Regular-2d" x="199.999939"/>
       <use xlink:href="#STIXGeneral-Regular-30" x="233.299927"/>
       <use xlink:href="#STIXGeneral-Regular-31" x="283.299911"/>
      </g>
     </g>
    </g>
    <g id="xtick_6">
     <g id="line2d_6">
      <g>
       <use xlink:href="#ma8d2b5a314" x="212.301929" y="203.04" style="fill: #323034; stroke: #323034; stroke-width: 0.8"/>
      </g>
     </g>
     <g id="text_6">
      <!-- 2018-04 -->
      <g style="fill: #323034" transform="translate(176.362514 237.135432)rotate(-30)scale(0.12 -0.12)">
       <use xlink:href="#STIXGeneral-Regular-32"/>
       <use xlink:href="#STIXGeneral-Regular-30" x="49.999985"/>
       <use xlink:href="#STIXGeneral-Regular-31" x="99.999969"/>
       <use xlink:href="#STIXGeneral-Regular-38" x="149.999954"/>
       <use xlink:href="#STIXGeneral-Regular-2d" x="199.999939"/>
       <use xlink:href="#STIXGeneral-Regular-30" x="233.299927"/>
       <use xlink:href="#STIXGeneral-Regular-34" x="283.299911"/>
      </g>
     </g>
    </g>
    <g id="xtick_7">
     <g id="line2d_7">
      <g>
       <use xlink:href="#ma8d2b5a314" x="243.84759" y="203.04" style="fill: #323034; stroke: #323034; stroke-width: 0.8"/>
      </g>
     </g>
     <g id="text_7">
      <!-- 2018-07 -->
      <g style="fill: #323034" transform="translate(207.908176 237.135432)rotate(-30)scale(0.12 -0.12)">
       <use xlink:href="#STIXGeneral-Regular-32"/>
       <use xlink:href="#STIXGeneral-Regular-30" x="49.999985"/>
       <use xlink:href="#STIXGeneral-Regular-31" x="99.999969"/>
       <use xlink:href="#STIXGeneral-Regular-38" x="149.999954"/>
       <use xlink:href="#STIXGeneral-Regular-2d" x="199.999939"/>
       <use xlink:href="#STIXGeneral-Regular-30" x="233.299927"/>
       <use xlink:href="#STIXGeneral-Regular-37" x="283.299911"/>
      </g>
     </g>
    </g>
    <g id="xtick_8">
     <g id="line2d_8">
      <g>
       <use xlink:href="#ma8d2b5a314" x="275.739908" y="203.04" style="fill: #323034; stroke: #323034; stroke-width: 0.8"/>
      </g>
     </g>
     <g id="text_8">
      <!-- 2018-10 -->
      <g style="fill: #323034" transform="translate(239.800493 237.135432)rotate(-30)scale(0.12 -0.12)">
       <use xlink:href="#STIXGeneral-Regular-32"/>
       <use xlink:href="#STIXGeneral-Regular-30" x="49.999985"/>
       <use xlink:href="#STIXGeneral-Regular-31" x="99.999969"/>
       <use xlink:href="#STIXGeneral-Regular-38" x="149.999954"/>
       <use xlink:href="#STIXGeneral-Regular-2d" x="199.999939"/>
       <use xlink:href="#STIXGeneral-Regular-31" x="233.299927"/>
       <use xlink:href="#STIXGeneral-Regular-30" x="283.299911"/>
      </g>
     </g>
    </g>
    <g id="xtick_9">
     <g id="line2d_9">
      <g>
       <use xlink:href="#ma8d2b5a314" x="307.632225" y="203.04" style="fill: #323034; stroke: #323034; stroke-width: 0.8"/>
      </g>
     </g>
     <g id="text_9">
      <!-- 2019-01 -->
      <g style="fill: #323034" transform="translate(271.69281 237.135432)rotate(-30)scale(0.12 -0.12)">
       <defs>
        <path id="STIXGeneral-Regular-39" d="M 378 -141 
L 358 -13 
Q 1094 115 1603 608 
Q 2112 1101 2304 1882 
Q 1933 1517 1344 1517 
Q 826 1517 509 1875 
Q 192 2234 192 2816 
Q 192 3462 573 3894 
Q 954 4326 1523 4326 
Q 2131 4326 2528 3840 
Q 2938 3328 2938 2522 
Q 2938 1958 2742 1462 
Q 2547 966 2170 621 
Q 1773 262 1395 105 
Q 1018 -51 378 -141 
z
M 2317 2272 
L 2317 2522 
Q 2317 4147 1472 4147 
Q 1171 4147 1005 3930 
Q 909 3802 845 3546 
Q 781 3290 781 3034 
Q 781 2464 995 2128 
Q 1210 1792 1568 1792 
Q 1824 1792 2070 1917 
Q 2317 2042 2317 2272 
z
" transform="scale(0.015625)"/>
       </defs>
       <use xlink:href="#STIXGeneral-Regular-32"/>
       <use xlink:href="#STIXGeneral-Regular-30" x="49.999985"/>
       <use xlink:href="#STIXGeneral-Regular-31" x="99.999969"/>
       <use xlink:href="#STIXGeneral-Regular-39" x="149.999954"/>
       <use xlink:href="#STIXGeneral-Regular-2d" x="199.999939"/>
       <use xlink:href="#STIXGeneral-Regular-30" x="233.299927"/>
       <use xlink:href="#STIXGeneral-Regular-31" x="283.299911"/>
      </g>
     </g>
    </g>
    <g id="xtick_10">
     <g id="line2d_10">
      <g>
       <use xlink:href="#ma8d2b5a314" x="338.831231" y="203.04" style="fill: #323034; stroke: #323034; stroke-width: 0.8"/>
      </g>
     </g>
     <g id="text_10">
      <!-- 2019-04 -->
      <g style="fill: #323034" transform="translate(302.891816 237.135432)rotate(-30)scale(0.12 -0.12)">
       <use xlink:href="#STIXGeneral-Regular-32"/>
       <use xlink:href="#STIXGeneral-Regular-30" x="49.999985"/>
       <use xlink:href="#STIXGeneral-Regular-31" x="99.999969"/>
       <use xlink:href="#STIXGeneral-Regular-39" x="149.999954"/>
       <use xlink:href="#STIXGeneral-Regular-2d" x="199.999939"/>
       <use xlink:href="#STIXGeneral-Regular-30" x="233.299927"/>
       <use xlink:href="#STIXGeneral-Regular-34" x="283.299911"/>
      </g>
     </g>
    </g>
    <g id="xtick_11">
     <g id="line2d_11">
      <g>
       <use xlink:href="#ma8d2b5a314" x="370.376892" y="203.04" style="fill: #323034; stroke: #323034; stroke-width: 0.8"/>
      </g>
     </g>
     <g id="text_11">
      <!-- 2019-07 -->
      <g style="fill: #323034" transform="translate(334.437478 237.135432)rotate(-30)scale(0.12 -0.12)">
       <use xlink:href="#STIXGeneral-Regular-32"/>
       <use xlink:href="#STIXGeneral-Regular-30" x="49.999985"/>
       <use xlink:href="#STIXGeneral-Regular-31" x="99.999969"/>
       <use xlink:href="#STIXGeneral-Regular-39" x="149.999954"/>
       <use xlink:href="#STIXGeneral-Regular-2d" x="199.999939"/>
       <use xlink:href="#STIXGeneral-Regular-30" x="233.299927"/>
       <use xlink:href="#STIXGeneral-Regular-37" x="283.299911"/>
      </g>
     </g>
    </g>
    <g id="text_12">
     <!-- Date -->
     <g transform="translate(196.12 250.586512)scale(0.12 -0.12)">
      <defs>
       <path id="STIXGeneral-Regular-44" d="M 102 4237 
L 1830 4237 
Q 3078 4237 3750 3654 
Q 4384 3110 4384 2138 
Q 4384 966 3514 410 
Q 2880 0 1901 0 
L 102 0 
L 102 122 
Q 474 147 570 252 
Q 666 358 666 736 
L 666 3520 
Q 666 3891 570 3990 
Q 474 4090 102 4115 
L 102 4237 
z
M 1318 3731 
L 1318 538 
Q 1318 365 1379 301 
Q 1440 237 1626 237 
Q 2125 237 2432 307 
Q 2739 378 3021 570 
Q 3686 1018 3686 2099 
Q 3686 3027 3078 3558 
Q 2803 3802 2476 3901 
Q 2150 4000 1658 4000 
Q 1472 4000 1395 3942 
Q 1318 3885 1318 3731 
z
" transform="scale(0.015625)"/>
       <path id="STIXGeneral-Regular-61" d="M 2829 422 
L 2829 243 
Q 2586 -64 2253 -64 
Q 1888 -64 1843 403 
L 1837 403 
Q 1427 -64 909 -64 
Q 608 -64 422 112 
Q 237 288 237 602 
Q 237 1050 685 1350 
Q 992 1555 1837 1869 
L 1837 2214 
Q 1837 2502 1699 2646 
Q 1562 2790 1338 2790 
Q 1146 2790 1018 2697 
Q 890 2605 890 2477 
Q 890 2419 909 2348 
Q 928 2278 928 2208 
Q 928 2112 841 2029 
Q 755 1946 634 1946 
Q 525 1946 441 2029 
Q 358 2112 358 2240 
Q 358 2547 685 2752 
Q 986 2944 1421 2944 
Q 1939 2944 2176 2656 
Q 2291 2522 2323 2384 
Q 2355 2246 2355 1946 
L 2355 723 
Q 2355 301 2554 301 
Q 2682 301 2829 422 
z
M 1837 813 
L 1837 1715 
Q 1248 1510 1018 1293 
Q 800 1094 800 800 
Q 800 557 921 432 
Q 1043 307 1242 307 
Q 1453 307 1613 410 
Q 1747 506 1792 589 
Q 1837 672 1837 813 
z
" transform="scale(0.015625)"/>
       <path id="STIXGeneral-Regular-74" d="M 1702 493 
L 1786 422 
Q 1478 -64 1011 -64 
Q 448 -64 448 749 
L 448 2675 
L 109 2675 
Q 83 2694 83 2720 
Q 83 2771 192 2842 
Q 435 2982 813 3526 
Q 826 3546 874 3606 
Q 922 3667 941 3706 
Q 986 3706 986 3622 
L 986 2880 
L 1632 2880 
L 1632 2675 
L 986 2675 
L 986 845 
Q 986 538 1062 403 
Q 1139 269 1318 269 
Q 1510 269 1702 493 
z
" transform="scale(0.015625)"/>
       <path id="STIXGeneral-Regular-65" d="M 2611 1050 
L 2714 1005 
Q 2330 -64 1376 -64 
Q 813 -64 486 329 
Q 160 723 160 1389 
Q 160 2074 525 2509 
Q 890 2944 1485 2944 
Q 2061 2944 2374 2502 
Q 2560 2246 2592 1773 
L 621 1773 
Q 646 1370 700 1158 
Q 755 947 915 730 
Q 1184 378 1626 378 
Q 1939 378 2153 531 
Q 2368 685 2611 1050 
z
M 634 1978 
L 1939 1978 
Q 1882 2381 1750 2547 
Q 1619 2714 1312 2714 
Q 1043 2714 864 2525 
Q 685 2336 634 1978 
z
" transform="scale(0.015625)"/>
      </defs>
      <use xlink:href="#STIXGeneral-Regular-44"/>
      <use xlink:href="#STIXGeneral-Regular-61" x="72.199982"/>
      <use xlink:href="#STIXGeneral-Regular-74" x="116.599976"/>
      <use xlink:href="#STIXGeneral-Regular-65" x="144.399963"/>
     </g>
    </g>
   </g>
   <g id="matplotlib.axis_2">
    <g id="ytick_1">
     <g id="line2d_12">
      <defs>
       <path id="mc05d06f060" d="M 0 0 
L -3.5 0 
" style="stroke: #323034; stroke-width: 0.8"/>
      </defs>
      <g>
       <use xlink:href="#mc05d06f060" x="40.04875" y="176.408847" style="fill: #323034; stroke: #323034; stroke-width: 0.8"/>
      </g>
     </g>
     <g id="text_13">
      <!-- $\mathdefault{30}$ -->
      <g style="fill: #323034" transform="translate(21.04875 180.50666)scale(0.12 -0.12)">
       <defs>
        <path id="STIXGeneral-Regular-33" d="M 390 3264 
L 288 3290 
Q 435 3770 748 4048 
Q 1062 4326 1542 4326 
Q 1990 4326 2265 4083 
Q 2541 3840 2541 3450 
Q 2541 2925 1946 2566 
Q 2298 2413 2477 2227 
Q 2758 1914 2758 1402 
Q 2758 890 2464 506 
Q 2246 211 1840 60 
Q 1434 -90 979 -90 
Q 262 -90 262 275 
Q 262 378 339 442 
Q 416 506 525 506 
Q 685 506 915 339 
Q 1197 141 1466 141 
Q 1818 141 2058 425 
Q 2298 710 2298 1120 
Q 2298 1856 1632 2048 
Q 1434 2112 979 2112 
L 979 2202 
Q 1338 2323 1517 2432 
Q 2035 2726 2035 3290 
Q 2035 3610 1852 3776 
Q 1670 3942 1344 3942 
Q 768 3942 390 3264 
z
" transform="scale(0.015625)"/>
       </defs>
       <use xlink:href="#STIXGeneral-Regular-33" transform="translate(0 0.40625)"/>
       <use xlink:href="#STIXGeneral-Regular-30" transform="translate(49.999985 0.40625)"/>
      </g>
     </g>
    </g>
    <g id="ytick_2">
     <g id="line2d_13">
      <g>
       <use xlink:href="#mc05d06f060" x="40.04875" y="145.346169" style="fill: #323034; stroke: #323034; stroke-width: 0.8"/>
      </g>
     </g>
     <g id="text_14">
      <!-- $\mathdefault{35}$ -->
      <g style="fill: #323034" transform="translate(21.04875 149.443981)scale(0.12 -0.12)">
       <defs>
        <path id="STIXGeneral-Regular-35" d="M 2803 4358 
L 2573 3814 
Q 2534 3731 2400 3731 
L 1158 3731 
L 902 3187 
Q 1606 3053 1920 2896 
Q 2234 2739 2502 2368 
Q 2726 2061 2726 1555 
Q 2726 1094 2576 780 
Q 2426 467 2099 224 
Q 1664 -90 1011 -90 
Q 646 -90 422 19 
Q 198 128 198 307 
Q 198 550 486 550 
Q 717 550 960 352 
Q 1210 147 1414 147 
Q 1747 147 2012 480 
Q 2278 813 2278 1229 
Q 2278 1843 1850 2189 
Q 1293 2637 486 2637 
Q 410 2637 410 2688 
L 416 2720 
L 1114 4237 
L 2438 4237 
Q 2547 4237 2608 4269 
Q 2669 4301 2746 4403 
L 2803 4358 
z
" transform="scale(0.015625)"/>
       </defs>
       <use xlink:href="#STIXGeneral-Regular-33" transform="translate(0 0.203125)"/>
       <use xlink:href="#STIXGeneral-Regular-35" transform="translate(49.999985 0.203125)"/>
      </g>
     </g>
    </g>
    <g id="ytick_3">
     <g id="line2d_14">
      <g>
       <use xlink:href="#mc05d06f060" x="40.04875" y="114.28349" style="fill: #323034; stroke: #323034; stroke-width: 0.8"/>
      </g>
     </g>
     <g id="text_15">
      <!-- $\mathdefault{40}$ -->
      <g style="fill: #323034" transform="translate(21.04875 118.381303)scale(0.12 -0.12)">
       <use xlink:href="#STIXGeneral-Regular-34" transform="translate(0 0.40625)"/>
       <use xlink:href="#STIXGeneral-Regular-30" transform="translate(49.999985 0.40625)"/>
      </g>
     </g>
    </g>
    <g id="ytick_4">
     <g id="line2d_15">
      <g>
       <use xlink:href="#mc05d06f060" x="40.04875" y="83.220812" style="fill: #323034; stroke: #323034; stroke-width: 0.8"/>
      </g>
     </g>
     <g id="text_16">
      <!-- $\mathdefault{45}$ -->
      <g style="fill: #323034" transform="translate(21.04875 87.318624)scale(0.12 -0.12)">
       <use xlink:href="#STIXGeneral-Regular-34" transform="translate(0 0.203125)"/>
       <use xlink:href="#STIXGeneral-Regular-35" transform="translate(49.999985 0.203125)"/>
      </g>
     </g>
    </g>
    <g id="ytick_5">
     <g id="line2d_16">
      <g>
       <use xlink:href="#mc05d06f060" x="40.04875" y="52.158133" style="fill: #323034; stroke: #323034; stroke-width: 0.8"/>
      </g>
     </g>
     <g id="text_17">
      <!-- $\mathdefault{50}$ -->
      <g style="fill: #323034" transform="translate(21.04875 56.255945)scale(0.12 -0.12)">
       <use xlink:href="#STIXGeneral-Regular-35" transform="translate(0 0.203125)"/>
       <use xlink:href="#STIXGeneral-Regular-30" transform="translate(49.999985 0.203125)"/>
      </g>
     </g>
    </g>
    <g id="ytick_6">
     <g id="line2d_17">
      <g>
       <use xlink:href="#mc05d06f060" x="40.04875" y="21.095454" style="fill: #323034; stroke: #323034; stroke-width: 0.8"/>
      </g>
     </g>
     <g id="text_18">
      <!-- $\mathdefault{55}$ -->
      <g style="fill: #323034" transform="translate(21.04875 25.193267)scale(0.12 -0.12)">
       <use xlink:href="#STIXGeneral-Regular-35" transform="translate(0 0.203125)"/>
       <use xlink:href="#STIXGeneral-Regular-35" transform="translate(49.999985 0.203125)"/>
      </g>
     </g>
    </g>
    <g id="text_19">
     <!-- Close ($) -->
     <g transform="translate(15.444375 127.284375)rotate(-90)scale(0.12 -0.12)">
      <defs>
       <path id="STIXGeneral-Regular-43" d="M 3930 838 
L 4051 723 
Q 3482 -90 2304 -90 
Q 1376 -90 794 480 
Q 179 1082 179 2080 
Q 179 3014 755 3661 
Q 1357 4326 2310 4326 
Q 2720 4326 3072 4230 
Q 3475 4115 3514 4115 
Q 3725 4115 3782 4326 
L 3910 4326 
L 3968 2874 
L 3821 2874 
Q 3718 3334 3488 3584 
Q 3034 4070 2458 4070 
Q 1747 4070 1334 3548 
Q 922 3027 922 2182 
Q 922 1152 1382 653 
Q 1811 192 2522 192 
Q 2944 192 3251 339 
Q 3558 486 3930 838 
z
" transform="scale(0.015625)"/>
       <path id="STIXGeneral-Regular-6c" d="M 1645 0 
L 134 0 
L 134 96 
Q 435 122 531 221 
Q 627 320 627 589 
L 627 3590 
Q 627 3821 569 3910 
Q 512 4000 358 4000 
Q 224 4000 122 3987 
L 122 4090 
Q 730 4237 1133 4371 
L 1165 4346 
L 1165 557 
Q 1165 288 1254 201 
Q 1344 115 1645 96 
L 1645 0 
z
" transform="scale(0.015625)"/>
       <path id="STIXGeneral-Regular-6f" d="M 3008 1478 
Q 3008 806 2608 371 
Q 2208 -64 1568 -64 
Q 979 -64 582 368 
Q 186 800 186 1459 
Q 186 2125 582 2534 
Q 979 2944 1626 2944 
Q 2221 2944 2614 2537 
Q 3008 2131 3008 1478 
z
M 2432 1306 
Q 2432 2035 2112 2445 
Q 1856 2765 1504 2765 
Q 1171 2765 966 2493 
Q 762 2221 762 1747 
Q 762 928 1101 435 
Q 1318 115 1677 115 
Q 2029 115 2230 432 
Q 2432 749 2432 1306 
z
" transform="scale(0.015625)"/>
       <path id="STIXGeneral-Regular-73" d="M 998 1926 
L 1664 1523 
Q 1984 1331 2105 1164 
Q 2227 998 2227 736 
Q 2227 416 1961 176 
Q 1696 -64 1331 -64 
Q 1030 -64 864 -6 
Q 691 51 570 51 
Q 461 51 416 -26 
L 333 -26 
L 333 979 
L 435 979 
Q 538 512 730 294 
Q 922 77 1248 77 
Q 1485 77 1632 211 
Q 1779 346 1779 550 
Q 1779 845 1440 1030 
L 1094 1222 
Q 326 1651 326 2150 
Q 326 2522 566 2730 
Q 806 2938 1210 2938 
Q 1491 2938 1638 2867 
Q 1754 2816 1818 2816 
Q 1862 2816 1920 2880 
L 1990 2880 
L 2022 2010 
L 1926 2010 
Q 1818 2445 1654 2621 
Q 1491 2797 1203 2797 
Q 986 2797 854 2688 
Q 723 2579 723 2362 
Q 723 2253 796 2128 
Q 870 2003 998 1926 
z
" transform="scale(0.015625)"/>
       <path id="STIXGeneral-Regular-20" transform="scale(0.015625)"/>
       <path id="STIXGeneral-Regular-28" d="M 1946 -1030 
L 1869 -1133 
Q 1126 -710 716 32 
Q 307 774 307 1613 
Q 307 3386 1888 4326 
L 1946 4224 
Q 1293 3667 1075 3126 
Q 858 2586 858 1632 
Q 858 685 1082 96 
Q 1306 -493 1946 -1030 
z
" transform="scale(0.015625)"/>
       <path id="STIXGeneral-Regular-24" d="M 1690 4077 
L 1690 2502 
Q 2234 2208 2445 2045 
Q 2656 1882 2797 1664 
Q 2931 1466 2931 1088 
Q 2931 570 2614 326 
Q 2298 83 1690 0 
L 1690 -557 
L 1472 -557 
L 1472 0 
Q 1062 0 806 73 
Q 550 147 282 326 
L 282 1158 
L 378 1158 
Q 480 685 761 432 
Q 1043 179 1472 179 
L 1472 1984 
Q 800 2362 566 2624 
Q 333 2886 333 3283 
Q 333 3731 659 3974 
Q 986 4218 1472 4250 
L 1472 4653 
L 1690 4653 
L 1690 4250 
Q 2426 4205 2720 3910 
L 2720 3200 
L 2624 3200 
Q 2528 3597 2301 3814 
Q 2074 4032 1690 4077 
z
M 1472 2605 
L 1472 4077 
Q 806 3942 806 3405 
Q 806 3194 937 3037 
Q 1069 2880 1472 2605 
z
M 1690 1875 
L 1690 179 
Q 2086 262 2252 432 
Q 2419 602 2419 941 
Q 2419 1235 2272 1427 
Q 2125 1619 1690 1875 
z
" transform="scale(0.015625)"/>
       <path id="STIXGeneral-Regular-29" d="M 186 4224 
L 262 4326 
Q 992 3891 1408 3148 
Q 1824 2406 1824 1581 
Q 1824 -166 243 -1133 
L 186 -1030 
Q 845 -486 1059 54 
Q 1274 595 1274 1562 
Q 1274 2534 1059 3120 
Q 845 3706 186 4224 
z
" transform="scale(0.015625)"/>
      </defs>
      <use xlink:href="#STIXGeneral-Regular-43"/>
      <use xlink:href="#STIXGeneral-Regular-6c" x="66.699997"/>
      <use xlink:href="#STIXGeneral-Regular-6f" x="94.499985"/>
      <use xlink:href="#STIXGeneral-Regular-73" x="144.499969"/>
      <use xlink:href="#STIXGeneral-Regular-65" x="183.399963"/>
      <use xlink:href="#STIXGeneral-Regular-20" x="227.799957"/>
      <use xlink:href="#STIXGeneral-Regular-28" x="252.799942"/>
      <use xlink:href="#STIXGeneral-Regular-24" x="286.09993"/>
      <use xlink:href="#STIXGeneral-Regular-29" x="336.099915"/>
     </g>
    </g>
   </g>
   <g id="line2d_18">
    <path d="M 55.266932 193.952427 
L 55.613587 194.138182 
L 55.960243 193.265321 
L 56.306899 191.407151 
L 57.346866 189.839728 
L 57.693521 189.653974 
L 58.040177 188.725199 
L 58.386832 189.430944 
L 58.733488 189.759587 
L 60.120111 188.366115 
L 60.466766 188.37854 
L 60.813422 188.675499 
L 61.160077 188.366115 
L 62.200044 188.229439 
L 62.5467 188.415815 
L 62.893356 185.62825 
L 63.586667 185.52885 
L 64.626634 186.018398 
L 64.973289 186.389907 
L 65.319945 175.656509 
L 65.6666 175.941043 
L 66.013256 175.198024 
L 67.053223 173.370917 
L 67.399879 171.623952 
L 67.746534 170.905783 
L 68.09319 169.450186 
L 68.439845 169.902459 
L 69.479812 168.180965 
L 69.826468 165.69036 
L 70.173124 164.959765 
L 70.519779 165.189629 
L 70.866435 164.644168 
L 72.253057 163.213422 
L 72.599713 162.618261 
L 72.946369 163.516593 
L 73.293024 163.269334 
L 74.679647 162.804637 
L 75.026302 158.698151 
L 75.372958 159.949355 
L 75.719614 158.710576 
L 76.75958 159.379666 
L 77.106236 159.106935 
L 77.452892 159.88723 
L 77.799547 160.35814 
L 78.146203 159.676625 
L 79.18617 159.577846 
L 79.532825 159.905867 
L 79.879481 157.725889 
L 80.226137 157.403458 
L 80.572792 158.432254 
L 81.612759 156.275883 
L 81.959415 158.636025 
L 82.30607 156.338008 
L 82.652726 157.075436 
L 82.999382 157.465583 
L 84.039348 157.137562 
L 84.386004 152.863958 
L 84.73266 152.411686 
L 85.425971 153.080776 
L 86.465938 153.01865 
L 86.812593 151.445015 
L 87.159249 152.535315 
L 87.85256 153.557898 
L 88.892527 153.805157 
L 89.239183 156.047262 
L 89.585838 155.781365 
L 89.932494 156.877256 
L 91.319117 155.737877 
L 92.012428 157.422096 
L 92.359083 154.839545 
L 92.705739 155.075 
L 93.745706 153.111838 
L 94.092362 151.792296 
L 94.439017 153.049713 
L 94.785673 152.881975 
L 95.132328 153.093201 
L 96.518951 147.431717 
L 97.212262 148.881102 
L 97.558918 145.326289 
L 98.94554 137.968161 
L 99.292196 139.070265 
L 99.638851 137.138167 
L 99.985507 133.966667 
L 101.37213 134.883637 
L 101.718785 142.544936 
L 102.065441 139.175878 
L 102.412096 138.426025 
L 103.452063 137.076041 
L 103.798719 137.305284 
L 104.145375 137.998603 
L 104.49203 137.212096 
L 104.838686 137.59603 
L 106.225308 137.504085 
L 106.571964 138.88451 
L 106.91862 138.247104 
L 107.265275 134.901654 
L 108.305242 137.14997 
L 108.651898 136.395147 
L 108.998553 135.025904 
L 109.345209 135.602428 
L 109.691865 144.421743 
L 110.731831 149.636546 
L 111.078487 147.871565 
L 111.425143 150.026693 
L 111.771798 151.259882 
L 112.118454 154.245005 
L 113.158421 148.261712 
L 113.505076 150.231707 
L 113.851732 148.961865 
L 114.198388 149.308524 
L 114.545043 148.3549 
L 115.58501 149.036415 
L 115.931666 152.102301 
L 116.278321 149.02399 
L 116.624977 152.182443 
L 116.971633 151.668666 
L 118.011599 152.448961 
L 118.704911 151.569266 
L 119.051566 153.582749 
L 119.398222 151.426377 
L 120.438189 150.150944 
L 120.784844 149.463837 
L 121.1315 149.153211 
L 121.478156 146.186725 
L 121.824811 144.322343 
L 122.864778 143.542048 
L 123.211434 142.786604 
L 123.558089 141.405557 
L 123.904745 142.415094 
L 124.251401 142.526299 
L 125.984679 137.813469 
L 126.331334 142.092664 
L 126.67799 143.622811 
L 127.717957 144.793253 
L 128.064612 142.836304 
L 128.411268 132.455778 
L 128.757924 134.747583 
L 130.144546 129.972007 
L 130.837857 126.689303 
L 131.184513 134.214547 
L 131.531169 131.025031 
L 132.571136 127.568998 
L 132.917791 124.998872 
L 133.264447 125.933237 
L 133.611102 130.467146 
L 133.957758 131.000181 
L 134.997725 131.446241 
L 135.344381 127.674611 
L 135.691036 127.364605 
L 136.037692 128.411418 
L 137.424314 125.19643 
L 137.77097 123.010239 
L 138.117626 122.372212 
L 138.464281 121.461454 
L 138.810937 121.400571 
L 140.197559 124.286294 
L 140.544215 124.534174 
L 140.890871 125.469161 
L 141.237526 129.309129 
L 142.277493 125.147351 
L 142.624149 126.069913 
L 143.31746 129.835952 
L 143.664116 127.519298 
L 144.704082 129.247625 
L 145.050738 129.1855 
L 145.744049 137.076041 
L 146.090705 139.256641 
L 147.130672 141.219803 
L 147.477327 137.392259 
L 147.823983 135.831049 
L 148.170639 137.212096 
L 148.517294 135.998788 
L 149.557261 136.456651 
L 149.903917 135.478177 
L 150.250572 136.958624 
L 150.597228 134.109555 
L 150.943884 134.251822 
L 151.98385 133.42804 
L 152.330506 133.335473 
L 152.677162 132.424716 
L 153.023817 133.20501 
L 154.41044 127.519298 
L 154.757095 126.627799 
L 155.103751 127.705052 
L 155.450407 133.217435 
L 155.797062 132.883201 
L 156.837029 132.976389 
L 157.183685 131.619571 
L 157.53034 132.635321 
L 157.876996 131.136857 
L 158.223652 122.793422 
L 159.263619 117.448156 
L 159.610274 114.004547 
L 159.95693 117.219535 
L 160.303585 115.386215 
L 160.650241 108.95065 
L 162.036863 105.550529 
L 162.383519 103.426463 
L 162.730175 103.952665 
L 163.07683 104.83236 
L 164.116797 105.835063 
L 164.810108 113.088198 
L 165.156764 110.0658 
L 165.50342 111.496547 
L 166.543387 111.762443 
L 166.890042 107.068251 
L 167.236698 104.404937 
L 167.930009 104.3863 
L 168.969976 105.686583 
L 169.316632 107.167031 
L 169.663287 112.475021 
L 170.009943 109.00035 
L 170.356598 110.146563 
L 171.396565 111.99852 
L 171.743221 112.227141 
L 172.089877 113.131686 
L 172.436532 112.722901 
L 172.783188 112.642138 
L 173.823155 107.773995 
L 174.16981 109.229592 
L 174.516466 108.362322 
L 174.863122 108.443085 
L 175.209777 105.835063 
L 176.249744 102.224958 
L 176.5964 105.042343 
L 176.943055 105.290845 
L 177.289711 104.324174 
L 177.636366 104.324174 
L 179.022989 110.883369 
L 179.369645 110.839882 
L 179.7163 110.103075 
L 180.062956 112.858956 
L 181.449578 108.38096 
L 181.796234 108.424448 
L 182.14289 107.222322 
L 182.489545 104.342812 
L 183.529512 105.228719 
L 184.222823 105.389003 
L 184.569479 103.909177 
L 184.916135 101.283138 
L 186.302757 102.565405 
L 186.649413 98.272543 
L 186.996068 98.031497 
L 187.342724 99.208151 
L 188.382691 101.381917 
L 188.729346 101.326626 
L 189.422658 110.053375 
L 189.769313 109.495489 
L 191.155936 116.190739 
L 191.849247 115.008493 
L 192.195903 125.748104 
L 193.235869 131.694122 
L 193.582525 122.006915 
L 194.275836 133.632433 
L 196.009114 119.071491 
L 196.35577 114.587283 
L 196.702426 106.244469 
L 197.049081 107.086889 
L 198.435704 107.953538 
L 198.782359 109.123979 
L 199.129015 106.981276 
L 199.475671 102.515705 
L 200.515638 97.387257 
L 200.862293 98.235268 
L 201.208949 98.619824 
L 201.555604 103.264937 
L 201.90226 101.48753 
L 202.942227 100.607835 
L 203.288883 100.837078 
L 203.635538 103.221449 
L 203.982194 100.422702 
L 204.328849 95.901218 
L 205.368816 93.324258 
L 206.062128 98.168173 
L 206.408783 97.857546 
L 206.755439 98.774516 
L 207.795406 102.825089 
L 208.142061 102.89964 
L 208.488717 108.82702 
L 208.835372 112.382454 
L 209.182028 118.166946 
L 210.221995 106.578703 
L 210.568651 113.168961 
L 210.915306 115.906205 
L 211.261962 113.96106 
L 212.648584 115.615458 
L 212.99524 113.088198 
L 213.341896 108.307031 
L 213.688551 106.535216 
L 214.035207 113.106836 
L 215.075174 110.623064 
L 215.421829 105.8537 
L 215.768485 107.068251 
L 216.115141 104.571433 
L 216.461796 103.661297 
L 217.501763 102.05722 
L 217.848419 98.452707 
L 218.195074 99.053459 
L 218.54173 106.535216 
L 218.888386 117.045584 
L 219.928352 117.733311 
L 220.275008 121.20177 
L 220.968319 119.256625 
L 221.314975 122.06904 
L 222.354942 117.708461 
L 222.701597 112.010945 
L 223.048253 100.979345 
L 223.394909 100.49601 
L 223.741564 90.165805 
L 224.781531 88.214448 
L 225.128187 86.876889 
L 225.474842 84.962807 
L 225.821498 80.992375 
L 226.168154 82.046021 
L 227.20812 82.708277 
L 227.554776 85.2666 
L 227.901432 82.658577 
L 228.248087 84.429771 
L 228.594743 85.446142 
L 229.63471 83.470556 
L 229.981365 84.163875 
L 230.328021 82.386468 
L 230.674677 82.708277 
L 231.021332 82.058446 
L 232.407955 83.092212 
L 232.75461 83.668114 
L 233.101266 84.616147 
L 233.447922 79.586478 
L 234.487889 77.215153 
L 234.834544 75.027719 
L 235.1812 74.018804 
L 235.527855 74.799098 
L 235.874511 77.400287 
L 236.914478 78.119077 
L 237.261134 76.58893 
L 237.607789 78.886947 
L 237.954445 78.737846 
L 238.3011 81.668299 
L 239.341067 81.809945 
L 239.687723 86.368703 
L 240.034378 85.173412 
L 240.381034 86.690513 
L 240.72769 87.502491 
L 241.767657 91.608356 
L 242.114312 88.24551 
L 242.460968 88.660508 
L 242.807623 86.6346 
L 243.154279 87.223548 
L 244.194246 84.132812 
L 244.540902 89.01338 
L 245.234213 86.777488 
L 245.580868 82.981008 
L 246.620835 79.072701 
L 246.967491 79.426195 
L 247.314147 83.123275 
L 247.660802 78.378761 
L 248.007458 77.958173 
L 249.047425 78.565137 
L 249.39408 77.771797 
L 249.740736 79.351644 
L 250.087392 77.140603 
L 250.434047 77.790434 
L 251.474014 77.524538 
L 251.82067 75.492417 
L 252.167325 72.785615 
L 252.513981 73.665932 
L 252.860637 78.459524 
L 253.900603 80.088451 
L 254.247259 79.524353 
L 254.593915 62.808283 
L 254.94057 54.056063 
L 255.287226 53.164564 
L 256.327193 51.548062 
L 256.673848 54.489698 
L 257.020504 54.279714 
L 257.36716 51.838809 
L 257.713815 52.755779 
L 258.753782 50.79883 
L 259.100438 49.442634 
L 259.447093 48.723843 
L 259.793749 44.128431 
L 260.140405 37.773628 
L 261.180371 40.932081 
L 261.527027 41.551471 
L 261.873683 41.539046 
L 262.220338 40.889214 
L 262.566994 39.872844 
L 263.606961 37.23438 
L 263.953616 34.595916 
L 264.300272 29.709135 
L 264.993583 22.747989 
L 266.380206 21.626626 
L 266.726861 23.881155 
L 267.073517 29.52338 
L 267.420173 32.186694 
L 268.46014 36.633627 
L 268.806795 28.371576 
L 269.153451 32.527763 
L 269.500106 24.574474 
L 269.846762 28.390214 
L 270.886729 37.321355 
L 271.233384 36.770303 
L 271.58004 36.572123 
L 271.926696 34.119414 
L 272.273351 37.649377 
L 273.313318 32.961398 
L 273.659974 30.879577 
L 274.006629 33.518041 
L 274.353285 26.742649 
L 274.699941 25.559161 
L 275.739908 23.310845 
L 276.086563 20.282855 
L 276.433219 16.101818 
L 277.12653 27.690061 
L 278.166497 28.495827 
L 278.513153 23.881155 
L 278.859808 39.575884 
L 279.206464 42.449182 
L 279.553119 31.003828 
L 280.593086 38.083012 
L 280.939742 30.941702 
L 281.286398 32.341387 
L 281.633053 40.077857 
L 281.979709 35.166227 
L 283.019676 33.177594 
L 283.366331 30.080645 
L 283.712987 41.477542 
L 284.059643 34.453649 
L 284.406298 39.656647 
L 285.446265 45.71387 
L 285.792921 44.147068 
L 286.139576 35.834695 
L 286.486232 30.829877 
L 286.832888 52.824117 
L 287.872854 61.624795 
L 288.21951 58.398625 
L 288.566166 49.16307 
L 288.912821 50.253991 
L 289.259477 56.260892 
L 290.299444 71.708362 
L 290.646099 74.612722 
L 290.992755 82.770403 
L 291.339411 75.876973 
L 291.686066 72.681245 
L 292.726033 84.163875 
L 293.072689 97.479824 
L 293.419344 97.7656 
L 294.112656 104.528567 
L 295.152622 101.053895 
L 295.499278 101.592522 
L 295.845934 91.546231 
L 296.539245 95.089861 
L 297.579212 85.730676 
L 297.925867 97.888608 
L 298.619179 100.899203 
L 298.965834 110.208067 
L 300.005801 108.548077 
L 300.352457 109.991249 
L 300.699112 109.291718 
L 301.045768 106.516578 
L 301.392424 114.723338 
L 302.432391 117.033158 
L 302.779046 113.825626 
L 303.819013 136.846799 
L 304.85898 142.669187 
L 305.552291 127.185063 
L 305.898947 128.720802 
L 306.245602 128.596551 
L 307.285569 126.317793 
L 307.97888 126.057488 
L 308.325536 149.636546 
L 308.672192 140.5445 
L 309.712159 141.052685 
L 310.40547 132.976389 
L 310.752125 132.238961 
L 311.098781 134.487278 
L 312.138748 137.906036 
L 312.485404 133.304411 
L 312.832059 130.504421 
L 313.52537 127.717477 
L 314.911993 132.988814 
L 315.258649 132.078056 
L 315.605304 133.880313 
L 315.95196 126.28673 
L 316.991927 128.492181 
L 317.338582 130.900781 
L 317.685238 115.082422 
L 318.031894 113.273953 
L 318.378549 113.168961 
L 319.418516 106.058714 
L 319.765172 101.68571 
L 320.111827 101.592522 
L 320.458483 106.535216 
L 320.805138 106.225831 
L 321.845105 107.718082 
L 322.191761 105.519466 
L 322.538417 106.578703 
L 322.885072 105.649929 
L 323.231728 106.207194 
L 324.61835 105.463553 
L 324.965006 103.785547 
L 325.311662 105.265995 
L 325.658317 102.385242 
L 326.698284 100.49601 
L 327.04494 100.341939 
L 327.391595 99.524369 
L 327.738251 102.100708 
L 328.084907 99.375268 
L 329.124873 98.031497 
L 329.471529 98.514832 
L 329.818185 100.062996 
L 330.16484 103.079182 
L 330.511496 102.472217 
L 331.898118 90.413064 
L 332.244774 89.223985 
L 332.938085 82.584648 
L 333.978052 79.723154 
L 334.324708 81.971471 
L 334.671363 79.505715 
L 335.018019 69.10096 
L 335.364675 75.170608 
L 336.404641 78.614216 
L 336.751297 81.568898 
L 337.097953 79.029214 
L 337.444608 78.645279 
L 337.791264 76.830597 
L 338.831231 74.873649 
L 339.177886 70.680187 
L 339.524542 68.698388 
L 339.871198 68.197036 
L 340.217853 66.202191 
L 341.25782 61.513591 
L 341.604476 62.436773 
L 341.951131 60.763737 
L 342.297787 63.272981 
L 342.644443 63.39661 
L 343.68441 62.839346 
L 344.031065 62.808283 
L 344.377721 56.980303 
L 344.724376 55.889382 
L 346.110999 54.874254 
L 346.457655 50.439746 
L 346.80431 50.92246 
L 347.150966 53.734253 
L 347.497621 55.208488 
L 348.537588 54.750624 
L 348.884244 60.684217 
L 349.2309 45.837499 
L 349.577555 47.912486 
L 349.924211 44.00418 
L 350.964178 48.940661 
L 351.310833 57.376042 
L 351.657489 57.333175 
L 352.3508 64.790082 
L 353.390767 82.107525 
L 354.084078 74.247425 
L 354.777389 77.153028 
L 355.817356 86.090382 
L 356.164012 80.794816 
L 356.857323 91.267909 
L 357.203979 92.320934 
L 358.590601 93.42925 
L 358.937257 94.71773 
L 359.283913 93.324258 
L 359.630568 98.198614 
L 359.630568 98.198614 
" clip-path="url(#pd8333b39fe)" style="fill: none; stroke: #bc80bd; stroke-opacity: 0.5; stroke-width: 2; stroke-linecap: square"/>
   </g>
   <g id="line2d_19">
    <path d="M 55.266932 193.952427 
L 55.613587 194.045304 
L 55.960243 193.78531 
L 56.306899 193.19077 
L 57.346866 192.520562 
L 58.040177 191.568855 
L 58.733488 191.130279 
L 60.120111 190.853863 
L 61.160077 190.304522 
L 62.5467 190.040269 
L 63.586667 189.294923 
L 64.973289 188.985846 
L 66.013256 187.239674 
L 67.053223 186.661809 
L 68.439845 184.348779 
L 69.479812 183.791268 
L 70.866435 181.528203 
L 72.253057 180.989533 
L 73.293024 179.541846 
L 74.332991 179.103682 
L 75.719614 177.288158 
L 76.75958 176.871681 
L 78.146203 175.415132 
L 79.18617 175.085189 
L 80.572792 173.799164 
L 81.612759 173.468536 
L 82.999382 172.339429 
L 84.039348 172.077328 
L 85.425971 170.830962 
L 86.465938 170.548227 
L 87.85256 169.47996 
L 88.892527 169.249448 
L 89.932494 168.699554 
L 91.319117 168.519531 
L 92.705739 167.86057 
L 93.745706 167.669028 
L 95.132328 166.930029 
L 96.172295 166.708935 
L 97.558918 165.812183 
L 98.598885 165.508861 
L 99.985507 164.257298 
L 101.025474 163.934515 
L 102.065441 163.142945 
L 102.412096 162.885477 
L 103.452063 162.619401 
L 104.838686 161.625682 
L 106.225308 161.389196 
L 107.265275 160.702202 
L 108.305242 160.480011 
L 109.691865 159.657513 
L 111.078487 159.462808 
L 112.118454 159.264053 
L 113.851732 159.006961 
L 114.545043 158.837373 
L 116.624977 158.571209 
L 116.971633 158.515989 
L 120.438189 158.259053 
L 123.904745 157.485162 
L 124.251401 157.377544 
L 125.638023 157.122127 
L 126.67799 156.789923 
L 128.064612 156.612181 
L 129.104579 156.148338 
L 130.144546 155.973829 
L 131.531169 155.299902 
L 132.571136 155.120993 
L 133.957758 154.441216 
L 134.997725 154.297497 
L 136.384347 153.650003 
L 137.424314 153.477557 
L 138.810937 152.733973 
L 140.197559 152.566634 
L 141.237526 152.113527 
L 142.624149 151.810614 
L 143.664116 151.416242 
L 145.050738 151.169579 
L 146.090705 150.928757 
L 147.477327 150.803106 
L 148.517294 150.572428 
L 150.250572 150.34822 
L 150.943884 150.18068 
L 152.330506 150.008384 
L 153.370473 149.742683 
L 154.757095 149.515992 
L 155.797062 149.246325 
L 157.183685 149.080976 
L 159.610274 148.474373 
L 160.650241 147.986736 
L 161.690208 147.792169 
L 163.07683 146.996726 
L 164.463453 146.640268 
L 165.50342 146.168204 
L 166.543387 146.014607 
L 167.236698 145.658165 
L 170.009943 144.837491 
L 170.356598 144.687961 
L 171.743221 144.409541 
L 172.783188 144.009829 
L 174.16981 143.71269 
L 175.209777 143.264353 
L 176.5964 142.939511 
L 177.636366 142.474413 
L 179.369645 142.220495 
L 180.062956 141.975559 
L 181.796234 141.710161 
L 182.489545 141.428376 
L 183.876168 141.147051 
L 184.916135 140.712974 
L 186.302757 140.566815 
L 187.342724 140.088829 
L 188.729346 139.797592 
L 189.769313 139.446851 
L 191.155936 139.269805 
L 192.195903 139.045172 
L 194.275836 138.895465 
L 196.35577 138.648751 
L 197.049081 138.423518 
L 198.782359 138.214534 
L 199.475671 137.982131 
L 200.862293 137.70509 
L 201.90226 137.330541 
L 203.288883 137.082351 
L 204.328849 136.707513 
L 205.715472 136.426922 
L 206.755439 136.049099 
L 208.142061 135.831481 
L 209.182028 135.610318 
L 212.99524 135.179289 
L 214.035207 134.934529 
L 215.421829 134.767155 
L 216.461796 134.490756 
L 217.848419 134.279424 
L 218.888386 134.034152 
L 222.354942 133.775539 
L 223.394909 133.51411 
L 223.741564 133.38548 
L 225.128187 133.115038 
L 226.168154 132.672512 
L 227.554776 132.38946 
L 228.594743 131.972647 
L 229.981365 131.696685 
L 231.021332 131.27641 
L 232.75461 131.005809 
L 233.447922 130.731065 
L 234.834544 130.425983 
L 235.874511 129.968754 
L 237.261134 129.678866 
L 238.3011 129.26973 
L 239.687723 129.024185 
L 240.72769 128.679963 
L 242.114312 128.472172 
L 243.154279 128.145316 
L 245.234213 127.816788 
L 245.580868 127.698799 
L 246.967491 127.445137 
L 248.007458 127.074033 
L 249.39408 126.821291 
L 250.434047 126.446467 
L 251.82067 126.191682 
L 252.860637 125.802659 
L 254.247259 125.57094 
L 255.287226 125.05423 
L 256.327193 124.870923 
L 257.713815 124.164455 
L 258.753782 123.983751 
L 260.140405 123.213345 
L 261.180371 123.013147 
L 262.566994 122.222304 
L 263.606961 122.018006 
L 264.993583 121.126622 
L 266.380206 120.89028 
L 267.420173 120.23679 
L 268.46014 120.040077 
L 269.846762 119.186239 
L 270.886729 118.995856 
L 272.273351 118.233478 
L 273.313318 118.03745 
L 274.699941 117.227768 
L 275.739908 117.01432 
L 277.12653 116.154428 
L 278.166497 115.957442 
L 279.553119 115.229336 
L 280.593086 115.057899 
L 281.979709 114.349299 
L 283.019676 114.1709 
L 284.406298 113.493307 
L 285.792921 113.195854 
L 286.832888 112.721503 
L 288.21951 112.495281 
L 289.259477 112.107631 
L 290.992755 111.880446 
L 291.686066 111.72179 
L 301.045768 111.307665 
L 303.819013 111.436246 
L 310.40547 111.937794 
L 313.52537 112.21301 
L 321.845105 112.350318 
L 332.59143 111.865575 
L 335.364675 111.50153 
L 337.444608 111.273508 
L 337.791264 111.21233 
L 339.524542 111.001403 
L 340.217853 110.847172 
L 341.604476 110.675691 
L 342.644443 110.423346 
L 344.031065 110.257782 
L 344.724376 110.071221 
L 346.457655 109.872899 
L 347.497621 109.581226 
L 348.884244 109.40361 
L 349.924211 109.079153 
L 351.657489 108.801886 
L 352.3508 108.646125 
L 354.084078 108.491612 
L 354.777389 108.383927 
L 359.630568 108.121983 
L 359.630568 108.121983 
" clip-path="url(#pd8333b39fe)" style="fill: none; stroke-dasharray: 2,3.3; stroke-dashoffset: 0; stroke: #fb8072; stroke-width: 2"/>
   </g>
   <g id="line2d_20">
    <path d="M 55.266932 193.952427 
L 55.613587 194.046719 
L 55.960243 193.77828 
L 56.306899 193.158146 
L 57.346866 192.453429 
L 58.040177 191.44669 
L 58.733488 190.990954 
L 60.120111 190.691059 
L 60.813422 190.273754 
L 61.160077 190.098727 
L 62.5467 189.812745 
L 63.586667 188.934288 
L 64.973289 188.580974 
L 66.013256 186.329349 
L 67.053223 185.579704 
L 68.439845 182.554288 
L 69.479812 181.819193 
L 70.866435 178.796106 
L 72.253057 178.07132 
L 73.293024 176.142609 
L 74.332991 175.562877 
L 75.372958 173.712945 
L 75.719614 173.089374 
L 76.75958 172.526047 
L 77.799547 171.05114 
L 78.146203 170.602777 
L 79.18617 170.172249 
L 80.572792 168.465967 
L 81.612759 168.009397 
L 82.999382 166.527756 
L 84.039348 166.18798 
L 85.425971 164.373401 
L 86.465938 163.974165 
L 87.505905 162.804106 
L 87.85256 162.485297 
L 89.239183 161.977484 
L 89.932494 161.600847 
L 91.665772 161.243329 
L 92.359083 160.90563 
L 92.705739 160.711539 
L 93.745706 160.459389 
L 94.785673 159.70591 
L 95.132328 159.489142 
L 96.172295 159.139729 
L 97.558918 157.688207 
L 98.598885 157.098596 
L 99.985507 154.637145 
L 101.025474 153.995964 
L 101.37213 153.386739 
L 102.065441 152.60143 
L 102.412096 152.152029 
L 103.452063 151.674889 
L 104.838686 149.973704 
L 106.225308 149.582094 
L 107.265275 148.464224 
L 108.305242 148.110797 
L 109.345209 146.983319 
L 109.691865 146.903679 
L 111.425143 147.109255 
L 112.118454 147.454507 
L 113.505076 147.564427 
L 116.624977 148.02523 
L 116.971633 148.137015 
L 118.704911 148.370335 
L 119.398222 148.618578 
L 121.478156 148.627145 
L 121.824811 148.495783 
L 122.864778 148.344697 
L 124.251401 147.639315 
L 125.291368 147.401942 
L 126.331334 146.714926 
L 126.67799 146.620994 
L 128.064612 146.45229 
L 129.104579 145.316511 
L 130.144546 144.851352 
L 131.184513 143.5206 
L 131.531169 143.14226 
L 132.571136 142.670864 
L 133.264447 141.645893 
L 133.957758 140.996097 
L 134.997725 140.707394 
L 136.384347 139.211275 
L 137.424314 138.78805 
L 138.810937 136.855619 
L 140.197559 136.476401 
L 140.890871 135.79505 
L 141.237526 135.599466 
L 142.277493 135.284329 
L 142.970804 134.791697 
L 143.664116 134.427704 
L 145.744049 134.177901 
L 146.090705 134.330844 
L 148.517294 134.775306 
L 150.943884 134.866009 
L 152.677162 134.707237 
L 153.370473 134.575589 
L 154.41044 134.363406 
L 155.103751 133.937615 
L 157.876996 133.676912 
L 158.223652 133.349828 
L 159.263619 132.871956 
L 160.650241 130.683737 
L 161.690208 129.95263 
L 163.07683 127.021704 
L 164.116797 126.385298 
L 165.156764 125.037298 
L 165.50342 124.630619 
L 166.543387 124.244153 
L 167.236698 123.148036 
L 167.930009 122.584624 
L 168.969976 122.077193 
L 169.663287 121.354587 
L 170.356598 120.658244 
L 171.396565 120.398237 
L 172.783188 119.512714 
L 173.823155 119.160302 
L 175.209777 117.871164 
L 176.249744 117.401491 
L 177.636366 115.947593 
L 179.369645 115.64684 
L 180.062956 115.401762 
L 181.449578 115.191041 
L 182.14289 114.754881 
L 182.489545 114.442386 
L 183.529512 114.165863 
L 184.916135 112.990744 
L 186.302757 112.677873 
L 187.342724 111.440554 
L 188.382691 111.138701 
L 189.076002 110.683713 
L 189.769313 110.629709 
L 190.80928 110.752551 
L 191.849247 111.172092 
L 192.195903 111.609476 
L 193.582525 112.506063 
L 194.275836 113.568501 
L 194.622492 114.086339 
L 196.35577 114.456435 
L 197.049081 113.9963 
L 198.782359 113.674233 
L 200.515638 112.671838 
L 201.208949 111.830054 
L 201.90226 111.270459 
L 202.942227 110.950539 
L 204.328849 109.697478 
L 205.368816 109.206227 
L 206.408783 108.169245 
L 206.755439 107.887375 
L 208.488717 107.627505 
L 208.835372 107.770166 
L 209.182028 108.082096 
L 210.221995 108.03699 
L 211.261962 108.588608 
L 213.341896 108.909467 
L 213.688551 108.838235 
L 214.035207 108.966301 
L 215.075174 109.016007 
L 217.501763 108.388614 
L 218.195074 107.819396 
L 218.54173 107.780869 
L 218.888386 108.058823 
L 219.928352 108.349071 
L 221.314975 109.762239 
L 222.701597 110.060947 
L 223.394909 109.509704 
L 223.741564 108.929367 
L 224.781531 108.307899 
L 225.821498 106.204093 
L 226.168154 105.479329 
L 227.20812 104.796178 
L 228.594743 102.463353 
L 229.63471 101.893554 
L 231.021332 99.704093 
L 232.407955 99.205726 
L 233.447922 97.753983 
L 234.487889 97.137806 
L 235.874511 94.637624 
L 236.914478 94.14206 
L 237.954445 92.740516 
L 238.3011 92.408345 
L 239.687723 91.918736 
L 240.381034 91.565596 
L 240.72769 91.443701 
L 242.114312 91.352546 
L 245.234213 90.635718 
L 245.580868 90.406074 
L 246.620835 90.06607 
L 248.007458 88.875427 
L 249.047425 88.566116 
L 250.434047 87.354707 
L 251.474014 87.0598 
L 252.860637 85.692387 
L 253.900603 85.524268 
L 254.247259 85.34427 
L 254.94057 83.749818 
L 255.287226 82.832256 
L 256.327193 81.893725 
L 257.713815 78.615186 
L 258.753782 77.780692 
L 259.793749 75.125661 
L 260.140405 74.005096 
L 261.180371 73.012902 
L 262.566994 69.334056 
L 263.606961 68.371063 
L 264.646928 65.040618 
L 264.993583 63.771836 
L 266.380206 62.507476 
L 267.073517 60.393922 
L 267.420173 59.547703 
L 268.46014 58.860279 
L 269.846762 55.370378 
L 270.886729 54.828907 
L 272.273351 52.701088 
L 273.313318 52.108897 
L 274.699941 49.468216 
L 275.739908 48.683493 
L 276.779874 46.138897 
L 277.12653 45.585431 
L 278.166497 45.072742 
L 278.513153 44.436994 
L 279.206464 44.235901 
L 279.553119 43.838938 
L 280.593086 43.66626 
L 281.286398 42.956229 
L 281.633053 42.869877 
L 281.979709 42.638768 
L 283.019676 42.354932 
L 283.366331 41.986703 
L 283.712987 41.971428 
L 284.059643 41.745895 
L 284.406298 41.683217 
L 285.792921 41.874425 
L 286.139576 41.693233 
L 286.486232 41.367332 
L 286.832888 41.711036 
L 287.872854 42.308449 
L 288.21951 42.791155 
L 288.912821 43.200463 
L 289.259477 43.592276 
L 290.299444 44.435759 
L 291.686066 48.106388 
L 292.726033 49.188113 
L 293.419344 52.050728 
L 294.112656 53.625064 
L 295.152622 55.047929 
L 295.845934 57.497327 
L 296.539245 59.67687 
L 297.579212 60.458484 
L 297.925867 61.581388 
L 298.619179 62.760923 
L 298.965834 64.184338 
L 300.005801 65.515251 
L 301.392424 70.638073 
L 302.432391 72.029926 
L 303.125702 74.733787 
L 303.819013 78.138642 
L 305.552291 81.487874 
L 306.245602 84.275613 
L 307.285569 85.536879 
L 307.97888 86.752498 
L 308.672192 90.196184 
L 309.712159 91.72188 
L 310.752125 95.411114 
L 311.098781 96.583399 
L 312.138748 97.823078 
L 313.178715 100.715206 
L 313.52537 101.525274 
L 314.911993 102.46918 
L 315.95196 104.933541 
L 316.991927 105.6403 
L 317.338582 106.398115 
L 318.378549 107.046459 
L 319.418516 107.016826 
L 320.111827 106.698962 
L 324.61835 106.593822 
L 327.04494 105.999083 
L 328.084907 105.504164 
L 329.124873 105.279984 
L 329.818185 104.926608 
L 330.511496 104.799216 
L 331.551463 104.458863 
L 332.59143 103.07078 
L 332.938085 102.456196 
L 333.978052 101.774204 
L 334.671363 100.52989 
L 335.364675 98.85453 
L 336.404641 98.24732 
L 337.444608 96.62923 
L 337.791264 96.035271 
L 338.831231 95.400423 
L 340.217853 92.302294 
L 341.25782 91.378633 
L 342.644443 88.064697 
L 343.68441 87.307937 
L 344.377721 85.685168 
L 344.724376 84.791294 
L 346.110999 83.893783 
L 347.150966 81.085224 
L 347.497621 80.308922 
L 348.537588 79.542173 
L 348.884244 78.976435 
L 349.924211 76.087893 
L 350.964178 75.273476 
L 352.004144 73.806122 
L 352.3508 73.535641 
L 355.817356 74.423727 
L 356.164012 74.61486 
L 356.857323 75.462454 
L 357.203979 75.968209 
L 358.590601 76.49204 
L 359.630568 78.147511 
L 359.630568 78.147511 
" clip-path="url(#pd8333b39fe)" style="fill: none; stroke-dasharray: 7.4,3.2; stroke-dashoffset: 0; stroke: #b3de69; stroke-width: 2"/>
   </g>
   <g id="line2d_21">
    <path d="M 68.439845 184.348779 
L 69.479812 183.428369 
L 70.866435 179.565281 
L 72.253057 178.620976 
L 73.293024 175.816992 
L 74.332991 174.907189 
L 75.372958 171.908331 
L 75.719614 170.854086 
L 76.75958 169.817081 
L 78.146203 166.113722 
L 79.18617 165.156148 
L 80.572792 162.77404 
L 81.612759 162.225895 
L 82.999382 160.478597 
L 84.039348 160.17314 
L 85.425971 158.495555 
L 86.465938 158.152712 
L 87.505905 156.987839 
L 87.85256 156.657599 
L 89.239183 156.343489 
L 89.932494 156.149502 
L 91.665772 155.913936 
L 92.359083 155.636325 
L 92.705739 155.475509 
L 93.745706 155.232865 
L 94.785673 154.667236 
L 96.172295 154.202294 
L 97.558918 152.834382 
L 98.598885 152.354353 
L 99.985507 150.102708 
L 101.025474 149.499715 
L 101.37213 148.869298 
L 102.065441 147.979374 
L 102.412096 147.43012 
L 103.452063 146.752576 
L 104.838686 144.075971 
L 106.225308 143.364614 
L 107.265275 141.543431 
L 108.305242 141.020491 
L 109.345209 139.163298 
L 109.691865 139.00692 
L 111.425143 139.119278 
L 111.771798 139.331192 
L 112.118454 139.860544 
L 113.158421 140.228171 
L 113.851732 141.049069 
L 114.545043 142.089624 
L 115.58501 142.59508 
L 116.278321 143.288133 
L 116.971633 144.300599 
L 118.704911 145.326111 
L 119.398222 146.404718 
L 120.438189 146.856392 
L 121.824811 148.282923 
L 122.864778 148.53817 
L 123.558089 149.022592 
L 123.904745 148.950926 
L 124.251401 148.696989 
L 125.291368 148.41008 
L 126.67799 146.932895 
L 127.717957 146.738664 
L 128.064612 146.519894 
L 129.104579 144.877899 
L 130.144546 144.087531 
L 131.531169 141.044187 
L 132.571136 140.187035 
L 133.264447 138.255713 
L 133.957758 136.893304 
L 134.997725 136.260912 
L 136.037692 134.453752 
L 136.384347 133.909601 
L 137.424314 133.330703 
L 138.810937 130.636482 
L 140.197559 130.153368 
L 141.237526 128.32493 
L 143.31746 127.088192 
L 143.664116 127.000595 
L 145.397394 127.088214 
L 145.744049 127.304322 
L 146.090705 127.721737 
L 147.130672 128.301056 
L 147.477327 128.710307 
L 148.517294 129.28632 
L 149.557261 129.599964 
L 150.943884 130.752656 
L 151.98385 131.12472 
L 153.370473 132.597269 
L 155.103751 132.687972 
L 155.797062 133.219521 
L 157.183685 133.465293 
L 157.876996 133.715481 
L 159.263619 132.927998 
L 160.650241 129.378576 
L 161.690208 128.325662 
L 163.07683 123.776245 
L 164.116797 122.664689 
L 165.50342 119.424097 
L 166.543387 118.686159 
L 167.236698 116.774784 
L 167.930009 115.948605 
L 168.969976 115.200705 
L 170.356598 112.058093 
L 171.396565 111.357341 
L 172.089877 109.985436 
L 172.436532 109.625775 
L 172.783188 109.454131 
L 173.823155 109.231611 
L 174.516466 108.695403 
L 177.636366 108.573526 
L 180.062956 108.584132 
L 181.796234 108.5118 
L 182.489545 108.610868 
L 183.876168 108.528818 
L 184.916135 107.777368 
L 186.302757 107.440471 
L 187.342724 105.92013 
L 189.422658 105.214719 
L 189.769313 105.252305 
L 190.80928 105.569743 
L 191.502591 106.442139 
L 191.849247 106.789197 
L 192.195903 107.554338 
L 193.582525 108.929105 
L 193.929181 109.514415 
L 194.622492 110.996438 
L 195.662459 111.465817 
L 196.35577 112.109103 
L 197.049081 112.243382 
L 198.782359 112.470561 
L 199.475671 112.624299 
L 200.862293 112.438034 
L 201.208949 112.459046 
L 201.555604 112.603931 
L 202.942227 112.582032 
L 203.635538 112.171694 
L 203.982194 111.847666 
L 204.328849 111.175447 
L 205.368816 110.358787 
L 206.408783 108.061613 
L 206.755439 106.885913 
L 207.795406 106.200848 
L 208.835372 103.787345 
L 210.568651 103.170639 
L 211.261962 103.761207 
L 213.341896 104.223775 
L 213.688551 104.367329 
L 214.035207 104.928743 
L 216.461796 105.984541 
L 217.501763 106.028117 
L 218.195074 105.808904 
L 218.54173 106.188689 
L 218.888386 107.035879 
L 219.928352 107.815153 
L 221.314975 110.851575 
L 222.701597 111.494173 
L 223.048253 111.086919 
L 223.741564 109.869639 
L 224.781531 108.978406 
L 226.168154 104.560805 
L 227.20812 103.646564 
L 227.554776 102.886971 
L 228.248087 100.864058 
L 228.594743 100.135217 
L 229.63471 99.292442 
L 231.021332 96.527242 
L 232.407955 95.957198 
L 232.75461 95.140515 
L 233.447922 92.619934 
L 234.487889 91.048984 
L 235.874511 84.695202 
L 236.914478 83.484778 
L 237.607789 81.841939 
L 237.954445 81.433798 
L 238.3011 81.200007 
L 239.687723 81.069255 
L 240.72769 81.555675 
L 241.767657 81.782166 
L 242.460968 82.132797 
L 244.194246 82.308168 
L 244.540902 82.544843 
L 245.580868 82.723121 
L 248.007458 82.358157 
L 249.39408 82.618528 
L 249.740736 82.781119 
L 251.82067 82.672289 
L 252.860637 82.054253 
L 253.900603 81.829958 
L 254.247259 81.628206 
L 254.593915 80.775269 
L 255.287226 78.207761 
L 256.327193 76.897138 
L 257.713815 72.136871 
L 258.753782 70.772066 
L 260.140405 65.479607 
L 261.180371 63.972778 
L 262.566994 58.657732 
L 263.606961 57.153544 
L 264.646928 52.099513 
L 264.993583 50.215784 
L 266.380206 48.388677 
L 267.420173 43.152153 
L 268.46014 41.620341 
L 268.806795 40.390459 
L 269.500106 38.600516 
L 269.846762 37.77345 
L 270.886729 37.160295 
L 272.273351 34.854513 
L 273.313318 34.265897 
L 273.659974 33.628602 
L 274.353285 32.855696 
L 274.699941 32.306663 
L 275.739908 31.655212 
L 276.779874 29.379272 
L 277.12653 29.038403 
L 278.166497 28.820543 
L 278.513153 28.612401 
L 278.859808 29.07448 
L 279.206464 29.778094 
L 279.553119 30.112994 
L 280.939742 30.670858 
L 281.286398 30.676383 
L 281.633053 30.799391 
L 281.979709 31.042057 
L 283.019676 31.065265 
L 283.366331 31.261914 
L 283.712987 31.729319 
L 284.059643 31.626901 
L 285.446265 32.056475 
L 285.792921 32.414606 
L 286.486232 32.27367 
L 286.832888 33.057403 
L 287.872854 34.061216 
L 288.566166 36.034783 
L 289.259477 38.281969 
L 290.299444 40.267917 
L 291.686066 47.542352 
L 292.726033 49.13478 
L 293.419344 53.484509 
L 294.112656 55.857565 
L 295.152622 58.361572 
L 295.845934 62.672983 
L 296.539245 66.972501 
L 297.579212 68.960002 
L 297.925867 70.974683 
L 298.619179 73.347739 
L 298.965834 75.867432 
L 300.005801 78.111511 
L 301.392424 88.000337 
L 302.432391 89.979207 
L 303.125702 94.546375 
L 303.819013 100.190553 
L 305.552291 104.602451 
L 306.245602 108.126379 
L 307.97888 111.538171 
L 308.672192 114.928729 
L 309.712159 116.233161 
L 311.098781 121.543792 
L 312.138748 123.072941 
L 312.832059 125.936854 
L 313.178715 126.945525 
L 313.52537 127.570862 
L 314.911993 128.443745 
L 315.95196 130.816801 
L 316.991927 131.308545 
L 317.338582 131.803817 
L 317.685238 131.848703 
L 318.031894 131.550745 
L 318.378549 131.031599 
L 319.418516 129.932025 
L 319.765172 128.468329 
L 320.805138 125.963013 
L 321.845105 125.298738 
L 322.191761 124.565237 
L 322.885072 121.781222 
L 323.231728 120.53674 
L 324.61835 119.416576 
L 325.658317 116.264224 
L 326.698284 114.928152 
L 327.738251 111.678729 
L 328.084907 110.666508 
L 329.124873 109.418032 
L 330.16484 106.182743 
L 330.511496 105.253459 
L 331.551463 103.916077 
L 332.938085 100.373956 
L 333.978052 99.589579 
L 334.324708 98.888827 
L 334.671363 97.923487 
L 335.364675 95.435189 
L 336.404641 94.474288 
L 337.791264 90.623381 
L 338.831231 89.590813 
L 340.217853 84.779692 
L 341.25782 83.422164 
L 342.644443 78.131014 
L 343.68441 76.801598 
L 344.724376 72.397043 
L 346.110999 71.1278 
L 346.80431 68.483346 
L 347.497621 66.577451 
L 348.537588 65.605277 
L 349.2309 64.102243 
L 349.924211 61.892666 
L 350.964178 60.727372 
L 352.004144 58.613357 
L 352.3508 58.25323 
L 353.390767 58.661349 
L 355.817356 60.933961 
L 356.510668 62.481526 
L 357.203979 64.529843 
L 358.590601 65.623449 
L 359.630568 69.855473 
L 359.630568 69.855473 
" clip-path="url(#pd8333b39fe)" style="fill: none; stroke-dasharray: 12.8,3.2,2,3.2; stroke-dashoffset: 0; stroke: #fdb462; stroke-width: 2"/>
   </g>
   <g id="patch_3">
    <path d="M 40.04875 203.04 
L 40.04875 7.2 
" style="fill: none; stroke: #000000; stroke-width: 0.6; stroke-linejoin: miter; stroke-linecap: square"/>
   </g>
   <g id="patch_4">
    <path d="M 40.04875 203.04 
L 374.84875 203.04 
" style="fill: none; stroke: #000000; stroke-width: 0.6; stroke-linejoin: miter; stroke-linecap: square"/>
   </g>
   <g id="legend_1">
    <g id="patch_5">
     <path d="M 47.04875 64.890625 
L 154.750313 64.890625 
Q 156.750313 64.890625 156.750313 62.890625 
L 156.750313 14.2 
Q 156.750313 12.2 154.750313 12.2 
L 47.04875 12.2 
Q 45.04875 12.2 45.04875 14.2 
L 45.04875 62.890625 
Q 45.04875 64.890625 47.04875 64.890625 
z
" style="fill: #ffffff; opacity: 0.8; stroke: #e6e6e6; stroke-width: 0.8; stroke-linejoin: miter"/>
    </g>
    <g id="line2d_22">
     <path d="M 47.04875 17.7 
L 57.04875 17.7 
L 67.04875 17.7 
" style="fill: none; stroke: #bc80bd; stroke-opacity: 0.5; stroke-width: 2; stroke-linecap: square"/>
    </g>
    <g id="text_20">
     <!-- Raw -->
     <g style="fill: #323034" transform="translate(75.04875 21.2)scale(0.1 -0.1)">
      <defs>
       <path id="STIXGeneral-Regular-52" d="M 4224 0 
L 3187 0 
L 1664 1971 
L 1306 1958 
L 1306 717 
Q 1306 352 1405 249 
Q 1504 147 1875 122 
L 1875 0 
L 109 0 
L 109 122 
Q 474 154 563 262 
Q 653 371 653 794 
L 653 3526 
Q 653 3885 563 3987 
Q 474 4090 109 4115 
L 109 4237 
L 1850 4237 
Q 2726 4237 3187 3859 
Q 3501 3603 3501 3091 
Q 3501 2221 2342 2042 
L 3622 422 
Q 3757 256 3878 198 
Q 4000 141 4224 122 
L 4224 0 
z
M 1306 3731 
L 1306 2195 
Q 1766 2202 1990 2246 
Q 2214 2291 2438 2413 
Q 2803 2618 2803 3142 
Q 2803 4000 1632 4000 
Q 1459 4000 1382 3945 
Q 1306 3891 1306 3731 
z
" transform="scale(0.015625)"/>
       <path id="STIXGeneral-Regular-77" d="M 4442 2880 
L 4442 2784 
Q 4346 2752 4301 2691 
Q 4256 2630 4179 2438 
L 3296 224 
Q 3168 -90 3117 -90 
Q 3085 -90 3062 -48 
Q 3040 -6 2963 186 
L 2381 1696 
L 1664 160 
Q 1549 -90 1504 -90 
Q 1446 -90 1338 192 
L 474 2381 
Q 378 2630 314 2700 
Q 250 2771 134 2784 
L 134 2880 
L 1286 2880 
L 1286 2784 
Q 1120 2765 1056 2720 
Q 992 2675 992 2573 
Q 992 2477 1030 2381 
L 1664 710 
L 2246 1984 
L 2118 2342 
Q 2029 2598 1942 2681 
Q 1856 2765 1677 2784 
L 1677 2880 
L 2976 2880 
L 2976 2784 
Q 2752 2752 2678 2707 
Q 2605 2662 2605 2560 
Q 2605 2458 2714 2176 
L 3251 742 
L 3827 2163 
Q 3936 2432 3936 2592 
Q 3936 2669 3875 2710 
Q 3814 2752 3654 2784 
L 3654 2880 
L 4442 2880 
z
" transform="scale(0.015625)"/>
      </defs>
      <use xlink:href="#STIXGeneral-Regular-52"/>
      <use xlink:href="#STIXGeneral-Regular-61" x="66.699997"/>
      <use xlink:href="#STIXGeneral-Regular-77" x="111.099991"/>
     </g>
    </g>
    <g id="line2d_23">
     <path d="M 47.04875 30.870312 
L 57.04875 30.870312 
L 67.04875 30.870312 
" style="fill: none; stroke-dasharray: 2,3.3; stroke-dashoffset: 0; stroke: #fb8072; stroke-width: 2"/>
    </g>
    <g id="text_21">
     <!-- Expanding Average -->
     <g style="fill: #323034" transform="translate(75.04875 34.370312)scale(0.1 -0.1)">
      <defs>
       <path id="STIXGeneral-Regular-45" d="M 3821 1082 
L 3526 0 
L 77 0 
L 77 122 
Q 442 147 538 252 
Q 634 358 634 730 
L 634 3520 
Q 634 3878 534 3987 
Q 435 4096 77 4115 
L 77 4237 
L 3469 4237 
L 3494 3322 
L 3334 3322 
Q 3264 3750 3085 3872 
Q 2906 3994 2349 3994 
L 1510 3994 
Q 1370 3994 1328 3952 
Q 1286 3910 1286 3763 
L 1286 2355 
L 2253 2355 
Q 2656 2355 2787 2470 
Q 2918 2586 2976 2970 
L 3123 2970 
L 3123 1472 
L 2976 1472 
Q 2918 1875 2790 1984 
Q 2662 2093 2253 2093 
L 1286 2093 
L 1286 538 
Q 1286 346 1420 291 
Q 1555 237 1933 237 
L 2163 237 
Q 2848 237 3136 403 
Q 3424 570 3642 1082 
L 3821 1082 
z
" transform="scale(0.015625)"/>
       <path id="STIXGeneral-Regular-78" d="M 3066 0 
L 1779 0 
L 1779 96 
Q 1939 109 1987 137 
Q 2035 166 2035 250 
Q 2035 307 1997 365 
L 1414 1261 
L 909 474 
Q 781 275 781 211 
Q 781 96 1037 96 
L 1037 0 
L 109 0 
L 109 96 
Q 269 109 355 169 
Q 442 230 576 422 
L 1306 1478 
L 704 2400 
Q 557 2624 454 2704 
Q 352 2784 211 2784 
L 154 2784 
L 154 2880 
L 1478 2880 
L 1478 2784 
Q 1203 2778 1203 2643 
Q 1203 2509 1498 2074 
Q 1581 1958 1587 1946 
Q 1619 1990 1779 2227 
Q 1811 2285 1856 2349 
Q 1901 2413 1923 2451 
Q 1946 2490 1971 2528 
Q 1997 2566 2006 2595 
Q 2016 2624 2016 2643 
Q 2016 2765 1760 2784 
L 1760 2880 
L 2771 2880 
L 2771 2784 
Q 2445 2771 2253 2502 
L 1722 1734 
L 2541 480 
Q 2790 96 3066 96 
L 3066 0 
z
" transform="scale(0.015625)"/>
       <path id="STIXGeneral-Regular-70" d="M 1018 2931 
L 1018 2438 
Q 1421 2944 1939 2944 
Q 2406 2944 2707 2560 
Q 3008 2176 3008 1581 
Q 3008 883 2621 409 
Q 2234 -64 1664 -64 
Q 1466 -64 1328 -6 
Q 1190 51 1018 211 
L 1018 -794 
Q 1018 -1094 1120 -1180 
Q 1222 -1267 1581 -1274 
L 1581 -1389 
L 32 -1389 
L 32 -1280 
Q 314 -1254 397 -1171 
Q 480 -1088 480 -838 
L 480 2157 
Q 480 2381 429 2451 
Q 378 2522 218 2522 
Q 115 2522 58 2515 
L 58 2618 
Q 506 2752 979 2944 
L 1018 2931 
z
M 1018 2138 
L 1018 563 
Q 1018 422 1238 281 
Q 1459 141 1683 141 
Q 2029 141 2243 467 
Q 2458 794 2458 1325 
Q 2458 1888 2243 2224 
Q 2029 2560 1670 2560 
Q 1446 2560 1232 2419 
Q 1018 2278 1018 2138 
z
" transform="scale(0.015625)"/>
       <path id="STIXGeneral-Regular-6e" d="M 3104 0 
L 1773 0 
L 1779 96 
Q 2016 115 2096 233 
Q 2176 352 2176 672 
L 2176 1946 
Q 2176 2592 1709 2592 
Q 1549 2592 1408 2515 
Q 1267 2438 1050 2227 
L 1050 461 
Q 1050 269 1136 192 
Q 1222 115 1466 96 
L 1466 0 
L 115 0 
L 115 96 
Q 358 115 435 214 
Q 512 314 512 602 
L 512 2157 
Q 512 2394 467 2483 
Q 422 2573 288 2573 
Q 160 2573 102 2547 
L 102 2656 
Q 550 2784 979 2944 
L 1030 2925 
L 1030 2426 
L 1037 2426 
Q 1491 2944 1958 2944 
Q 2323 2944 2518 2688 
Q 2714 2432 2714 1958 
L 2714 544 
Q 2714 288 2790 205 
Q 2867 122 3104 96 
L 3104 0 
z
" transform="scale(0.015625)"/>
       <path id="STIXGeneral-Regular-64" d="M 3142 269 
L 2202 -64 
L 2176 -45 
L 2176 365 
Q 1869 -64 1357 -64 
Q 826 -64 499 317 
Q 173 698 173 1312 
Q 173 1990 563 2467 
Q 954 2944 1504 2944 
Q 1850 2944 2176 2669 
L 2176 3667 
Q 2176 3866 2118 3930 
Q 2061 3994 1882 3994 
Q 1792 3994 1741 3987 
L 1741 4090 
Q 2323 4243 2682 4371 
L 2714 4358 
L 2714 730 
Q 2714 506 2768 435 
Q 2822 365 2995 365 
Q 3034 365 3142 371 
L 3142 269 
z
M 2176 653 
L 2176 2125 
Q 2176 2381 1981 2573 
Q 1786 2765 1523 2765 
Q 1158 2765 940 2438 
Q 723 2112 723 1568 
Q 723 979 963 624 
Q 1203 269 1606 269 
Q 1907 269 2080 474 
Q 2176 582 2176 653 
z
" transform="scale(0.015625)"/>
       <path id="STIXGeneral-Regular-69" d="M 1152 4045 
Q 1152 3904 1056 3811 
Q 960 3718 819 3718 
Q 685 3718 592 3811 
Q 499 3904 499 4045 
Q 499 4179 595 4275 
Q 691 4371 826 4371 
Q 966 4371 1059 4275 
Q 1152 4179 1152 4045 
z
M 1619 0 
L 102 0 
L 102 96 
Q 435 115 521 211 
Q 608 307 608 666 
L 608 2118 
Q 608 2342 563 2432 
Q 518 2522 397 2522 
Q 243 2522 128 2490 
L 128 2592 
L 1120 2944 
L 1146 2918 
L 1146 672 
Q 1146 314 1226 218 
Q 1306 122 1619 96 
L 1619 0 
z
" transform="scale(0.015625)"/>
       <path id="STIXGeneral-Regular-67" d="M 3008 2483 
L 2477 2483 
Q 2598 2208 2598 1946 
Q 2598 1453 2265 1203 
Q 1933 954 1600 954 
Q 1530 954 1357 973 
L 1235 986 
Q 1107 947 979 812 
Q 851 678 851 582 
Q 851 435 1350 410 
L 2176 371 
Q 2528 358 2739 172 
Q 2950 -13 2950 -314 
Q 2950 -685 2566 -986 
Q 2035 -1395 1286 -1395 
Q 826 -1395 502 -1212 
Q 179 -1030 179 -774 
Q 179 -595 320 -419 
Q 461 -243 806 6 
Q 602 102 534 172 
Q 467 243 467 346 
Q 467 531 762 787 
Q 909 915 1037 1043 
Q 717 1203 579 1401 
Q 442 1600 442 1901 
Q 442 2336 752 2640 
Q 1062 2944 1510 2944 
Q 1766 2944 2022 2848 
L 2163 2797 
Q 2349 2733 2515 2733 
L 3008 2733 
L 3008 2483 
z
M 973 2163 
L 973 2144 
Q 973 1683 1155 1398 
Q 1338 1114 1632 1114 
Q 1850 1114 1978 1270 
Q 2106 1427 2106 1690 
Q 2106 2112 1914 2464 
Q 1754 2765 1446 2765 
Q 1222 2765 1097 2605 
Q 973 2445 973 2163 
z
M 2771 -410 
Q 2771 -230 2595 -163 
Q 2419 -96 1978 -96 
Q 1344 -96 941 -13 
Q 749 -243 688 -348 
Q 627 -454 627 -563 
Q 627 -774 880 -902 
Q 1133 -1030 1555 -1030 
Q 2099 -1030 2435 -860 
Q 2771 -691 2771 -410 
z
" transform="scale(0.015625)"/>
       <path id="STIXGeneral-Regular-41" d="M 4525 0 
L 2893 0 
L 2893 122 
Q 3149 122 3245 179 
Q 3334 224 3334 333 
Q 3334 499 3213 781 
L 2950 1382 
L 1274 1382 
L 979 653 
Q 922 506 922 384 
Q 922 237 1027 179 
Q 1133 122 1370 122 
L 1370 0 
L 96 0 
L 96 122 
Q 365 147 486 316 
Q 608 486 902 1190 
L 2221 4314 
L 2349 4314 
L 3923 710 
Q 4064 378 4176 262 
Q 4288 147 4525 122 
L 4525 0 
z
M 2861 1645 
L 2118 3405 
L 1382 1645 
L 2861 1645 
z
" transform="scale(0.015625)"/>
       <path id="STIXGeneral-Regular-76" d="M 3053 2880 
L 3053 2784 
Q 2906 2771 2835 2688 
Q 2765 2605 2637 2285 
L 1818 230 
Q 1690 -90 1638 -90 
Q 1587 -90 1523 77 
Q 1510 96 1497 141 
Q 1485 186 1472 211 
L 704 2048 
Q 499 2534 403 2652 
Q 307 2771 122 2784 
L 122 2880 
L 1376 2880 
L 1376 2784 
Q 1210 2771 1146 2732 
Q 1082 2694 1082 2611 
Q 1082 2509 1139 2368 
L 1792 730 
L 2426 2387 
Q 2464 2483 2464 2579 
Q 2464 2758 2163 2784 
L 2163 2880 
L 3053 2880 
z
" transform="scale(0.015625)"/>
       <path id="STIXGeneral-Regular-72" d="M 1024 2931 
L 1024 2342 
Q 1267 2688 1430 2816 
Q 1594 2944 1792 2944 
Q 1958 2944 2051 2854 
Q 2144 2765 2144 2605 
Q 2144 2470 2077 2393 
Q 2010 2317 1894 2317 
Q 1773 2317 1638 2445 
Q 1536 2541 1472 2541 
Q 1338 2541 1181 2355 
Q 1024 2170 1024 2016 
L 1024 576 
Q 1024 301 1133 205 
Q 1242 109 1568 96 
L 1568 0 
L 32 0 
L 32 96 
Q 339 154 412 224 
Q 486 294 486 538 
L 486 2138 
Q 486 2349 438 2435 
Q 390 2522 269 2522 
Q 166 2522 45 2496 
L 45 2598 
Q 448 2726 992 2944 
L 1024 2931 
z
" transform="scale(0.015625)"/>
      </defs>
      <use xlink:href="#STIXGeneral-Regular-45"/>
      <use xlink:href="#STIXGeneral-Regular-78" x="61.099991"/>
      <use xlink:href="#STIXGeneral-Regular-70" x="111.099976"/>
      <use xlink:href="#STIXGeneral-Regular-61" x="161.09996"/>
      <use xlink:href="#STIXGeneral-Regular-6e" x="205.499954"/>
      <use xlink:href="#STIXGeneral-Regular-64" x="255.499939"/>
      <use xlink:href="#STIXGeneral-Regular-69" x="305.499924"/>
      <use xlink:href="#STIXGeneral-Regular-6e" x="333.299911"/>
      <use xlink:href="#STIXGeneral-Regular-67" x="383.299896"/>
      <use xlink:href="#STIXGeneral-Regular-20" x="433.299881"/>
      <use xlink:href="#STIXGeneral-Regular-41" x="458.299866"/>
      <use xlink:href="#STIXGeneral-Regular-76" x="530.499847"/>
      <use xlink:href="#STIXGeneral-Regular-65" x="580.499832"/>
      <use xlink:href="#STIXGeneral-Regular-72" x="624.899826"/>
      <use xlink:href="#STIXGeneral-Regular-61" x="658.199814"/>
      <use xlink:href="#STIXGeneral-Regular-67" x="702.599808"/>
      <use xlink:href="#STIXGeneral-Regular-65" x="752.599792"/>
     </g>
    </g>
    <g id="line2d_24">
     <path d="M 47.04875 44.05 
L 57.04875 44.05 
L 67.04875 44.05 
" style="fill: none; stroke-dasharray: 7.4,3.2; stroke-dashoffset: 0; stroke: #b3de69; stroke-width: 2"/>
    </g>
    <g id="text_22">
     <!-- EWMA ($\alpha=$0.03) -->
     <g style="fill: #323034" transform="translate(75.04875 47.55)scale(0.1 -0.1)">
      <defs>
       <path id="STIXGeneral-Regular-57" d="M 5965 4237 
L 5965 4115 
Q 5709 4064 5616 3990 
Q 5523 3917 5434 3667 
Q 4704 1709 4128 -70 
L 4032 -70 
Q 3642 1011 3008 2637 
L 2022 -70 
L 1926 -70 
Q 1709 576 1277 1753 
Q 845 2931 698 3347 
Q 538 3808 406 3958 
Q 275 4109 32 4115 
L 32 4237 
L 1594 4237 
L 1594 4115 
Q 1357 4109 1270 4064 
Q 1184 4019 1184 3917 
Q 1184 3808 1254 3616 
L 2176 1210 
L 2842 3021 
L 2662 3501 
Q 2509 3917 2400 4013 
Q 2291 4109 2010 4115 
L 2010 4237 
L 3706 4237 
L 3706 4115 
Q 3213 4102 3213 3891 
Q 3213 3808 3322 3520 
L 4237 1190 
L 5043 3360 
Q 5152 3667 5152 3853 
Q 5152 4109 4704 4115 
L 4704 4237 
L 5965 4237 
z
" transform="scale(0.015625)"/>
       <path id="STIXGeneral-Regular-4d" d="M 5530 0 
L 3738 0 
L 3738 122 
Q 4115 147 4214 265 
Q 4314 384 4314 787 
L 4314 3661 
L 2682 0 
L 2592 0 
L 979 3514 
L 979 966 
Q 979 448 1088 294 
Q 1197 141 1574 122 
L 1574 0 
L 77 0 
L 77 122 
Q 358 141 480 205 
Q 602 269 650 432 
Q 698 595 698 966 
L 698 3514 
Q 698 3878 589 3984 
Q 480 4090 90 4115 
L 90 4237 
L 1357 4237 
L 2835 1024 
L 4250 4237 
L 5523 4237 
L 5523 4115 
Q 5178 4109 5072 3993 
Q 4966 3878 4966 3520 
L 4966 717 
Q 4966 378 5072 262 
Q 5178 147 5530 122 
L 5530 0 
z
" transform="scale(0.015625)"/>
       <path id="STIXGeneral-Italic-3b1" d="M 3514 2739 
L 2605 1069 
L 2605 954 
Q 2605 704 2662 512 
Q 2720 320 2822 320 
Q 2970 320 3149 794 
L 3251 749 
Q 3014 -58 2605 -58 
Q 2291 -58 2272 614 
Q 1709 -70 1030 -70 
Q 589 -70 381 198 
Q 173 467 173 902 
Q 173 1293 329 1673 
Q 486 2054 755 2330 
Q 973 2547 1270 2684 
Q 1568 2822 1862 2822 
Q 2246 2822 2457 2595 
Q 2669 2368 2669 2061 
L 2963 2739 
L 3514 2739 
z
M 2298 1741 
Q 2298 2688 1805 2688 
Q 1472 2688 1085 2099 
Q 698 1510 698 800 
Q 698 493 806 278 
Q 915 64 1139 64 
Q 1606 64 2195 1286 
Q 2202 1325 2230 1411 
Q 2259 1498 2278 1581 
Q 2298 1664 2298 1741 
z
" transform="scale(0.015625)"/>
       <path id="STIXGeneral-Regular-3d" d="M 4077 2048 
L 307 2048 
L 307 2470 
L 4077 2470 
L 4077 2048 
z
M 4077 768 
L 307 768 
L 307 1190 
L 4077 1190 
L 4077 768 
z
" transform="scale(0.015625)"/>
       <path id="STIXGeneral-Regular-2e" d="M 1158 275 
Q 1158 134 1052 32 
Q 947 -70 800 -70 
Q 653 -70 550 32 
Q 448 134 448 281 
Q 448 429 553 534 
Q 659 640 806 640 
Q 947 640 1052 531 
Q 1158 422 1158 275 
z
" transform="scale(0.015625)"/>
      </defs>
      <use xlink:href="#STIXGeneral-Regular-45" transform="translate(0 0.40625)"/>
      <use xlink:href="#STIXGeneral-Regular-57" transform="translate(61.099991 0.40625)"/>
      <use xlink:href="#STIXGeneral-Regular-4d" transform="translate(155.499985 0.40625)"/>
      <use xlink:href="#STIXGeneral-Regular-41" transform="translate(244.399979 0.40625)"/>
      <use xlink:href="#STIXGeneral-Regular-20" transform="translate(316.59996 0.40625)"/>
      <use xlink:href="#STIXGeneral-Regular-28" transform="translate(341.599945 0.40625)"/>
      <use xlink:href="#STIXGeneral-Italic-3b1" transform="translate(374.899933 0.40625)"/>
      <use xlink:href="#STIXGeneral-Regular-3d" transform="translate(444.539926 0.40625)"/>
      <use xlink:href="#STIXGeneral-Regular-30" transform="translate(527.479907 0.40625)"/>
      <use xlink:href="#STIXGeneral-Regular-2e" transform="translate(577.479892 0.40625)"/>
      <use xlink:href="#STIXGeneral-Regular-30" transform="translate(602.479877 0.40625)"/>
      <use xlink:href="#STIXGeneral-Regular-33" transform="translate(652.479861 0.40625)"/>
      <use xlink:href="#STIXGeneral-Regular-29" transform="translate(702.479846 0.40625)"/>
     </g>
    </g>
    <g id="line2d_25">
     <path d="M 47.04875 57.220312 
L 57.04875 57.220312 
L 67.04875 57.220312 
" style="fill: none; stroke-dasharray: 12.8,3.2,2,3.2; stroke-dashoffset: 0; stroke: #fdb462; stroke-width: 2"/>
    </g>
    <g id="text_23">
     <!-- 28D MA -->
     <g style="fill: #323034" transform="translate(75.04875 60.720312)scale(0.1 -0.1)">
      <use xlink:href="#STIXGeneral-Regular-32"/>
      <use xlink:href="#STIXGeneral-Regular-38" x="49.999985"/>
      <use xlink:href="#STIXGeneral-Regular-44" x="99.999969"/>
      <use xlink:href="#STIXGeneral-Regular-20" x="172.199951"/>
      <use xlink:href="#STIXGeneral-Regular-4d" x="197.199936"/>
      <use xlink:href="#STIXGeneral-Regular-41" x="286.09993"/>
     </g>
    </g>
   </g>
  </g>
 </g>
 <defs>
  <clipPath id="pd8333b39fe">
   <rect x="40.04875" y="7.2" width="334.8" height="195.84"/>
  </clipPath>
 </defs>
</svg>
