<?xml version="1.0" encoding="utf-8" standalone="no"?>
<!DOCTYPE svg PUBLIC "-//W3C//DTD SVG 1.1//EN"
  "http://www.w3.org/Graphics/SVG/1.1/DTD/svg11.dtd">
<svg xmlns:xlink="http://www.w3.org/1999/xlink" width="388.350914pt" height="260.390887pt" viewBox="0 0 388.350914 260.390887" xmlns="http://www.w3.org/2000/svg" version="1.1">
 <metadata>
  <rdf:RDF xmlns:dc="http://purl.org/dc/elements/1.1/" xmlns:cc="http://creativecommons.org/ns#" xmlns:rdf="http://www.w3.org/1999/02/22-rdf-syntax-ns#">
   <cc:Work>
    <dc:type rdf:resource="http://purl.org/dc/dcmitype/StillImage"/>
    <dc:date>2022-09-06T12:55:30.773265</dc:date>
    <dc:format>image/svg+xml</dc:format>
    <dc:creator>
     <cc:Agent>
      <dc:title>Matplotlib v3.5.2, https://matplotlib.org/</dc:title>
     </cc:Agent>
    </dc:creator>
   </cc:Work>
  </rdf:RDF>
 </metadata>
 <defs>
  <style type="text/css">*{stroke-linejoin: round; stroke-linecap: butt}</style>
 </defs>
 <g id="figure_1">
  <g id="patch_1">
   <path d="M -0 260.390887 
L 388.350914 260.390887 
L 388.350914 0 
L -0 0 
L -0 260.390887 
z
" style="fill: none"/>
  </g>
  <g id="axes_1">
   <g id="patch_2">
    <path d="M 46.350914 203.04 
L 381.150914 203.04 
L 381.150914 7.2 
L 46.350914 7.2 
z
" style="fill: #ffffff"/>
   </g>
   <g id="PolyCollection_1">
    <defs>
     <path id="me03b67221b" d="M 61.569096 -94.150859 
L 61.569096 -66.252705 
L 61.946251 -67.147065 
L 62.323405 -68.104698 
L 63.454868 -69.047543 
L 63.832023 -69.939906 
L 64.209177 -70.777342 
L 64.586332 -71.648552 
L 64.963486 -72.50792 
L 66.472104 -73.44887 
L 66.849258 -74.438251 
L 67.226413 -75.391521 
L 67.603567 -76.40125 
L 68.735031 -77.489821 
L 69.112185 -78.618526 
L 69.489339 -79.795039 
L 69.866494 -81.067044 
L 70.243648 -82.207939 
L 71.375112 -83.416047 
L 71.752266 -84.706804 
L 72.129421 -86.139098 
L 72.506575 -87.754914 
L 72.883729 -88.523464 
L 74.015193 -89.370056 
L 74.392347 -90.206327 
L 74.769502 -90.939835 
L 75.146656 -91.602038 
L 75.523811 -92.249219 
L 76.655274 -92.822956 
L 77.032428 -93.46274 
L 77.409583 -94.01646 
L 77.786737 -94.417314 
L 78.163892 -94.791091 
L 79.295355 -95.141211 
L 79.672509 -95.446784 
L 80.049664 -95.710412 
L 80.426818 -95.980948 
L 80.803973 -96.237874 
L 81.935436 -96.2593 
L 82.312591 -96.282853 
L 82.689745 -96.445201 
L 83.066899 -96.394955 
L 83.444054 -96.342252 
L 84.575517 -96.353088 
L 84.952672 -96.471639 
L 85.329826 -96.768253 
L 85.706981 -97.082475 
L 87.215598 -97.4362 
L 87.592753 -97.765222 
L 87.969907 -98.125036 
L 88.347062 -98.539556 
L 88.724216 -98.867218 
L 89.855679 -99.208845 
L 90.232834 -99.621008 
L 90.609988 -99.963463 
L 90.987143 -100.434284 
L 91.364297 -100.788428 
L 92.495761 -101.22137 
L 92.872915 -101.692216 
L 93.250069 -102.161287 
L 93.627224 -102.45959 
L 94.004378 -102.693451 
L 95.135842 -102.806189 
L 95.512996 -102.991281 
L 95.890151 -103.107187 
L 96.267305 -103.11431 
L 96.644459 -103.039175 
L 97.775923 -103.215406 
L 98.153077 -103.349518 
L 98.530232 -103.53973 
L 98.907386 -103.833082 
L 99.284541 -104.149251 
L 100.416004 -104.510748 
L 100.793158 -104.691834 
L 101.170313 -105.053646 
L 101.547467 -105.339607 
L 101.924622 -105.499634 
L 103.433239 -105.637846 
L 103.810394 -105.712472 
L 104.187548 -105.623887 
L 104.564703 -105.701803 
L 105.696166 -105.827368 
L 106.073321 -105.993046 
L 106.450475 -105.979566 
L 106.827629 -106.018135 
L 107.204784 -106.127484 
L 108.336247 -106.28507 
L 108.713402 -106.342254 
L 109.090556 -106.322021 
L 109.467711 -106.281259 
L 109.844865 -106.243619 
L 110.976328 -106.236491 
L 111.353483 -106.261469 
L 111.730637 -106.283174 
L 112.107792 -106.277742 
L 112.484946 -106.259382 
L 113.616409 -106.187912 
L 113.993564 -106.155934 
L 114.370718 -106.090236 
L 114.747873 -106.067864 
L 115.125027 -106.027742 
L 116.256491 -105.918056 
L 117.010799 -105.773441 
L 117.387954 -105.606938 
L 117.765108 -105.606055 
L 118.896572 -105.568877 
L 119.273726 -105.467196 
L 119.650881 -105.316799 
L 120.028035 -105.210986 
L 120.405189 -105.189062 
L 121.536653 -105.176119 
L 121.913807 -105.30262 
L 122.290962 -105.5802 
L 122.668116 -105.812585 
L 123.045271 -106.166171 
L 124.176734 -106.591318 
L 124.553888 -107.170777 
L 124.931043 -107.467099 
L 125.308197 -107.875826 
L 125.685352 -108.2501 
L 126.816815 -108.676674 
L 127.193969 -109.123801 
L 127.571124 -109.629561 
L 127.948278 -110.324061 
L 128.325433 -110.875553 
L 129.456896 -111.632098 
L 129.834051 -112.393525 
L 130.211205 -113.231363 
L 130.588359 -114.032964 
L 130.965514 -115.030978 
L 132.096977 -115.912271 
L 132.474132 -116.748532 
L 132.851286 -117.506994 
L 133.228441 -118.157489 
L 133.605595 -118.53525 
L 134.737058 -118.708083 
L 135.114213 -119.010764 
L 135.491367 -119.33407 
L 135.868522 -119.532578 
L 136.245676 -119.839664 
L 137.377139 -120.142776 
L 137.754294 -120.336044 
L 138.131448 -120.425072 
L 138.508603 -120.569587 
L 138.885757 -120.946256 
L 140.394375 -121.468068 
L 140.771529 -122.110115 
L 141.148684 -122.661638 
L 141.525838 -122.637123 
L 142.657302 -122.740237 
L 143.034456 -122.877235 
L 143.411611 -122.921373 
L 143.788765 -122.926996 
L 144.165919 -122.79261 
L 145.297383 -122.841371 
L 145.674537 -122.783641 
L 146.051692 -122.709014 
L 146.428846 -122.599607 
L 146.806001 -122.535269 
L 147.937464 -122.564931 
L 148.314618 -122.498665 
L 148.691773 -122.363723 
L 149.068927 -122.302278 
L 149.446082 -122.21116 
L 150.577545 -121.949428 
L 150.954699 -121.647164 
L 151.331854 -121.363484 
L 151.709008 -121.04703 
L 152.086163 -120.811363 
L 153.217626 -120.642558 
L 153.594781 -120.532928 
L 153.971935 -120.556155 
L 154.349089 -120.62726 
L 154.726244 -120.703297 
L 155.857707 -120.900957 
L 156.234862 -121.009068 
L 156.612016 -121.111081 
L 156.989171 -121.247101 
L 157.366325 -121.472241 
L 158.497788 -121.67024 
L 158.874943 -121.953521 
L 159.252097 -122.255774 
L 159.629252 -122.718207 
L 160.006406 -123.376318 
L 161.137869 -124.163797 
L 161.515024 -125.089817 
L 161.892178 -125.829002 
L 162.269333 -126.514616 
L 162.646487 -127.298179 
L 163.777951 -128.069435 
L 164.155105 -128.894498 
L 164.532259 -129.700432 
L 164.909414 -130.628794 
L 165.286568 -131.43172 
L 166.418032 -132.269689 
L 166.795186 -133.109536 
L 167.172341 -133.982603 
L 167.549495 -134.84043 
L 167.926649 -135.791212 
L 169.058113 -136.636624 
L 169.435267 -137.250048 
L 169.812422 -137.844392 
L 170.566731 -138.468108 
L 171.698194 -139.596692 
L 172.075348 -140.774988 
L 172.452503 -142.072648 
L 172.829657 -143.37992 
L 173.206812 -144.952215 
L 174.338275 -146.597951 
L 174.715429 -147.484736 
L 175.092584 -147.95567 
L 175.469738 -148.18501 
L 175.846893 -148.678376 
L 176.978356 -148.961061 
L 177.35551 -148.942689 
L 177.732665 -148.917624 
L 178.109819 -148.924671 
L 178.486974 -148.917113 
L 179.618437 -148.902806 
L 179.995592 -148.779149 
L 180.372746 -148.68981 
L 180.7499 -148.449105 
L 181.127055 -148.264013 
L 182.635673 -147.998667 
L 183.012827 -147.82319 
L 183.389982 -146.815593 
L 183.767136 -145.197996 
L 185.275754 -144.525737 
L 185.652908 -143.508591 
L 186.030063 -142.037891 
L 186.407217 -140.931239 
L 187.53868 -140.573153 
L 187.915835 -140.260069 
L 188.292989 -140.143182 
L 188.670144 -140.24642 
L 189.047298 -140.347249 
L 190.555916 -140.462038 
L 190.93307 -140.546177 
L 191.310225 -140.663624 
L 191.687379 -140.711036 
L 192.818843 -140.769848 
L 193.195997 -140.828603 
L 193.573152 -140.89843 
L 193.950306 -140.924166 
L 194.32746 -140.92681 
L 195.458924 -140.953974 
L 195.836078 -140.985219 
L 196.213233 -140.995035 
L 196.590387 -141.017419 
L 196.967542 -141.148898 
L 198.099005 -141.267846 
L 198.476159 -141.408218 
L 198.853314 -141.646996 
L 199.230468 -141.768739 
L 199.607623 -141.895627 
L 200.739086 -141.968623 
L 201.11624 -141.98837 
L 201.493395 -141.912627 
L 201.870549 -141.737761 
L 202.247704 -141.346069 
L 203.756322 -141.302736 
L 204.133476 -141.0629 
L 204.51063 -140.743218 
L 204.887785 -140.482559 
L 206.019248 -140.176762 
L 206.396403 -139.965904 
L 206.773557 -139.884109 
L 207.150712 -139.834851 
L 207.527866 -139.674396 
L 208.659329 -139.661169 
L 209.036484 -139.72436 
L 209.413638 -139.913947 
L 209.790793 -140.19345 
L 210.167947 -140.46345 
L 211.29941 -140.735524 
L 211.676565 -141.553327 
L 212.053719 -142.83836 
L 212.430874 -143.435625 
L 212.808028 -144.043811 
L 213.939492 -145.197429 
L 214.316646 -145.952666 
L 214.6938 -146.044378 
L 215.070955 -146.033182 
L 215.448109 -145.60685 
L 216.579573 -145.182832 
L 216.956727 -145.03838 
L 217.333882 -145.141698 
L 217.711036 -145.28211 
L 219.219654 -145.27859 
L 219.596808 -145.178975 
L 219.973963 -145.038273 
L 220.351117 -144.870547 
L 220.728272 -144.61906 
L 221.859735 -144.508353 
L 222.236889 -144.427453 
L 222.614044 -144.411799 
L 222.991198 -144.37604 
L 223.368353 -144.439512 
L 224.499816 -144.481409 
L 224.87697 -144.454608 
L 225.254125 -144.427301 
L 225.631279 -144.408315 
L 226.008434 -144.435832 
L 227.139897 -144.466306 
L 227.517052 -144.535604 
L 227.894206 -144.707487 
L 228.27136 -144.900463 
L 228.648515 -145.256089 
L 229.779978 -145.755825 
L 230.157133 -146.540659 
L 230.534287 -146.867778 
L 230.911442 -147.506287 
L 231.288596 -148.33966 
L 232.420059 -149.122139 
L 232.797214 -150.019977 
L 233.174368 -150.837691 
L 233.551523 -151.466045 
L 233.928677 -152.03522 
L 235.06014 -152.931953 
L 235.437295 -153.686794 
L 235.814449 -154.253662 
L 236.191604 -154.868297 
L 236.568758 -155.372313 
L 237.700222 -155.764234 
L 238.077376 -156.166583 
L 238.45453 -156.431356 
L 238.831685 -156.757819 
L 239.208839 -157.3997 
L 240.717457 -158.731878 
L 241.094612 -160.087415 
L 241.471766 -161.848844 
L 241.84892 -163.715961 
L 242.980384 -165.709039 
L 243.357538 -168.248063 
L 243.734693 -170.615788 
L 244.111847 -172.717728 
L 244.489002 -173.810136 
L 245.620465 -174.979329 
L 245.997619 -175.331243 
L 246.374774 -175.585141 
L 246.751928 -175.780777 
L 247.129083 -175.907087 
L 248.260546 -175.93109 
L 248.6377 -175.964771 
L 249.014855 -175.978037 
L 249.392009 -176.111273 
L 249.769164 -176.185477 
L 250.900627 -176.299688 
L 251.277782 -176.46508 
L 251.654936 -176.181137 
L 252.03209 -175.535279 
L 252.409245 -175.042728 
L 253.540708 -174.665906 
L 253.917863 -174.540574 
L 254.672172 -174.526577 
L 255.049326 -174.531297 
L 256.180789 -174.677747 
L 256.557944 -174.668425 
L 256.935098 -174.622073 
L 257.312253 -174.564383 
L 257.689407 -174.420379 
L 258.82087 -174.176436 
L 259.198025 -174.194933 
L 259.575179 -174.321222 
L 259.952334 -174.463432 
L 260.329488 -174.719523 
L 261.460952 -175.00866 
L 261.838106 -175.412999 
L 262.21526 -175.840976 
L 262.592415 -176.435571 
L 262.969569 -177.004559 
L 264.101033 -177.654441 
L 264.478187 -178.429199 
L 264.855342 -179.563865 
L 265.232496 -180.698426 
L 265.60965 -181.948553 
L 266.741114 -183.174701 
L 267.118268 -184.448399 
L 267.495423 -185.654228 
L 267.872577 -187.134739 
L 268.249732 -188.602005 
L 269.381195 -189.92863 
L 269.758349 -191.099573 
L 270.135504 -192.33307 
L 270.512658 -193.83449 
L 270.889813 -195.103115 
L 272.021276 -196.423102 
L 272.39843 -197.839244 
L 272.775585 -199.259851 
L 273.152739 -200.855236 
L 273.529894 -202.386747 
L 274.661357 -204.03318 
L 275.038512 -205.735185 
L 275.415666 -207.354756 
L 275.79282 -208.938253 
L 276.169975 -210.66986 
L 277.678593 -212.887248 
L 278.055747 -215.450953 
L 278.432902 -218.020193 
L 278.810056 -219.15439 
L 279.941519 -219.996517 
L 280.318674 -220.670689 
L 280.695828 -221.417148 
L 281.072983 -222.368127 
L 281.450137 -223.13811 
L 282.5816 -223.921856 
L 282.958755 -224.859331 
L 283.335909 -225.755149 
L 283.713064 -226.236297 
L 284.090218 -226.95884 
L 285.221681 -227.197479 
L 285.598836 -226.780319 
L 285.97599 -226.606679 
L 286.353145 -226.845449 
L 286.730299 -227.214423 
L 287.861763 -226.403312 
L 288.238917 -224.80457 
L 288.616071 -223.544381 
L 288.993226 -222.929646 
L 289.37038 -222.183675 
L 290.501844 -221.059204 
L 290.878998 -218.749061 
L 291.256153 -216.392408 
L 291.633307 -213.497985 
L 292.010461 -211.450267 
L 293.141925 -209.779905 
L 293.519079 -207.41205 
L 293.896234 -204.015752 
L 294.273388 -200.898451 
L 294.650543 -197.411807 
L 295.782006 -194.444759 
L 296.15916 -191.683353 
L 296.536315 -189.69816 
L 296.913469 -187.662606 
L 297.290624 -185.598568 
L 298.422087 -184.14346 
L 298.799241 -182.050311 
L 299.176396 -179.859362 
L 299.55355 -177.210095 
L 299.930705 -174.771942 
L 301.062168 -172.365009 
L 301.439323 -170.12296 
L 301.816477 -168.16747 
L 302.193631 -165.919578 
L 302.570786 -163.603231 
L 303.702249 -161.542168 
L 304.079404 -159.149652 
L 304.456558 -156.576525 
L 304.833713 -153.471972 
L 305.210867 -150.144649 
L 306.34233 -147.947993 
L 306.719485 -145.733549 
L 307.096639 -143.700495 
L 307.850948 -141.889772 
L 308.982411 -140.124122 
L 309.359566 -137.221755 
L 309.73672 -135.046077 
L 310.113875 -133.05313 
L 310.491029 -131.247388 
L 311.622493 -129.876349 
L 311.999647 -128.582744 
L 312.753956 -127.209176 
L 313.13111 -125.829213 
L 314.262574 -125.015899 
L 314.639728 -124.704924 
L 315.016883 -124.004644 
L 315.394037 -123.297514 
L 315.771191 -122.547434 
L 316.902655 -122.250235 
L 317.279809 -122.061763 
L 317.656964 -122.163453 
L 318.034118 -121.859499 
L 318.411273 -121.500387 
L 319.542736 -121.489928 
L 320.297045 -121.742357 
L 320.674199 -122.217734 
L 321.051354 -122.471431 
L 322.182817 -122.498778 
L 322.937126 -122.524301 
L 323.31428 -122.521435 
L 323.691435 -122.529029 
L 324.822898 -122.531162 
L 325.200053 -122.6706 
L 325.577207 -122.785062 
L 325.954361 -122.885544 
L 326.331516 -123.258388 
L 327.462979 -123.339474 
L 327.840134 -123.368757 
L 328.217288 -123.363405 
L 328.594443 -123.336048 
L 328.971597 -123.296297 
L 330.480215 -123.259039 
L 330.857369 -123.214368 
L 331.234524 -123.248772 
L 331.611678 -123.305514 
L 332.743141 -123.316266 
L 333.120296 -123.495445 
L 333.49745 -123.888958 
L 333.874605 -124.696395 
L 334.251759 -125.854562 
L 335.383223 -126.261087 
L 335.760377 -126.728557 
L 336.137531 -127.223478 
L 336.514686 -127.634463 
L 336.89184 -128.030479 
L 338.023304 -129.730311 
L 338.400458 -130.99015 
L 338.777613 -132.331994 
L 339.154767 -133.278395 
L 339.531921 -134.269352 
L 341.040539 -135.35769 
L 341.417694 -136.676891 
L 341.794848 -138.264567 
L 342.172003 -139.646098 
L 343.303466 -140.91833 
L 343.68062 -142.163746 
L 344.057775 -143.345437 
L 344.434929 -144.919801 
L 344.812084 -146.535297 
L 345.943547 -148.362928 
L 346.320701 -149.687908 
L 346.697856 -151.299257 
L 347.07501 -153.182283 
L 347.452165 -154.179879 
L 348.583628 -155.153231 
L 348.960783 -156.182758 
L 349.337937 -156.911056 
L 349.715091 -157.413249 
L 350.092246 -157.957423 
L 351.223709 -158.77839 
L 351.600864 -159.579338 
L 351.978018 -160.55128 
L 352.355173 -161.528694 
L 352.732327 -162.643592 
L 353.86379 -163.768817 
L 354.240945 -165.01214 
L 354.618099 -166.143395 
L 354.995254 -167.297424 
L 355.372408 -168.55976 
L 356.503871 -169.803788 
L 356.881026 -171.034878 
L 357.25818 -172.309086 
L 357.635335 -173.570927 
L 358.012489 -174.996599 
L 359.143953 -175.850088 
L 359.521107 -176.80163 
L 359.898261 -177.919009 
L 360.275416 -179.142811 
L 360.65257 -180.591008 
L 361.784034 -181.663457 
L 362.161188 -182.363406 
L 362.538343 -182.588937 
L 362.915497 -182.462266 
L 364.424115 -182.096331 
L 364.801269 -181.485355 
L 365.178424 -180.682335 
L 365.555578 -180.081543 
L 365.932733 -179.083781 
L 365.932733 -210.090764 
L 365.932733 -210.090764 
L 365.555578 -209.903944 
L 365.178424 -209.795653 
L 364.801269 -209.64313 
L 364.424115 -209.502618 
L 362.915497 -209.402979 
L 362.538343 -209.364966 
L 362.161188 -209.423917 
L 361.784034 -209.574673 
L 360.65257 -209.936434 
L 360.275416 -210.259876 
L 359.898261 -210.41992 
L 359.521107 -210.484547 
L 359.143953 -210.551826 
L 358.012489 -210.656205 
L 357.635335 -210.463248 
L 357.25818 -210.03661 
L 356.881026 -209.444998 
L 356.503871 -208.80545 
L 355.372408 -207.730926 
L 354.995254 -206.335603 
L 354.618099 -205.065738 
L 354.240945 -203.610288 
L 353.86379 -202.87871 
L 352.732327 -201.795808 
L 352.355173 -200.682155 
L 351.978018 -199.413018 
L 351.600864 -197.92103 
L 351.223709 -196.301851 
L 350.092246 -194.88165 
L 349.715091 -193.44312 
L 349.337937 -192.005875 
L 348.960783 -190.857886 
L 348.583628 -189.704013 
L 347.452165 -188.513578 
L 347.07501 -187.263548 
L 346.697856 -186.10388 
L 346.320701 -184.849607 
L 345.943547 -183.364583 
L 344.812084 -182.256178 
L 344.434929 -181.10036 
L 344.057775 -179.88568 
L 343.68062 -178.592974 
L 343.303466 -177.484105 
L 342.172003 -176.427828 
L 341.794848 -175.438122 
L 341.417694 -174.471569 
L 341.040539 -173.495061 
L 339.531921 -172.257043 
L 339.154767 -170.740265 
L 338.777613 -168.748505 
L 338.400458 -167.420312 
L 338.023304 -166.139107 
L 336.89184 -164.805931 
L 336.514686 -163.315999 
L 336.137531 -161.985823 
L 335.760377 -160.772678 
L 335.383223 -159.578281 
L 334.251759 -158.521483 
L 333.874605 -157.935824 
L 333.49745 -157.278351 
L 333.120296 -156.472685 
L 332.743141 -155.649641 
L 331.611678 -154.975214 
L 331.234524 -154.265921 
L 330.857369 -153.752719 
L 330.480215 -153.404702 
L 328.971597 -152.979179 
L 328.594443 -152.527513 
L 328.217288 -152.232811 
L 327.840134 -152.01304 
L 327.462979 -152.167519 
L 326.331516 -152.577217 
L 325.954361 -153.838387 
L 325.577207 -154.396983 
L 325.200053 -155.072747 
L 324.822898 -155.818367 
L 323.691435 -156.08623 
L 323.31428 -156.318199 
L 322.937126 -156.402403 
L 322.182817 -156.593968 
L 321.051354 -156.80377 
L 320.674199 -158.007301 
L 320.297045 -160.239123 
L 319.542736 -162.11392 
L 318.411273 -163.505248 
L 318.034118 -165.58803 
L 317.656964 -167.747468 
L 317.279809 -170.887036 
L 316.902655 -174.32648 
L 315.771191 -177.626307 
L 315.394037 -180.112113 
L 315.016883 -182.272217 
L 314.639728 -184.882784 
L 314.262574 -188.89591 
L 313.13111 -192.311042 
L 312.753956 -194.99857 
L 311.999647 -197.47619 
L 311.622493 -200.199007 
L 310.491029 -203.102103 
L 310.113875 -205.432895 
L 309.73672 -208.254154 
L 309.359566 -210.736301 
L 308.982411 -212.799922 
L 307.850948 -214.764272 
L 307.096639 -217.030457 
L 306.719485 -219.233895 
L 306.34233 -220.95152 
L 305.210867 -222.927426 
L 304.833713 -223.947855 
L 304.456558 -225.063139 
L 304.079404 -226.994118 
L 303.702249 -228.641406 
L 302.570786 -230.317097 
L 302.193631 -232.115246 
L 301.816477 -234.145794 
L 301.439323 -235.931336 
L 301.062168 -237.419314 
L 299.930705 -238.675221 
L 299.55355 -239.785959 
L 299.176396 -240.463683 
L 298.799241 -241.310342 
L 298.422087 -242.033898 
L 297.290624 -242.664654 
L 296.913469 -243.245655 
L 296.536315 -243.685844 
L 296.15916 -244.076973 
L 295.782006 -244.103804 
L 294.650543 -244.289069 
L 294.273388 -244.270998 
L 293.896234 -243.983855 
L 293.519079 -243.58564 
L 293.141925 -243.279756 
L 292.010461 -243.366135 
L 291.633307 -243.329345 
L 291.256153 -242.989662 
L 290.878998 -242.931679 
L 290.501844 -242.745554 
L 289.37038 -242.906228 
L 288.993226 -243.051516 
L 288.616071 -243.068739 
L 288.238917 -242.726689 
L 287.861763 -242.071593 
L 286.730299 -241.778249 
L 286.353145 -241.68265 
L 285.97599 -241.673421 
L 285.598836 -241.639239 
L 285.221681 -241.566539 
L 284.090218 -241.611181 
L 283.713064 -241.714654 
L 283.335909 -241.850266 
L 282.958755 -241.847291 
L 282.5816 -241.935428 
L 281.450137 -241.995867 
L 281.072983 -242.149739 
L 280.695828 -242.139879 
L 280.318674 -241.992388 
L 279.941519 -242.012296 
L 278.810056 -241.854354 
L 278.432902 -242.105338 
L 278.055747 -242.941514 
L 277.678593 -243.066823 
L 276.169975 -243.116659 
L 275.79282 -242.853724 
L 275.415666 -242.242277 
L 275.038512 -241.285339 
L 274.661357 -240.504069 
L 273.529894 -239.787068 
L 273.152739 -239.08088 
L 272.775585 -238.393983 
L 272.39843 -237.894767 
L 272.021276 -237.242212 
L 270.889813 -236.610142 
L 270.512658 -236.111829 
L 270.135504 -235.487348 
L 269.758349 -234.861751 
L 269.381195 -234.19752 
L 268.249732 -233.543325 
L 267.872577 -232.477618 
L 267.495423 -231.162627 
L 267.118268 -230.129709 
L 266.741114 -228.85028 
L 265.60965 -227.907261 
L 265.232496 -226.707422 
L 264.855342 -225.29448 
L 264.478187 -223.490985 
L 264.101033 -221.407898 
L 262.969569 -219.283803 
L 262.592415 -217.313361 
L 262.21526 -215.449945 
L 261.838106 -213.829673 
L 261.460952 -212.306387 
L 260.329488 -210.909468 
L 259.952334 -209.517118 
L 259.575179 -208.138774 
L 259.198025 -206.678669 
L 258.82087 -205.115104 
L 257.689407 -203.264909 
L 257.312253 -201.824189 
L 256.935098 -200.625358 
L 256.557944 -199.374176 
L 256.180789 -198.115978 
L 255.049326 -196.880256 
L 254.672172 -195.504149 
L 253.917863 -194.2402 
L 253.540708 -192.918891 
L 252.409245 -191.190274 
L 252.03209 -189.430012 
L 251.654936 -187.478021 
L 251.277782 -186.297707 
L 250.900627 -186.206221 
L 249.769164 -186.132084 
L 249.392009 -186.024129 
L 249.014855 -185.654103 
L 248.6377 -185.236915 
L 248.260546 -184.986298 
L 247.129083 -184.859839 
L 246.751928 -184.675 
L 246.374774 -184.448254 
L 245.997619 -184.317655 
L 245.620465 -184.131891 
L 244.489002 -184.349662 
L 244.111847 -184.443346 
L 243.734693 -185.086268 
L 243.357538 -185.953593 
L 242.980384 -186.642672 
L 241.84892 -186.892463 
L 241.471766 -187.148512 
L 241.094612 -187.416536 
L 240.717457 -187.52613 
L 239.208839 -187.430476 
L 238.831685 -187.234561 
L 238.45453 -187.022271 
L 238.077376 -186.862241 
L 237.700222 -186.665404 
L 236.568758 -186.534446 
L 236.191604 -186.297961 
L 235.814449 -186.028576 
L 235.437295 -185.698292 
L 235.06014 -185.400919 
L 233.928677 -184.939938 
L 233.551523 -184.430315 
L 233.174368 -183.775917 
L 232.797214 -183.109913 
L 232.420059 -182.314699 
L 231.288596 -181.542264 
L 230.911442 -180.70516 
L 230.534287 -179.67911 
L 230.157133 -178.593706 
L 229.779978 -177.507069 
L 228.648515 -176.481167 
L 228.27136 -175.568274 
L 227.894206 -174.968067 
L 227.517052 -174.308882 
L 227.139897 -173.697843 
L 226.008434 -173.042895 
L 225.631279 -172.399734 
L 225.254125 -171.793912 
L 224.87697 -171.36922 
L 224.499816 -170.803154 
L 223.368353 -170.195334 
L 222.991198 -169.443586 
L 222.614044 -168.619191 
L 222.236889 -167.937998 
L 221.859735 -167.042416 
L 220.728272 -166.011177 
L 220.351117 -164.994973 
L 219.973963 -164.251443 
L 219.596808 -163.65478 
L 219.219654 -162.934749 
L 217.711036 -162.201734 
L 217.333882 -161.967846 
L 216.956727 -161.768598 
L 216.579573 -161.837758 
L 215.448109 -161.911085 
L 215.070955 -161.809328 
L 214.6938 -161.806178 
L 214.316646 -161.836892 
L 213.939492 -162.174591 
L 212.808028 -162.638481 
L 212.430874 -162.804913 
L 212.053719 -162.730989 
L 211.676565 -162.600001 
L 211.29941 -162.233666 
L 210.167947 -161.9439 
L 209.790793 -161.700143 
L 209.413638 -161.475575 
L 209.036484 -161.333053 
L 208.659329 -161.238247 
L 207.527866 -161.249747 
L 207.150712 -161.419519 
L 206.773557 -161.596223 
L 206.396403 -161.814843 
L 206.019248 -162.20613 
L 204.887785 -162.663166 
L 204.51063 -163.083112 
L 204.133476 -163.342195 
L 203.756322 -163.617972 
L 202.247704 -163.690446 
L 201.870549 -163.853087 
L 201.493395 -163.984258 
L 201.11624 -164.064627 
L 200.739086 -164.021763 
L 199.607623 -163.90399 
L 199.230468 -163.612236 
L 198.853314 -163.277452 
L 198.476159 -162.87889 
L 198.099005 -162.40369 
L 196.967542 -161.762765 
L 196.590387 -161.244285 
L 196.213233 -161.097399 
L 195.836078 -161.059375 
L 195.458924 -160.897429 
L 194.32746 -160.73221 
L 193.950306 -160.702862 
L 193.573152 -160.617097 
L 193.195997 -160.260775 
L 192.818843 -159.880197 
L 191.687379 -159.425251 
L 191.310225 -159.244548 
L 190.93307 -159.116417 
L 190.555916 -159.044443 
L 189.047298 -158.934615 
L 188.670144 -158.812441 
L 188.292989 -158.666065 
L 187.915835 -158.74183 
L 187.53868 -158.865658 
L 186.407217 -158.900115 
L 186.030063 -158.819874 
L 185.652908 -158.56151 
L 185.275754 -158.535312 
L 183.767136 -158.626666 
L 183.389982 -158.077401 
L 183.012827 -157.676525 
L 182.635673 -157.653393 
L 181.127055 -157.623966 
L 180.7499 -157.573488 
L 180.372746 -157.549086 
L 179.995592 -157.61855 
L 179.618437 -157.721394 
L 178.486974 -157.773978 
L 178.109819 -157.67534 
L 177.732665 -157.501547 
L 177.35551 -157.166678 
L 176.978356 -156.674613 
L 175.846893 -156.214887 
L 175.469738 -156.072528 
L 175.092584 -155.749984 
L 174.715429 -155.633571 
L 174.338275 -155.765326 
L 173.206812 -156.291419 
L 172.829657 -156.674759 
L 172.452503 -156.7987 
L 172.075348 -156.979112 
L 171.698194 -157.09634 
L 170.566731 -157.147471 
L 169.812422 -157.127148 
L 169.435267 -157.004616 
L 169.058113 -156.894437 
L 167.926649 -156.833011 
L 167.549495 -156.530881 
L 167.172341 -156.169645 
L 166.795186 -155.82607 
L 166.418032 -155.434477 
L 165.286568 -154.883036 
L 164.909414 -154.459364 
L 164.532259 -154.150662 
L 164.155105 -153.780261 
L 163.777951 -153.424145 
L 162.646487 -152.970956 
L 162.269333 -152.688609 
L 161.892178 -152.371732 
L 161.515024 -152.058433 
L 161.137869 -151.726698 
L 160.006406 -151.331653 
L 159.629252 -150.821501 
L 159.252097 -150.238176 
L 158.874943 -149.815508 
L 158.497788 -149.140882 
L 157.366325 -148.391737 
L 156.989171 -147.512814 
L 156.612016 -146.630494 
L 156.234862 -145.908165 
L 155.857707 -145.435629 
L 154.726244 -144.860528 
L 154.349089 -144.268336 
L 153.971935 -143.842877 
L 153.594781 -143.234953 
L 153.217626 -142.450072 
L 152.086163 -141.559844 
L 151.709008 -140.525101 
L 151.331854 -139.359039 
L 150.954699 -138.223061 
L 150.577545 -137.001045 
L 149.446082 -135.89506 
L 149.068927 -135.284292 
L 148.691773 -134.769281 
L 148.314618 -133.877694 
L 147.937464 -133.223516 
L 146.806001 -132.920261 
L 146.428846 -133.081644 
L 146.051692 -133.303513 
L 145.674537 -133.404613 
L 145.297383 -133.431531 
L 144.165919 -133.422524 
L 143.788765 -133.571331 
L 143.411611 -133.556263 
L 143.034456 -133.45532 
L 142.657302 -133.331969 
L 141.525838 -133.30663 
L 141.148684 -133.314618 
L 140.771529 -133.414457 
L 140.394375 -133.559429 
L 138.885757 -133.638975 
L 138.508603 -133.67549 
L 138.131448 -133.659318 
L 137.754294 -133.663994 
L 137.377139 -133.668107 
L 136.245676 -133.707909 
L 135.868522 -133.736618 
L 135.491367 -133.75321 
L 135.114213 -133.774757 
L 134.737058 -133.810631 
L 133.605595 -133.848849 
L 133.228441 -133.925954 
L 132.851286 -134.052495 
L 132.474132 -134.101319 
L 132.096977 -134.028051 
L 130.965514 -133.947159 
L 130.588359 -133.814499 
L 130.211205 -133.673261 
L 129.834051 -133.445188 
L 129.456896 -133.096094 
L 128.325433 -132.679775 
L 127.948278 -132.376009 
L 127.571124 -131.915106 
L 127.193969 -131.357916 
L 126.816815 -130.760901 
L 125.685352 -129.976752 
L 125.308197 -129.158008 
L 124.931043 -128.358139 
L 124.553888 -127.559007 
L 124.176734 -126.878289 
L 123.045271 -126.274872 
L 122.668116 -125.690731 
L 122.290962 -125.033472 
L 121.913807 -124.358285 
L 121.536653 -123.921871 
L 120.405189 -123.709279 
L 120.028035 -123.489591 
L 119.650881 -122.929942 
L 119.273726 -122.252389 
L 118.896572 -121.832589 
L 117.765108 -121.482109 
L 117.387954 -121.278646 
L 117.010799 -120.642997 
L 116.256491 -120.089964 
L 115.125027 -119.666168 
L 114.747873 -119.43178 
L 114.370718 -119.298445 
L 113.993564 -119.032319 
L 113.616409 -119.191674 
L 112.484946 -119.363899 
L 112.107792 -119.392303 
L 111.730637 -119.699635 
L 111.353483 -119.862412 
L 110.976328 -120.101541 
L 109.844865 -120.211564 
L 109.467711 -120.323849 
L 109.090556 -120.476008 
L 108.713402 -120.541768 
L 108.336247 -120.488797 
L 107.204784 -120.414769 
L 106.827629 -120.361279 
L 106.450475 -120.345846 
L 106.073321 -120.347676 
L 105.696166 -120.355896 
L 104.564703 -120.362964 
L 104.187548 -120.370465 
L 103.810394 -120.359533 
L 103.433239 -120.367241 
L 101.924622 -120.39153 
L 101.547467 -120.413983 
L 101.170313 -120.472635 
L 100.793158 -120.503146 
L 100.416004 -120.526504 
L 99.284541 -120.547846 
L 98.907386 -120.541834 
L 98.530232 -120.542844 
L 98.153077 -120.522942 
L 97.775923 -120.512753 
L 96.644459 -120.479918 
L 96.267305 -120.478938 
L 95.890151 -120.478016 
L 95.512996 -120.464124 
L 95.135842 -120.423226 
L 94.004378 -120.404013 
L 93.627224 -120.291262 
L 93.250069 -119.840724 
L 92.872915 -119.350543 
L 92.495761 -118.907286 
L 91.364297 -118.475823 
L 90.987143 -117.900016 
L 90.609988 -117.486306 
L 90.232834 -117.074268 
L 89.855679 -116.578518 
L 88.724216 -116.060851 
L 88.347062 -115.4986 
L 87.969907 -114.962747 
L 87.592753 -114.356341 
L 87.215598 -113.704881 
L 85.706981 -113.107157 
L 85.329826 -112.522882 
L 84.952672 -112.101006 
L 84.575517 -111.156848 
L 83.444054 -110.120043 
L 83.066899 -108.940163 
L 82.689745 -107.954586 
L 82.312591 -107.087294 
L 81.935436 -106.029627 
L 80.803973 -105.01657 
L 80.426818 -104.484348 
L 80.049664 -104.158927 
L 79.672509 -103.765869 
L 79.295355 -103.324726 
L 78.163892 -102.963862 
L 77.786737 -102.822833 
L 77.409583 -102.668036 
L 77.032428 -102.56534 
L 76.655274 -102.419473 
L 75.523811 -102.284407 
L 75.146656 -102.244794 
L 74.769502 -102.178846 
L 74.392347 -102.220474 
L 74.015193 -102.252557 
L 72.883729 -102.222689 
L 72.506575 -102.176557 
L 72.129421 -102.464499 
L 71.752266 -102.596579 
L 71.375112 -102.511084 
L 70.243648 -102.331395 
L 69.866494 -102.060305 
L 69.489339 -101.775756 
L 69.112185 -101.356485 
L 68.735031 -100.951748 
L 67.603567 -100.496142 
L 67.226413 -99.957119 
L 66.849258 -99.350606 
L 66.472104 -98.739359 
L 64.963486 -98.279356 
L 64.586332 -97.782624 
L 64.209177 -97.240505 
L 63.832023 -96.624574 
L 63.454868 -96.095265 
L 62.323405 -95.433446 
L 61.946251 -94.842059 
L 61.569096 -94.150859 
z
" style="stroke: #000000; stroke-opacity: 0.2; stroke-width: 0.8"/>
    </defs>
    <g clip-path="url(#pe87a3477c8)">
     <use xlink:href="#me03b67221b" x="0" y="260.390887" style="fill: #bc80bd; fill-opacity: 0.2; stroke: #000000; stroke-opacity: 0.2; stroke-width: 0.8"/>
    </g>
   </g>
   <g id="matplotlib.axis_1">
    <g id="xtick_1">
     <g id="line2d_1">
      <defs>
       <path id="m4662eaae7d" d="M 0 0 
L 0 3.5 
" style="stroke: #323034; stroke-width: 0.8"/>
      </defs>
      <g>
       <use xlink:href="#m4662eaae7d" x="47.237227" y="203.04" style="fill: #323034; stroke: #323034; stroke-width: 0.8"/>
      </g>
     </g>
     <g id="text_1">
      <!-- 2017-01 -->
      <g style="fill: #323034" transform="translate(11.297812 237.135432)rotate(-30)scale(0.12 -0.12)">
       <defs>
        <path id="STIXGeneral-Regular-32" d="M 3034 877 
L 2688 0 
L 186 0 
L 186 77 
L 1325 1286 
Q 1773 1754 1965 2144 
Q 2157 2534 2157 2950 
Q 2157 3379 1920 3616 
Q 1683 3853 1267 3853 
Q 922 3853 720 3673 
Q 518 3494 326 3021 
L 192 3053 
Q 301 3648 630 3987 
Q 960 4326 1523 4326 
Q 2054 4326 2380 4006 
Q 2707 3686 2707 3200 
Q 2707 2477 1888 1613 
L 832 486 
L 2330 486 
Q 2541 486 2665 569 
Q 2790 653 2944 915 
L 3034 877 
z
" transform="scale(0.015625)"/>
        <path id="STIXGeneral-Regular-30" d="M 3046 2112 
Q 3046 1683 2963 1302 
Q 2880 922 2717 602 
Q 2554 282 2266 96 
Q 1978 -90 1600 -90 
Q 1210 -90 915 108 
Q 621 307 461 640 
Q 301 973 227 1350 
Q 154 1728 154 2150 
Q 154 2746 301 3222 
Q 448 3699 790 4012 
Q 1133 4326 1626 4326 
Q 2253 4326 2649 3712 
Q 3046 3098 3046 2112 
z
M 2432 2080 
Q 2432 3091 2217 3625 
Q 2003 4160 1587 4160 
Q 1190 4160 979 3622 
Q 768 3085 768 2106 
Q 768 1120 979 598 
Q 1190 77 1600 77 
Q 2003 77 2217 598 
Q 2432 1120 2432 2080 
z
" transform="scale(0.015625)"/>
        <path id="STIXGeneral-Regular-31" d="M 2522 0 
L 755 0 
L 755 96 
Q 1107 115 1235 227 
Q 1363 339 1363 608 
L 1363 3482 
Q 1363 3795 1171 3795 
Q 1082 3795 883 3718 
L 710 3654 
L 710 3744 
L 1856 4326 
L 1914 4307 
L 1914 486 
Q 1914 275 2042 185 
Q 2170 96 2522 96 
L 2522 0 
z
" transform="scale(0.015625)"/>
        <path id="STIXGeneral-Regular-37" d="M 2874 4134 
L 1517 -51 
L 1101 -51 
L 2368 3763 
L 992 3763 
Q 717 3763 582 3667 
Q 448 3571 243 3238 
L 128 3296 
L 512 4237 
L 2874 4237 
L 2874 4134 
z
" transform="scale(0.015625)"/>
        <path id="STIXGeneral-Regular-2d" d="M 1824 1242 
L 250 1242 
L 250 1645 
L 1824 1645 
L 1824 1242 
z
" transform="scale(0.015625)"/>
       </defs>
       <use xlink:href="#STIXGeneral-Regular-32"/>
       <use xlink:href="#STIXGeneral-Regular-30" x="49.999985"/>
       <use xlink:href="#STIXGeneral-Regular-31" x="99.999969"/>
       <use xlink:href="#STIXGeneral-Regular-37" x="149.999954"/>
       <use xlink:href="#STIXGeneral-Regular-2d" x="199.999939"/>
       <use xlink:href="#STIXGeneral-Regular-30" x="233.299927"/>
       <use xlink:href="#STIXGeneral-Regular-31" x="283.299911"/>
      </g>
     </g>
    </g>
    <g id="xtick_2">
     <g id="line2d_2">
      <g>
       <use xlink:href="#m4662eaae7d" x="81.181127" y="203.04" style="fill: #323034; stroke: #323034; stroke-width: 0.8"/>
      </g>
     </g>
     <g id="text_2">
      <!-- 2017-04 -->
      <g style="fill: #323034" transform="translate(45.241712 237.135432)rotate(-30)scale(0.12 -0.12)">
       <defs>
        <path id="STIXGeneral-Regular-34" d="M 3027 1069 
L 2368 1069 
L 2368 0 
L 1869 0 
L 1869 1069 
L 77 1069 
L 77 1478 
L 2086 4326 
L 2368 4326 
L 2368 1478 
L 3027 1478 
L 3027 1069 
z
M 1869 1478 
L 1869 3674 
L 333 1478 
L 1869 1478 
z
" transform="scale(0.015625)"/>
       </defs>
       <use xlink:href="#STIXGeneral-Regular-32"/>
       <use xlink:href="#STIXGeneral-Regular-30" x="49.999985"/>
       <use xlink:href="#STIXGeneral-Regular-31" x="99.999969"/>
       <use xlink:href="#STIXGeneral-Regular-37" x="149.999954"/>
       <use xlink:href="#STIXGeneral-Regular-2d" x="199.999939"/>
       <use xlink:href="#STIXGeneral-Regular-30" x="233.299927"/>
       <use xlink:href="#STIXGeneral-Regular-34" x="283.299911"/>
      </g>
     </g>
    </g>
    <g id="xtick_3">
     <g id="line2d_3">
      <g>
       <use xlink:href="#m4662eaae7d" x="115.502182" y="203.04" style="fill: #323034; stroke: #323034; stroke-width: 0.8"/>
      </g>
     </g>
     <g id="text_3">
      <!-- 2017-07 -->
      <g style="fill: #323034" transform="translate(79.562767 237.135432)rotate(-30)scale(0.12 -0.12)">
       <use xlink:href="#STIXGeneral-Regular-32"/>
       <use xlink:href="#STIXGeneral-Regular-30" x="49.999985"/>
       <use xlink:href="#STIXGeneral-Regular-31" x="99.999969"/>
       <use xlink:href="#STIXGeneral-Regular-37" x="149.999954"/>
       <use xlink:href="#STIXGeneral-Regular-2d" x="199.999939"/>
       <use xlink:href="#STIXGeneral-Regular-30" x="233.299927"/>
       <use xlink:href="#STIXGeneral-Regular-37" x="283.299911"/>
      </g>
     </g>
    </g>
    <g id="xtick_4">
     <g id="line2d_4">
      <g>
       <use xlink:href="#m4662eaae7d" x="150.200391" y="203.04" style="fill: #323034; stroke: #323034; stroke-width: 0.8"/>
      </g>
     </g>
     <g id="text_4">
      <!-- 2017-10 -->
      <g style="fill: #323034" transform="translate(114.260976 237.135432)rotate(-30)scale(0.12 -0.12)">
       <use xlink:href="#STIXGeneral-Regular-32"/>
       <use xlink:href="#STIXGeneral-Regular-30" x="49.999985"/>
       <use xlink:href="#STIXGeneral-Regular-31" x="99.999969"/>
       <use xlink:href="#STIXGeneral-Regular-37" x="149.999954"/>
       <use xlink:href="#STIXGeneral-Regular-2d" x="199.999939"/>
       <use xlink:href="#STIXGeneral-Regular-31" x="233.299927"/>
       <use xlink:href="#STIXGeneral-Regular-30" x="283.299911"/>
      </g>
     </g>
    </g>
    <g id="xtick_5">
     <g id="line2d_5">
      <g>
       <use xlink:href="#m4662eaae7d" x="184.898599" y="203.04" style="fill: #323034; stroke: #323034; stroke-width: 0.8"/>
      </g>
     </g>
     <g id="text_5">
      <!-- 2018-01 -->
      <g style="fill: #323034" transform="translate(148.959185 237.135432)rotate(-30)scale(0.12 -0.12)">
       <defs>
        <path id="STIXGeneral-Regular-38" d="M 2848 992 
Q 2848 499 2505 204 
Q 2163 -90 1587 -90 
Q 1050 -90 704 204 
Q 358 499 358 954 
Q 358 1293 524 1533 
Q 691 1773 1190 2125 
Q 710 2522 553 2765 
Q 397 3008 397 3328 
Q 397 3782 745 4054 
Q 1094 4326 1638 4326 
Q 2106 4326 2410 4060 
Q 2714 3795 2714 3411 
Q 2714 3059 2531 2848 
Q 2349 2637 1856 2374 
Q 2432 1990 2640 1689 
Q 2848 1389 2848 992 
z
M 2272 3411 
Q 2272 3744 2086 3945 
Q 1901 4147 1574 4147 
Q 1248 4147 1059 3977 
Q 870 3808 870 3513 
Q 870 3219 1059 2979 
Q 1248 2739 1670 2490 
Q 1997 2682 2134 2896 
Q 2272 3110 2272 3411 
z
M 1734 1741 
L 1357 1997 
Q 1075 1766 960 1545 
Q 845 1325 845 1011 
Q 845 576 1065 333 
Q 1286 90 1658 90 
Q 1971 90 2166 285 
Q 2362 480 2362 794 
Q 2362 1082 2214 1299 
Q 2067 1517 1734 1741 
z
" transform="scale(0.015625)"/>
       </defs>
       <use xlink:href="#STIXGeneral-Regular-32"/>
       <use xlink:href="#STIXGeneral-Regular-30" x="49.999985"/>
       <use xlink:href="#STIXGeneral-Regular-31" x="99.999969"/>
       <use xlink:href="#STIXGeneral-Regular-38" x="149.999954"/>
       <use xlink:href="#STIXGeneral-Regular-2d" x="199.999939"/>
       <use xlink:href="#STIXGeneral-Regular-30" x="233.299927"/>
       <use xlink:href="#STIXGeneral-Regular-31" x="283.299911"/>
      </g>
     </g>
    </g>
    <g id="xtick_6">
     <g id="line2d_6">
      <g>
       <use xlink:href="#m4662eaae7d" x="218.842499" y="203.04" style="fill: #323034; stroke: #323034; stroke-width: 0.8"/>
      </g>
     </g>
     <g id="text_6">
      <!-- 2018-04 -->
      <g style="fill: #323034" transform="translate(182.903085 237.135432)rotate(-30)scale(0.12 -0.12)">
       <use xlink:href="#STIXGeneral-Regular-32"/>
       <use xlink:href="#STIXGeneral-Regular-30" x="49.999985"/>
       <use xlink:href="#STIXGeneral-Regular-31" x="99.999969"/>
       <use xlink:href="#STIXGeneral-Regular-38" x="149.999954"/>
       <use xlink:href="#STIXGeneral-Regular-2d" x="199.999939"/>
       <use xlink:href="#STIXGeneral-Regular-30" x="233.299927"/>
       <use xlink:href="#STIXGeneral-Regular-34" x="283.299911"/>
      </g>
     </g>
    </g>
    <g id="xtick_7">
     <g id="line2d_7">
      <g>
       <use xlink:href="#m4662eaae7d" x="253.163554" y="203.04" style="fill: #323034; stroke: #323034; stroke-width: 0.8"/>
      </g>
     </g>
     <g id="text_7">
      <!-- 2018-07 -->
      <g style="fill: #323034" transform="translate(217.224139 237.135432)rotate(-30)scale(0.12 -0.12)">
       <use xlink:href="#STIXGeneral-Regular-32"/>
       <use xlink:href="#STIXGeneral-Regular-30" x="49.999985"/>
       <use xlink:href="#STIXGeneral-Regular-31" x="99.999969"/>
       <use xlink:href="#STIXGeneral-Regular-38" x="149.999954"/>
       <use xlink:href="#STIXGeneral-Regular-2d" x="199.999939"/>
       <use xlink:href="#STIXGeneral-Regular-30" x="233.299927"/>
       <use xlink:href="#STIXGeneral-Regular-37" x="283.299911"/>
      </g>
     </g>
    </g>
    <g id="xtick_8">
     <g id="line2d_8">
      <g>
       <use xlink:href="#m4662eaae7d" x="287.861763" y="203.04" style="fill: #323034; stroke: #323034; stroke-width: 0.8"/>
      </g>
     </g>
     <g id="text_8">
      <!-- 2018-10 -->
      <g style="fill: #323034" transform="translate(251.922348 237.135432)rotate(-30)scale(0.12 -0.12)">
       <use xlink:href="#STIXGeneral-Regular-32"/>
       <use xlink:href="#STIXGeneral-Regular-30" x="49.999985"/>
       <use xlink:href="#STIXGeneral-Regular-31" x="99.999969"/>
       <use xlink:href="#STIXGeneral-Regular-38" x="149.999954"/>
       <use xlink:href="#STIXGeneral-Regular-2d" x="199.999939"/>
       <use xlink:href="#STIXGeneral-Regular-31" x="233.299927"/>
       <use xlink:href="#STIXGeneral-Regular-30" x="283.299911"/>
      </g>
     </g>
    </g>
    <g id="xtick_9">
     <g id="line2d_9">
      <g>
       <use xlink:href="#m4662eaae7d" x="322.559971" y="203.04" style="fill: #323034; stroke: #323034; stroke-width: 0.8"/>
      </g>
     </g>
     <g id="text_9">
      <!-- 2019-01 -->
      <g style="fill: #323034" transform="translate(286.620557 237.135432)rotate(-30)scale(0.12 -0.12)">
       <defs>
        <path id="STIXGeneral-Regular-39" d="M 378 -141 
L 358 -13 
Q 1094 115 1603 608 
Q 2112 1101 2304 1882 
Q 1933 1517 1344 1517 
Q 826 1517 509 1875 
Q 192 2234 192 2816 
Q 192 3462 573 3894 
Q 954 4326 1523 4326 
Q 2131 4326 2528 3840 
Q 2938 3328 2938 2522 
Q 2938 1958 2742 1462 
Q 2547 966 2170 621 
Q 1773 262 1395 105 
Q 1018 -51 378 -141 
z
M 2317 2272 
L 2317 2522 
Q 2317 4147 1472 4147 
Q 1171 4147 1005 3930 
Q 909 3802 845 3546 
Q 781 3290 781 3034 
Q 781 2464 995 2128 
Q 1210 1792 1568 1792 
Q 1824 1792 2070 1917 
Q 2317 2042 2317 2272 
z
" transform="scale(0.015625)"/>
       </defs>
       <use xlink:href="#STIXGeneral-Regular-32"/>
       <use xlink:href="#STIXGeneral-Regular-30" x="49.999985"/>
       <use xlink:href="#STIXGeneral-Regular-31" x="99.999969"/>
       <use xlink:href="#STIXGeneral-Regular-39" x="149.999954"/>
       <use xlink:href="#STIXGeneral-Regular-2d" x="199.999939"/>
       <use xlink:href="#STIXGeneral-Regular-30" x="233.299927"/>
       <use xlink:href="#STIXGeneral-Regular-31" x="283.299911"/>
      </g>
     </g>
    </g>
    <g id="xtick_10">
     <g id="line2d_10">
      <g>
       <use xlink:href="#m4662eaae7d" x="356.503871" y="203.04" style="fill: #323034; stroke: #323034; stroke-width: 0.8"/>
      </g>
     </g>
     <g id="text_10">
      <!-- 2019-04 -->
      <g style="fill: #323034" transform="translate(320.564457 237.135432)rotate(-30)scale(0.12 -0.12)">
       <use xlink:href="#STIXGeneral-Regular-32"/>
       <use xlink:href="#STIXGeneral-Regular-30" x="49.999985"/>
       <use xlink:href="#STIXGeneral-Regular-31" x="99.999969"/>
       <use xlink:href="#STIXGeneral-Regular-39" x="149.999954"/>
       <use xlink:href="#STIXGeneral-Regular-2d" x="199.999939"/>
       <use xlink:href="#STIXGeneral-Regular-30" x="233.299927"/>
       <use xlink:href="#STIXGeneral-Regular-34" x="283.299911"/>
      </g>
     </g>
    </g>
    <g id="text_11">
     <!-- Date -->
     <g transform="translate(202.422164 250.586512)scale(0.12 -0.12)">
      <defs>
       <path id="STIXGeneral-Regular-44" d="M 102 4237 
L 1830 4237 
Q 3078 4237 3750 3654 
Q 4384 3110 4384 2138 
Q 4384 966 3514 410 
Q 2880 0 1901 0 
L 102 0 
L 102 122 
Q 474 147 570 252 
Q 666 358 666 736 
L 666 3520 
Q 666 3891 570 3990 
Q 474 4090 102 4115 
L 102 4237 
z
M 1318 3731 
L 1318 538 
Q 1318 365 1379 301 
Q 1440 237 1626 237 
Q 2125 237 2432 307 
Q 2739 378 3021 570 
Q 3686 1018 3686 2099 
Q 3686 3027 3078 3558 
Q 2803 3802 2476 3901 
Q 2150 4000 1658 4000 
Q 1472 4000 1395 3942 
Q 1318 3885 1318 3731 
z
" transform="scale(0.015625)"/>
       <path id="STIXGeneral-Regular-61" d="M 2829 422 
L 2829 243 
Q 2586 -64 2253 -64 
Q 1888 -64 1843 403 
L 1837 403 
Q 1427 -64 909 -64 
Q 608 -64 422 112 
Q 237 288 237 602 
Q 237 1050 685 1350 
Q 992 1555 1837 1869 
L 1837 2214 
Q 1837 2502 1699 2646 
Q 1562 2790 1338 2790 
Q 1146 2790 1018 2697 
Q 890 2605 890 2477 
Q 890 2419 909 2348 
Q 928 2278 928 2208 
Q 928 2112 841 2029 
Q 755 1946 634 1946 
Q 525 1946 441 2029 
Q 358 2112 358 2240 
Q 358 2547 685 2752 
Q 986 2944 1421 2944 
Q 1939 2944 2176 2656 
Q 2291 2522 2323 2384 
Q 2355 2246 2355 1946 
L 2355 723 
Q 2355 301 2554 301 
Q 2682 301 2829 422 
z
M 1837 813 
L 1837 1715 
Q 1248 1510 1018 1293 
Q 800 1094 800 800 
Q 800 557 921 432 
Q 1043 307 1242 307 
Q 1453 307 1613 410 
Q 1747 506 1792 589 
Q 1837 672 1837 813 
z
" transform="scale(0.015625)"/>
       <path id="STIXGeneral-Regular-74" d="M 1702 493 
L 1786 422 
Q 1478 -64 1011 -64 
Q 448 -64 448 749 
L 448 2675 
L 109 2675 
Q 83 2694 83 2720 
Q 83 2771 192 2842 
Q 435 2982 813 3526 
Q 826 3546 874 3606 
Q 922 3667 941 3706 
Q 986 3706 986 3622 
L 986 2880 
L 1632 2880 
L 1632 2675 
L 986 2675 
L 986 845 
Q 986 538 1062 403 
Q 1139 269 1318 269 
Q 1510 269 1702 493 
z
" transform="scale(0.015625)"/>
       <path id="STIXGeneral-Regular-65" d="M 2611 1050 
L 2714 1005 
Q 2330 -64 1376 -64 
Q 813 -64 486 329 
Q 160 723 160 1389 
Q 160 2074 525 2509 
Q 890 2944 1485 2944 
Q 2061 2944 2374 2502 
Q 2560 2246 2592 1773 
L 621 1773 
Q 646 1370 700 1158 
Q 755 947 915 730 
Q 1184 378 1626 378 
Q 1939 378 2153 531 
Q 2368 685 2611 1050 
z
M 634 1978 
L 1939 1978 
Q 1882 2381 1750 2547 
Q 1619 2714 1312 2714 
Q 1043 2714 864 2525 
Q 685 2336 634 1978 
z
" transform="scale(0.015625)"/>
      </defs>
      <use xlink:href="#STIXGeneral-Regular-44"/>
      <use xlink:href="#STIXGeneral-Regular-61" x="72.199982"/>
      <use xlink:href="#STIXGeneral-Regular-74" x="116.599976"/>
      <use xlink:href="#STIXGeneral-Regular-65" x="144.399963"/>
     </g>
    </g>
   </g>
   <g id="matplotlib.axis_2">
    <g id="ytick_1">
     <g id="line2d_11">
      <defs>
       <path id="mc8f42e33f8" d="M 0 0 
L -3.5 0 
" style="stroke: #323034; stroke-width: 0.8"/>
      </defs>
      <g>
       <use xlink:href="#mc8f42e33f8" x="46.350914" y="182.665291" style="fill: #323034; stroke: #323034; stroke-width: 0.8"/>
      </g>
     </g>
     <g id="text_12">
      <!-- $\mathdefault{30}$ -->
      <g style="fill: #323034" transform="translate(27.350914 186.763104)scale(0.12 -0.12)">
       <defs>
        <path id="STIXGeneral-Regular-33" d="M 390 3264 
L 288 3290 
Q 435 3770 748 4048 
Q 1062 4326 1542 4326 
Q 1990 4326 2265 4083 
Q 2541 3840 2541 3450 
Q 2541 2925 1946 2566 
Q 2298 2413 2477 2227 
Q 2758 1914 2758 1402 
Q 2758 890 2464 506 
Q 2246 211 1840 60 
Q 1434 -90 979 -90 
Q 262 -90 262 275 
Q 262 378 339 442 
Q 416 506 525 506 
Q 685 506 915 339 
Q 1197 141 1466 141 
Q 1818 141 2058 425 
Q 2298 710 2298 1120 
Q 2298 1856 1632 2048 
Q 1434 2112 979 2112 
L 979 2202 
Q 1338 2323 1517 2432 
Q 2035 2726 2035 3290 
Q 2035 3610 1852 3776 
Q 1670 3942 1344 3942 
Q 768 3942 390 3264 
z
" transform="scale(0.015625)"/>
       </defs>
       <use xlink:href="#STIXGeneral-Regular-33" transform="translate(0 0.40625)"/>
       <use xlink:href="#STIXGeneral-Regular-30" transform="translate(49.999985 0.40625)"/>
      </g>
     </g>
    </g>
    <g id="ytick_2">
     <g id="line2d_12">
      <g>
       <use xlink:href="#mc8f42e33f8" x="46.350914" y="149.031874" style="fill: #323034; stroke: #323034; stroke-width: 0.8"/>
      </g>
     </g>
     <g id="text_13">
      <!-- $\mathdefault{35}$ -->
      <g style="fill: #323034" transform="translate(27.350914 153.129686)scale(0.12 -0.12)">
       <defs>
        <path id="STIXGeneral-Regular-35" d="M 2803 4358 
L 2573 3814 
Q 2534 3731 2400 3731 
L 1158 3731 
L 902 3187 
Q 1606 3053 1920 2896 
Q 2234 2739 2502 2368 
Q 2726 2061 2726 1555 
Q 2726 1094 2576 780 
Q 2426 467 2099 224 
Q 1664 -90 1011 -90 
Q 646 -90 422 19 
Q 198 128 198 307 
Q 198 550 486 550 
Q 717 550 960 352 
Q 1210 147 1414 147 
Q 1747 147 2012 480 
Q 2278 813 2278 1229 
Q 2278 1843 1850 2189 
Q 1293 2637 486 2637 
Q 410 2637 410 2688 
L 416 2720 
L 1114 4237 
L 2438 4237 
Q 2547 4237 2608 4269 
Q 2669 4301 2746 4403 
L 2803 4358 
z
" transform="scale(0.015625)"/>
       </defs>
       <use xlink:href="#STIXGeneral-Regular-33" transform="translate(0 0.203125)"/>
       <use xlink:href="#STIXGeneral-Regular-35" transform="translate(49.999985 0.203125)"/>
      </g>
     </g>
    </g>
    <g id="ytick_3">
     <g id="line2d_13">
      <g>
       <use xlink:href="#mc8f42e33f8" x="46.350914" y="115.398456" style="fill: #323034; stroke: #323034; stroke-width: 0.8"/>
      </g>
     </g>
     <g id="text_14">
      <!-- $\mathdefault{40}$ -->
      <g style="fill: #323034" transform="translate(27.350914 119.496269)scale(0.12 -0.12)">
       <use xlink:href="#STIXGeneral-Regular-34" transform="translate(0 0.40625)"/>
       <use xlink:href="#STIXGeneral-Regular-30" transform="translate(49.999985 0.40625)"/>
      </g>
     </g>
    </g>
    <g id="ytick_4">
     <g id="line2d_14">
      <g>
       <use xlink:href="#mc8f42e33f8" x="46.350914" y="81.765039" style="fill: #323034; stroke: #323034; stroke-width: 0.8"/>
      </g>
     </g>
     <g id="text_15">
      <!-- $\mathdefault{45}$ -->
      <g style="fill: #323034" transform="translate(27.350914 85.862851)scale(0.12 -0.12)">
       <use xlink:href="#STIXGeneral-Regular-34" transform="translate(0 0.203125)"/>
       <use xlink:href="#STIXGeneral-Regular-35" transform="translate(49.999985 0.203125)"/>
      </g>
     </g>
    </g>
    <g id="ytick_5">
     <g id="line2d_15">
      <g>
       <use xlink:href="#mc8f42e33f8" x="46.350914" y="48.131621" style="fill: #323034; stroke: #323034; stroke-width: 0.8"/>
      </g>
     </g>
     <g id="text_16">
      <!-- $\mathdefault{50}$ -->
      <g style="fill: #323034" transform="translate(27.350914 52.229434)scale(0.12 -0.12)">
       <use xlink:href="#STIXGeneral-Regular-35" transform="translate(0 0.203125)"/>
       <use xlink:href="#STIXGeneral-Regular-30" transform="translate(49.999985 0.203125)"/>
      </g>
     </g>
    </g>
    <g id="ytick_6">
     <g id="line2d_16">
      <g>
       <use xlink:href="#mc8f42e33f8" x="46.350914" y="14.498204" style="fill: #323034; stroke: #323034; stroke-width: 0.8"/>
      </g>
     </g>
     <g id="text_17">
      <!-- $\mathdefault{55}$ -->
      <g style="fill: #323034" transform="translate(27.350914 18.596016)scale(0.12 -0.12)">
       <use xlink:href="#STIXGeneral-Regular-35" transform="translate(0 0.203125)"/>
       <use xlink:href="#STIXGeneral-Regular-35" transform="translate(49.999985 0.203125)"/>
      </g>
     </g>
    </g>
    <g id="text_18">
     <!-- Close ($) -->
     <g transform="translate(21.746539 127.284375)rotate(-90)scale(0.12 -0.12)">
      <defs>
       <path id="STIXGeneral-Regular-43" d="M 3930 838 
L 4051 723 
Q 3482 -90 2304 -90 
Q 1376 -90 794 480 
Q 179 1082 179 2080 
Q 179 3014 755 3661 
Q 1357 4326 2310 4326 
Q 2720 4326 3072 4230 
Q 3475 4115 3514 4115 
Q 3725 4115 3782 4326 
L 3910 4326 
L 3968 2874 
L 3821 2874 
Q 3718 3334 3488 3584 
Q 3034 4070 2458 4070 
Q 1747 4070 1334 3548 
Q 922 3027 922 2182 
Q 922 1152 1382 653 
Q 1811 192 2522 192 
Q 2944 192 3251 339 
Q 3558 486 3930 838 
z
" transform="scale(0.015625)"/>
       <path id="STIXGeneral-Regular-6c" d="M 1645 0 
L 134 0 
L 134 96 
Q 435 122 531 221 
Q 627 320 627 589 
L 627 3590 
Q 627 3821 569 3910 
Q 512 4000 358 4000 
Q 224 4000 122 3987 
L 122 4090 
Q 730 4237 1133 4371 
L 1165 4346 
L 1165 557 
Q 1165 288 1254 201 
Q 1344 115 1645 96 
L 1645 0 
z
" transform="scale(0.015625)"/>
       <path id="STIXGeneral-Regular-6f" d="M 3008 1478 
Q 3008 806 2608 371 
Q 2208 -64 1568 -64 
Q 979 -64 582 368 
Q 186 800 186 1459 
Q 186 2125 582 2534 
Q 979 2944 1626 2944 
Q 2221 2944 2614 2537 
Q 3008 2131 3008 1478 
z
M 2432 1306 
Q 2432 2035 2112 2445 
Q 1856 2765 1504 2765 
Q 1171 2765 966 2493 
Q 762 2221 762 1747 
Q 762 928 1101 435 
Q 1318 115 1677 115 
Q 2029 115 2230 432 
Q 2432 749 2432 1306 
z
" transform="scale(0.015625)"/>
       <path id="STIXGeneral-Regular-73" d="M 998 1926 
L 1664 1523 
Q 1984 1331 2105 1164 
Q 2227 998 2227 736 
Q 2227 416 1961 176 
Q 1696 -64 1331 -64 
Q 1030 -64 864 -6 
Q 691 51 570 51 
Q 461 51 416 -26 
L 333 -26 
L 333 979 
L 435 979 
Q 538 512 730 294 
Q 922 77 1248 77 
Q 1485 77 1632 211 
Q 1779 346 1779 550 
Q 1779 845 1440 1030 
L 1094 1222 
Q 326 1651 326 2150 
Q 326 2522 566 2730 
Q 806 2938 1210 2938 
Q 1491 2938 1638 2867 
Q 1754 2816 1818 2816 
Q 1862 2816 1920 2880 
L 1990 2880 
L 2022 2010 
L 1926 2010 
Q 1818 2445 1654 2621 
Q 1491 2797 1203 2797 
Q 986 2797 854 2688 
Q 723 2579 723 2362 
Q 723 2253 796 2128 
Q 870 2003 998 1926 
z
" transform="scale(0.015625)"/>
       <path id="STIXGeneral-Regular-20" transform="scale(0.015625)"/>
       <path id="STIXGeneral-Regular-28" d="M 1946 -1030 
L 1869 -1133 
Q 1126 -710 716 32 
Q 307 774 307 1613 
Q 307 3386 1888 4326 
L 1946 4224 
Q 1293 3667 1075 3126 
Q 858 2586 858 1632 
Q 858 685 1082 96 
Q 1306 -493 1946 -1030 
z
" transform="scale(0.015625)"/>
       <path id="STIXGeneral-Regular-24" d="M 1690 4077 
L 1690 2502 
Q 2234 2208 2445 2045 
Q 2656 1882 2797 1664 
Q 2931 1466 2931 1088 
Q 2931 570 2614 326 
Q 2298 83 1690 0 
L 1690 -557 
L 1472 -557 
L 1472 0 
Q 1062 0 806 73 
Q 550 147 282 326 
L 282 1158 
L 378 1158 
Q 480 685 761 432 
Q 1043 179 1472 179 
L 1472 1984 
Q 800 2362 566 2624 
Q 333 2886 333 3283 
Q 333 3731 659 3974 
Q 986 4218 1472 4250 
L 1472 4653 
L 1690 4653 
L 1690 4250 
Q 2426 4205 2720 3910 
L 2720 3200 
L 2624 3200 
Q 2528 3597 2301 3814 
Q 2074 4032 1690 4077 
z
M 1472 2605 
L 1472 4077 
Q 806 3942 806 3405 
Q 806 3194 937 3037 
Q 1069 2880 1472 2605 
z
M 1690 1875 
L 1690 179 
Q 2086 262 2252 432 
Q 2419 602 2419 941 
Q 2419 1235 2272 1427 
Q 2125 1619 1690 1875 
z
" transform="scale(0.015625)"/>
       <path id="STIXGeneral-Regular-29" d="M 186 4224 
L 262 4326 
Q 992 3891 1408 3148 
Q 1824 2406 1824 1581 
Q 1824 -166 243 -1133 
L 186 -1030 
Q 845 -486 1059 54 
Q 1274 595 1274 1562 
Q 1274 2534 1059 3120 
Q 845 3706 186 4224 
z
" transform="scale(0.015625)"/>
      </defs>
      <use xlink:href="#STIXGeneral-Regular-43"/>
      <use xlink:href="#STIXGeneral-Regular-6c" x="66.699997"/>
      <use xlink:href="#STIXGeneral-Regular-6f" x="94.499985"/>
      <use xlink:href="#STIXGeneral-Regular-73" x="144.499969"/>
      <use xlink:href="#STIXGeneral-Regular-65" x="183.399963"/>
      <use xlink:href="#STIXGeneral-Regular-20" x="227.799957"/>
      <use xlink:href="#STIXGeneral-Regular-28" x="252.799942"/>
      <use xlink:href="#STIXGeneral-Regular-24" x="286.09993"/>
      <use xlink:href="#STIXGeneral-Regular-29" x="336.099915"/>
     </g>
    </g>
   </g>
   <g id="line2d_17">
    <path d="M 61.569096 180.189105 
L 62.323405 178.621815 
L 63.454868 177.819483 
L 64.963486 174.997249 
L 66.472104 174.296772 
L 67.603567 171.942191 
L 68.735031 171.170102 
L 70.243648 168.12122 
L 71.375112 167.427322 
L 72.506575 165.425151 
L 72.883729 165.01781 
L 74.015193 164.57958 
L 75.523811 163.124074 
L 76.655274 162.769672 
L 77.409583 162.048639 
L 78.163892 161.51341 
L 79.295355 161.157918 
L 80.803973 159.763665 
L 81.935436 159.246423 
L 83.444054 157.159739 
L 84.575517 156.635919 
L 85.329826 155.745319 
L 85.706981 155.296071 
L 87.215598 154.820346 
L 88.724216 152.926852 
L 89.855679 152.497206 
L 91.364297 150.758762 
L 92.495761 150.326559 
L 93.627224 149.015461 
L 94.004378 148.842154 
L 95.512996 148.663184 
L 96.267305 148.594263 
L 96.644459 148.63134 
L 98.530232 148.3496 
L 99.284541 148.042338 
L 100.793158 147.793397 
L 101.547467 147.514092 
L 101.924622 147.445305 
L 106.827629 147.20118 
L 107.204784 147.11976 
L 109.090556 146.991873 
L 109.844865 147.163295 
L 111.353483 147.328947 
L 113.993564 147.796761 
L 115.125027 147.543931 
L 117.010799 147.182668 
L 117.387954 146.948095 
L 117.765108 146.846805 
L 119.273726 146.531095 
L 120.028035 146.040598 
L 120.405189 145.941716 
L 121.536653 145.841892 
L 121.913807 145.560434 
L 123.045271 144.170365 
L 124.176734 143.656083 
L 125.685352 141.277461 
L 126.816815 140.6721 
L 128.325433 138.613223 
L 129.456896 138.026791 
L 130.965514 135.901818 
L 132.096977 135.420726 
L 132.851286 134.611143 
L 133.605595 134.198837 
L 135.114213 133.998126 
L 136.245676 133.6171 
L 138.508603 133.268349 
L 138.885757 133.098271 
L 140.394375 132.877138 
L 141.148684 132.402759 
L 141.525838 132.419011 
L 143.034456 132.224609 
L 143.788765 132.141723 
L 144.165919 132.28332 
L 145.674537 132.29676 
L 146.806001 132.663122 
L 147.937464 132.496663 
L 149.446082 131.337777 
L 150.577545 130.915651 
L 152.086163 129.205284 
L 153.217626 128.844572 
L 154.726244 127.608974 
L 155.857707 127.222594 
L 156.612016 126.520099 
L 157.366325 125.458898 
L 158.497788 124.985326 
L 160.006406 123.036901 
L 161.137869 122.445639 
L 161.892178 121.29052 
L 162.646487 120.256319 
L 163.777951 119.644097 
L 165.286568 117.233509 
L 166.418032 116.538804 
L 167.926649 114.078775 
L 169.058113 113.625356 
L 169.812422 112.905117 
L 171.698194 112.044371 
L 173.206812 109.76907 
L 174.338275 109.209248 
L 175.092584 108.53806 
L 175.846893 107.944255 
L 177.35551 107.336203 
L 178.109819 107.090881 
L 178.486974 107.045342 
L 179.995592 107.192037 
L 181.127055 107.446898 
L 183.012827 107.64103 
L 183.389982 107.94439 
L 183.767136 108.478556 
L 185.275754 108.860362 
L 186.407217 110.47521 
L 187.53868 110.671481 
L 188.292989 110.986263 
L 189.047298 110.749955 
L 190.93307 110.55959 
L 191.687379 110.322743 
L 192.818843 110.065865 
L 193.573152 109.633124 
L 196.590387 109.260035 
L 196.967542 108.935055 
L 198.099005 108.555119 
L 199.230468 107.700399 
L 199.607623 107.491078 
L 201.493395 107.442445 
L 201.870549 107.595463 
L 202.247704 107.872629 
L 203.756322 107.930533 
L 204.887785 108.818024 
L 206.019248 109.199441 
L 206.396403 109.500514 
L 207.527866 109.928815 
L 209.036484 109.862181 
L 209.790793 109.44409 
L 210.167947 109.187212 
L 211.29941 108.906292 
L 212.430874 107.270618 
L 212.808028 107.049741 
L 215.070955 106.469632 
L 215.448109 106.63192 
L 216.956727 106.987398 
L 217.711036 106.648965 
L 219.219654 106.284217 
L 220.728272 105.075769 
L 221.859735 104.615502 
L 223.368353 103.073464 
L 224.499816 102.748605 
L 226.008434 101.651523 
L 227.139897 101.308812 
L 228.27136 100.156518 
L 228.648515 99.522259 
L 229.779978 98.75944 
L 230.534287 97.117443 
L 231.288596 95.449925 
L 232.420059 94.672468 
L 233.174368 93.084083 
L 233.928677 91.903308 
L 235.06014 91.224451 
L 236.191604 89.807758 
L 236.568758 89.437508 
L 237.700222 89.176068 
L 239.208839 87.975799 
L 240.717457 87.261883 
L 241.471766 85.892209 
L 241.84892 85.086675 
L 242.980384 84.215032 
L 243.734693 82.539859 
L 244.489002 81.310988 
L 245.997619 80.566438 
L 247.129083 80.007424 
L 248.260546 79.932193 
L 249.014855 79.574817 
L 249.392009 79.323186 
L 249.769164 79.232106 
L 251.277782 79.009493 
L 251.654936 78.561308 
L 252.409245 77.274386 
L 253.540708 76.598489 
L 253.917863 76.0005 
L 254.672172 75.375524 
L 255.049326 74.68511 
L 256.180789 73.994024 
L 257.689407 71.548243 
L 258.82087 70.745117 
L 260.329488 67.576392 
L 261.460952 66.733363 
L 262.21526 64.745426 
L 262.969569 62.246706 
L 264.101033 60.859717 
L 265.60965 55.46298 
L 266.741114 54.378396 
L 268.249732 49.318222 
L 269.381195 48.327812 
L 270.889813 44.534258 
L 272.021276 43.55823 
L 273.529894 39.303979 
L 274.661357 38.122263 
L 276.169975 33.497627 
L 277.678593 32.413851 
L 278.432902 30.328122 
L 278.810056 29.886515 
L 279.941519 29.38648 
L 280.695828 28.612373 
L 281.450137 27.823898 
L 282.5816 27.462245 
L 283.335909 26.58818 
L 283.713064 26.415412 
L 284.090218 26.105877 
L 285.221681 26.008878 
L 285.97599 26.250837 
L 286.730299 25.894551 
L 287.861763 26.153434 
L 288.993226 27.400306 
L 289.37038 27.845935 
L 290.501844 28.488508 
L 292.010461 32.982686 
L 293.141925 33.861057 
L 293.519079 34.892042 
L 294.650543 39.540449 
L 295.782006 41.116605 
L 296.913469 44.936756 
L 297.290624 46.259276 
L 298.422087 47.302208 
L 299.55355 51.89286 
L 299.930705 53.667305 
L 301.062168 55.498726 
L 302.570786 63.430723 
L 303.702249 65.2991 
L 305.210867 73.854849 
L 306.34233 75.94113 
L 307.096639 80.025411 
L 307.850948 82.063865 
L 308.982411 83.928865 
L 310.491029 93.216141 
L 311.622493 95.353209 
L 311.999647 97.36142 
L 312.753956 99.287014 
L 313.13111 101.320759 
L 314.262574 103.434983 
L 315.016883 107.252456 
L 315.771191 110.304016 
L 316.902655 112.102529 
L 317.656964 115.435426 
L 318.411273 117.888069 
L 319.542736 118.588963 
L 320.297045 119.400147 
L 320.674199 120.278369 
L 321.051354 120.753287 
L 323.31428 120.97107 
L 323.691435 121.083257 
L 324.822898 121.216123 
L 326.331516 122.473084 
L 327.840134 122.699989 
L 328.594443 122.459106 
L 328.971597 122.253149 
L 330.857369 121.907343 
L 331.611678 121.250523 
L 332.743141 120.907933 
L 333.49745 119.807232 
L 334.251759 118.202865 
L 335.383223 117.471203 
L 336.89184 113.972682 
L 338.023304 112.456178 
L 339.531921 107.12769 
L 341.040539 105.964511 
L 342.172003 102.353924 
L 343.303466 101.189669 
L 344.434929 97.380806 
L 344.812084 95.995149 
L 345.943547 94.527132 
L 347.452165 89.044158 
L 348.583628 87.962265 
L 349.715091 84.962702 
L 350.092246 83.971351 
L 351.223709 82.850766 
L 352.732327 78.171187 
L 353.86379 77.067123 
L 354.618099 74.78632 
L 355.372408 72.245544 
L 356.503871 71.086267 
L 358.012489 67.564485 
L 359.143953 67.18993 
L 359.898261 66.221422 
L 360.65257 65.127166 
L 361.784034 64.771822 
L 362.161188 64.497225 
L 362.538343 64.413936 
L 364.424115 64.591412 
L 365.555578 65.398143 
L 365.932733 65.803615 
L 365.932733 65.803615 
" clip-path="url(#pe87a3477c8)" style="fill: none; stroke: #bc80bd; stroke-width: 2; stroke-linecap: square"/>
   </g>
   <g id="patch_3">
    <path d="M 46.350914 203.04 
L 46.350914 7.2 
" style="fill: none; stroke: #000000; stroke-width: 0.6; stroke-linejoin: miter; stroke-linecap: square"/>
   </g>
   <g id="patch_4">
    <path d="M 46.350914 203.04 
L 381.150914 203.04 
" style="fill: none; stroke: #000000; stroke-width: 0.6; stroke-linejoin: miter; stroke-linecap: square"/>
   </g>
  </g>
 </g>
 <defs>
  <clipPath id="pe87a3477c8">
   <rect x="46.350914" y="7.2" width="334.8" height="195.84"/>
  </clipPath>
 </defs>
</svg>
