<?xml version="1.0" encoding="utf-8" standalone="no"?>
<!DOCTYPE svg PUBLIC "-//W3C//DTD SVG 1.1//EN"
  "http://www.w3.org/Graphics/SVG/1.1/DTD/svg11.dtd">
<svg xmlns:xlink="http://www.w3.org/1999/xlink" width="388.350914pt" height="260.390887pt" viewBox="0 0 388.350914 260.390887" xmlns="http://www.w3.org/2000/svg" version="1.1">
 <metadata>
  <rdf:RDF xmlns:dc="http://purl.org/dc/elements/1.1/" xmlns:cc="http://creativecommons.org/ns#" xmlns:rdf="http://www.w3.org/1999/02/22-rdf-syntax-ns#">
   <cc:Work>
    <dc:type rdf:resource="http://purl.org/dc/dcmitype/StillImage"/>
    <dc:date>2022-07-21T18:11:57.345902</dc:date>
    <dc:format>image/svg+xml</dc:format>
    <dc:creator>
     <cc:Agent>
      <dc:title>Matplotlib v3.5.2, https://matplotlib.org/</dc:title>
     </cc:Agent>
    </dc:creator>
   </cc:Work>
  </rdf:RDF>
 </metadata>
 <defs>
  <style type="text/css">*{stroke-linejoin: round; stroke-linecap: butt}</style>
 </defs>
 <g id="figure_1">
  <g id="patch_1">
   <path d="M -0 260.390887 
L 388.350914 260.390887 
L 388.350914 0 
L -0 0 
L -0 260.390887 
z
" style="fill: none"/>
  </g>
  <g id="axes_1">
   <g id="patch_2">
    <path d="M 46.350914 203.04 
L 381.150914 203.04 
L 381.150914 7.2 
L 46.350914 7.2 
z
" style="fill: #ffffff"/>
   </g>
   <g id="PolyCollection_1">
    <defs>
     <path id="m606a3fc6cb" d="M 61.569096 -94.150746 
L 61.569096 -66.252705 
L 61.946251 -67.147071 
L 62.323405 -68.104696 
L 63.454868 -69.047533 
L 63.832023 -69.939892 
L 64.209177 -70.777342 
L 64.586332 -71.648544 
L 64.963486 -72.507908 
L 66.472104 -73.448868 
L 66.849258 -74.438234 
L 67.226413 -75.391492 
L 67.603567 -76.401205 
L 68.735031 -77.489774 
L 69.112185 -78.618465 
L 69.489339 -79.794978 
L 69.866494 -81.066961 
L 70.243648 -82.207844 
L 71.375112 -83.415948 
L 71.752266 -84.706704 
L 72.129421 -86.13899 
L 72.506575 -87.754807 
L 72.883729 -88.523359 
L 74.015193 -89.369974 
L 74.392347 -90.206254 
L 74.769502 -90.939773 
L 75.146656 -91.601983 
L 75.523811 -92.249152 
L 76.655274 -92.822889 
L 77.032428 -93.462669 
L 77.409583 -94.016382 
L 77.786737 -94.417255 
L 78.163892 -94.791036 
L 79.295355 -95.141143 
L 79.672509 -95.446715 
L 80.049664 -95.710343 
L 80.426818 -95.980892 
L 80.803973 -96.237834 
L 81.935436 -96.259266 
L 82.312591 -96.282794 
L 82.689745 -96.445143 
L 83.066899 -96.394913 
L 83.444054 -96.342233 
L 84.575517 -96.353073 
L 84.952672 -96.47162 
L 85.329826 -96.76824 
L 85.706981 -97.082472 
L 87.215598 -97.436213 
L 87.592753 -97.765236 
L 87.969907 -98.125053 
L 88.347062 -98.539588 
L 88.724216 -98.867258 
L 89.855679 -99.208886 
L 90.232834 -99.621037 
L 90.609988 -99.963506 
L 90.987143 -100.434335 
L 91.364297 -100.788491 
L 92.495761 -101.221426 
L 92.872915 -101.692268 
L 93.250069 -102.161326 
L 93.627224 -102.45963 
L 94.004378 -102.693496 
L 95.135842 -102.806216 
L 95.512996 -102.991293 
L 95.890151 -103.107184 
L 96.267305 -103.114321 
L 96.644459 -103.039181 
L 97.775923 -103.215394 
L 98.153077 -103.349494 
L 98.530232 -103.53971 
L 98.907386 -103.833061 
L 99.284541 -104.149213 
L 100.416004 -104.510723 
L 100.793158 -104.691803 
L 101.170313 -105.05361 
L 101.547467 -105.339578 
L 101.924622 -105.499602 
L 103.433239 -105.637818 
L 103.810394 -105.71243 
L 104.187548 -105.623846 
L 104.564703 -105.701744 
L 105.696166 -105.827307 
L 106.073321 -105.992979 
L 106.450475 -105.979494 
L 106.827629 -106.018067 
L 107.204784 -106.127409 
L 108.336247 -106.284995 
L 108.713402 -106.342183 
L 109.090556 -106.321953 
L 109.467711 -106.281196 
L 109.844865 -106.243554 
L 110.976328 -106.236425 
L 111.353483 -106.2614 
L 111.730637 -106.283105 
L 112.107792 -106.27767 
L 112.484946 -106.259315 
L 113.616409 -106.187843 
L 113.993564 -106.155869 
L 114.370718 -106.090166 
L 114.747873 -106.067792 
L 115.125027 -106.027674 
L 116.256491 -105.917992 
L 117.010799 -105.773382 
L 117.387954 -105.606871 
L 117.765108 -105.60599 
L 118.896572 -105.56881 
L 119.273726 -105.467124 
L 119.650881 -105.316719 
L 120.028035 -105.210913 
L 120.405189 -105.188991 
L 121.536653 -105.176047 
L 121.913807 -105.302549 
L 122.290962 -105.580134 
L 122.668116 -105.812527 
L 123.045271 -106.166125 
L 124.176734 -106.591263 
L 124.553888 -107.170724 
L 124.931043 -107.467057 
L 125.308197 -107.87579 
L 125.685352 -108.250064 
L 126.816815 -108.676636 
L 127.193969 -109.123771 
L 127.571124 -109.629521 
L 127.948278 -110.324017 
L 128.325433 -110.8755 
L 129.456896 -111.632033 
L 129.834051 -112.393453 
L 130.211205 -113.231293 
L 130.588359 -114.032897 
L 130.965514 -115.030891 
L 132.096977 -115.912198 
L 132.474132 -116.748466 
L 132.851286 -117.506911 
L 133.228441 -118.157415 
L 133.605595 -118.53519 
L 134.737058 -118.708026 
L 135.114213 -119.010713 
L 135.491367 -119.334003 
L 135.868522 -119.532499 
L 136.245676 -119.839569 
L 137.377139 -120.142695 
L 137.754294 -120.33597 
L 138.131448 -120.425017 
L 138.508603 -120.569525 
L 138.885757 -120.946208 
L 140.394375 -121.46802 
L 140.771529 -122.110081 
L 141.148684 -122.661587 
L 141.525838 -122.637065 
L 142.657302 -122.740166 
L 143.034456 -122.877175 
L 143.411611 -122.921318 
L 143.788765 -122.926941 
L 144.165919 -122.792552 
L 145.297383 -122.841313 
L 145.674537 -122.78359 
L 146.051692 -122.708967 
L 146.428846 -122.599553 
L 146.806001 -122.535218 
L 147.937464 -122.564888 
L 148.314618 -122.49863 
L 148.691773 -122.363688 
L 149.068927 -122.302236 
L 149.446082 -122.211118 
L 150.577545 -121.949393 
L 150.954699 -121.647128 
L 151.331854 -121.363445 
L 151.709008 -121.04698 
L 152.086163 -120.811305 
L 153.217626 -120.642496 
L 153.594781 -120.532869 
L 153.971935 -120.556094 
L 154.349089 -120.627194 
L 154.726244 -120.703236 
L 155.857707 -120.900892 
L 156.234862 -121.009006 
L 156.612016 -121.111017 
L 156.989171 -121.247034 
L 157.366325 -121.472166 
L 158.497788 -121.670162 
L 158.874943 -121.953444 
L 159.252097 -122.255702 
L 159.629252 -122.718144 
L 160.006406 -123.37627 
L 161.137869 -124.163738 
L 161.515024 -125.089766 
L 161.892178 -125.828944 
L 162.269333 -126.514566 
L 162.646487 -127.298135 
L 163.777951 -128.069388 
L 164.155105 -128.894447 
L 164.532259 -129.700385 
L 164.909414 -130.62874 
L 165.286568 -131.43167 
L 166.418032 -132.269631 
L 166.795186 -133.109465 
L 167.172341 -133.982527 
L 167.549495 -134.840351 
L 167.926649 -135.791139 
L 169.058113 -136.636562 
L 169.435267 -137.24998 
L 169.812422 -137.844321 
L 170.566731 -138.468059 
L 171.698194 -139.596651 
L 172.075348 -140.774944 
L 172.452503 -142.072582 
L 172.829657 -143.379834 
L 173.206812 -144.952154 
L 174.338275 -146.597866 
L 174.715429 -147.484675 
L 175.092584 -147.955629 
L 175.469738 -148.184973 
L 175.846893 -148.678337 
L 176.978356 -148.961038 
L 177.35551 -148.942677 
L 177.732665 -148.917622 
L 178.109819 -148.924674 
L 178.486974 -148.917113 
L 179.618437 -148.902803 
L 179.995592 -148.779143 
L 180.372746 -148.689802 
L 180.7499 -148.449107 
L 181.127055 -148.26401 
L 182.635673 -147.998671 
L 183.012827 -147.82319 
L 183.389982 -146.815604 
L 183.767136 -145.198028 
L 185.275754 -144.525754 
L 185.652908 -143.508625 
L 186.030063 -142.037905 
L 186.407217 -140.93123 
L 187.53868 -140.573125 
L 187.915835 -140.26005 
L 188.292989 -140.143164 
L 188.670144 -140.2464 
L 189.047298 -140.347234 
L 190.555916 -140.462028 
L 190.93307 -140.546167 
L 191.310225 -140.663619 
L 191.687379 -140.711033 
L 192.818843 -140.769847 
L 193.195997 -140.828602 
L 193.573152 -140.898424 
L 193.950306 -140.924164 
L 194.32746 -140.926806 
L 195.458924 -140.953972 
L 195.836078 -140.985215 
L 196.213233 -140.995028 
L 196.590387 -141.017412 
L 196.967542 -141.148892 
L 198.099005 -141.267849 
L 198.476159 -141.408219 
L 198.853314 -141.646992 
L 199.230468 -141.768732 
L 199.607623 -141.895615 
L 200.739086 -141.968614 
L 201.11624 -141.988359 
L 201.493395 -141.912617 
L 201.870549 -141.737751 
L 202.247704 -141.346068 
L 203.756322 -141.302735 
L 204.133476 -141.062896 
L 204.51063 -140.743215 
L 204.887785 -140.48255 
L 206.019248 -140.176763 
L 206.396403 -139.9659 
L 206.773557 -139.884107 
L 207.150712 -139.834849 
L 207.527866 -139.674392 
L 208.659329 -139.661169 
L 209.036484 -139.72436 
L 209.413638 -139.913942 
L 209.790793 -140.193449 
L 210.167947 -140.463444 
L 211.29941 -140.735516 
L 211.676565 -141.553316 
L 212.053719 -142.838329 
L 212.430874 -143.435604 
L 212.808028 -144.04376 
L 213.939492 -145.197396 
L 214.316646 -145.95266 
L 214.6938 -146.044367 
L 215.070955 -146.03315 
L 215.448109 -145.606809 
L 216.579573 -145.18279 
L 216.956727 -145.038341 
L 217.333882 -145.141653 
L 217.711036 -145.282066 
L 219.219654 -145.278538 
L 219.596808 -145.17892 
L 219.973963 -145.038218 
L 220.351117 -144.870497 
L 220.728272 -144.619011 
L 221.859735 -144.508302 
L 222.236889 -144.427408 
L 222.614044 -144.411751 
L 222.991198 -144.375993 
L 223.368353 -144.439474 
L 224.499816 -144.481367 
L 224.87697 -144.45456 
L 225.254125 -144.427255 
L 225.631279 -144.408267 
L 226.008434 -144.435781 
L 227.139897 -144.466256 
L 227.517052 -144.535559 
L 227.894206 -144.707446 
L 228.27136 -144.900422 
L 228.648515 -145.256044 
L 229.779978 -145.755772 
L 230.157133 -146.540604 
L 230.534287 -146.867716 
L 230.911442 -147.506225 
L 231.288596 -148.339596 
L 232.420059 -149.122081 
L 232.797214 -150.019905 
L 233.174368 -150.837625 
L 233.551523 -151.465977 
L 233.928677 -152.03515 
L 235.06014 -152.931888 
L 235.437295 -153.68672 
L 235.814449 -154.253601 
L 236.191604 -154.868225 
L 236.568758 -155.372252 
L 237.700222 -155.764177 
L 238.077376 -156.166526 
L 238.45453 -156.4313 
L 238.831685 -156.75775 
L 239.208839 -157.399626 
L 240.717457 -158.731818 
L 241.094612 -160.087343 
L 241.471766 -161.84877 
L 241.84892 -163.715913 
L 242.980384 -165.709013 
L 243.357538 -168.248047 
L 243.734693 -170.615759 
L 244.111847 -172.717666 
L 244.489002 -173.81009 
L 245.620465 -174.979308 
L 245.997619 -175.331206 
L 246.374774 -175.585101 
L 246.751928 -175.780734 
L 247.129083 -175.90705 
L 248.260546 -175.931054 
L 248.6377 -175.964735 
L 249.014855 -175.978012 
L 249.392009 -176.111232 
L 249.769164 -176.185443 
L 250.900627 -176.299662 
L 251.277782 -176.465054 
L 251.654936 -176.181098 
L 252.03209 -175.535262 
L 252.409245 -175.042724 
L 253.540708 -174.665904 
L 253.917863 -174.540574 
L 254.672172 -174.526581 
L 255.049326 -174.531309 
L 256.180789 -174.677761 
L 256.557944 -174.668434 
L 256.935098 -174.622069 
L 257.312253 -174.564389 
L 257.689407 -174.420372 
L 258.82087 -174.176424 
L 259.198025 -174.194919 
L 259.575179 -174.321204 
L 259.952334 -174.463417 
L 260.329488 -174.719501 
L 261.460952 -175.008641 
L 261.838106 -175.41297 
L 262.21526 -175.84095 
L 262.592415 -176.435544 
L 262.969569 -177.00452 
L 264.101033 -177.654402 
L 264.478187 -178.429146 
L 264.855342 -179.563822 
L 265.232496 -180.69838 
L 265.60965 -181.948505 
L 266.741114 -183.174666 
L 267.118268 -184.448367 
L 267.495423 -185.654197 
L 267.872577 -187.134715 
L 268.249732 -188.601984 
L 269.381195 -189.928597 
L 269.758349 -191.099551 
L 270.135504 -192.333037 
L 270.512658 -193.834468 
L 270.889813 -195.10309 
L 272.021276 -196.423073 
L 272.39843 -197.839197 
L 272.775585 -199.259812 
L 273.152739 -200.855187 
L 273.529894 -202.386685 
L 274.661357 -204.033128 
L 275.038512 -205.735125 
L 275.415666 -207.354714 
L 275.79282 -208.938228 
L 276.169975 -210.66981 
L 277.678593 -212.887184 
L 278.055747 -215.450891 
L 278.432902 -218.020152 
L 278.810056 -219.154329 
L 279.941519 -219.99647 
L 280.318674 -220.670653 
L 280.695828 -221.41711 
L 281.072983 -222.368105 
L 281.450137 -223.13809 
L 282.5816 -223.921856 
L 282.958755 -224.859344 
L 283.335909 -225.755147 
L 283.713064 -226.236296 
L 284.090218 -226.95885 
L 285.221681 -227.197486 
L 285.598836 -226.780318 
L 285.97599 -226.606687 
L 286.353145 -226.845467 
L 286.730299 -227.214449 
L 287.861763 -226.403326 
L 288.238917 -224.804558 
L 288.616071 -223.544388 
L 288.993226 -222.929639 
L 289.37038 -222.183671 
L 290.501844 -221.059179 
L 290.878998 -218.749046 
L 291.256153 -216.392373 
L 291.633307 -213.497946 
L 292.010461 -211.450254 
L 293.141925 -209.779907 
L 293.519079 -207.412057 
L 293.896234 -204.015747 
L 294.273388 -200.898466 
L 294.650543 -197.411799 
L 295.782006 -194.444742 
L 296.15916 -191.683336 
L 296.536315 -189.698127 
L 296.913469 -187.662578 
L 297.290624 -185.598558 
L 298.422087 -184.143436 
L 298.799241 -182.050277 
L 299.176396 -179.859346 
L 299.55355 -177.210092 
L 299.930705 -174.771924 
L 301.062168 -172.364985 
L 301.439323 -170.122945 
L 301.816477 -168.167457 
L 302.193631 -165.919577 
L 302.570786 -163.603217 
L 303.702249 -161.542165 
L 304.079404 -159.149646 
L 304.456558 -156.576499 
L 304.833713 -153.471944 
L 305.210867 -150.144621 
L 306.34233 -147.947976 
L 306.719485 -145.733523 
L 307.096639 -143.700451 
L 307.850948 -141.88974 
L 308.982411 -140.124085 
L 309.359566 -137.221705 
L 309.73672 -135.046035 
L 310.113875 -133.0531 
L 310.491029 -131.247359 
L 311.622493 -129.876327 
L 311.999647 -128.582716 
L 312.753956 -127.209139 
L 313.13111 -125.829192 
L 314.262574 -125.015878 
L 314.639728 -124.704891 
L 315.016883 -124.004603 
L 315.394037 -123.297457 
L 315.771191 -122.547391 
L 316.902655 -122.250193 
L 317.279809 -122.061732 
L 317.656964 -122.163418 
L 318.034118 -121.859472 
L 318.411273 -121.500345 
L 319.542736 -121.489886 
L 320.297045 -121.742324 
L 320.674199 -122.217708 
L 321.051354 -122.471405 
L 322.182817 -122.498751 
L 322.937126 -122.524276 
L 323.31428 -122.521411 
L 323.691435 -122.529004 
L 324.822898 -122.531136 
L 325.200053 -122.670567 
L 325.577207 -122.785032 
L 325.954361 -122.885518 
L 326.331516 -123.258351 
L 327.462979 -123.339434 
L 327.840134 -123.36872 
L 328.217288 -123.363367 
L 328.594443 -123.336012 
L 328.971597 -123.296266 
L 330.480215 -123.259005 
L 330.857369 -123.214332 
L 331.234524 -123.248733 
L 331.611678 -123.305479 
L 332.743141 -123.316228 
L 333.120296 -123.495409 
L 333.49745 -123.888936 
L 333.874605 -124.696375 
L 334.251759 -125.854543 
L 335.383223 -126.261063 
L 335.760377 -126.72854 
L 336.137531 -127.223473 
L 336.514686 -127.634456 
L 336.89184 -128.030472 
L 338.023304 -129.730323 
L 338.400458 -130.990155 
L 338.777613 -132.331992 
L 339.154767 -133.278392 
L 339.531921 -134.269344 
L 341.040539 -135.357699 
L 341.417694 -136.676913 
L 341.794848 -138.264581 
L 342.172003 -139.646114 
L 343.303466 -140.918359 
L 343.68062 -142.163786 
L 344.057775 -143.345497 
L 344.434929 -144.919846 
L 344.812084 -146.53533 
L 345.943547 -148.362951 
L 346.320701 -149.687916 
L 346.697856 -151.29925 
L 347.07501 -153.1823 
L 347.452165 -154.179887 
L 348.583628 -155.153229 
L 348.960783 -156.182757 
L 349.337937 -156.911055 
L 349.715091 -157.413242 
L 350.092246 -157.957419 
L 351.223709 -158.778381 
L 351.600864 -159.579313 
L 351.978018 -160.55127 
L 352.355173 -161.528692 
L 352.732327 -162.643584 
L 353.86379 -163.768806 
L 354.240945 -165.012118 
L 354.618099 -166.143384 
L 354.995254 -167.297418 
L 355.372408 -168.559746 
L 356.503871 -169.803783 
L 356.881026 -171.034889 
L 357.25818 -172.309091 
L 357.635335 -173.57092 
L 358.012489 -174.996583 
L 359.143953 -175.850079 
L 359.521107 -176.801628 
L 359.898261 -177.918999 
L 360.275416 -179.142812 
L 360.65257 -180.590999 
L 361.784034 -181.663458 
L 362.161188 -182.363428 
L 362.538343 -182.588973 
L 362.915497 -182.462286 
L 364.424115 -182.096378 
L 364.801269 -181.485376 
L 365.178424 -180.682339 
L 365.555578 -180.081526 
L 365.932733 -179.083792 
L 365.932733 -210.090831 
L 365.932733 -210.090831 
L 365.555578 -209.904016 
L 365.178424 -209.795719 
L 364.801269 -209.643192 
L 364.424115 -209.502674 
L 362.915497 -209.403041 
L 362.538343 -209.365024 
L 362.161188 -209.423979 
L 361.784034 -209.574737 
L 360.65257 -209.9365 
L 360.275416 -210.259932 
L 359.898261 -210.419985 
L 359.521107 -210.484611 
L 359.143953 -210.551887 
L 358.012489 -210.656263 
L 357.635335 -210.463312 
L 357.25818 -210.036666 
L 356.881026 -209.445054 
L 356.503871 -208.805511 
L 355.372408 -207.730984 
L 354.995254 -206.335657 
L 354.618099 -205.0658 
L 354.240945 -203.610346 
L 353.86379 -202.878754 
L 352.732327 -201.795847 
L 352.355173 -200.682188 
L 351.978018 -199.413057 
L 351.600864 -197.921088 
L 351.223709 -196.301889 
L 350.092246 -194.881672 
L 349.715091 -193.443154 
L 349.337937 -192.005906 
L 348.960783 -190.857911 
L 348.583628 -189.704029 
L 347.452165 -188.513576 
L 347.07501 -187.263535 
L 346.697856 -186.103891 
L 346.320701 -184.8496 
L 345.943547 -183.364559 
L 344.812084 -182.256158 
L 344.434929 -181.100329 
L 344.057775 -179.885631 
L 343.68062 -178.592936 
L 343.303466 -177.484064 
L 342.172003 -176.427803 
L 341.794848 -175.438109 
L 341.417694 -174.471569 
L 341.040539 -173.495059 
L 339.531921 -172.257059 
L 339.154767 -170.740286 
L 338.777613 -168.748515 
L 338.400458 -167.420335 
L 338.023304 -166.139126 
L 336.89184 -164.805956 
L 336.514686 -163.316006 
L 336.137531 -161.98585 
L 335.760377 -160.772693 
L 335.383223 -159.578296 
L 334.251759 -158.521507 
L 333.874605 -157.935849 
L 333.49745 -157.278366 
L 333.120296 -156.472711 
L 332.743141 -155.649661 
L 331.611678 -154.97524 
L 331.234524 -154.265939 
L 330.857369 -153.752741 
L 330.480215 -153.404712 
L 328.971597 -152.979188 
L 328.594443 -152.527533 
L 328.217288 -152.232827 
L 327.840134 -152.013056 
L 327.462979 -152.167554 
L 326.331516 -152.57725 
L 325.954361 -153.838386 
L 325.577207 -154.396996 
L 325.200053 -155.072763 
L 324.822898 -155.818369 
L 323.691435 -156.08624 
L 323.31428 -156.318193 
L 322.937126 -156.402384 
L 322.182817 -156.593963 
L 321.051354 -156.803752 
L 320.674199 -158.007284 
L 320.297045 -160.239122 
L 319.542736 -162.113936 
L 318.411273 -163.505256 
L 318.034118 -165.588023 
L 317.656964 -167.747465 
L 317.279809 -170.88701 
L 316.902655 -174.326459 
L 315.771191 -177.626272 
L 315.394037 -180.112092 
L 315.016883 -182.272183 
L 314.639728 -184.882746 
L 314.262574 -188.895857 
L 313.13111 -192.310984 
L 312.753956 -194.998532 
L 311.999647 -197.476151 
L 311.622493 -200.198983 
L 310.491029 -203.10207 
L 310.113875 -205.432878 
L 309.73672 -208.254139 
L 309.359566 -210.736285 
L 308.982411 -212.799913 
L 307.850948 -214.764273 
L 307.096639 -217.03046 
L 306.719485 -219.233892 
L 306.34233 -220.951511 
L 305.210867 -222.927421 
L 304.833713 -223.94784 
L 304.456558 -225.063129 
L 304.079404 -226.994105 
L 303.702249 -228.641404 
L 302.570786 -230.317085 
L 302.193631 -232.11524 
L 301.816477 -234.14578 
L 301.439323 -235.931323 
L 301.062168 -237.419298 
L 299.930705 -238.675199 
L 299.55355 -239.785945 
L 299.176396 -240.463664 
L 298.799241 -241.310323 
L 298.422087 -242.033887 
L 297.290624 -242.664638 
L 296.913469 -243.245645 
L 296.536315 -243.685846 
L 296.15916 -244.076969 
L 295.782006 -244.103804 
L 294.650543 -244.289069 
L 294.273388 -244.270976 
L 293.896234 -243.983853 
L 293.519079 -243.585634 
L 293.141925 -243.279743 
L 292.010461 -243.36612 
L 291.633307 -243.329336 
L 291.256153 -242.989654 
L 290.878998 -242.931661 
L 290.501844 -242.745557 
L 289.37038 -242.90623 
L 288.993226 -243.051521 
L 288.616071 -243.068741 
L 288.238917 -242.7267 
L 287.861763 -242.071586 
L 286.730299 -241.778236 
L 286.353145 -241.682647 
L 285.97599 -241.673421 
L 285.598836 -241.639242 
L 285.221681 -241.566541 
L 284.090218 -241.61118 
L 283.713064 -241.714662 
L 283.335909 -241.85027 
L 282.958755 -241.847291 
L 282.5816 -241.935436 
L 281.450137 -241.995877 
L 281.072983 -242.149745 
L 280.695828 -242.13989 
L 280.318674 -241.992401 
L 279.941519 -242.012313 
L 278.810056 -241.854374 
L 278.432902 -242.105353 
L 278.055747 -242.941536 
L 277.678593 -243.066841 
L 276.169975 -243.116658 
L 275.79282 -242.853723 
L 275.415666 -242.242273 
L 275.038512 -241.285352 
L 274.661357 -240.504077 
L 273.529894 -239.787084 
L 273.152739 -239.080896 
L 272.775585 -238.393981 
L 272.39843 -237.894776 
L 272.021276 -237.242222 
L 270.889813 -236.610142 
L 270.512658 -236.11183 
L 270.135504 -235.487351 
L 269.758349 -234.861741 
L 269.381195 -234.197513 
L 268.249732 -233.543311 
L 267.872577 -232.4776 
L 267.495423 -231.162622 
L 267.118268 -230.12969 
L 266.741114 -228.850258 
L 265.60965 -227.90725 
L 265.232496 -226.70742 
L 264.855342 -225.294488 
L 264.478187 -223.490991 
L 264.101033 -221.407902 
L 262.969569 -219.283784 
L 262.592415 -217.313331 
L 262.21526 -215.449909 
L 261.838106 -213.829633 
L 261.460952 -212.306348 
L 260.329488 -210.909432 
L 259.952334 -209.517076 
L 259.575179 -208.138748 
L 259.198025 -206.678662 
L 258.82087 -205.115085 
L 257.689407 -203.264882 
L 257.312253 -201.824147 
L 256.935098 -200.625322 
L 256.557944 -199.374131 
L 256.180789 -198.115914 
L 255.049326 -196.880202 
L 254.672172 -195.504109 
L 253.917863 -194.24015 
L 253.540708 -192.918862 
L 252.409245 -191.190241 
L 252.03209 -189.430003 
L 251.654936 -187.478045 
L 251.277782 -186.297724 
L 250.900627 -186.206245 
L 249.769164 -186.132109 
L 249.392009 -186.024145 
L 249.014855 -185.6541 
L 248.6377 -185.23693 
L 248.260546 -184.986331 
L 247.129083 -184.859867 
L 246.751928 -184.675035 
L 246.374774 -184.44828 
L 245.997619 -184.317674 
L 245.620465 -184.131914 
L 244.489002 -184.349686 
L 244.111847 -184.443373 
L 243.734693 -185.08627 
L 243.357538 -185.953593 
L 242.980384 -186.642667 
L 241.84892 -186.892478 
L 241.471766 -187.14853 
L 241.094612 -187.416554 
L 240.717457 -187.526144 
L 239.208839 -187.430494 
L 238.831685 -187.234581 
L 238.45453 -187.022299 
L 238.077376 -186.862267 
L 237.700222 -186.665428 
L 236.568758 -186.534473 
L 236.191604 -186.29798 
L 235.814449 -186.028599 
L 235.437295 -185.69831 
L 235.06014 -185.400935 
L 233.928677 -184.93996 
L 233.551523 -184.430326 
L 233.174368 -183.775931 
L 232.797214 -183.109922 
L 232.420059 -182.314703 
L 231.288596 -181.542254 
L 230.911442 -180.705152 
L 230.534287 -179.6791 
L 230.157133 -178.593685 
L 229.779978 -177.507062 
L 228.648515 -176.481144 
L 228.27136 -175.568259 
L 227.894206 -174.96805 
L 227.517052 -174.308865 
L 227.139897 -173.697835 
L 226.008434 -173.04287 
L 225.631279 -172.399724 
L 225.254125 -171.793907 
L 224.87697 -171.369203 
L 224.499816 -170.803127 
L 223.368353 -170.195317 
L 222.991198 -169.443579 
L 222.614044 -168.619203 
L 222.236889 -167.93799 
L 221.859735 -167.042416 
L 220.728272 -166.01116 
L 220.351117 -164.99497 
L 219.973963 -164.251437 
L 219.596808 -163.65476 
L 219.219654 -162.934728 
L 217.711036 -162.201695 
L 217.333882 -161.967816 
L 216.956727 -161.768578 
L 216.579573 -161.837742 
L 215.448109 -161.911076 
L 215.070955 -161.809317 
L 214.6938 -161.806161 
L 214.316646 -161.836874 
L 213.939492 -162.174588 
L 212.808028 -162.638485 
L 212.430874 -162.804907 
L 212.053719 -162.730984 
L 211.676565 -162.599978 
L 211.29941 -162.233642 
L 210.167947 -161.943875 
L 209.790793 -161.700126 
L 209.413638 -161.475563 
L 209.036484 -161.333038 
L 208.659329 -161.238237 
L 207.527866 -161.249734 
L 207.150712 -161.419503 
L 206.773557 -161.596216 
L 206.396403 -161.814824 
L 206.019248 -162.206105 
L 204.887785 -162.663141 
L 204.51063 -163.083078 
L 204.133476 -163.342165 
L 203.756322 -163.61795 
L 202.247704 -163.690425 
L 201.870549 -163.853058 
L 201.493395 -163.984234 
L 201.11624 -164.064604 
L 200.739086 -164.021744 
L 199.607623 -163.903969 
L 199.230468 -163.612227 
L 198.853314 -163.277455 
L 198.476159 -162.878885 
L 198.099005 -162.403676 
L 196.967542 -161.762766 
L 196.590387 -161.244275 
L 196.213233 -161.097381 
L 195.836078 -161.059367 
L 195.458924 -160.897419 
L 194.32746 -160.7322 
L 193.950306 -160.702867 
L 193.573152 -160.617098 
L 193.195997 -160.260771 
L 192.818843 -159.880211 
L 191.687379 -159.425281 
L 191.310225 -159.244574 
L 190.93307 -159.116439 
L 190.555916 -159.044467 
L 189.047298 -158.934633 
L 188.670144 -158.81245 
L 188.292989 -158.66607 
L 187.915835 -158.741837 
L 187.53868 -158.865659 
L 186.407217 -158.900117 
L 186.030063 -158.819854 
L 185.652908 -158.561482 
L 185.275754 -158.535298 
L 183.767136 -158.626653 
L 183.389982 -158.077406 
L 183.012827 -157.676531 
L 182.635673 -157.6534 
L 181.127055 -157.623975 
L 180.7499 -157.573493 
L 180.372746 -157.549098 
L 179.995592 -157.618555 
L 179.618437 -157.721404 
L 178.486974 -157.774 
L 178.109819 -157.675351 
L 177.732665 -157.501572 
L 177.35551 -157.166712 
L 176.978356 -156.674643 
L 175.846893 -156.214942 
L 175.469738 -156.072575 
L 175.092584 -155.750021 
L 174.715429 -155.633609 
L 174.338275 -155.765387 
L 173.206812 -156.29145 
L 172.829657 -156.674797 
L 172.452503 -156.79872 
L 172.075348 -156.979127 
L 171.698194 -157.096346 
L 170.566731 -157.147474 
L 169.812422 -157.127152 
L 169.435267 -157.004616 
L 169.058113 -156.89444 
L 167.926649 -156.83302 
L 167.549495 -156.530886 
L 167.172341 -156.169644 
L 166.795186 -155.826058 
L 166.418032 -155.434467 
L 165.286568 -154.883009 
L 164.909414 -154.45935 
L 164.532259 -154.150636 
L 164.155105 -153.78023 
L 163.777951 -153.424109 
L 162.646487 -152.970922 
L 162.269333 -152.688581 
L 161.892178 -152.371705 
L 161.515024 -152.058407 
L 161.137869 -151.726676 
L 160.006406 -151.331621 
L 159.629252 -150.821464 
L 159.252097 -150.238148 
L 158.874943 -149.815468 
L 158.497788 -149.140856 
L 157.366325 -148.391704 
L 156.989171 -147.512771 
L 156.612016 -146.630436 
L 156.234862 -145.908094 
L 155.857707 -145.435559 
L 154.726244 -144.86045 
L 154.349089 -144.26825 
L 153.971935 -143.842803 
L 153.594781 -143.234865 
L 153.217626 -142.450009 
L 152.086163 -141.559755 
L 151.709008 -140.524983 
L 151.331854 -139.358908 
L 150.954699 -138.222926 
L 150.577545 -137.000921 
L 149.446082 -135.894957 
L 149.068927 -135.284185 
L 148.691773 -134.769177 
L 148.314618 -133.877592 
L 147.937464 -133.223431 
L 146.806001 -132.920188 
L 146.428846 -133.081557 
L 146.051692 -133.303443 
L 145.674537 -133.404546 
L 145.297383 -133.431462 
L 144.165919 -133.422454 
L 143.788765 -133.571268 
L 143.411611 -133.556201 
L 143.034456 -133.45525 
L 142.657302 -133.331894 
L 141.525838 -133.306559 
L 141.148684 -133.314548 
L 140.771529 -133.41438 
L 140.394375 -133.559357 
L 138.885757 -133.638897 
L 138.508603 -133.675414 
L 138.131448 -133.659242 
L 137.754294 -133.663919 
L 137.377139 -133.668034 
L 136.245676 -133.707839 
L 135.868522 -133.736542 
L 135.491367 -133.753132 
L 135.114213 -133.774678 
L 134.737058 -133.810552 
L 133.605595 -133.848772 
L 133.228441 -133.925878 
L 132.851286 -134.052428 
L 132.474132 -134.101252 
L 132.096977 -134.027989 
L 130.965514 -133.947102 
L 130.588359 -133.81443 
L 130.211205 -133.673186 
L 129.834051 -133.445115 
L 129.456896 -133.096021 
L 128.325433 -132.679704 
L 127.948278 -132.375934 
L 127.571124 -131.915044 
L 127.193969 -131.357839 
L 126.816815 -130.760828 
L 125.685352 -129.976663 
L 125.308197 -129.157935 
L 124.931043 -128.35808 
L 124.553888 -127.558946 
L 124.176734 -126.878231 
L 123.045271 -126.274808 
L 122.668116 -125.690662 
L 122.290962 -125.033409 
L 121.913807 -124.358203 
L 121.536653 -123.921791 
L 120.405189 -123.709207 
L 120.028035 -123.489526 
L 119.650881 -122.929895 
L 119.273726 -122.252312 
L 118.896572 -121.832492 
L 117.765108 -121.482015 
L 117.387954 -121.278538 
L 117.010799 -120.642886 
L 116.256491 -120.089861 
L 115.125027 -119.666076 
L 114.747873 -119.431692 
L 114.370718 -119.298347 
L 113.993564 -119.032198 
L 113.616409 -119.191534 
L 112.484946 -119.363769 
L 112.107792 -119.392166 
L 111.730637 -119.699491 
L 111.353483 -119.862261 
L 110.976328 -120.101385 
L 109.844865 -120.211406 
L 109.467711 -120.323696 
L 109.090556 -120.475862 
L 108.713402 -120.541614 
L 108.336247 -120.488637 
L 107.204784 -120.414609 
L 106.827629 -120.361122 
L 106.450475 -120.345688 
L 106.073321 -120.347518 
L 105.696166 -120.355736 
L 104.564703 -120.362804 
L 104.187548 -120.370304 
L 103.810394 -120.359373 
L 103.433239 -120.36708 
L 101.924622 -120.39137 
L 101.547467 -120.413822 
L 101.170313 -120.472475 
L 100.793158 -120.502981 
L 100.416004 -120.526338 
L 99.284541 -120.547681 
L 98.907386 -120.541668 
L 98.530232 -120.54268 
L 98.153077 -120.522777 
L 97.775923 -120.512588 
L 96.644459 -120.479757 
L 96.267305 -120.478777 
L 95.890151 -120.477853 
L 95.512996 -120.463964 
L 95.135842 -120.42307 
L 94.004378 -120.403861 
L 93.627224 -120.291111 
L 93.250069 -119.840564 
L 92.872915 -119.350384 
L 92.495761 -118.907127 
L 91.364297 -118.475672 
L 90.987143 -117.899878 
L 90.609988 -117.486165 
L 90.232834 -117.074141 
L 89.855679 -116.578373 
L 88.724216 -116.060717 
L 88.347062 -115.498471 
L 87.969907 -114.962634 
L 87.592753 -114.356227 
L 87.215598 -113.704784 
L 85.706981 -113.107079 
L 85.329826 -112.522797 
L 84.952672 -112.100928 
L 84.575517 -111.156789 
L 83.444054 -110.11999 
L 83.066899 -108.940137 
L 82.689745 -107.954582 
L 82.312591 -107.087295 
L 81.935436 -106.029597 
L 80.803973 -105.016557 
L 80.426818 -104.484343 
L 80.049664 -104.158928 
L 79.672509 -103.765867 
L 79.295355 -103.324737 
L 78.163892 -102.96388 
L 77.786737 -102.822843 
L 77.409583 -102.668055 
L 77.032428 -102.565348 
L 76.655274 -102.419466 
L 75.523811 -102.284387 
L 75.146656 -102.244774 
L 74.769502 -102.178823 
L 74.392347 -102.220454 
L 74.015193 -102.252531 
L 72.883729 -102.222665 
L 72.506575 -102.176536 
L 72.129421 -102.464466 
L 71.752266 -102.59654 
L 71.375112 -102.511044 
L 70.243648 -102.331341 
L 69.866494 -102.060236 
L 69.489339 -101.775673 
L 69.112185 -101.356411 
L 68.735031 -100.951663 
L 67.603567 -100.496046 
L 67.226413 -99.957005 
L 66.849258 -99.350493 
L 66.472104 -98.739246 
L 64.963486 -98.279234 
L 64.586332 -97.782498 
L 64.209177 -97.240368 
L 63.832023 -96.624451 
L 63.454868 -96.095148 
L 62.323405 -95.433343 
L 61.946251 -94.841945 
L 61.569096 -94.150746 
z
" style="stroke: #000000; stroke-opacity: 0.2; stroke-width: 0.8"/>
    </defs>
    <g clip-path="url(#p49d55d2aea)">
     <use xlink:href="#m606a3fc6cb" x="0" y="260.390887" style="fill: #bc80bd; fill-opacity: 0.2; stroke: #000000; stroke-opacity: 0.2; stroke-width: 0.8"/>
    </g>
   </g>
   <g id="matplotlib.axis_1">
    <g id="xtick_1">
     <g id="line2d_1">
      <defs>
       <path id="m4bb0025f12" d="M 0 0 
L 0 3.5 
" style="stroke: #323034; stroke-width: 0.8"/>
      </defs>
      <g>
       <use xlink:href="#m4bb0025f12" x="47.237227" y="203.04" style="fill: #323034; stroke: #323034; stroke-width: 0.8"/>
      </g>
     </g>
     <g id="text_1">
      <!-- 2017-01 -->
      <g style="fill: #323034" transform="translate(11.297812 237.135432)rotate(-30)scale(0.12 -0.12)">
       <defs>
        <path id="STIXGeneral-Regular-32" d="M 3034 877 
L 2688 0 
L 186 0 
L 186 77 
L 1325 1286 
Q 1773 1754 1965 2144 
Q 2157 2534 2157 2950 
Q 2157 3379 1920 3616 
Q 1683 3853 1267 3853 
Q 922 3853 720 3673 
Q 518 3494 326 3021 
L 192 3053 
Q 301 3648 630 3987 
Q 960 4326 1523 4326 
Q 2054 4326 2380 4006 
Q 2707 3686 2707 3200 
Q 2707 2477 1888 1613 
L 832 486 
L 2330 486 
Q 2541 486 2665 569 
Q 2790 653 2944 915 
L 3034 877 
z
" transform="scale(0.015625)"/>
        <path id="STIXGeneral-Regular-30" d="M 3046 2112 
Q 3046 1683 2963 1302 
Q 2880 922 2717 602 
Q 2554 282 2266 96 
Q 1978 -90 1600 -90 
Q 1210 -90 915 108 
Q 621 307 461 640 
Q 301 973 227 1350 
Q 154 1728 154 2150 
Q 154 2746 301 3222 
Q 448 3699 790 4012 
Q 1133 4326 1626 4326 
Q 2253 4326 2649 3712 
Q 3046 3098 3046 2112 
z
M 2432 2080 
Q 2432 3091 2217 3625 
Q 2003 4160 1587 4160 
Q 1190 4160 979 3622 
Q 768 3085 768 2106 
Q 768 1120 979 598 
Q 1190 77 1600 77 
Q 2003 77 2217 598 
Q 2432 1120 2432 2080 
z
" transform="scale(0.015625)"/>
        <path id="STIXGeneral-Regular-31" d="M 2522 0 
L 755 0 
L 755 96 
Q 1107 115 1235 227 
Q 1363 339 1363 608 
L 1363 3482 
Q 1363 3795 1171 3795 
Q 1082 3795 883 3718 
L 710 3654 
L 710 3744 
L 1856 4326 
L 1914 4307 
L 1914 486 
Q 1914 275 2042 185 
Q 2170 96 2522 96 
L 2522 0 
z
" transform="scale(0.015625)"/>
        <path id="STIXGeneral-Regular-37" d="M 2874 4134 
L 1517 -51 
L 1101 -51 
L 2368 3763 
L 992 3763 
Q 717 3763 582 3667 
Q 448 3571 243 3238 
L 128 3296 
L 512 4237 
L 2874 4237 
L 2874 4134 
z
" transform="scale(0.015625)"/>
        <path id="STIXGeneral-Regular-2d" d="M 1824 1242 
L 250 1242 
L 250 1645 
L 1824 1645 
L 1824 1242 
z
" transform="scale(0.015625)"/>
       </defs>
       <use xlink:href="#STIXGeneral-Regular-32"/>
       <use xlink:href="#STIXGeneral-Regular-30" x="49.999985"/>
       <use xlink:href="#STIXGeneral-Regular-31" x="99.999969"/>
       <use xlink:href="#STIXGeneral-Regular-37" x="149.999954"/>
       <use xlink:href="#STIXGeneral-Regular-2d" x="199.999939"/>
       <use xlink:href="#STIXGeneral-Regular-30" x="233.299927"/>
       <use xlink:href="#STIXGeneral-Regular-31" x="283.299911"/>
      </g>
     </g>
    </g>
    <g id="xtick_2">
     <g id="line2d_2">
      <g>
       <use xlink:href="#m4bb0025f12" x="81.181127" y="203.04" style="fill: #323034; stroke: #323034; stroke-width: 0.8"/>
      </g>
     </g>
     <g id="text_2">
      <!-- 2017-04 -->
      <g style="fill: #323034" transform="translate(45.241712 237.135432)rotate(-30)scale(0.12 -0.12)">
       <defs>
        <path id="STIXGeneral-Regular-34" d="M 3027 1069 
L 2368 1069 
L 2368 0 
L 1869 0 
L 1869 1069 
L 77 1069 
L 77 1478 
L 2086 4326 
L 2368 4326 
L 2368 1478 
L 3027 1478 
L 3027 1069 
z
M 1869 1478 
L 1869 3674 
L 333 1478 
L 1869 1478 
z
" transform="scale(0.015625)"/>
       </defs>
       <use xlink:href="#STIXGeneral-Regular-32"/>
       <use xlink:href="#STIXGeneral-Regular-30" x="49.999985"/>
       <use xlink:href="#STIXGeneral-Regular-31" x="99.999969"/>
       <use xlink:href="#STIXGeneral-Regular-37" x="149.999954"/>
       <use xlink:href="#STIXGeneral-Regular-2d" x="199.999939"/>
       <use xlink:href="#STIXGeneral-Regular-30" x="233.299927"/>
       <use xlink:href="#STIXGeneral-Regular-34" x="283.299911"/>
      </g>
     </g>
    </g>
    <g id="xtick_3">
     <g id="line2d_3">
      <g>
       <use xlink:href="#m4bb0025f12" x="115.502182" y="203.04" style="fill: #323034; stroke: #323034; stroke-width: 0.8"/>
      </g>
     </g>
     <g id="text_3">
      <!-- 2017-07 -->
      <g style="fill: #323034" transform="translate(79.562767 237.135432)rotate(-30)scale(0.12 -0.12)">
       <use xlink:href="#STIXGeneral-Regular-32"/>
       <use xlink:href="#STIXGeneral-Regular-30" x="49.999985"/>
       <use xlink:href="#STIXGeneral-Regular-31" x="99.999969"/>
       <use xlink:href="#STIXGeneral-Regular-37" x="149.999954"/>
       <use xlink:href="#STIXGeneral-Regular-2d" x="199.999939"/>
       <use xlink:href="#STIXGeneral-Regular-30" x="233.299927"/>
       <use xlink:href="#STIXGeneral-Regular-37" x="283.299911"/>
      </g>
     </g>
    </g>
    <g id="xtick_4">
     <g id="line2d_4">
      <g>
       <use xlink:href="#m4bb0025f12" x="150.200391" y="203.04" style="fill: #323034; stroke: #323034; stroke-width: 0.8"/>
      </g>
     </g>
     <g id="text_4">
      <!-- 2017-10 -->
      <g style="fill: #323034" transform="translate(114.260976 237.135432)rotate(-30)scale(0.12 -0.12)">
       <use xlink:href="#STIXGeneral-Regular-32"/>
       <use xlink:href="#STIXGeneral-Regular-30" x="49.999985"/>
       <use xlink:href="#STIXGeneral-Regular-31" x="99.999969"/>
       <use xlink:href="#STIXGeneral-Regular-37" x="149.999954"/>
       <use xlink:href="#STIXGeneral-Regular-2d" x="199.999939"/>
       <use xlink:href="#STIXGeneral-Regular-31" x="233.299927"/>
       <use xlink:href="#STIXGeneral-Regular-30" x="283.299911"/>
      </g>
     </g>
    </g>
    <g id="xtick_5">
     <g id="line2d_5">
      <g>
       <use xlink:href="#m4bb0025f12" x="184.898599" y="203.04" style="fill: #323034; stroke: #323034; stroke-width: 0.8"/>
      </g>
     </g>
     <g id="text_5">
      <!-- 2018-01 -->
      <g style="fill: #323034" transform="translate(148.959185 237.135432)rotate(-30)scale(0.12 -0.12)">
       <defs>
        <path id="STIXGeneral-Regular-38" d="M 2848 992 
Q 2848 499 2505 204 
Q 2163 -90 1587 -90 
Q 1050 -90 704 204 
Q 358 499 358 954 
Q 358 1293 524 1533 
Q 691 1773 1190 2125 
Q 710 2522 553 2765 
Q 397 3008 397 3328 
Q 397 3782 745 4054 
Q 1094 4326 1638 4326 
Q 2106 4326 2410 4060 
Q 2714 3795 2714 3411 
Q 2714 3059 2531 2848 
Q 2349 2637 1856 2374 
Q 2432 1990 2640 1689 
Q 2848 1389 2848 992 
z
M 2272 3411 
Q 2272 3744 2086 3945 
Q 1901 4147 1574 4147 
Q 1248 4147 1059 3977 
Q 870 3808 870 3513 
Q 870 3219 1059 2979 
Q 1248 2739 1670 2490 
Q 1997 2682 2134 2896 
Q 2272 3110 2272 3411 
z
M 1734 1741 
L 1357 1997 
Q 1075 1766 960 1545 
Q 845 1325 845 1011 
Q 845 576 1065 333 
Q 1286 90 1658 90 
Q 1971 90 2166 285 
Q 2362 480 2362 794 
Q 2362 1082 2214 1299 
Q 2067 1517 1734 1741 
z
" transform="scale(0.015625)"/>
       </defs>
       <use xlink:href="#STIXGeneral-Regular-32"/>
       <use xlink:href="#STIXGeneral-Regular-30" x="49.999985"/>
       <use xlink:href="#STIXGeneral-Regular-31" x="99.999969"/>
       <use xlink:href="#STIXGeneral-Regular-38" x="149.999954"/>
       <use xlink:href="#STIXGeneral-Regular-2d" x="199.999939"/>
       <use xlink:href="#STIXGeneral-Regular-30" x="233.299927"/>
       <use xlink:href="#STIXGeneral-Regular-31" x="283.299911"/>
      </g>
     </g>
    </g>
    <g id="xtick_6">
     <g id="line2d_6">
      <g>
       <use xlink:href="#m4bb0025f12" x="218.842499" y="203.04" style="fill: #323034; stroke: #323034; stroke-width: 0.8"/>
      </g>
     </g>
     <g id="text_6">
      <!-- 2018-04 -->
      <g style="fill: #323034" transform="translate(182.903085 237.135432)rotate(-30)scale(0.12 -0.12)">
       <use xlink:href="#STIXGeneral-Regular-32"/>
       <use xlink:href="#STIXGeneral-Regular-30" x="49.999985"/>
       <use xlink:href="#STIXGeneral-Regular-31" x="99.999969"/>
       <use xlink:href="#STIXGeneral-Regular-38" x="149.999954"/>
       <use xlink:href="#STIXGeneral-Regular-2d" x="199.999939"/>
       <use xlink:href="#STIXGeneral-Regular-30" x="233.299927"/>
       <use xlink:href="#STIXGeneral-Regular-34" x="283.299911"/>
      </g>
     </g>
    </g>
    <g id="xtick_7">
     <g id="line2d_7">
      <g>
       <use xlink:href="#m4bb0025f12" x="253.163554" y="203.04" style="fill: #323034; stroke: #323034; stroke-width: 0.8"/>
      </g>
     </g>
     <g id="text_7">
      <!-- 2018-07 -->
      <g style="fill: #323034" transform="translate(217.224139 237.135432)rotate(-30)scale(0.12 -0.12)">
       <use xlink:href="#STIXGeneral-Regular-32"/>
       <use xlink:href="#STIXGeneral-Regular-30" x="49.999985"/>
       <use xlink:href="#STIXGeneral-Regular-31" x="99.999969"/>
       <use xlink:href="#STIXGeneral-Regular-38" x="149.999954"/>
       <use xlink:href="#STIXGeneral-Regular-2d" x="199.999939"/>
       <use xlink:href="#STIXGeneral-Regular-30" x="233.299927"/>
       <use xlink:href="#STIXGeneral-Regular-37" x="283.299911"/>
      </g>
     </g>
    </g>
    <g id="xtick_8">
     <g id="line2d_8">
      <g>
       <use xlink:href="#m4bb0025f12" x="287.861763" y="203.04" style="fill: #323034; stroke: #323034; stroke-width: 0.8"/>
      </g>
     </g>
     <g id="text_8">
      <!-- 2018-10 -->
      <g style="fill: #323034" transform="translate(251.922348 237.135432)rotate(-30)scale(0.12 -0.12)">
       <use xlink:href="#STIXGeneral-Regular-32"/>
       <use xlink:href="#STIXGeneral-Regular-30" x="49.999985"/>
       <use xlink:href="#STIXGeneral-Regular-31" x="99.999969"/>
       <use xlink:href="#STIXGeneral-Regular-38" x="149.999954"/>
       <use xlink:href="#STIXGeneral-Regular-2d" x="199.999939"/>
       <use xlink:href="#STIXGeneral-Regular-31" x="233.299927"/>
       <use xlink:href="#STIXGeneral-Regular-30" x="283.299911"/>
      </g>
     </g>
    </g>
    <g id="xtick_9">
     <g id="line2d_9">
      <g>
       <use xlink:href="#m4bb0025f12" x="322.559971" y="203.04" style="fill: #323034; stroke: #323034; stroke-width: 0.8"/>
      </g>
     </g>
     <g id="text_9">
      <!-- 2019-01 -->
      <g style="fill: #323034" transform="translate(286.620557 237.135432)rotate(-30)scale(0.12 -0.12)">
       <defs>
        <path id="STIXGeneral-Regular-39" d="M 378 -141 
L 358 -13 
Q 1094 115 1603 608 
Q 2112 1101 2304 1882 
Q 1933 1517 1344 1517 
Q 826 1517 509 1875 
Q 192 2234 192 2816 
Q 192 3462 573 3894 
Q 954 4326 1523 4326 
Q 2131 4326 2528 3840 
Q 2938 3328 2938 2522 
Q 2938 1958 2742 1462 
Q 2547 966 2170 621 
Q 1773 262 1395 105 
Q 1018 -51 378 -141 
z
M 2317 2272 
L 2317 2522 
Q 2317 4147 1472 4147 
Q 1171 4147 1005 3930 
Q 909 3802 845 3546 
Q 781 3290 781 3034 
Q 781 2464 995 2128 
Q 1210 1792 1568 1792 
Q 1824 1792 2070 1917 
Q 2317 2042 2317 2272 
z
" transform="scale(0.015625)"/>
       </defs>
       <use xlink:href="#STIXGeneral-Regular-32"/>
       <use xlink:href="#STIXGeneral-Regular-30" x="49.999985"/>
       <use xlink:href="#STIXGeneral-Regular-31" x="99.999969"/>
       <use xlink:href="#STIXGeneral-Regular-39" x="149.999954"/>
       <use xlink:href="#STIXGeneral-Regular-2d" x="199.999939"/>
       <use xlink:href="#STIXGeneral-Regular-30" x="233.299927"/>
       <use xlink:href="#STIXGeneral-Regular-31" x="283.299911"/>
      </g>
     </g>
    </g>
    <g id="xtick_10">
     <g id="line2d_10">
      <g>
       <use xlink:href="#m4bb0025f12" x="356.503871" y="203.04" style="fill: #323034; stroke: #323034; stroke-width: 0.8"/>
      </g>
     </g>
     <g id="text_10">
      <!-- 2019-04 -->
      <g style="fill: #323034" transform="translate(320.564457 237.135432)rotate(-30)scale(0.12 -0.12)">
       <use xlink:href="#STIXGeneral-Regular-32"/>
       <use xlink:href="#STIXGeneral-Regular-30" x="49.999985"/>
       <use xlink:href="#STIXGeneral-Regular-31" x="99.999969"/>
       <use xlink:href="#STIXGeneral-Regular-39" x="149.999954"/>
       <use xlink:href="#STIXGeneral-Regular-2d" x="199.999939"/>
       <use xlink:href="#STIXGeneral-Regular-30" x="233.299927"/>
       <use xlink:href="#STIXGeneral-Regular-34" x="283.299911"/>
      </g>
     </g>
    </g>
    <g id="text_11">
     <!-- Date -->
     <g transform="translate(202.422164 250.586512)scale(0.12 -0.12)">
      <defs>
       <path id="STIXGeneral-Regular-44" d="M 102 4237 
L 1830 4237 
Q 3078 4237 3750 3654 
Q 4384 3110 4384 2138 
Q 4384 966 3514 410 
Q 2880 0 1901 0 
L 102 0 
L 102 122 
Q 474 147 570 252 
Q 666 358 666 736 
L 666 3520 
Q 666 3891 570 3990 
Q 474 4090 102 4115 
L 102 4237 
z
M 1318 3731 
L 1318 538 
Q 1318 365 1379 301 
Q 1440 237 1626 237 
Q 2125 237 2432 307 
Q 2739 378 3021 570 
Q 3686 1018 3686 2099 
Q 3686 3027 3078 3558 
Q 2803 3802 2476 3901 
Q 2150 4000 1658 4000 
Q 1472 4000 1395 3942 
Q 1318 3885 1318 3731 
z
" transform="scale(0.015625)"/>
       <path id="STIXGeneral-Regular-61" d="M 2829 422 
L 2829 243 
Q 2586 -64 2253 -64 
Q 1888 -64 1843 403 
L 1837 403 
Q 1427 -64 909 -64 
Q 608 -64 422 112 
Q 237 288 237 602 
Q 237 1050 685 1350 
Q 992 1555 1837 1869 
L 1837 2214 
Q 1837 2502 1699 2646 
Q 1562 2790 1338 2790 
Q 1146 2790 1018 2697 
Q 890 2605 890 2477 
Q 890 2419 909 2348 
Q 928 2278 928 2208 
Q 928 2112 841 2029 
Q 755 1946 634 1946 
Q 525 1946 441 2029 
Q 358 2112 358 2240 
Q 358 2547 685 2752 
Q 986 2944 1421 2944 
Q 1939 2944 2176 2656 
Q 2291 2522 2323 2384 
Q 2355 2246 2355 1946 
L 2355 723 
Q 2355 301 2554 301 
Q 2682 301 2829 422 
z
M 1837 813 
L 1837 1715 
Q 1248 1510 1018 1293 
Q 800 1094 800 800 
Q 800 557 921 432 
Q 1043 307 1242 307 
Q 1453 307 1613 410 
Q 1747 506 1792 589 
Q 1837 672 1837 813 
z
" transform="scale(0.015625)"/>
       <path id="STIXGeneral-Regular-74" d="M 1702 493 
L 1786 422 
Q 1478 -64 1011 -64 
Q 448 -64 448 749 
L 448 2675 
L 109 2675 
Q 83 2694 83 2720 
Q 83 2771 192 2842 
Q 435 2982 813 3526 
Q 826 3546 874 3606 
Q 922 3667 941 3706 
Q 986 3706 986 3622 
L 986 2880 
L 1632 2880 
L 1632 2675 
L 986 2675 
L 986 845 
Q 986 538 1062 403 
Q 1139 269 1318 269 
Q 1510 269 1702 493 
z
" transform="scale(0.015625)"/>
       <path id="STIXGeneral-Regular-65" d="M 2611 1050 
L 2714 1005 
Q 2330 -64 1376 -64 
Q 813 -64 486 329 
Q 160 723 160 1389 
Q 160 2074 525 2509 
Q 890 2944 1485 2944 
Q 2061 2944 2374 2502 
Q 2560 2246 2592 1773 
L 621 1773 
Q 646 1370 700 1158 
Q 755 947 915 730 
Q 1184 378 1626 378 
Q 1939 378 2153 531 
Q 2368 685 2611 1050 
z
M 634 1978 
L 1939 1978 
Q 1882 2381 1750 2547 
Q 1619 2714 1312 2714 
Q 1043 2714 864 2525 
Q 685 2336 634 1978 
z
" transform="scale(0.015625)"/>
      </defs>
      <use xlink:href="#STIXGeneral-Regular-44"/>
      <use xlink:href="#STIXGeneral-Regular-61" x="72.199982"/>
      <use xlink:href="#STIXGeneral-Regular-74" x="116.599976"/>
      <use xlink:href="#STIXGeneral-Regular-65" x="144.399963"/>
     </g>
    </g>
   </g>
   <g id="matplotlib.axis_2">
    <g id="ytick_1">
     <g id="line2d_11">
      <defs>
       <path id="m0fcf446334" d="M 0 0 
L -3.5 0 
" style="stroke: #323034; stroke-width: 0.8"/>
      </defs>
      <g>
       <use xlink:href="#m0fcf446334" x="46.350914" y="182.945293" style="fill: #323034; stroke: #323034; stroke-width: 0.8"/>
      </g>
     </g>
     <g id="text_12">
      <!-- $\mathdefault{30}$ -->
      <g style="fill: #323034" transform="translate(27.350914 187.043106)scale(0.12 -0.12)">
       <defs>
        <path id="STIXGeneral-Regular-33" d="M 390 3264 
L 288 3290 
Q 435 3770 748 4048 
Q 1062 4326 1542 4326 
Q 1990 4326 2265 4083 
Q 2541 3840 2541 3450 
Q 2541 2925 1946 2566 
Q 2298 2413 2477 2227 
Q 2758 1914 2758 1402 
Q 2758 890 2464 506 
Q 2246 211 1840 60 
Q 1434 -90 979 -90 
Q 262 -90 262 275 
Q 262 378 339 442 
Q 416 506 525 506 
Q 685 506 915 339 
Q 1197 141 1466 141 
Q 1818 141 2058 425 
Q 2298 710 2298 1120 
Q 2298 1856 1632 2048 
Q 1434 2112 979 2112 
L 979 2202 
Q 1338 2323 1517 2432 
Q 2035 2726 2035 3290 
Q 2035 3610 1852 3776 
Q 1670 3942 1344 3942 
Q 768 3942 390 3264 
z
" transform="scale(0.015625)"/>
       </defs>
       <use xlink:href="#STIXGeneral-Regular-33" transform="translate(0 0.40625)"/>
       <use xlink:href="#STIXGeneral-Regular-30" transform="translate(49.999985 0.40625)"/>
      </g>
     </g>
    </g>
    <g id="ytick_2">
     <g id="line2d_12">
      <g>
       <use xlink:href="#m0fcf446334" x="46.350914" y="149.358505" style="fill: #323034; stroke: #323034; stroke-width: 0.8"/>
      </g>
     </g>
     <g id="text_13">
      <!-- $\mathdefault{35}$ -->
      <g style="fill: #323034" transform="translate(27.350914 153.456317)scale(0.12 -0.12)">
       <defs>
        <path id="STIXGeneral-Regular-35" d="M 2803 4358 
L 2573 3814 
Q 2534 3731 2400 3731 
L 1158 3731 
L 902 3187 
Q 1606 3053 1920 2896 
Q 2234 2739 2502 2368 
Q 2726 2061 2726 1555 
Q 2726 1094 2576 780 
Q 2426 467 2099 224 
Q 1664 -90 1011 -90 
Q 646 -90 422 19 
Q 198 128 198 307 
Q 198 550 486 550 
Q 717 550 960 352 
Q 1210 147 1414 147 
Q 1747 147 2012 480 
Q 2278 813 2278 1229 
Q 2278 1843 1850 2189 
Q 1293 2637 486 2637 
Q 410 2637 410 2688 
L 416 2720 
L 1114 4237 
L 2438 4237 
Q 2547 4237 2608 4269 
Q 2669 4301 2746 4403 
L 2803 4358 
z
" transform="scale(0.015625)"/>
       </defs>
       <use xlink:href="#STIXGeneral-Regular-33" transform="translate(0 0.203125)"/>
       <use xlink:href="#STIXGeneral-Regular-35" transform="translate(49.999985 0.203125)"/>
      </g>
     </g>
    </g>
    <g id="ytick_3">
     <g id="line2d_13">
      <g>
       <use xlink:href="#m0fcf446334" x="46.350914" y="115.771716" style="fill: #323034; stroke: #323034; stroke-width: 0.8"/>
      </g>
     </g>
     <g id="text_14">
      <!-- $\mathdefault{40}$ -->
      <g style="fill: #323034" transform="translate(27.350914 119.869528)scale(0.12 -0.12)">
       <use xlink:href="#STIXGeneral-Regular-34" transform="translate(0 0.40625)"/>
       <use xlink:href="#STIXGeneral-Regular-30" transform="translate(49.999985 0.40625)"/>
      </g>
     </g>
    </g>
    <g id="ytick_4">
     <g id="line2d_14">
      <g>
       <use xlink:href="#m0fcf446334" x="46.350914" y="82.184927" style="fill: #323034; stroke: #323034; stroke-width: 0.8"/>
      </g>
     </g>
     <g id="text_15">
      <!-- $\mathdefault{45}$ -->
      <g style="fill: #323034" transform="translate(27.350914 86.28274)scale(0.12 -0.12)">
       <use xlink:href="#STIXGeneral-Regular-34" transform="translate(0 0.203125)"/>
       <use xlink:href="#STIXGeneral-Regular-35" transform="translate(49.999985 0.203125)"/>
      </g>
     </g>
    </g>
    <g id="ytick_5">
     <g id="line2d_15">
      <g>
       <use xlink:href="#m0fcf446334" x="46.350914" y="48.598138" style="fill: #323034; stroke: #323034; stroke-width: 0.8"/>
      </g>
     </g>
     <g id="text_16">
      <!-- $\mathdefault{50}$ -->
      <g style="fill: #323034" transform="translate(27.350914 52.695951)scale(0.12 -0.12)">
       <use xlink:href="#STIXGeneral-Regular-35" transform="translate(0 0.203125)"/>
       <use xlink:href="#STIXGeneral-Regular-30" transform="translate(49.999985 0.203125)"/>
      </g>
     </g>
    </g>
    <g id="ytick_6">
     <g id="line2d_16">
      <g>
       <use xlink:href="#m0fcf446334" x="46.350914" y="15.01135" style="fill: #323034; stroke: #323034; stroke-width: 0.8"/>
      </g>
     </g>
     <g id="text_17">
      <!-- $\mathdefault{55}$ -->
      <g style="fill: #323034" transform="translate(27.350914 19.109162)scale(0.12 -0.12)">
       <use xlink:href="#STIXGeneral-Regular-35" transform="translate(0 0.203125)"/>
       <use xlink:href="#STIXGeneral-Regular-35" transform="translate(49.999985 0.203125)"/>
      </g>
     </g>
    </g>
    <g id="text_18">
     <!-- Close ($) -->
     <g transform="translate(21.746539 127.284375)rotate(-90)scale(0.12 -0.12)">
      <defs>
       <path id="STIXGeneral-Regular-43" d="M 3930 838 
L 4051 723 
Q 3482 -90 2304 -90 
Q 1376 -90 794 480 
Q 179 1082 179 2080 
Q 179 3014 755 3661 
Q 1357 4326 2310 4326 
Q 2720 4326 3072 4230 
Q 3475 4115 3514 4115 
Q 3725 4115 3782 4326 
L 3910 4326 
L 3968 2874 
L 3821 2874 
Q 3718 3334 3488 3584 
Q 3034 4070 2458 4070 
Q 1747 4070 1334 3548 
Q 922 3027 922 2182 
Q 922 1152 1382 653 
Q 1811 192 2522 192 
Q 2944 192 3251 339 
Q 3558 486 3930 838 
z
" transform="scale(0.015625)"/>
       <path id="STIXGeneral-Regular-6c" d="M 1645 0 
L 134 0 
L 134 96 
Q 435 122 531 221 
Q 627 320 627 589 
L 627 3590 
Q 627 3821 569 3910 
Q 512 4000 358 4000 
Q 224 4000 122 3987 
L 122 4090 
Q 730 4237 1133 4371 
L 1165 4346 
L 1165 557 
Q 1165 288 1254 201 
Q 1344 115 1645 96 
L 1645 0 
z
" transform="scale(0.015625)"/>
       <path id="STIXGeneral-Regular-6f" d="M 3008 1478 
Q 3008 806 2608 371 
Q 2208 -64 1568 -64 
Q 979 -64 582 368 
Q 186 800 186 1459 
Q 186 2125 582 2534 
Q 979 2944 1626 2944 
Q 2221 2944 2614 2537 
Q 3008 2131 3008 1478 
z
M 2432 1306 
Q 2432 2035 2112 2445 
Q 1856 2765 1504 2765 
Q 1171 2765 966 2493 
Q 762 2221 762 1747 
Q 762 928 1101 435 
Q 1318 115 1677 115 
Q 2029 115 2230 432 
Q 2432 749 2432 1306 
z
" transform="scale(0.015625)"/>
       <path id="STIXGeneral-Regular-73" d="M 998 1926 
L 1664 1523 
Q 1984 1331 2105 1164 
Q 2227 998 2227 736 
Q 2227 416 1961 176 
Q 1696 -64 1331 -64 
Q 1030 -64 864 -6 
Q 691 51 570 51 
Q 461 51 416 -26 
L 333 -26 
L 333 979 
L 435 979 
Q 538 512 730 294 
Q 922 77 1248 77 
Q 1485 77 1632 211 
Q 1779 346 1779 550 
Q 1779 845 1440 1030 
L 1094 1222 
Q 326 1651 326 2150 
Q 326 2522 566 2730 
Q 806 2938 1210 2938 
Q 1491 2938 1638 2867 
Q 1754 2816 1818 2816 
Q 1862 2816 1920 2880 
L 1990 2880 
L 2022 2010 
L 1926 2010 
Q 1818 2445 1654 2621 
Q 1491 2797 1203 2797 
Q 986 2797 854 2688 
Q 723 2579 723 2362 
Q 723 2253 796 2128 
Q 870 2003 998 1926 
z
" transform="scale(0.015625)"/>
       <path id="STIXGeneral-Regular-20" transform="scale(0.015625)"/>
       <path id="STIXGeneral-Regular-28" d="M 1946 -1030 
L 1869 -1133 
Q 1126 -710 716 32 
Q 307 774 307 1613 
Q 307 3386 1888 4326 
L 1946 4224 
Q 1293 3667 1075 3126 
Q 858 2586 858 1632 
Q 858 685 1082 96 
Q 1306 -493 1946 -1030 
z
" transform="scale(0.015625)"/>
       <path id="STIXGeneral-Regular-24" d="M 1690 4077 
L 1690 2502 
Q 2234 2208 2445 2045 
Q 2656 1882 2797 1664 
Q 2931 1466 2931 1088 
Q 2931 570 2614 326 
Q 2298 83 1690 0 
L 1690 -557 
L 1472 -557 
L 1472 0 
Q 1062 0 806 73 
Q 550 147 282 326 
L 282 1158 
L 378 1158 
Q 480 685 761 432 
Q 1043 179 1472 179 
L 1472 1984 
Q 800 2362 566 2624 
Q 333 2886 333 3283 
Q 333 3731 659 3974 
Q 986 4218 1472 4250 
L 1472 4653 
L 1690 4653 
L 1690 4250 
Q 2426 4205 2720 3910 
L 2720 3200 
L 2624 3200 
Q 2528 3597 2301 3814 
Q 2074 4032 1690 4077 
z
M 1472 2605 
L 1472 4077 
Q 806 3942 806 3405 
Q 806 3194 937 3037 
Q 1069 2880 1472 2605 
z
M 1690 1875 
L 1690 179 
Q 2086 262 2252 432 
Q 2419 602 2419 941 
Q 2419 1235 2272 1427 
Q 2125 1619 1690 1875 
z
" transform="scale(0.015625)"/>
       <path id="STIXGeneral-Regular-29" d="M 186 4224 
L 262 4326 
Q 992 3891 1408 3148 
Q 1824 2406 1824 1581 
Q 1824 -166 243 -1133 
L 186 -1030 
Q 845 -486 1059 54 
Q 1274 595 1274 1562 
Q 1274 2534 1059 3120 
Q 845 3706 186 4224 
z
" transform="scale(0.015625)"/>
      </defs>
      <use xlink:href="#STIXGeneral-Regular-43"/>
      <use xlink:href="#STIXGeneral-Regular-6c" x="66.699997"/>
      <use xlink:href="#STIXGeneral-Regular-6f" x="94.499985"/>
      <use xlink:href="#STIXGeneral-Regular-73" x="144.499969"/>
      <use xlink:href="#STIXGeneral-Regular-65" x="183.399963"/>
      <use xlink:href="#STIXGeneral-Regular-20" x="227.799957"/>
      <use xlink:href="#STIXGeneral-Regular-28" x="252.799942"/>
      <use xlink:href="#STIXGeneral-Regular-24" x="286.09993"/>
      <use xlink:href="#STIXGeneral-Regular-29" x="336.099915"/>
     </g>
    </g>
   </g>
   <g id="line2d_17">
    <path d="M 61.569096 180.189162 
L 62.323405 178.621868 
L 63.454868 177.819546 
L 64.963486 174.997316 
L 66.472104 174.29683 
L 67.603567 171.942261 
L 68.735031 171.170168 
L 70.243648 168.121294 
L 71.375112 167.427391 
L 72.506575 165.425215 
L 72.883729 165.017875 
L 74.015193 164.579634 
L 75.523811 163.124117 
L 76.655274 162.769709 
L 77.409583 162.048668 
L 78.163892 161.513429 
L 79.295355 161.157947 
L 80.803973 159.763692 
L 81.935436 159.246455 
L 83.444054 157.159775 
L 84.575517 156.635956 
L 85.329826 155.745368 
L 85.706981 155.296111 
L 87.215598 154.820388 
L 88.724216 152.926899 
L 89.855679 152.497257 
L 91.364297 150.758805 
L 92.495761 150.32661 
L 93.627224 149.015516 
L 94.004378 148.842209 
L 95.512996 148.663258 
L 96.267305 148.594338 
L 96.644459 148.631418 
L 98.530232 148.349692 
L 99.284541 148.04244 
L 100.793158 147.793495 
L 101.547467 147.514187 
L 101.924622 147.445401 
L 106.827629 147.201292 
L 107.204784 147.119878 
L 109.090556 146.991979 
L 109.844865 147.163406 
L 111.353483 147.329057 
L 113.993564 147.796853 
L 115.125027 147.544012 
L 117.010799 147.182752 
L 117.387954 146.948182 
L 117.765108 146.846885 
L 119.273726 146.531169 
L 120.028035 146.040667 
L 120.405189 145.941788 
L 121.536653 145.841968 
L 121.913807 145.560511 
L 123.045271 144.170421 
L 124.176734 143.65614 
L 125.685352 141.277523 
L 126.816815 140.672155 
L 128.325433 138.613285 
L 129.456896 138.026859 
L 130.965514 135.901891 
L 132.096977 135.420793 
L 132.851286 134.611217 
L 133.605595 134.198906 
L 135.114213 133.998191 
L 136.245676 133.617183 
L 138.508603 133.268418 
L 138.885757 133.098334 
L 140.394375 132.877199 
L 141.148684 132.402819 
L 141.525838 132.419075 
L 143.034456 132.224675 
L 143.788765 132.141782 
L 144.165919 132.283384 
L 145.674537 132.296819 
L 146.806001 132.663184 
L 147.937464 132.496728 
L 149.446082 131.337849 
L 150.577545 130.91573 
L 152.086163 129.205357 
L 153.217626 128.844634 
L 154.726244 127.609044 
L 155.857707 127.222661 
L 156.612016 126.52016 
L 157.366325 125.458952 
L 158.497788 124.985378 
L 160.006406 123.036941 
L 161.137869 122.44568 
L 161.892178 121.290563 
L 162.646487 120.256358 
L 163.777951 119.644138 
L 165.286568 117.233547 
L 166.418032 116.538838 
L 167.926649 114.078807 
L 169.058113 113.625386 
L 169.812422 112.905151 
L 171.698194 112.044388 
L 173.206812 109.769085 
L 174.338275 109.20926 
L 175.092584 108.538062 
L 175.846893 107.944248 
L 177.35551 107.336192 
L 178.109819 107.090874 
L 178.486974 107.045331 
L 179.995592 107.192038 
L 181.127055 107.446894 
L 183.012827 107.641026 
L 183.389982 107.944382 
L 183.767136 108.478546 
L 185.275754 108.860361 
L 186.407217 110.475214 
L 187.53868 110.671495 
L 188.292989 110.98627 
L 189.047298 110.749954 
L 190.93307 110.559584 
L 191.687379 110.32273 
L 192.818843 110.065858 
L 193.573152 109.633126 
L 196.590387 109.260044 
L 196.967542 108.935058 
L 198.099005 108.555124 
L 199.230468 107.700408 
L 199.607623 107.491095 
L 201.493395 107.442461 
L 201.870549 107.595482 
L 202.247704 107.872641 
L 203.756322 107.930544 
L 204.887785 108.818041 
L 206.019248 109.199453 
L 206.396403 109.500525 
L 207.527866 109.928824 
L 209.036484 109.862188 
L 209.790793 109.444099 
L 210.167947 109.187227 
L 211.29941 108.906308 
L 212.430874 107.270631 
L 212.808028 107.049764 
L 215.070955 106.469653 
L 215.448109 106.631945 
L 216.956727 106.987427 
L 217.711036 106.649007 
L 219.219654 106.284254 
L 220.728272 105.075801 
L 221.859735 104.615528 
L 223.368353 103.073491 
L 224.499816 102.74864 
L 226.008434 101.651561 
L 227.139897 101.308842 
L 228.27136 100.156546 
L 228.648515 99.522293 
L 229.779978 98.75947 
L 230.534287 97.117479 
L 231.288596 95.449962 
L 232.420059 94.672495 
L 233.174368 93.084109 
L 233.928677 91.903332 
L 235.06014 91.224475 
L 236.191604 89.807785 
L 236.568758 89.437524 
L 237.700222 89.176084 
L 239.208839 87.975827 
L 240.717457 87.261906 
L 241.471766 85.892237 
L 241.84892 85.086691 
L 242.980384 84.215047 
L 243.734693 82.539872 
L 244.489002 81.310999 
L 245.997619 80.566447 
L 247.129083 80.007428 
L 248.260546 79.932194 
L 249.014855 79.574831 
L 249.392009 79.323198 
L 249.769164 79.232111 
L 251.277782 79.009498 
L 251.654936 78.561316 
L 252.409245 77.274404 
L 253.540708 76.598504 
L 253.917863 76.000525 
L 254.672172 75.375542 
L 255.049326 74.685132 
L 256.180789 73.99405 
L 257.689407 71.54826 
L 258.82087 70.745133 
L 260.329488 67.576421 
L 261.460952 66.733392 
L 262.21526 64.745457 
L 262.969569 62.246735 
L 264.101033 60.859735 
L 265.60965 55.463009 
L 266.741114 54.378425 
L 268.249732 49.318239 
L 269.381195 48.327832 
L 270.889813 44.534271 
L 272.021276 43.558239 
L 273.529894 39.304002 
L 274.661357 38.122285 
L 276.169975 33.497653 
L 277.678593 32.413874 
L 278.432902 30.328134 
L 278.810056 29.886535 
L 279.941519 29.386495 
L 280.695828 28.612387 
L 281.450137 27.823903 
L 282.5816 27.462241 
L 283.335909 26.588178 
L 283.713064 26.415408 
L 284.090218 26.105872 
L 285.221681 26.008873 
L 285.97599 26.250833 
L 286.730299 25.894544 
L 287.861763 26.153431 
L 288.993226 27.400307 
L 289.37038 27.845936 
L 290.501844 28.488519 
L 292.010461 32.9827 
L 293.141925 33.861062 
L 293.519079 34.892042 
L 294.650543 39.540453 
L 295.782006 41.116614 
L 296.913469 44.936775 
L 297.290624 46.259289 
L 298.422087 47.302226 
L 299.55355 51.892868 
L 299.930705 53.667325 
L 301.062168 55.498746 
L 302.570786 63.430736 
L 303.702249 65.299102 
L 305.210867 73.854866 
L 306.34233 75.941143 
L 307.096639 80.025431 
L 307.850948 82.06388 
L 308.982411 83.928888 
L 310.491029 93.216172 
L 311.622493 95.353232 
L 311.999647 97.361453 
L 312.753956 99.287051 
L 313.13111 101.320799 
L 314.262574 103.43502 
L 315.016883 107.252494 
L 315.771191 110.304055 
L 316.902655 112.102561 
L 317.656964 115.435445 
L 318.411273 117.888087 
L 319.542736 118.588976 
L 320.297045 119.400164 
L 320.674199 120.278391 
L 321.051354 120.753308 
L 323.31428 120.971085 
L 323.691435 121.083265 
L 324.822898 121.216134 
L 326.331516 122.473086 
L 327.840134 122.699999 
L 328.594443 122.459114 
L 328.971597 122.25316 
L 330.857369 121.90735 
L 331.611678 121.250527 
L 332.743141 120.907942 
L 333.49745 119.807236 
L 334.251759 118.202862 
L 335.383223 117.471207 
L 336.89184 113.972673 
L 338.023304 112.456162 
L 339.531921 107.127686 
L 341.040539 105.964508 
L 342.172003 102.353928 
L 343.303466 101.189676 
L 344.434929 97.380799 
L 344.812084 95.995143 
L 345.943547 94.527132 
L 347.452165 89.044155 
L 348.583628 87.962258 
L 349.715091 84.962689 
L 350.092246 83.971341 
L 351.223709 82.850752 
L 352.732327 78.171172 
L 353.86379 77.067107 
L 354.618099 74.786295 
L 355.372408 72.245522 
L 356.503871 71.08624 
L 358.012489 67.564464 
L 359.143953 67.189904 
L 359.898261 66.221395 
L 360.65257 65.127138 
L 361.784034 64.771789 
L 362.161188 64.497184 
L 362.538343 64.413889 
L 364.424115 64.591361 
L 365.555578 65.398116 
L 365.932733 65.803575 
L 365.932733 65.803575 
" clip-path="url(#p49d55d2aea)" style="fill: none; stroke: #bc80bd; stroke-width: 2; stroke-linecap: square"/>
   </g>
   <g id="patch_3">
    <path d="M 46.350914 203.04 
L 46.350914 7.2 
" style="fill: none; stroke: #000000; stroke-width: 0.6; stroke-linejoin: miter; stroke-linecap: square"/>
   </g>
   <g id="patch_4">
    <path d="M 46.350914 203.04 
L 381.150914 203.04 
" style="fill: none; stroke: #000000; stroke-width: 0.6; stroke-linejoin: miter; stroke-linecap: square"/>
   </g>
  </g>
 </g>
 <defs>
  <clipPath id="p49d55d2aea">
   <rect x="46.350914" y="7.2" width="334.8" height="195.84"/>
  </clipPath>
 </defs>
</svg>
