<?xml version="1.0" encoding="utf-8" standalone="no"?>
<!DOCTYPE svg PUBLIC "-//W3C//DTD SVG 1.1//EN"
  "http://www.w3.org/Graphics/SVG/1.1/DTD/svg11.dtd">
<svg xmlns:xlink="http://www.w3.org/1999/xlink" width="382.04875pt" height="260.390887pt" viewBox="0 0 382.04875 260.390887" xmlns="http://www.w3.org/2000/svg" version="1.1">
 <metadata>
  <rdf:RDF xmlns:dc="http://purl.org/dc/elements/1.1/" xmlns:cc="http://creativecommons.org/ns#" xmlns:rdf="http://www.w3.org/1999/02/22-rdf-syntax-ns#">
   <cc:Work>
    <dc:type rdf:resource="http://purl.org/dc/dcmitype/StillImage"/>
    <dc:date>2022-07-21T18:11:57.046992</dc:date>
    <dc:format>image/svg+xml</dc:format>
    <dc:creator>
     <cc:Agent>
      <dc:title>Matplotlib v3.5.2, https://matplotlib.org/</dc:title>
     </cc:Agent>
    </dc:creator>
   </cc:Work>
  </rdf:RDF>
 </metadata>
 <defs>
  <style type="text/css">*{stroke-linejoin: round; stroke-linecap: butt}</style>
 </defs>
 <g id="figure_1">
  <g id="patch_1">
   <path d="M 0 260.390887 
L 382.04875 260.390887 
L 382.04875 0 
L 0 0 
L 0 260.390887 
z
" style="fill: none"/>
  </g>
  <g id="axes_1">
   <g id="patch_2">
    <path d="M 40.04875 203.04 
L 374.84875 203.04 
L 374.84875 7.2 
L 40.04875 7.2 
z
" style="fill: #ffffff"/>
   </g>
   <g id="matplotlib.axis_1">
    <g id="xtick_1">
     <g id="line2d_1">
      <defs>
       <path id="m9b700bc84b" d="M 0 0 
L 0 3.5 
" style="stroke: #323034; stroke-width: 0.8"/>
      </defs>
      <g>
       <use xlink:href="#m9b700bc84b" x="54.573621" y="203.04" style="fill: #323034; stroke: #323034; stroke-width: 0.8"/>
      </g>
     </g>
     <g id="text_1">
      <!-- 2017-01 -->
      <g style="fill: #323034" transform="translate(18.634206 237.135432)rotate(-30)scale(0.12 -0.12)">
       <defs>
        <path id="STIXGeneral-Regular-32" d="M 3034 877 
L 2688 0 
L 186 0 
L 186 77 
L 1325 1286 
Q 1773 1754 1965 2144 
Q 2157 2534 2157 2950 
Q 2157 3379 1920 3616 
Q 1683 3853 1267 3853 
Q 922 3853 720 3673 
Q 518 3494 326 3021 
L 192 3053 
Q 301 3648 630 3987 
Q 960 4326 1523 4326 
Q 2054 4326 2380 4006 
Q 2707 3686 2707 3200 
Q 2707 2477 1888 1613 
L 832 486 
L 2330 486 
Q 2541 486 2665 569 
Q 2790 653 2944 915 
L 3034 877 
z
" transform="scale(0.015625)"/>
        <path id="STIXGeneral-Regular-30" d="M 3046 2112 
Q 3046 1683 2963 1302 
Q 2880 922 2717 602 
Q 2554 282 2266 96 
Q 1978 -90 1600 -90 
Q 1210 -90 915 108 
Q 621 307 461 640 
Q 301 973 227 1350 
Q 154 1728 154 2150 
Q 154 2746 301 3222 
Q 448 3699 790 4012 
Q 1133 4326 1626 4326 
Q 2253 4326 2649 3712 
Q 3046 3098 3046 2112 
z
M 2432 2080 
Q 2432 3091 2217 3625 
Q 2003 4160 1587 4160 
Q 1190 4160 979 3622 
Q 768 3085 768 2106 
Q 768 1120 979 598 
Q 1190 77 1600 77 
Q 2003 77 2217 598 
Q 2432 1120 2432 2080 
z
" transform="scale(0.015625)"/>
        <path id="STIXGeneral-Regular-31" d="M 2522 0 
L 755 0 
L 755 96 
Q 1107 115 1235 227 
Q 1363 339 1363 608 
L 1363 3482 
Q 1363 3795 1171 3795 
Q 1082 3795 883 3718 
L 710 3654 
L 710 3744 
L 1856 4326 
L 1914 4307 
L 1914 486 
Q 1914 275 2042 185 
Q 2170 96 2522 96 
L 2522 0 
z
" transform="scale(0.015625)"/>
        <path id="STIXGeneral-Regular-37" d="M 2874 4134 
L 1517 -51 
L 1101 -51 
L 2368 3763 
L 992 3763 
Q 717 3763 582 3667 
Q 448 3571 243 3238 
L 128 3296 
L 512 4237 
L 2874 4237 
L 2874 4134 
z
" transform="scale(0.015625)"/>
        <path id="STIXGeneral-Regular-2d" d="M 1824 1242 
L 250 1242 
L 250 1645 
L 1824 1645 
L 1824 1242 
z
" transform="scale(0.015625)"/>
       </defs>
       <use xlink:href="#STIXGeneral-Regular-32"/>
       <use xlink:href="#STIXGeneral-Regular-30" x="49.999985"/>
       <use xlink:href="#STIXGeneral-Regular-31" x="99.999969"/>
       <use xlink:href="#STIXGeneral-Regular-37" x="149.999954"/>
       <use xlink:href="#STIXGeneral-Regular-2d" x="199.999939"/>
       <use xlink:href="#STIXGeneral-Regular-30" x="233.299927"/>
       <use xlink:href="#STIXGeneral-Regular-31" x="283.299911"/>
      </g>
     </g>
    </g>
    <g id="xtick_2">
     <g id="line2d_2">
      <g>
       <use xlink:href="#m9b700bc84b" x="85.772627" y="203.04" style="fill: #323034; stroke: #323034; stroke-width: 0.8"/>
      </g>
     </g>
     <g id="text_2">
      <!-- 2017-04 -->
      <g style="fill: #323034" transform="translate(49.833212 237.135432)rotate(-30)scale(0.12 -0.12)">
       <defs>
        <path id="STIXGeneral-Regular-34" d="M 3027 1069 
L 2368 1069 
L 2368 0 
L 1869 0 
L 1869 1069 
L 77 1069 
L 77 1478 
L 2086 4326 
L 2368 4326 
L 2368 1478 
L 3027 1478 
L 3027 1069 
z
M 1869 1478 
L 1869 3674 
L 333 1478 
L 1869 1478 
z
" transform="scale(0.015625)"/>
       </defs>
       <use xlink:href="#STIXGeneral-Regular-32"/>
       <use xlink:href="#STIXGeneral-Regular-30" x="49.999985"/>
       <use xlink:href="#STIXGeneral-Regular-31" x="99.999969"/>
       <use xlink:href="#STIXGeneral-Regular-37" x="149.999954"/>
       <use xlink:href="#STIXGeneral-Regular-2d" x="199.999939"/>
       <use xlink:href="#STIXGeneral-Regular-30" x="233.299927"/>
       <use xlink:href="#STIXGeneral-Regular-34" x="283.299911"/>
      </g>
     </g>
    </g>
    <g id="xtick_3">
     <g id="line2d_3">
      <g>
       <use xlink:href="#m9b700bc84b" x="117.318288" y="203.04" style="fill: #323034; stroke: #323034; stroke-width: 0.8"/>
      </g>
     </g>
     <g id="text_3">
      <!-- 2017-07 -->
      <g style="fill: #323034" transform="translate(81.378873 237.135432)rotate(-30)scale(0.12 -0.12)">
       <use xlink:href="#STIXGeneral-Regular-32"/>
       <use xlink:href="#STIXGeneral-Regular-30" x="49.999985"/>
       <use xlink:href="#STIXGeneral-Regular-31" x="99.999969"/>
       <use xlink:href="#STIXGeneral-Regular-37" x="149.999954"/>
       <use xlink:href="#STIXGeneral-Regular-2d" x="199.999939"/>
       <use xlink:href="#STIXGeneral-Regular-30" x="233.299927"/>
       <use xlink:href="#STIXGeneral-Regular-37" x="283.299911"/>
      </g>
     </g>
    </g>
    <g id="xtick_4">
     <g id="line2d_4">
      <g>
       <use xlink:href="#m9b700bc84b" x="149.210605" y="203.04" style="fill: #323034; stroke: #323034; stroke-width: 0.8"/>
      </g>
     </g>
     <g id="text_4">
      <!-- 2017-10 -->
      <g style="fill: #323034" transform="translate(113.271191 237.135432)rotate(-30)scale(0.12 -0.12)">
       <use xlink:href="#STIXGeneral-Regular-32"/>
       <use xlink:href="#STIXGeneral-Regular-30" x="49.999985"/>
       <use xlink:href="#STIXGeneral-Regular-31" x="99.999969"/>
       <use xlink:href="#STIXGeneral-Regular-37" x="149.999954"/>
       <use xlink:href="#STIXGeneral-Regular-2d" x="199.999939"/>
       <use xlink:href="#STIXGeneral-Regular-31" x="233.299927"/>
       <use xlink:href="#STIXGeneral-Regular-30" x="283.299911"/>
      </g>
     </g>
    </g>
    <g id="xtick_5">
     <g id="line2d_5">
      <g>
       <use xlink:href="#m9b700bc84b" x="181.102923" y="203.04" style="fill: #323034; stroke: #323034; stroke-width: 0.8"/>
      </g>
     </g>
     <g id="text_5">
      <!-- 2018-01 -->
      <g style="fill: #323034" transform="translate(145.163508 237.135432)rotate(-30)scale(0.12 -0.12)">
       <defs>
        <path id="STIXGeneral-Regular-38" d="M 2848 992 
Q 2848 499 2505 204 
Q 2163 -90 1587 -90 
Q 1050 -90 704 204 
Q 358 499 358 954 
Q 358 1293 524 1533 
Q 691 1773 1190 2125 
Q 710 2522 553 2765 
Q 397 3008 397 3328 
Q 397 3782 745 4054 
Q 1094 4326 1638 4326 
Q 2106 4326 2410 4060 
Q 2714 3795 2714 3411 
Q 2714 3059 2531 2848 
Q 2349 2637 1856 2374 
Q 2432 1990 2640 1689 
Q 2848 1389 2848 992 
z
M 2272 3411 
Q 2272 3744 2086 3945 
Q 1901 4147 1574 4147 
Q 1248 4147 1059 3977 
Q 870 3808 870 3513 
Q 870 3219 1059 2979 
Q 1248 2739 1670 2490 
Q 1997 2682 2134 2896 
Q 2272 3110 2272 3411 
z
M 1734 1741 
L 1357 1997 
Q 1075 1766 960 1545 
Q 845 1325 845 1011 
Q 845 576 1065 333 
Q 1286 90 1658 90 
Q 1971 90 2166 285 
Q 2362 480 2362 794 
Q 2362 1082 2214 1299 
Q 2067 1517 1734 1741 
z
" transform="scale(0.015625)"/>
       </defs>
       <use xlink:href="#STIXGeneral-Regular-32"/>
       <use xlink:href="#STIXGeneral-Regular-30" x="49.999985"/>
       <use xlink:href="#STIXGeneral-Regular-31" x="99.999969"/>
       <use xlink:href="#STIXGeneral-Regular-38" x="149.999954"/>
       <use xlink:href="#STIXGeneral-Regular-2d" x="199.999939"/>
       <use xlink:href="#STIXGeneral-Regular-30" x="233.299927"/>
       <use xlink:href="#STIXGeneral-Regular-31" x="283.299911"/>
      </g>
     </g>
    </g>
    <g id="xtick_6">
     <g id="line2d_6">
      <g>
       <use xlink:href="#m9b700bc84b" x="212.301929" y="203.04" style="fill: #323034; stroke: #323034; stroke-width: 0.8"/>
      </g>
     </g>
     <g id="text_6">
      <!-- 2018-04 -->
      <g style="fill: #323034" transform="translate(176.362514 237.135432)rotate(-30)scale(0.12 -0.12)">
       <use xlink:href="#STIXGeneral-Regular-32"/>
       <use xlink:href="#STIXGeneral-Regular-30" x="49.999985"/>
       <use xlink:href="#STIXGeneral-Regular-31" x="99.999969"/>
       <use xlink:href="#STIXGeneral-Regular-38" x="149.999954"/>
       <use xlink:href="#STIXGeneral-Regular-2d" x="199.999939"/>
       <use xlink:href="#STIXGeneral-Regular-30" x="233.299927"/>
       <use xlink:href="#STIXGeneral-Regular-34" x="283.299911"/>
      </g>
     </g>
    </g>
    <g id="xtick_7">
     <g id="line2d_7">
      <g>
       <use xlink:href="#m9b700bc84b" x="243.84759" y="203.04" style="fill: #323034; stroke: #323034; stroke-width: 0.8"/>
      </g>
     </g>
     <g id="text_7">
      <!-- 2018-07 -->
      <g style="fill: #323034" transform="translate(207.908176 237.135432)rotate(-30)scale(0.12 -0.12)">
       <use xlink:href="#STIXGeneral-Regular-32"/>
       <use xlink:href="#STIXGeneral-Regular-30" x="49.999985"/>
       <use xlink:href="#STIXGeneral-Regular-31" x="99.999969"/>
       <use xlink:href="#STIXGeneral-Regular-38" x="149.999954"/>
       <use xlink:href="#STIXGeneral-Regular-2d" x="199.999939"/>
       <use xlink:href="#STIXGeneral-Regular-30" x="233.299927"/>
       <use xlink:href="#STIXGeneral-Regular-37" x="283.299911"/>
      </g>
     </g>
    </g>
    <g id="xtick_8">
     <g id="line2d_8">
      <g>
       <use xlink:href="#m9b700bc84b" x="275.739908" y="203.04" style="fill: #323034; stroke: #323034; stroke-width: 0.8"/>
      </g>
     </g>
     <g id="text_8">
      <!-- 2018-10 -->
      <g style="fill: #323034" transform="translate(239.800493 237.135432)rotate(-30)scale(0.12 -0.12)">
       <use xlink:href="#STIXGeneral-Regular-32"/>
       <use xlink:href="#STIXGeneral-Regular-30" x="49.999985"/>
       <use xlink:href="#STIXGeneral-Regular-31" x="99.999969"/>
       <use xlink:href="#STIXGeneral-Regular-38" x="149.999954"/>
       <use xlink:href="#STIXGeneral-Regular-2d" x="199.999939"/>
       <use xlink:href="#STIXGeneral-Regular-31" x="233.299927"/>
       <use xlink:href="#STIXGeneral-Regular-30" x="283.299911"/>
      </g>
     </g>
    </g>
    <g id="xtick_9">
     <g id="line2d_9">
      <g>
       <use xlink:href="#m9b700bc84b" x="307.632225" y="203.04" style="fill: #323034; stroke: #323034; stroke-width: 0.8"/>
      </g>
     </g>
     <g id="text_9">
      <!-- 2019-01 -->
      <g style="fill: #323034" transform="translate(271.69281 237.135432)rotate(-30)scale(0.12 -0.12)">
       <defs>
        <path id="STIXGeneral-Regular-39" d="M 378 -141 
L 358 -13 
Q 1094 115 1603 608 
Q 2112 1101 2304 1882 
Q 1933 1517 1344 1517 
Q 826 1517 509 1875 
Q 192 2234 192 2816 
Q 192 3462 573 3894 
Q 954 4326 1523 4326 
Q 2131 4326 2528 3840 
Q 2938 3328 2938 2522 
Q 2938 1958 2742 1462 
Q 2547 966 2170 621 
Q 1773 262 1395 105 
Q 1018 -51 378 -141 
z
M 2317 2272 
L 2317 2522 
Q 2317 4147 1472 4147 
Q 1171 4147 1005 3930 
Q 909 3802 845 3546 
Q 781 3290 781 3034 
Q 781 2464 995 2128 
Q 1210 1792 1568 1792 
Q 1824 1792 2070 1917 
Q 2317 2042 2317 2272 
z
" transform="scale(0.015625)"/>
       </defs>
       <use xlink:href="#STIXGeneral-Regular-32"/>
       <use xlink:href="#STIXGeneral-Regular-30" x="49.999985"/>
       <use xlink:href="#STIXGeneral-Regular-31" x="99.999969"/>
       <use xlink:href="#STIXGeneral-Regular-39" x="149.999954"/>
       <use xlink:href="#STIXGeneral-Regular-2d" x="199.999939"/>
       <use xlink:href="#STIXGeneral-Regular-30" x="233.299927"/>
       <use xlink:href="#STIXGeneral-Regular-31" x="283.299911"/>
      </g>
     </g>
    </g>
    <g id="xtick_10">
     <g id="line2d_10">
      <g>
       <use xlink:href="#m9b700bc84b" x="338.831231" y="203.04" style="fill: #323034; stroke: #323034; stroke-width: 0.8"/>
      </g>
     </g>
     <g id="text_10">
      <!-- 2019-04 -->
      <g style="fill: #323034" transform="translate(302.891816 237.135432)rotate(-30)scale(0.12 -0.12)">
       <use xlink:href="#STIXGeneral-Regular-32"/>
       <use xlink:href="#STIXGeneral-Regular-30" x="49.999985"/>
       <use xlink:href="#STIXGeneral-Regular-31" x="99.999969"/>
       <use xlink:href="#STIXGeneral-Regular-39" x="149.999954"/>
       <use xlink:href="#STIXGeneral-Regular-2d" x="199.999939"/>
       <use xlink:href="#STIXGeneral-Regular-30" x="233.299927"/>
       <use xlink:href="#STIXGeneral-Regular-34" x="283.299911"/>
      </g>
     </g>
    </g>
    <g id="xtick_11">
     <g id="line2d_11">
      <g>
       <use xlink:href="#m9b700bc84b" x="370.376892" y="203.04" style="fill: #323034; stroke: #323034; stroke-width: 0.8"/>
      </g>
     </g>
     <g id="text_11">
      <!-- 2019-07 -->
      <g style="fill: #323034" transform="translate(334.437478 237.135432)rotate(-30)scale(0.12 -0.12)">
       <use xlink:href="#STIXGeneral-Regular-32"/>
       <use xlink:href="#STIXGeneral-Regular-30" x="49.999985"/>
       <use xlink:href="#STIXGeneral-Regular-31" x="99.999969"/>
       <use xlink:href="#STIXGeneral-Regular-39" x="149.999954"/>
       <use xlink:href="#STIXGeneral-Regular-2d" x="199.999939"/>
       <use xlink:href="#STIXGeneral-Regular-30" x="233.299927"/>
       <use xlink:href="#STIXGeneral-Regular-37" x="283.299911"/>
      </g>
     </g>
    </g>
    <g id="text_12">
     <!-- Date -->
     <g transform="translate(196.12 250.586512)scale(0.12 -0.12)">
      <defs>
       <path id="STIXGeneral-Regular-44" d="M 102 4237 
L 1830 4237 
Q 3078 4237 3750 3654 
Q 4384 3110 4384 2138 
Q 4384 966 3514 410 
Q 2880 0 1901 0 
L 102 0 
L 102 122 
Q 474 147 570 252 
Q 666 358 666 736 
L 666 3520 
Q 666 3891 570 3990 
Q 474 4090 102 4115 
L 102 4237 
z
M 1318 3731 
L 1318 538 
Q 1318 365 1379 301 
Q 1440 237 1626 237 
Q 2125 237 2432 307 
Q 2739 378 3021 570 
Q 3686 1018 3686 2099 
Q 3686 3027 3078 3558 
Q 2803 3802 2476 3901 
Q 2150 4000 1658 4000 
Q 1472 4000 1395 3942 
Q 1318 3885 1318 3731 
z
" transform="scale(0.015625)"/>
       <path id="STIXGeneral-Regular-61" d="M 2829 422 
L 2829 243 
Q 2586 -64 2253 -64 
Q 1888 -64 1843 403 
L 1837 403 
Q 1427 -64 909 -64 
Q 608 -64 422 112 
Q 237 288 237 602 
Q 237 1050 685 1350 
Q 992 1555 1837 1869 
L 1837 2214 
Q 1837 2502 1699 2646 
Q 1562 2790 1338 2790 
Q 1146 2790 1018 2697 
Q 890 2605 890 2477 
Q 890 2419 909 2348 
Q 928 2278 928 2208 
Q 928 2112 841 2029 
Q 755 1946 634 1946 
Q 525 1946 441 2029 
Q 358 2112 358 2240 
Q 358 2547 685 2752 
Q 986 2944 1421 2944 
Q 1939 2944 2176 2656 
Q 2291 2522 2323 2384 
Q 2355 2246 2355 1946 
L 2355 723 
Q 2355 301 2554 301 
Q 2682 301 2829 422 
z
M 1837 813 
L 1837 1715 
Q 1248 1510 1018 1293 
Q 800 1094 800 800 
Q 800 557 921 432 
Q 1043 307 1242 307 
Q 1453 307 1613 410 
Q 1747 506 1792 589 
Q 1837 672 1837 813 
z
" transform="scale(0.015625)"/>
       <path id="STIXGeneral-Regular-74" d="M 1702 493 
L 1786 422 
Q 1478 -64 1011 -64 
Q 448 -64 448 749 
L 448 2675 
L 109 2675 
Q 83 2694 83 2720 
Q 83 2771 192 2842 
Q 435 2982 813 3526 
Q 826 3546 874 3606 
Q 922 3667 941 3706 
Q 986 3706 986 3622 
L 986 2880 
L 1632 2880 
L 1632 2675 
L 986 2675 
L 986 845 
Q 986 538 1062 403 
Q 1139 269 1318 269 
Q 1510 269 1702 493 
z
" transform="scale(0.015625)"/>
       <path id="STIXGeneral-Regular-65" d="M 2611 1050 
L 2714 1005 
Q 2330 -64 1376 -64 
Q 813 -64 486 329 
Q 160 723 160 1389 
Q 160 2074 525 2509 
Q 890 2944 1485 2944 
Q 2061 2944 2374 2502 
Q 2560 2246 2592 1773 
L 621 1773 
Q 646 1370 700 1158 
Q 755 947 915 730 
Q 1184 378 1626 378 
Q 1939 378 2153 531 
Q 2368 685 2611 1050 
z
M 634 1978 
L 1939 1978 
Q 1882 2381 1750 2547 
Q 1619 2714 1312 2714 
Q 1043 2714 864 2525 
Q 685 2336 634 1978 
z
" transform="scale(0.015625)"/>
      </defs>
      <use xlink:href="#STIXGeneral-Regular-44"/>
      <use xlink:href="#STIXGeneral-Regular-61" x="72.199982"/>
      <use xlink:href="#STIXGeneral-Regular-74" x="116.599976"/>
      <use xlink:href="#STIXGeneral-Regular-65" x="144.399963"/>
     </g>
    </g>
   </g>
   <g id="matplotlib.axis_2">
    <g id="ytick_1">
     <g id="line2d_12">
      <defs>
       <path id="mbf3802c689" d="M 0 0 
L -3.5 0 
" style="stroke: #323034; stroke-width: 0.8"/>
      </defs>
      <g>
       <use xlink:href="#mbf3802c689" x="40.04875" y="176.975588" style="fill: #323034; stroke: #323034; stroke-width: 0.8"/>
      </g>
     </g>
     <g id="text_13">
      <!-- $\mathdefault{30}$ -->
      <g style="fill: #323034" transform="translate(21.04875 181.0734)scale(0.12 -0.12)">
       <defs>
        <path id="STIXGeneral-Regular-33" d="M 390 3264 
L 288 3290 
Q 435 3770 748 4048 
Q 1062 4326 1542 4326 
Q 1990 4326 2265 4083 
Q 2541 3840 2541 3450 
Q 2541 2925 1946 2566 
Q 2298 2413 2477 2227 
Q 2758 1914 2758 1402 
Q 2758 890 2464 506 
Q 2246 211 1840 60 
Q 1434 -90 979 -90 
Q 262 -90 262 275 
Q 262 378 339 442 
Q 416 506 525 506 
Q 685 506 915 339 
Q 1197 141 1466 141 
Q 1818 141 2058 425 
Q 2298 710 2298 1120 
Q 2298 1856 1632 2048 
Q 1434 2112 979 2112 
L 979 2202 
Q 1338 2323 1517 2432 
Q 2035 2726 2035 3290 
Q 2035 3610 1852 3776 
Q 1670 3942 1344 3942 
Q 768 3942 390 3264 
z
" transform="scale(0.015625)"/>
       </defs>
       <use xlink:href="#STIXGeneral-Regular-33" transform="translate(0 0.40625)"/>
       <use xlink:href="#STIXGeneral-Regular-30" transform="translate(49.999985 0.40625)"/>
      </g>
     </g>
    </g>
    <g id="ytick_2">
     <g id="line2d_13">
      <g>
       <use xlink:href="#mbf3802c689" x="40.04875" y="146.007356" style="fill: #323034; stroke: #323034; stroke-width: 0.8"/>
      </g>
     </g>
     <g id="text_14">
      <!-- $\mathdefault{35}$ -->
      <g style="fill: #323034" transform="translate(21.04875 150.105169)scale(0.12 -0.12)">
       <defs>
        <path id="STIXGeneral-Regular-35" d="M 2803 4358 
L 2573 3814 
Q 2534 3731 2400 3731 
L 1158 3731 
L 902 3187 
Q 1606 3053 1920 2896 
Q 2234 2739 2502 2368 
Q 2726 2061 2726 1555 
Q 2726 1094 2576 780 
Q 2426 467 2099 224 
Q 1664 -90 1011 -90 
Q 646 -90 422 19 
Q 198 128 198 307 
Q 198 550 486 550 
Q 717 550 960 352 
Q 1210 147 1414 147 
Q 1747 147 2012 480 
Q 2278 813 2278 1229 
Q 2278 1843 1850 2189 
Q 1293 2637 486 2637 
Q 410 2637 410 2688 
L 416 2720 
L 1114 4237 
L 2438 4237 
Q 2547 4237 2608 4269 
Q 2669 4301 2746 4403 
L 2803 4358 
z
" transform="scale(0.015625)"/>
       </defs>
       <use xlink:href="#STIXGeneral-Regular-33" transform="translate(0 0.203125)"/>
       <use xlink:href="#STIXGeneral-Regular-35" transform="translate(49.999985 0.203125)"/>
      </g>
     </g>
    </g>
    <g id="ytick_3">
     <g id="line2d_14">
      <g>
       <use xlink:href="#mbf3802c689" x="40.04875" y="115.039125" style="fill: #323034; stroke: #323034; stroke-width: 0.8"/>
      </g>
     </g>
     <g id="text_15">
      <!-- $\mathdefault{40}$ -->
      <g style="fill: #323034" transform="translate(21.04875 119.136937)scale(0.12 -0.12)">
       <use xlink:href="#STIXGeneral-Regular-34" transform="translate(0 0.40625)"/>
       <use xlink:href="#STIXGeneral-Regular-30" transform="translate(49.999985 0.40625)"/>
      </g>
     </g>
    </g>
    <g id="ytick_4">
     <g id="line2d_15">
      <g>
       <use xlink:href="#mbf3802c689" x="40.04875" y="84.070893" style="fill: #323034; stroke: #323034; stroke-width: 0.8"/>
      </g>
     </g>
     <g id="text_16">
      <!-- $\mathdefault{45}$ -->
      <g style="fill: #323034" transform="translate(21.04875 88.168705)scale(0.12 -0.12)">
       <use xlink:href="#STIXGeneral-Regular-34" transform="translate(0 0.203125)"/>
       <use xlink:href="#STIXGeneral-Regular-35" transform="translate(49.999985 0.203125)"/>
      </g>
     </g>
    </g>
    <g id="ytick_5">
     <g id="line2d_16">
      <g>
       <use xlink:href="#mbf3802c689" x="40.04875" y="53.102661" style="fill: #323034; stroke: #323034; stroke-width: 0.8"/>
      </g>
     </g>
     <g id="text_17">
      <!-- $\mathdefault{50}$ -->
      <g style="fill: #323034" transform="translate(21.04875 57.200474)scale(0.12 -0.12)">
       <use xlink:href="#STIXGeneral-Regular-35" transform="translate(0 0.203125)"/>
       <use xlink:href="#STIXGeneral-Regular-30" transform="translate(49.999985 0.203125)"/>
      </g>
     </g>
    </g>
    <g id="ytick_6">
     <g id="line2d_17">
      <g>
       <use xlink:href="#mbf3802c689" x="40.04875" y="22.13443" style="fill: #323034; stroke: #323034; stroke-width: 0.8"/>
      </g>
     </g>
     <g id="text_18">
      <!-- $\mathdefault{55}$ -->
      <g style="fill: #323034" transform="translate(21.04875 26.232242)scale(0.12 -0.12)">
       <use xlink:href="#STIXGeneral-Regular-35" transform="translate(0 0.203125)"/>
       <use xlink:href="#STIXGeneral-Regular-35" transform="translate(49.999985 0.203125)"/>
      </g>
     </g>
    </g>
    <g id="text_19">
     <!-- Close ($) -->
     <g transform="translate(15.444375 127.284375)rotate(-90)scale(0.12 -0.12)">
      <defs>
       <path id="STIXGeneral-Regular-43" d="M 3930 838 
L 4051 723 
Q 3482 -90 2304 -90 
Q 1376 -90 794 480 
Q 179 1082 179 2080 
Q 179 3014 755 3661 
Q 1357 4326 2310 4326 
Q 2720 4326 3072 4230 
Q 3475 4115 3514 4115 
Q 3725 4115 3782 4326 
L 3910 4326 
L 3968 2874 
L 3821 2874 
Q 3718 3334 3488 3584 
Q 3034 4070 2458 4070 
Q 1747 4070 1334 3548 
Q 922 3027 922 2182 
Q 922 1152 1382 653 
Q 1811 192 2522 192 
Q 2944 192 3251 339 
Q 3558 486 3930 838 
z
" transform="scale(0.015625)"/>
       <path id="STIXGeneral-Regular-6c" d="M 1645 0 
L 134 0 
L 134 96 
Q 435 122 531 221 
Q 627 320 627 589 
L 627 3590 
Q 627 3821 569 3910 
Q 512 4000 358 4000 
Q 224 4000 122 3987 
L 122 4090 
Q 730 4237 1133 4371 
L 1165 4346 
L 1165 557 
Q 1165 288 1254 201 
Q 1344 115 1645 96 
L 1645 0 
z
" transform="scale(0.015625)"/>
       <path id="STIXGeneral-Regular-6f" d="M 3008 1478 
Q 3008 806 2608 371 
Q 2208 -64 1568 -64 
Q 979 -64 582 368 
Q 186 800 186 1459 
Q 186 2125 582 2534 
Q 979 2944 1626 2944 
Q 2221 2944 2614 2537 
Q 3008 2131 3008 1478 
z
M 2432 1306 
Q 2432 2035 2112 2445 
Q 1856 2765 1504 2765 
Q 1171 2765 966 2493 
Q 762 2221 762 1747 
Q 762 928 1101 435 
Q 1318 115 1677 115 
Q 2029 115 2230 432 
Q 2432 749 2432 1306 
z
" transform="scale(0.015625)"/>
       <path id="STIXGeneral-Regular-73" d="M 998 1926 
L 1664 1523 
Q 1984 1331 2105 1164 
Q 2227 998 2227 736 
Q 2227 416 1961 176 
Q 1696 -64 1331 -64 
Q 1030 -64 864 -6 
Q 691 51 570 51 
Q 461 51 416 -26 
L 333 -26 
L 333 979 
L 435 979 
Q 538 512 730 294 
Q 922 77 1248 77 
Q 1485 77 1632 211 
Q 1779 346 1779 550 
Q 1779 845 1440 1030 
L 1094 1222 
Q 326 1651 326 2150 
Q 326 2522 566 2730 
Q 806 2938 1210 2938 
Q 1491 2938 1638 2867 
Q 1754 2816 1818 2816 
Q 1862 2816 1920 2880 
L 1990 2880 
L 2022 2010 
L 1926 2010 
Q 1818 2445 1654 2621 
Q 1491 2797 1203 2797 
Q 986 2797 854 2688 
Q 723 2579 723 2362 
Q 723 2253 796 2128 
Q 870 2003 998 1926 
z
" transform="scale(0.015625)"/>
       <path id="STIXGeneral-Regular-20" transform="scale(0.015625)"/>
       <path id="STIXGeneral-Regular-28" d="M 1946 -1030 
L 1869 -1133 
Q 1126 -710 716 32 
Q 307 774 307 1613 
Q 307 3386 1888 4326 
L 1946 4224 
Q 1293 3667 1075 3126 
Q 858 2586 858 1632 
Q 858 685 1082 96 
Q 1306 -493 1946 -1030 
z
" transform="scale(0.015625)"/>
       <path id="STIXGeneral-Regular-24" d="M 1690 4077 
L 1690 2502 
Q 2234 2208 2445 2045 
Q 2656 1882 2797 1664 
Q 2931 1466 2931 1088 
Q 2931 570 2614 326 
Q 2298 83 1690 0 
L 1690 -557 
L 1472 -557 
L 1472 0 
Q 1062 0 806 73 
Q 550 147 282 326 
L 282 1158 
L 378 1158 
Q 480 685 761 432 
Q 1043 179 1472 179 
L 1472 1984 
Q 800 2362 566 2624 
Q 333 2886 333 3283 
Q 333 3731 659 3974 
Q 986 4218 1472 4250 
L 1472 4653 
L 1690 4653 
L 1690 4250 
Q 2426 4205 2720 3910 
L 2720 3200 
L 2624 3200 
Q 2528 3597 2301 3814 
Q 2074 4032 1690 4077 
z
M 1472 2605 
L 1472 4077 
Q 806 3942 806 3405 
Q 806 3194 937 3037 
Q 1069 2880 1472 2605 
z
M 1690 1875 
L 1690 179 
Q 2086 262 2252 432 
Q 2419 602 2419 941 
Q 2419 1235 2272 1427 
Q 2125 1619 1690 1875 
z
" transform="scale(0.015625)"/>
       <path id="STIXGeneral-Regular-29" d="M 186 4224 
L 262 4326 
Q 992 3891 1408 3148 
Q 1824 2406 1824 1581 
Q 1824 -166 243 -1133 
L 186 -1030 
Q 845 -486 1059 54 
Q 1274 595 1274 1562 
Q 1274 2534 1059 3120 
Q 845 3706 186 4224 
z
" transform="scale(0.015625)"/>
      </defs>
      <use xlink:href="#STIXGeneral-Regular-43"/>
      <use xlink:href="#STIXGeneral-Regular-6c" x="66.699997"/>
      <use xlink:href="#STIXGeneral-Regular-6f" x="94.499985"/>
      <use xlink:href="#STIXGeneral-Regular-73" x="144.499969"/>
      <use xlink:href="#STIXGeneral-Regular-65" x="183.399963"/>
      <use xlink:href="#STIXGeneral-Regular-20" x="227.799957"/>
      <use xlink:href="#STIXGeneral-Regular-28" x="252.799942"/>
      <use xlink:href="#STIXGeneral-Regular-24" x="286.09993"/>
      <use xlink:href="#STIXGeneral-Regular-29" x="336.099915"/>
     </g>
    </g>
   </g>
   <g id="line2d_18">
    <path d="M 55.266932 193.952372 
L 55.613587 194.138182 
L 55.960243 193.264878 
L 56.306899 191.406784 
L 57.346866 189.839791 
L 57.693521 189.653982 
L 58.040177 188.724935 
L 58.386832 189.431011 
L 58.733488 189.759274 
L 60.120111 188.365703 
L 60.466766 188.378091 
L 60.813422 188.675386 
L 61.160077 188.365703 
L 62.200044 188.229443 
L 62.5467 188.415253 
L 62.893356 185.628112 
L 63.586667 185.529013 
L 64.626634 186.018311 
L 64.973289 186.38993 
L 65.319945 175.656341 
L 65.6666 175.941249 
L 66.013256 175.198011 
L 67.053223 173.370886 
L 67.399879 171.624277 
L 67.746534 170.905814 
L 68.09319 169.450308 
L 68.439845 169.902444 
L 69.479812 168.18061 
L 69.826468 165.690764 
L 70.173124 164.959914 
L 70.519779 165.189079 
L 70.866435 164.644038 
L 72.253057 163.213306 
L 72.599713 162.618716 
L 72.946369 163.516794 
L 73.293024 163.269049 
L 74.679647 162.804525 
L 75.026302 158.698138 
L 75.372958 159.949254 
L 75.719614 158.710525 
L 76.75958 159.379439 
L 77.106236 159.106918 
L 77.452892 159.887318 
L 77.799547 160.358035 
L 78.146203 159.676734 
L 79.18617 159.577635 
L 79.532825 159.905899 
L 79.879481 157.725735 
L 80.226137 157.403665 
L 80.572792 158.431811 
L 81.612759 156.276422 
L 81.959415 158.636201 
L 82.30607 156.338358 
L 82.652726 157.075402 
L 82.999382 157.465602 
L 84.039348 157.137339 
L 84.386004 152.863723 
L 84.73266 152.411587 
L 85.425971 153.0805 
L 86.465938 153.018564 
L 86.812593 151.445378 
L 87.159249 152.535459 
L 87.85256 153.557411 
L 88.892527 153.805157 
L 89.239183 156.047257 
L 89.585838 155.78093 
L 89.932494 156.877206 
L 91.319117 155.737575 
L 92.012428 157.422246 
L 92.359083 154.839496 
L 92.705739 155.074854 
L 93.745706 153.111469 
L 94.092362 151.792222 
L 94.439017 153.049532 
L 94.785673 152.882304 
L 95.132328 153.092888 
L 96.518951 147.431895 
L 97.212262 148.881208 
L 97.558918 145.326055 
L 98.94554 137.968003 
L 99.292196 139.070472 
L 99.638851 137.138055 
L 99.985507 133.966908 
L 101.37213 134.883567 
L 101.718785 142.545108 
L 102.065441 139.175764 
L 102.412096 138.426333 
L 103.452063 137.076118 
L 103.798719 137.305283 
L 104.145375 137.998972 
L 104.49203 137.212378 
L 104.838686 137.596385 
L 106.225308 137.50348 
L 106.571964 138.884663 
L 106.91862 138.246717 
L 107.265275 134.902148 
L 108.305242 137.150442 
L 108.651898 136.394817 
L 108.998553 135.026021 
L 109.345209 135.60203 
L 109.691865 144.421783 
L 110.731831 149.636833 
L 111.078487 147.871644 
L 111.425143 150.027033 
L 111.771798 151.259568 
L 112.118454 154.244906 
L 113.158421 148.261843 
L 113.505076 150.231423 
L 113.851732 148.961726 
L 114.198388 149.30857 
L 114.545043 148.354748 
L 115.58501 149.036049 
L 115.931666 152.101904 
L 116.278321 149.023662 
L 116.624977 152.182422 
L 116.971633 151.668349 
L 118.011599 152.448748 
L 118.704911 151.569251 
L 119.051566 153.582186 
L 119.398222 151.426797 
L 120.438189 150.150906 
L 120.784844 149.463411 
L 121.1315 149.153729 
L 121.478156 146.186972 
L 121.824811 144.322684 
L 122.864778 143.542285 
L 123.211434 142.78666 
L 123.558089 141.405477 
L 123.904745 142.415041 
L 124.251401 142.526527 
L 125.984679 137.813162 
L 126.331334 142.092972 
L 126.67799 143.622802 
L 127.717957 144.793402 
L 128.064612 142.836209 
L 128.411268 132.455658 
L 128.757924 134.747307 
L 130.144546 129.972006 
L 130.837857 126.689373 
L 131.184513 134.214654 
L 131.531169 131.024926 
L 132.571136 127.568871 
L 132.917791 124.998508 
L 133.264447 125.933748 
L 133.611102 130.467498 
L 133.957758 131.000151 
L 134.997725 131.446094 
L 135.344381 127.674163 
L 135.691036 127.364481 
L 136.037692 128.411207 
L 137.424314 125.196705 
L 137.77097 123.010347 
L 138.117626 122.372402 
L 138.464281 121.461936 
L 138.810937 121.399999 
L 140.197559 124.286239 
L 140.544215 124.533984 
L 140.890871 125.469225 
L 141.237526 129.309286 
L 142.277493 125.147155 
L 142.624149 126.070009 
L 143.31746 129.835746 
L 143.664116 127.519322 
L 144.704082 129.247349 
L 145.050738 129.185413 
L 145.744049 137.076118 
L 146.090705 139.256282 
L 147.130672 141.219668 
L 147.477327 137.391994 
L 147.823983 135.831195 
L 148.170639 137.212378 
L 148.517294 135.998424 
L 149.557261 136.456754 
L 149.903917 135.478157 
L 150.250572 136.958439 
L 150.597228 134.109362 
L 150.943884 134.251815 
L 151.98385 133.428061 
L 152.330506 133.335156 
L 152.677162 132.42469 
L 153.023817 133.205089 
L 154.41044 127.519322 
L 154.757095 126.627437 
L 155.103751 127.705131 
L 155.450407 133.217477 
L 155.797062 132.88302 
L 156.837029 132.975924 
L 157.183685 131.619516 
L 157.53034 132.635274 
L 157.876996 131.136411 
L 158.223652 122.79357 
L 159.263619 117.448453 
L 159.610274 114.004786 
L 159.95693 117.219288 
L 160.303585 115.385969 
L 160.650241 108.95077 
L 162.036863 105.550458 
L 162.383519 103.426038 
L 162.730175 103.952498 
L 163.07683 104.831995 
L 164.116797 105.835366 
L 164.810108 113.088126 
L 165.156764 110.065627 
L 165.50342 111.496359 
L 166.543387 111.762686 
L 166.890042 107.067902 
L 167.236698 104.404634 
L 167.930009 104.386053 
L 168.969976 105.686719 
L 169.316632 107.167 
L 169.663287 112.474955 
L 170.009943 109.000319 
L 170.356598 110.146144 
L 171.396565 111.998044 
L 171.743221 112.227209 
L 172.089877 113.131482 
L 172.436532 112.722701 
L 172.783188 112.642183 
L 173.823155 107.773977 
L 174.16981 109.229484 
L 174.516466 108.362374 
L 174.863122 108.442891 
L 175.209777 105.835366 
L 176.249744 102.22447 
L 176.5964 105.042579 
L 176.943055 105.290325 
L 177.289711 104.324116 
L 177.636366 104.324116 
L 179.022989 110.883188 
L 179.369645 110.839832 
L 179.7163 110.102788 
L 180.062956 112.858961 
L 181.449578 108.380955 
L 181.796234 108.42431 
L 182.14289 107.222743 
L 182.489545 104.342697 
L 183.529512 105.228389 
L 184.222823 105.389424 
L 184.569479 103.909142 
L 184.916135 101.283036 
L 186.302757 102.565121 
L 186.649413 98.272924 
L 186.996068 98.031372 
L 187.342724 99.208165 
L 188.382691 101.382134 
L 188.729346 101.326392 
L 189.422658 110.053239 
L 189.769313 109.495811 
L 191.155936 116.191143 
L 191.849247 115.008156 
L 192.195903 125.747939 
L 193.235869 131.69384 
L 193.582525 122.006977 
L 194.275836 133.632451 
L 196.009114 119.071188 
L 196.35577 114.586988 
L 196.702426 106.244147 
L 197.049081 107.086483 
L 198.435704 107.953593 
L 198.782359 109.124192 
L 199.129015 106.981191 
L 199.475671 102.515572 
L 200.515638 97.387233 
L 200.862293 98.235762 
L 201.208949 98.619768 
L 201.555604 103.265003 
L 201.90226 101.487426 
L 202.942227 100.607929 
L 203.288883 100.837094 
L 203.635538 103.221647 
L 203.982194 100.422119 
L 204.328849 95.900757 
L 205.368816 93.324201 
L 206.062128 98.167632 
L 206.408783 97.85795 
L 206.755439 98.774609 
L 207.795406 102.825254 
L 208.142061 102.899578 
L 208.488717 108.826897 
L 208.835372 112.38205 
L 209.182028 118.166916 
L 210.221995 106.578604 
L 210.568651 113.168643 
L 210.915306 115.906235 
L 211.261962 113.96143 
L 212.648584 115.615134 
L 212.99524 113.088126 
L 213.341896 108.306631 
L 213.688551 106.535248 
L 214.035207 113.106707 
L 215.075174 110.623055 
L 215.421829 105.853947 
L 215.768485 107.067902 
L 216.115141 104.571862 
L 216.461796 103.661396 
L 217.501763 102.057242 
L 217.848419 98.45254 
L 218.195074 99.053323 
L 218.54173 106.535248 
L 218.888386 117.045866 
L 219.928352 117.733361 
L 220.275008 121.201803 
L 220.968319 119.256998 
L 221.314975 122.068913 
L 222.354942 117.708586 
L 222.701597 112.010432 
L 223.048253 100.979547 
L 223.394909 100.496443 
L 223.741564 90.165441 
L 224.781531 88.214442 
L 225.128187 86.876615 
L 225.474842 84.962778 
L 225.821498 80.992651 
L 226.168154 82.045571 
L 227.20812 82.708291 
L 227.554776 85.266267 
L 227.901432 82.658742 
L 228.248087 84.430124 
L 228.594743 85.445882 
L 229.63471 83.470109 
L 229.981365 84.163798 
L 230.328021 82.386221 
L 230.674677 82.708291 
L 231.021332 82.057958 
L 232.407955 83.092297 
L 232.75461 83.668306 
L 233.101266 84.615934 
L 233.447922 79.586693 
L 234.487889 77.214526 
L 234.834544 75.028169 
L 235.1812 74.018605 
L 235.527855 74.799004 
L 235.874511 77.400336 
L 236.914478 78.118799 
L 237.261134 76.588968 
L 237.607789 78.886811 
L 237.954445 78.738163 
L 238.3011 81.667758 
L 239.341067 81.810212 
L 239.687723 86.368736 
L 240.034378 85.173362 
L 240.381034 86.690805 
L 240.72769 87.502173 
L 241.767657 91.608561 
L 242.114312 88.245411 
L 242.460968 88.660385 
L 242.807623 86.635063 
L 243.154279 87.223459 
L 244.194246 84.132829 
L 244.540902 89.013423 
L 245.234213 86.777516 
L 245.580868 82.980811 
L 246.620835 79.07262 
L 246.967491 79.425658 
L 247.314147 83.123265 
L 247.660802 78.378932 
L 248.007458 77.957764 
L 249.047425 78.564741 
L 249.39408 77.771955 
L 249.740736 79.351334 
L 250.087392 77.140203 
L 250.434047 77.790536 
L 251.474014 77.524209 
L 251.82067 75.492693 
L 252.167325 72.786069 
L 252.513981 73.665567 
L 252.860637 78.459449 
L 253.900603 80.088378 
L 254.247259 79.524757 
L 254.593915 62.808105 
L 254.94057 54.056483 
L 255.287226 53.164598 
L 256.327193 51.548056 
L 256.673848 54.490038 
L 257.020504 54.279454 
L 257.36716 51.839157 
L 257.713815 52.755817 
L 258.753782 50.798625 
L 259.100438 49.442216 
L 259.447093 48.723753 
L 259.793749 44.128068 
L 260.140405 37.773387 
L 261.180371 40.932146 
L 261.527027 41.551511 
L 261.873683 41.539124 
L 262.220338 40.888791 
L 262.566994 39.873033 
L 263.606961 37.234539 
L 263.953616 34.596046 
L 264.300272 29.709259 
L 264.993583 22.747601 
L 266.380206 21.626551 
L 266.726861 23.881038 
L 267.073517 29.52345 
L 267.420173 32.186718 
L 268.46014 36.633756 
L 268.806795 28.371432 
L 269.153451 32.527368 
L 269.500106 24.574726 
L 269.846762 28.390012 
L 270.886729 37.32125 
L 271.233384 36.770016 
L 271.58004 36.571819 
L 271.926696 34.119135 
L 272.273351 37.649514 
L 273.313318 32.960923 
L 273.659974 30.879858 
L 274.006629 33.518352 
L 274.353285 26.742503 
L 274.699941 25.559516 
L 275.739908 23.311223 
L 276.086563 20.282529 
L 276.433219 16.101818 
L 277.12653 27.69013 
L 278.166497 28.495304 
L 278.513153 23.881038 
L 278.859808 39.575738 
L 279.206464 42.44959 
L 279.553119 31.003731 
L 280.593086 38.083069 
L 280.939742 30.941795 
L 281.286398 32.341559 
L 281.633053 40.077423 
L 281.979709 35.165862 
L 283.019676 33.177701 
L 283.366331 30.080878 
L 283.712987 41.477187 
L 284.059643 34.453592 
L 284.406298 39.656255 
L 285.446265 45.713641 
L 285.792921 44.146649 
L 286.139576 35.834775 
L 286.486232 30.830309 
L 286.832888 52.823947 
L 287.872854 61.625119 
L 288.21951 58.398229 
L 288.566166 49.163502 
L 288.912821 50.253584 
L 289.259477 56.261421 
L 290.299444 71.708375 
L 290.646099 74.613195 
L 290.992755 82.770227 
L 291.339411 75.876699 
L 291.686066 72.680777 
L 292.726033 84.163798 
L 293.072689 97.480137 
L 293.419344 97.765045 
L 294.112656 104.528507 
L 295.152622 101.053871 
L 295.499278 101.592718 
L 295.845934 91.546624 
L 296.539245 95.08939 
L 297.579212 85.73079 
L 297.925867 97.888918 
L 298.619179 100.89903 
L 298.965834 110.20808 
L 300.005801 108.548183 
L 300.352457 109.991303 
L 300.699112 109.291421 
L 301.045768 106.516667 
L 301.392424 114.723249 
L 302.432391 117.033479 
L 302.779046 113.82517 
L 303.819013 136.846953 
L 304.85898 142.668981 
L 305.552291 127.184865 
L 305.898947 128.720889 
L 306.245602 128.597016 
L 307.285569 126.317755 
L 307.97888 126.057621 
L 308.325536 149.636833 
L 308.672192 140.54456 
L 309.712159 141.052439 
L 310.40547 132.975924 
L 310.752125 132.23888 
L 311.098781 134.487174 
L 312.138748 137.906067 
L 312.485404 133.304188 
L 312.832059 130.504659 
L 313.52537 127.717519 
L 314.911993 132.988312 
L 315.258649 132.077846 
L 315.605304 133.880197 
L 315.95196 126.286786 
L 316.991927 128.491724 
L 317.338582 130.901053 
L 317.685238 115.08248 
L 318.031894 113.273935 
L 318.378549 113.168643 
L 319.418516 106.058337 
L 319.765172 101.685623 
L 320.111827 101.592718 
L 320.458483 106.535248 
L 320.805138 106.225566 
L 321.845105 107.718235 
L 322.191761 105.51949 
L 322.538417 106.578604 
L 322.885072 105.649557 
L 323.231728 106.206985 
L 324.61835 105.463747 
L 324.965006 103.785269 
L 325.311662 105.265551 
L 325.658317 102.385505 
L 326.698284 100.496443 
L 327.04494 100.341602 
L 327.391595 99.524041 
L 327.738251 102.100597 
L 328.084907 99.375393 
L 329.124873 98.031372 
L 329.471529 98.514476 
L 329.818185 100.062888 
L 330.16484 103.079194 
L 330.511496 102.472216 
L 331.898118 90.413187 
L 332.244774 89.224007 
L 332.938085 82.584418 
L 333.978052 79.722953 
L 334.324708 81.971247 
L 334.671363 79.506176 
L 335.018019 69.10085 
L 335.364675 75.170623 
L 336.404641 78.614291 
L 336.751297 81.56866 
L 337.097953 79.029265 
L 337.444608 78.645259 
L 337.791264 76.83052 
L 338.831231 74.873328 
L 339.177886 70.68023 
L 339.524542 68.698263 
L 339.871198 68.196577 
L 340.217853 66.202223 
L 341.25782 61.513633 
L 341.604476 62.436486 
L 341.951131 60.764202 
L 342.297787 63.272629 
L 342.644443 63.396502 
L 343.68441 62.839073 
L 344.031065 62.808105 
L 344.377721 56.979884 
L 344.724376 55.889802 
L 346.110999 54.874044 
L 346.457655 50.439393 
L 346.80431 50.922498 
L 347.150966 53.734413 
L 347.497621 55.208501 
L 348.537588 54.750171 
L 348.884244 60.683684 
L 349.2309 45.837514 
L 349.577555 47.912386 
L 349.924211 44.004195 
L 350.964178 48.940531 
L 351.310833 57.376277 
L 351.657489 57.332922 
L 352.3508 64.790072 
L 353.390767 82.107507 
L 354.084078 74.24777 
L 354.777389 77.15259 
L 355.817356 86.090022 
L 356.164012 80.794454 
L 356.857323 91.26791 
L 357.203979 92.32083 
L 358.590601 93.429493 
L 358.937257 94.717771 
L 359.283913 93.324201 
L 359.630568 98.1986 
L 359.630568 98.1986 
" clip-path="url(#pdfe5a4f97d)" style="fill: none; stroke: #bc80bd; stroke-opacity: 0.5; stroke-width: 2; stroke-linecap: square"/>
   </g>
   <g id="line2d_19">
    <path d="M 55.266932 193.952372 
L 55.613587 194.045277 
L 55.960243 193.785144 
L 56.306899 193.190554 
L 57.346866 192.520401 
L 58.040177 191.568703 
L 58.733488 191.130134 
L 60.120111 190.853691 
L 61.160077 190.304315 
L 62.5467 190.040052 
L 63.586667 189.29475 
L 64.973289 188.985687 
L 66.013256 187.239537 
L 67.053223 186.661676 
L 68.439845 184.348681 
L 69.479812 183.791162 
L 70.866435 181.528106 
L 72.253057 180.989435 
L 73.293024 179.541766 
L 74.332991 179.103594 
L 75.719614 177.288072 
L 76.75958 176.871592 
L 78.146203 175.415053 
L 79.18617 175.085106 
L 80.572792 173.799081 
L 81.612759 173.468465 
L 82.999382 172.339372 
L 84.039348 172.077268 
L 85.425971 170.830891 
L 86.465938 170.548156 
L 87.85256 169.479889 
L 88.892527 169.249378 
L 89.932494 168.699481 
L 91.319117 168.519454 
L 92.705739 167.860496 
L 93.745706 167.668951 
L 95.132328 166.929952 
L 96.172295 166.708864 
L 97.558918 165.812117 
L 98.598885 165.508799 
L 99.985507 164.257241 
L 101.025474 163.934462 
L 102.065441 163.142894 
L 102.412096 162.88543 
L 103.452063 162.619354 
L 104.838686 161.625647 
L 106.225308 161.389155 
L 107.265275 160.702166 
L 108.305242 160.479979 
L 109.691865 159.657477 
L 111.078487 159.462776 
L 112.118454 159.264021 
L 113.851732 159.006928 
L 114.545043 158.83734 
L 116.624977 158.571168 
L 116.971633 158.515945 
L 120.438189 158.259008 
L 123.904745 157.485125 
L 124.251401 157.37751 
L 125.638023 157.122096 
L 126.67799 156.789892 
L 128.064612 156.612151 
L 129.104579 156.148309 
L 130.144546 155.9738 
L 131.531169 155.299877 
L 132.571136 155.120967 
L 133.957758 154.441194 
L 134.997725 154.297474 
L 136.384347 153.649976 
L 137.424314 153.477532 
L 138.810937 152.733949 
L 140.197559 152.56661 
L 141.237526 152.113504 
L 142.624149 151.81059 
L 143.664116 151.416219 
L 145.050738 151.169554 
L 146.090705 150.928733 
L 147.477327 150.80308 
L 148.517294 150.572403 
L 150.250572 150.348194 
L 150.943884 150.180654 
L 152.330506 150.008356 
L 153.370473 149.742657 
L 154.757095 149.515964 
L 155.797062 149.246298 
L 157.183685 149.080946 
L 159.610274 148.474345 
L 160.650241 147.986706 
L 161.690208 147.792139 
L 163.07683 146.996692 
L 164.463453 146.640234 
L 165.50342 146.168169 
L 166.543387 146.014573 
L 167.236698 145.658128 
L 170.009943 144.837454 
L 170.356598 144.687923 
L 171.743221 144.409501 
L 172.783188 144.009788 
L 174.16981 143.712649 
L 175.209777 143.264313 
L 176.5964 142.939471 
L 177.636366 142.47437 
L 179.369645 142.220451 
L 180.062956 141.975515 
L 181.796234 141.710116 
L 182.489545 141.428333 
L 183.876168 141.147007 
L 184.916135 140.712932 
L 186.302757 140.566772 
L 187.342724 140.088788 
L 188.729346 139.797551 
L 189.769313 139.446811 
L 191.155936 139.269766 
L 192.195903 139.045133 
L 194.275836 138.895424 
L 196.35577 138.648711 
L 197.049081 138.423476 
L 198.782359 138.214493 
L 199.475671 137.98209 
L 200.862293 137.705051 
L 201.90226 137.330502 
L 203.288883 137.082312 
L 204.328849 136.707472 
L 205.715472 136.42688 
L 206.755439 136.049056 
L 208.142061 135.831439 
L 209.182028 135.610275 
L 212.99524 135.179245 
L 214.035207 134.934484 
L 215.421829 134.767111 
L 216.461796 134.490713 
L 217.848419 134.279381 
L 218.888386 134.03411 
L 222.354942 133.7755 
L 223.394909 133.514071 
L 223.741564 133.38544 
L 225.128187 133.114998 
L 226.168154 132.672472 
L 227.554776 132.389418 
L 228.594743 131.972607 
L 229.981365 131.696644 
L 231.021332 131.276367 
L 232.75461 131.005767 
L 233.447922 130.731023 
L 234.834544 130.425941 
L 235.874511 129.968712 
L 237.261134 129.678823 
L 238.3011 129.269687 
L 239.687723 129.024142 
L 240.72769 128.679921 
L 242.114312 128.472131 
L 243.154279 128.145276 
L 245.234213 127.816748 
L 245.580868 127.698758 
L 246.967491 127.445095 
L 248.007458 127.073991 
L 249.39408 126.821248 
L 250.434047 126.446424 
L 251.82067 126.191638 
L 252.860637 125.802616 
L 254.247259 125.570898 
L 255.287226 125.054189 
L 256.327193 124.870882 
L 257.713815 124.164415 
L 258.753782 123.983711 
L 260.140405 123.213303 
L 261.180371 123.013105 
L 262.566994 122.222262 
L 263.606961 122.017964 
L 264.993583 121.126579 
L 266.380206 120.890237 
L 267.420173 120.236748 
L 268.46014 120.040035 
L 269.846762 119.186197 
L 270.886729 118.995813 
L 272.273351 118.233433 
L 273.313318 118.037405 
L 274.699941 117.227725 
L 275.739908 117.014278 
L 277.12653 116.154385 
L 278.166497 115.957399 
L 279.553119 115.229293 
L 280.593086 115.057857 
L 281.979709 114.349256 
L 283.019676 114.170857 
L 284.406298 113.493263 
L 285.792921 113.195809 
L 286.832888 112.721459 
L 288.21951 112.495237 
L 289.259477 112.107589 
L 290.992755 111.880404 
L 291.686066 111.721748 
L 301.045768 111.307623 
L 303.819013 111.436205 
L 310.40547 111.937754 
L 313.52537 112.21297 
L 321.845105 112.350276 
L 332.59143 111.865532 
L 335.364675 111.501487 
L 337.444608 111.273465 
L 337.791264 111.212287 
L 339.524542 111.00136 
L 340.217853 110.847127 
L 341.604476 110.675646 
L 342.644443 110.423302 
L 344.031065 110.257737 
L 344.724376 110.071176 
L 346.457655 109.872853 
L 347.497621 109.581181 
L 348.884244 109.403564 
L 349.924211 109.079106 
L 351.657489 108.801839 
L 352.3508 108.646078 
L 354.084078 108.491566 
L 354.777389 108.38388 
L 359.630568 108.121936 
L 359.630568 108.121936 
" clip-path="url(#pdfe5a4f97d)" style="fill: none; stroke-dasharray: 2,3.3; stroke-dashoffset: 0; stroke: #fb8072; stroke-width: 2"/>
   </g>
   <g id="line2d_20">
    <path d="M 55.266932 193.952372 
L 55.613587 194.046692 
L 55.960243 193.77811 
L 56.306899 193.157924 
L 57.346866 192.453268 
L 58.040177 191.446539 
L 58.733488 190.990809 
L 60.120111 190.690884 
L 60.813422 190.273559 
L 61.160077 190.098512 
L 62.5467 189.812519 
L 63.586667 188.934118 
L 64.973289 188.580822 
L 66.013256 186.329225 
L 67.053223 185.579585 
L 68.439845 182.554215 
L 69.479812 181.819106 
L 70.866435 178.796027 
L 72.253057 178.07124 
L 73.293024 176.142554 
L 74.332991 175.562808 
L 75.372958 173.712875 
L 75.719614 173.089305 
L 76.75958 172.525972 
L 77.799547 171.051072 
L 78.146203 170.602716 
L 79.18617 170.172182 
L 80.572792 168.465896 
L 81.612759 168.009349 
L 82.999382 166.527732 
L 84.039348 166.187949 
L 85.425971 164.373343 
L 86.465938 163.974106 
L 87.505905 162.80406 
L 87.85256 162.485236 
L 89.239183 161.977427 
L 89.932494 161.600778 
L 91.665772 161.243255 
L 92.359083 160.905563 
L 92.705739 160.71147 
L 93.745706 160.45931 
L 94.785673 159.705842 
L 95.132328 159.489065 
L 96.172295 159.139666 
L 97.558918 157.688155 
L 98.598885 157.098558 
L 99.985507 154.637117 
L 101.025474 153.995947 
L 101.37213 153.38672 
L 102.065441 152.601414 
L 102.412096 152.152023 
L 103.452063 151.674886 
L 104.838686 149.973732 
L 106.225308 149.582102 
L 107.265275 148.46424 
L 108.305242 148.110827 
L 109.345209 146.983327 
L 109.691865 146.903688 
L 111.425143 147.109285 
L 112.118454 147.454522 
L 113.505076 147.564437 
L 116.624977 148.025199 
L 116.971633 148.136976 
L 118.704911 148.370291 
L 119.398222 148.618533 
L 121.478156 148.627114 
L 121.824811 148.495764 
L 122.864778 148.344686 
L 124.251401 147.63931 
L 125.291368 147.401947 
L 126.331334 146.714935 
L 126.67799 146.621001 
L 128.064612 146.452298 
L 129.104579 145.316518 
L 130.144546 144.851359 
L 131.184513 143.520625 
L 131.531169 143.142281 
L 132.571136 142.670881 
L 133.264447 141.645913 
L 133.957758 140.996126 
L 134.997725 140.707418 
L 136.384347 139.211272 
L 137.424314 138.788056 
L 138.810937 136.855629 
L 140.197559 136.476409 
L 140.890871 135.795054 
L 141.237526 135.599474 
L 142.277493 135.284331 
L 142.970804 134.791707 
L 143.664116 134.427708 
L 145.744049 134.177908 
L 146.090705 134.33084 
L 148.517294 134.775293 
L 150.943884 134.865989 
L 152.677162 134.707209 
L 153.370473 134.575567 
L 154.41044 134.363385 
L 155.103751 133.937588 
L 157.876996 133.676856 
L 158.223652 133.349778 
L 159.263619 132.871917 
L 160.650241 130.683699 
L 161.690208 129.952592 
L 163.07683 127.021641 
L 164.116797 126.385246 
L 165.156764 125.037231 
L 165.50342 124.630549 
L 166.543387 124.244092 
L 167.236698 123.147959 
L 167.930009 122.584542 
L 168.969976 122.077118 
L 169.663287 121.354513 
L 170.356598 120.658161 
L 171.396565 120.398142 
L 172.783188 119.512622 
L 173.823155 119.160212 
L 175.209777 117.871086 
L 176.249744 117.401401 
L 177.636366 115.947501 
L 179.369645 115.646747 
L 180.062956 115.401667 
L 181.449578 115.190948 
L 182.14289 114.754802 
L 182.489545 114.442307 
L 183.529512 114.165776 
L 184.916135 112.990674 
L 186.302757 112.677797 
L 187.342724 111.440492 
L 188.382691 111.138647 
L 189.076002 110.683659 
L 189.769313 110.629664 
L 190.80928 110.752504 
L 191.849247 111.172051 
L 192.195903 111.609432 
L 193.582525 112.506014 
L 194.275836 113.568447 
L 194.622492 114.086301 
L 196.35577 114.456391 
L 197.049081 113.996237 
L 198.782359 113.674182 
L 200.515638 112.671784 
L 201.208949 111.830016 
L 201.90226 111.270422 
L 202.942227 110.950506 
L 204.328849 109.697425 
L 205.368816 109.206173 
L 206.408783 108.169178 
L 206.755439 107.887313 
L 208.488717 107.627448 
L 208.835372 107.770098 
L 209.182028 108.082029 
L 210.221995 108.036922 
L 211.261962 108.588549 
L 213.341896 108.90939 
L 213.688551 108.838161 
L 214.035207 108.966226 
L 215.075174 109.015934 
L 217.501763 108.388564 
L 218.195074 107.81934 
L 218.54173 107.780815 
L 218.888386 108.05878 
L 219.928352 108.34903 
L 221.314975 109.762218 
L 222.701597 110.060915 
L 223.394909 109.509693 
L 223.741564 108.929345 
L 224.781531 108.307877 
L 225.821498 106.204073 
L 226.168154 105.479296 
L 227.20812 104.796146 
L 228.594743 102.463323 
L 229.63471 101.893512 
L 231.021332 99.704032 
L 232.407955 99.205669 
L 233.447922 97.753937 
L 234.487889 97.137743 
L 235.874511 94.637574 
L 236.914478 94.142002 
L 237.954445 92.740471 
L 238.3011 92.408285 
L 239.687723 91.918688 
L 240.381034 91.565558 
L 240.72769 91.443655 
L 242.114312 91.352505 
L 245.234213 90.635693 
L 245.580868 90.406045 
L 246.620835 90.066039 
L 248.007458 88.875377 
L 249.047425 88.566055 
L 250.434047 87.354641 
L 251.474014 87.059726 
L 252.860637 85.692329 
L 253.900603 85.52421 
L 254.247259 85.344225 
L 254.94057 83.749783 
L 255.287226 82.832223 
L 256.327193 81.893693 
L 257.713815 78.615171 
L 258.753782 77.780671 
L 259.793749 75.125617 
L 260.140405 74.005046 
L 261.180371 73.012855 
L 262.566994 69.334012 
L 263.606961 68.371025 
L 264.646928 65.040577 
L 264.993583 63.771784 
L 266.380206 62.507424 
L 267.073517 60.393871 
L 267.420173 59.547655 
L 268.46014 58.860236 
L 269.846762 55.370326 
L 270.886729 54.828853 
L 272.273351 52.701021 
L 273.313318 52.108817 
L 274.699941 49.468168 
L 275.739908 48.683458 
L 276.779874 46.138857 
L 277.12653 45.585395 
L 278.166497 45.072691 
L 278.513153 44.436941 
L 279.206464 44.235859 
L 279.553119 43.838895 
L 280.593086 43.66622 
L 281.286398 42.956199 
L 281.633053 42.869835 
L 281.979709 42.638716 
L 283.019676 42.354885 
L 283.366331 41.986665 
L 283.712987 41.97138 
L 284.059643 41.745846 
L 284.406298 41.683159 
L 285.792921 41.874351 
L 286.139576 41.693163 
L 286.486232 41.367277 
L 286.832888 41.710978 
L 287.872854 42.308402 
L 288.21951 42.791097 
L 288.912821 43.200409 
L 289.259477 43.59224 
L 290.299444 44.435724 
L 291.686066 48.106343 
L 292.726033 49.188067 
L 293.419344 52.050677 
L 294.112656 53.625013 
L 295.152622 55.047879 
L 295.845934 57.497298 
L 296.539245 59.676816 
L 297.579212 60.458436 
L 297.925867 61.581351 
L 298.619179 62.760881 
L 298.965834 64.184298 
L 300.005801 65.515215 
L 301.392424 70.638034 
L 302.432391 72.029898 
L 303.125702 74.733748 
L 303.819013 78.138612 
L 305.552291 81.487834 
L 306.245602 84.275592 
L 307.285569 85.536857 
L 307.97888 86.752481 
L 308.672192 90.196178 
L 309.712159 91.721867 
L 310.752125 95.411092 
L 311.098781 96.583375 
L 312.138748 97.823056 
L 313.178715 100.715187 
L 313.52537 101.525257 
L 314.911993 102.469149 
L 315.95196 104.933504 
L 316.991927 105.640251 
L 317.338582 106.398075 
L 318.378549 107.046414 
L 319.418516 107.016772 
L 320.111827 106.698914 
L 324.61835 106.59377 
L 327.04494 105.999028 
L 328.084907 105.504105 
L 329.124873 105.279923 
L 329.818185 104.926538 
L 330.511496 104.79915 
L 331.551463 104.458804 
L 332.59143 103.070729 
L 332.938085 102.45614 
L 333.978052 101.774144 
L 334.671363 100.529841 
L 335.364675 98.854481 
L 336.404641 98.247275 
L 337.444608 96.629183 
L 337.791264 96.035223 
L 338.831231 95.400366 
L 340.217853 92.302229 
L 341.25782 91.378571 
L 342.644443 88.064635 
L 343.68441 87.307868 
L 344.377721 85.685085 
L 344.724376 84.791227 
L 346.110999 83.893711 
L 347.150966 81.085155 
L 347.497621 80.308855 
L 348.537588 79.542095 
L 348.884244 78.976342 
L 349.924211 76.087807 
L 350.964178 75.273389 
L 352.004144 73.806033 
L 352.3508 73.535554 
L 355.817356 74.423642 
L 356.164012 74.614766 
L 356.857323 75.462349 
L 357.203979 75.968103 
L 358.590601 76.491945 
L 359.630568 78.147423 
L 359.630568 78.147423 
" clip-path="url(#pdfe5a4f97d)" style="fill: none; stroke-dasharray: 7.4,3.2; stroke-dashoffset: 0; stroke: #b3de69; stroke-width: 2"/>
   </g>
   <g id="line2d_21">
    <path d="M 68.439845 184.348681 
L 69.479812 183.428261 
L 70.866435 179.565196 
L 72.253057 178.620886 
L 73.293024 175.816934 
L 74.332991 174.907131 
L 75.372958 171.9083 
L 75.719614 170.854053 
L 76.75958 169.81706 
L 78.146203 166.113702 
L 79.18617 165.15612 
L 80.572792 162.773999 
L 81.612759 162.225862 
L 82.999382 160.47859 
L 84.039348 160.17311 
L 85.425971 158.495517 
L 86.465938 158.152654 
L 87.505905 156.987806 
L 87.85256 156.657552 
L 89.239183 156.343446 
L 89.932494 156.149452 
L 91.665772 155.913872 
L 92.359083 155.636264 
L 92.705739 155.475451 
L 93.745706 155.232792 
L 94.785673 154.66718 
L 96.172295 154.202214 
L 97.558918 152.834303 
L 98.598885 152.354295 
L 99.985507 150.102684 
L 101.025474 149.499688 
L 101.37213 148.869263 
L 102.065441 147.979369 
L 102.412096 147.430125 
L 103.452063 146.752585 
L 104.838686 144.076045 
L 106.225308 143.36466 
L 107.265275 141.543507 
L 108.305242 141.020586 
L 109.345209 139.163377 
L 109.691865 139.006987 
L 111.425143 139.119358 
L 111.771798 139.331269 
L 112.118454 139.860605 
L 113.158421 140.228242 
L 113.851732 141.049121 
L 114.545043 142.089654 
L 115.58501 142.595099 
L 116.278321 143.288124 
L 116.971633 144.300564 
L 118.704911 145.326055 
L 119.398222 146.404634 
L 120.438189 146.856328 
L 121.824811 148.282858 
L 122.864778 148.538124 
L 123.558089 149.022556 
L 123.904745 148.950887 
L 124.251401 148.696947 
L 125.291368 148.410049 
L 126.67799 146.932864 
L 127.717957 146.738649 
L 128.064612 146.51988 
L 129.104579 144.877901 
L 130.144546 144.087547 
L 131.531169 141.044255 
L 132.571136 140.187098 
L 133.264447 138.255787 
L 133.957758 136.893406 
L 134.997725 136.26099 
L 136.037692 134.453773 
L 136.384347 133.909617 
L 137.424314 133.330732 
L 138.810937 130.636496 
L 140.197559 130.153391 
L 141.237526 128.324938 
L 143.31746 127.0882 
L 143.664116 127.000604 
L 145.397394 127.0882 
L 145.744049 127.304314 
L 146.090705 127.721721 
L 147.130672 128.301049 
L 147.477327 128.710272 
L 148.517294 129.286281 
L 149.557261 129.599945 
L 150.943884 130.752627 
L 151.98385 131.124688 
L 153.370473 132.597227 
L 155.103751 132.68792 
L 155.797062 133.219467 
L 157.183685 133.465222 
L 157.876996 133.715401 
L 159.263619 132.927924 
L 160.650241 129.378522 
L 161.690208 128.325602 
L 163.07683 123.776148 
L 164.116797 122.664609 
L 165.50342 119.424005 
L 166.543387 118.686076 
L 167.236698 116.774673 
L 167.930009 115.948485 
L 168.969976 115.200602 
L 170.356598 112.05799 
L 171.396565 111.357223 
L 172.089877 109.98533 
L 172.436532 109.625657 
L 172.783188 109.454004 
L 173.823155 109.231475 
L 174.516466 108.695282 
L 177.636366 108.5734 
L 180.062956 108.584018 
L 181.796234 108.511685 
L 182.489545 108.610783 
L 183.876168 108.528717 
L 184.916135 107.777295 
L 186.302757 107.440405 
L 187.342724 105.920086 
L 189.422658 105.214674 
L 189.769313 105.252279 
L 190.80928 105.569703 
L 191.502591 106.442122 
L 191.849247 106.789188 
L 192.195903 107.554324 
L 193.582525 108.929092 
L 193.929181 109.514392 
L 194.622492 110.996443 
L 195.662459 111.465833 
L 196.35577 112.109087 
L 197.049081 112.243357 
L 198.782359 112.470531 
L 199.475671 112.624266 
L 200.862293 112.438014 
L 201.208949 112.459028 
L 201.555604 112.603916 
L 202.942227 112.582017 
L 203.635538 112.171688 
L 203.982194 111.847627 
L 204.328849 111.175395 
L 205.368816 110.358719 
L 206.408783 108.06154 
L 206.755439 106.885853 
L 207.795406 106.200791 
L 208.835372 103.78726 
L 210.568651 103.17055 
L 211.261962 103.761158 
L 213.341896 104.223691 
L 213.688551 104.367251 
L 214.035207 104.928661 
L 216.461796 105.984456 
L 217.501763 106.028033 
L 218.195074 105.808822 
L 218.54173 106.188625 
L 218.888386 107.035828 
L 219.928352 107.815121 
L 221.314975 110.851556 
L 222.701597 111.494147 
L 223.048253 111.086915 
L 223.741564 109.869642 
L 224.781531 108.97842 
L 226.168154 104.560802 
L 227.20812 103.646576 
L 227.554776 102.886969 
L 228.248087 100.86408 
L 228.594743 100.135221 
L 229.63471 99.292442 
L 231.021332 96.527201 
L 232.407955 95.957164 
L 232.75461 95.140487 
L 233.447922 92.619895 
L 234.487889 91.04892 
L 235.874511 84.695124 
L 236.914478 83.484709 
L 237.607789 81.841844 
L 237.954445 81.433727 
L 238.3011 81.199917 
L 239.687723 81.069187 
L 240.72769 81.555609 
L 241.767657 81.782119 
L 242.460968 82.132724 
L 244.194246 82.308137 
L 244.540902 82.544823 
L 245.580868 82.723111 
L 248.007458 82.358129 
L 249.39408 82.618483 
L 249.740736 82.781066 
L 251.82067 82.672235 
L 252.860637 82.054197 
L 253.900603 81.829899 
L 254.247259 81.628163 
L 254.593915 80.77521 
L 255.287226 78.207722 
L 256.327193 76.897102 
L 257.713815 72.136842 
L 258.753782 70.772028 
L 260.140405 65.479558 
L 261.180371 63.972732 
L 262.566994 58.657698 
L 263.606961 57.153527 
L 264.646928 52.099512 
L 264.993583 50.215759 
L 266.380206 48.388633 
L 267.420173 43.152126 
L 268.46014 41.620305 
L 268.806795 40.390423 
L 269.500106 38.60046 
L 269.846762 37.773387 
L 270.886729 37.160216 
L 272.273351 34.85441 
L 273.313318 34.265792 
L 273.659974 33.62851 
L 274.353285 32.855631 
L 274.699941 32.306609 
L 275.739908 31.65517 
L 276.779874 29.379226 
L 277.12653 29.038355 
L 278.166497 28.820471 
L 278.513153 28.61232 
L 278.859808 29.07441 
L 279.206464 29.778053 
L 279.553119 30.112952 
L 280.939742 30.670823 
L 281.286398 30.676353 
L 281.633053 30.799341 
L 281.979709 31.041999 
L 283.019676 31.065225 
L 283.366331 31.261874 
L 283.712987 31.729273 
L 284.059643 31.626856 
L 285.446265 32.05643 
L 285.792921 32.414555 
L 286.486232 32.27365 
L 286.832888 33.057367 
L 287.872854 34.061181 
L 288.566166 36.034742 
L 289.259477 38.281929 
L 290.299444 40.267878 
L 291.686066 47.542315 
L 292.726033 49.134746 
L 293.419344 53.484455 
L 294.112656 55.857507 
L 295.152622 58.361509 
L 295.845934 62.672951 
L 296.539245 66.972447 
L 297.579212 68.959944 
L 297.925867 70.974649 
L 298.619179 73.3477 
L 298.965834 75.867408 
L 300.005801 78.111499 
L 301.392424 88.000319 
L 302.432391 89.979189 
L 303.125702 94.54634 
L 303.819013 100.190521 
L 305.552291 104.602388 
L 306.245602 108.126352 
L 307.97888 111.538166 
L 308.672192 114.928745 
L 309.712159 116.233171 
L 311.098781 121.54378 
L 312.138748 123.072947 
L 312.832059 125.936845 
L 313.178715 126.945525 
L 313.52537 127.570862 
L 314.911993 128.443724 
L 315.95196 130.816775 
L 316.991927 131.308506 
L 317.338582 131.803777 
L 317.685238 131.848681 
L 318.031894 131.550722 
L 318.378549 131.031562 
L 319.418516 129.931968 
L 319.765172 128.468277 
L 320.805138 125.962947 
L 321.845105 125.298679 
L 322.191761 124.565174 
L 322.885072 121.78113 
L 323.231728 120.536649 
L 324.61835 119.416484 
L 325.658317 116.264139 
L 326.698284 114.928081 
L 327.738251 111.678629 
L 328.084907 110.66641 
L 329.124873 109.417948 
L 330.16484 106.182653 
L 330.511496 105.253385 
L 331.551463 103.915999 
L 332.938085 100.373897 
L 333.978052 99.589516 
L 334.324708 98.888749 
L 334.671363 97.923425 
L 335.364675 95.435128 
L 336.404641 94.474228 
L 337.791264 90.623328 
L 338.831231 89.590759 
L 340.217853 84.779623 
L 341.25782 83.422109 
L 342.644443 78.130965 
L 343.68441 76.801543 
L 344.724376 72.396976 
L 346.110999 71.127721 
L 346.80431 68.483255 
L 347.497621 66.577381 
L 348.537588 65.6052 
L 349.2309 64.102135 
L 349.924211 61.892551 
L 350.964178 60.727261 
L 352.004144 58.613237 
L 352.3508 58.253121 
L 353.390767 58.661238 
L 355.817356 60.933864 
L 356.510668 62.48139 
L 357.203979 64.529718 
L 358.590601 65.623339 
L 359.630568 69.855369 
L 359.630568 69.855369 
" clip-path="url(#pdfe5a4f97d)" style="fill: none; stroke-dasharray: 12.8,3.2,2,3.2; stroke-dashoffset: 0; stroke: #fdb462; stroke-width: 2"/>
   </g>
   <g id="patch_3">
    <path d="M 40.04875 203.04 
L 40.04875 7.2 
" style="fill: none; stroke: #000000; stroke-width: 0.6; stroke-linejoin: miter; stroke-linecap: square"/>
   </g>
   <g id="patch_4">
    <path d="M 40.04875 203.04 
L 374.84875 203.04 
" style="fill: none; stroke: #000000; stroke-width: 0.6; stroke-linejoin: miter; stroke-linecap: square"/>
   </g>
   <g id="legend_1">
    <g id="patch_5">
     <path d="M 47.04875 64.890625 
L 154.750313 64.890625 
Q 156.750313 64.890625 156.750313 62.890625 
L 156.750313 14.2 
Q 156.750313 12.2 154.750313 12.2 
L 47.04875 12.2 
Q 45.04875 12.2 45.04875 14.2 
L 45.04875 62.890625 
Q 45.04875 64.890625 47.04875 64.890625 
z
" style="fill: #ffffff; opacity: 0.8; stroke: #e6e6e6; stroke-width: 0.8; stroke-linejoin: miter"/>
    </g>
    <g id="line2d_22">
     <path d="M 47.04875 17.7 
L 57.04875 17.7 
L 67.04875 17.7 
" style="fill: none; stroke: #bc80bd; stroke-opacity: 0.5; stroke-width: 2; stroke-linecap: square"/>
    </g>
    <g id="text_20">
     <!-- Raw -->
     <g style="fill: #323034" transform="translate(75.04875 21.2)scale(0.1 -0.1)">
      <defs>
       <path id="STIXGeneral-Regular-52" d="M 4224 0 
L 3187 0 
L 1664 1971 
L 1306 1958 
L 1306 717 
Q 1306 352 1405 249 
Q 1504 147 1875 122 
L 1875 0 
L 109 0 
L 109 122 
Q 474 154 563 262 
Q 653 371 653 794 
L 653 3526 
Q 653 3885 563 3987 
Q 474 4090 109 4115 
L 109 4237 
L 1850 4237 
Q 2726 4237 3187 3859 
Q 3501 3603 3501 3091 
Q 3501 2221 2342 2042 
L 3622 422 
Q 3757 256 3878 198 
Q 4000 141 4224 122 
L 4224 0 
z
M 1306 3731 
L 1306 2195 
Q 1766 2202 1990 2246 
Q 2214 2291 2438 2413 
Q 2803 2618 2803 3142 
Q 2803 4000 1632 4000 
Q 1459 4000 1382 3945 
Q 1306 3891 1306 3731 
z
" transform="scale(0.015625)"/>
       <path id="STIXGeneral-Regular-77" d="M 4442 2880 
L 4442 2784 
Q 4346 2752 4301 2691 
Q 4256 2630 4179 2438 
L 3296 224 
Q 3168 -90 3117 -90 
Q 3085 -90 3062 -48 
Q 3040 -6 2963 186 
L 2381 1696 
L 1664 160 
Q 1549 -90 1504 -90 
Q 1446 -90 1338 192 
L 474 2381 
Q 378 2630 314 2700 
Q 250 2771 134 2784 
L 134 2880 
L 1286 2880 
L 1286 2784 
Q 1120 2765 1056 2720 
Q 992 2675 992 2573 
Q 992 2477 1030 2381 
L 1664 710 
L 2246 1984 
L 2118 2342 
Q 2029 2598 1942 2681 
Q 1856 2765 1677 2784 
L 1677 2880 
L 2976 2880 
L 2976 2784 
Q 2752 2752 2678 2707 
Q 2605 2662 2605 2560 
Q 2605 2458 2714 2176 
L 3251 742 
L 3827 2163 
Q 3936 2432 3936 2592 
Q 3936 2669 3875 2710 
Q 3814 2752 3654 2784 
L 3654 2880 
L 4442 2880 
z
" transform="scale(0.015625)"/>
      </defs>
      <use xlink:href="#STIXGeneral-Regular-52"/>
      <use xlink:href="#STIXGeneral-Regular-61" x="66.699997"/>
      <use xlink:href="#STIXGeneral-Regular-77" x="111.099991"/>
     </g>
    </g>
    <g id="line2d_23">
     <path d="M 47.04875 30.870312 
L 57.04875 30.870312 
L 67.04875 30.870312 
" style="fill: none; stroke-dasharray: 2,3.3; stroke-dashoffset: 0; stroke: #fb8072; stroke-width: 2"/>
    </g>
    <g id="text_21">
     <!-- Expanding Average -->
     <g style="fill: #323034" transform="translate(75.04875 34.370312)scale(0.1 -0.1)">
      <defs>
       <path id="STIXGeneral-Regular-45" d="M 3821 1082 
L 3526 0 
L 77 0 
L 77 122 
Q 442 147 538 252 
Q 634 358 634 730 
L 634 3520 
Q 634 3878 534 3987 
Q 435 4096 77 4115 
L 77 4237 
L 3469 4237 
L 3494 3322 
L 3334 3322 
Q 3264 3750 3085 3872 
Q 2906 3994 2349 3994 
L 1510 3994 
Q 1370 3994 1328 3952 
Q 1286 3910 1286 3763 
L 1286 2355 
L 2253 2355 
Q 2656 2355 2787 2470 
Q 2918 2586 2976 2970 
L 3123 2970 
L 3123 1472 
L 2976 1472 
Q 2918 1875 2790 1984 
Q 2662 2093 2253 2093 
L 1286 2093 
L 1286 538 
Q 1286 346 1420 291 
Q 1555 237 1933 237 
L 2163 237 
Q 2848 237 3136 403 
Q 3424 570 3642 1082 
L 3821 1082 
z
" transform="scale(0.015625)"/>
       <path id="STIXGeneral-Regular-78" d="M 3066 0 
L 1779 0 
L 1779 96 
Q 1939 109 1987 137 
Q 2035 166 2035 250 
Q 2035 307 1997 365 
L 1414 1261 
L 909 474 
Q 781 275 781 211 
Q 781 96 1037 96 
L 1037 0 
L 109 0 
L 109 96 
Q 269 109 355 169 
Q 442 230 576 422 
L 1306 1478 
L 704 2400 
Q 557 2624 454 2704 
Q 352 2784 211 2784 
L 154 2784 
L 154 2880 
L 1478 2880 
L 1478 2784 
Q 1203 2778 1203 2643 
Q 1203 2509 1498 2074 
Q 1581 1958 1587 1946 
Q 1619 1990 1779 2227 
Q 1811 2285 1856 2349 
Q 1901 2413 1923 2451 
Q 1946 2490 1971 2528 
Q 1997 2566 2006 2595 
Q 2016 2624 2016 2643 
Q 2016 2765 1760 2784 
L 1760 2880 
L 2771 2880 
L 2771 2784 
Q 2445 2771 2253 2502 
L 1722 1734 
L 2541 480 
Q 2790 96 3066 96 
L 3066 0 
z
" transform="scale(0.015625)"/>
       <path id="STIXGeneral-Regular-70" d="M 1018 2931 
L 1018 2438 
Q 1421 2944 1939 2944 
Q 2406 2944 2707 2560 
Q 3008 2176 3008 1581 
Q 3008 883 2621 409 
Q 2234 -64 1664 -64 
Q 1466 -64 1328 -6 
Q 1190 51 1018 211 
L 1018 -794 
Q 1018 -1094 1120 -1180 
Q 1222 -1267 1581 -1274 
L 1581 -1389 
L 32 -1389 
L 32 -1280 
Q 314 -1254 397 -1171 
Q 480 -1088 480 -838 
L 480 2157 
Q 480 2381 429 2451 
Q 378 2522 218 2522 
Q 115 2522 58 2515 
L 58 2618 
Q 506 2752 979 2944 
L 1018 2931 
z
M 1018 2138 
L 1018 563 
Q 1018 422 1238 281 
Q 1459 141 1683 141 
Q 2029 141 2243 467 
Q 2458 794 2458 1325 
Q 2458 1888 2243 2224 
Q 2029 2560 1670 2560 
Q 1446 2560 1232 2419 
Q 1018 2278 1018 2138 
z
" transform="scale(0.015625)"/>
       <path id="STIXGeneral-Regular-6e" d="M 3104 0 
L 1773 0 
L 1779 96 
Q 2016 115 2096 233 
Q 2176 352 2176 672 
L 2176 1946 
Q 2176 2592 1709 2592 
Q 1549 2592 1408 2515 
Q 1267 2438 1050 2227 
L 1050 461 
Q 1050 269 1136 192 
Q 1222 115 1466 96 
L 1466 0 
L 115 0 
L 115 96 
Q 358 115 435 214 
Q 512 314 512 602 
L 512 2157 
Q 512 2394 467 2483 
Q 422 2573 288 2573 
Q 160 2573 102 2547 
L 102 2656 
Q 550 2784 979 2944 
L 1030 2925 
L 1030 2426 
L 1037 2426 
Q 1491 2944 1958 2944 
Q 2323 2944 2518 2688 
Q 2714 2432 2714 1958 
L 2714 544 
Q 2714 288 2790 205 
Q 2867 122 3104 96 
L 3104 0 
z
" transform="scale(0.015625)"/>
       <path id="STIXGeneral-Regular-64" d="M 3142 269 
L 2202 -64 
L 2176 -45 
L 2176 365 
Q 1869 -64 1357 -64 
Q 826 -64 499 317 
Q 173 698 173 1312 
Q 173 1990 563 2467 
Q 954 2944 1504 2944 
Q 1850 2944 2176 2669 
L 2176 3667 
Q 2176 3866 2118 3930 
Q 2061 3994 1882 3994 
Q 1792 3994 1741 3987 
L 1741 4090 
Q 2323 4243 2682 4371 
L 2714 4358 
L 2714 730 
Q 2714 506 2768 435 
Q 2822 365 2995 365 
Q 3034 365 3142 371 
L 3142 269 
z
M 2176 653 
L 2176 2125 
Q 2176 2381 1981 2573 
Q 1786 2765 1523 2765 
Q 1158 2765 940 2438 
Q 723 2112 723 1568 
Q 723 979 963 624 
Q 1203 269 1606 269 
Q 1907 269 2080 474 
Q 2176 582 2176 653 
z
" transform="scale(0.015625)"/>
       <path id="STIXGeneral-Regular-69" d="M 1152 4045 
Q 1152 3904 1056 3811 
Q 960 3718 819 3718 
Q 685 3718 592 3811 
Q 499 3904 499 4045 
Q 499 4179 595 4275 
Q 691 4371 826 4371 
Q 966 4371 1059 4275 
Q 1152 4179 1152 4045 
z
M 1619 0 
L 102 0 
L 102 96 
Q 435 115 521 211 
Q 608 307 608 666 
L 608 2118 
Q 608 2342 563 2432 
Q 518 2522 397 2522 
Q 243 2522 128 2490 
L 128 2592 
L 1120 2944 
L 1146 2918 
L 1146 672 
Q 1146 314 1226 218 
Q 1306 122 1619 96 
L 1619 0 
z
" transform="scale(0.015625)"/>
       <path id="STIXGeneral-Regular-67" d="M 3008 2483 
L 2477 2483 
Q 2598 2208 2598 1946 
Q 2598 1453 2265 1203 
Q 1933 954 1600 954 
Q 1530 954 1357 973 
L 1235 986 
Q 1107 947 979 812 
Q 851 678 851 582 
Q 851 435 1350 410 
L 2176 371 
Q 2528 358 2739 172 
Q 2950 -13 2950 -314 
Q 2950 -685 2566 -986 
Q 2035 -1395 1286 -1395 
Q 826 -1395 502 -1212 
Q 179 -1030 179 -774 
Q 179 -595 320 -419 
Q 461 -243 806 6 
Q 602 102 534 172 
Q 467 243 467 346 
Q 467 531 762 787 
Q 909 915 1037 1043 
Q 717 1203 579 1401 
Q 442 1600 442 1901 
Q 442 2336 752 2640 
Q 1062 2944 1510 2944 
Q 1766 2944 2022 2848 
L 2163 2797 
Q 2349 2733 2515 2733 
L 3008 2733 
L 3008 2483 
z
M 973 2163 
L 973 2144 
Q 973 1683 1155 1398 
Q 1338 1114 1632 1114 
Q 1850 1114 1978 1270 
Q 2106 1427 2106 1690 
Q 2106 2112 1914 2464 
Q 1754 2765 1446 2765 
Q 1222 2765 1097 2605 
Q 973 2445 973 2163 
z
M 2771 -410 
Q 2771 -230 2595 -163 
Q 2419 -96 1978 -96 
Q 1344 -96 941 -13 
Q 749 -243 688 -348 
Q 627 -454 627 -563 
Q 627 -774 880 -902 
Q 1133 -1030 1555 -1030 
Q 2099 -1030 2435 -860 
Q 2771 -691 2771 -410 
z
" transform="scale(0.015625)"/>
       <path id="STIXGeneral-Regular-41" d="M 4525 0 
L 2893 0 
L 2893 122 
Q 3149 122 3245 179 
Q 3334 224 3334 333 
Q 3334 499 3213 781 
L 2950 1382 
L 1274 1382 
L 979 653 
Q 922 506 922 384 
Q 922 237 1027 179 
Q 1133 122 1370 122 
L 1370 0 
L 96 0 
L 96 122 
Q 365 147 486 316 
Q 608 486 902 1190 
L 2221 4314 
L 2349 4314 
L 3923 710 
Q 4064 378 4176 262 
Q 4288 147 4525 122 
L 4525 0 
z
M 2861 1645 
L 2118 3405 
L 1382 1645 
L 2861 1645 
z
" transform="scale(0.015625)"/>
       <path id="STIXGeneral-Regular-76" d="M 3053 2880 
L 3053 2784 
Q 2906 2771 2835 2688 
Q 2765 2605 2637 2285 
L 1818 230 
Q 1690 -90 1638 -90 
Q 1587 -90 1523 77 
Q 1510 96 1497 141 
Q 1485 186 1472 211 
L 704 2048 
Q 499 2534 403 2652 
Q 307 2771 122 2784 
L 122 2880 
L 1376 2880 
L 1376 2784 
Q 1210 2771 1146 2732 
Q 1082 2694 1082 2611 
Q 1082 2509 1139 2368 
L 1792 730 
L 2426 2387 
Q 2464 2483 2464 2579 
Q 2464 2758 2163 2784 
L 2163 2880 
L 3053 2880 
z
" transform="scale(0.015625)"/>
       <path id="STIXGeneral-Regular-72" d="M 1024 2931 
L 1024 2342 
Q 1267 2688 1430 2816 
Q 1594 2944 1792 2944 
Q 1958 2944 2051 2854 
Q 2144 2765 2144 2605 
Q 2144 2470 2077 2393 
Q 2010 2317 1894 2317 
Q 1773 2317 1638 2445 
Q 1536 2541 1472 2541 
Q 1338 2541 1181 2355 
Q 1024 2170 1024 2016 
L 1024 576 
Q 1024 301 1133 205 
Q 1242 109 1568 96 
L 1568 0 
L 32 0 
L 32 96 
Q 339 154 412 224 
Q 486 294 486 538 
L 486 2138 
Q 486 2349 438 2435 
Q 390 2522 269 2522 
Q 166 2522 45 2496 
L 45 2598 
Q 448 2726 992 2944 
L 1024 2931 
z
" transform="scale(0.015625)"/>
      </defs>
      <use xlink:href="#STIXGeneral-Regular-45"/>
      <use xlink:href="#STIXGeneral-Regular-78" x="61.099991"/>
      <use xlink:href="#STIXGeneral-Regular-70" x="111.099976"/>
      <use xlink:href="#STIXGeneral-Regular-61" x="161.09996"/>
      <use xlink:href="#STIXGeneral-Regular-6e" x="205.499954"/>
      <use xlink:href="#STIXGeneral-Regular-64" x="255.499939"/>
      <use xlink:href="#STIXGeneral-Regular-69" x="305.499924"/>
      <use xlink:href="#STIXGeneral-Regular-6e" x="333.299911"/>
      <use xlink:href="#STIXGeneral-Regular-67" x="383.299896"/>
      <use xlink:href="#STIXGeneral-Regular-20" x="433.299881"/>
      <use xlink:href="#STIXGeneral-Regular-41" x="458.299866"/>
      <use xlink:href="#STIXGeneral-Regular-76" x="530.499847"/>
      <use xlink:href="#STIXGeneral-Regular-65" x="580.499832"/>
      <use xlink:href="#STIXGeneral-Regular-72" x="624.899826"/>
      <use xlink:href="#STIXGeneral-Regular-61" x="658.199814"/>
      <use xlink:href="#STIXGeneral-Regular-67" x="702.599808"/>
      <use xlink:href="#STIXGeneral-Regular-65" x="752.599792"/>
     </g>
    </g>
    <g id="line2d_24">
     <path d="M 47.04875 44.05 
L 57.04875 44.05 
L 67.04875 44.05 
" style="fill: none; stroke-dasharray: 7.4,3.2; stroke-dashoffset: 0; stroke: #b3de69; stroke-width: 2"/>
    </g>
    <g id="text_22">
     <!-- EWMA ($\alpha=$0.03) -->
     <g style="fill: #323034" transform="translate(75.04875 47.55)scale(0.1 -0.1)">
      <defs>
       <path id="STIXGeneral-Regular-57" d="M 5965 4237 
L 5965 4115 
Q 5709 4064 5616 3990 
Q 5523 3917 5434 3667 
Q 4704 1709 4128 -70 
L 4032 -70 
Q 3642 1011 3008 2637 
L 2022 -70 
L 1926 -70 
Q 1709 576 1277 1753 
Q 845 2931 698 3347 
Q 538 3808 406 3958 
Q 275 4109 32 4115 
L 32 4237 
L 1594 4237 
L 1594 4115 
Q 1357 4109 1270 4064 
Q 1184 4019 1184 3917 
Q 1184 3808 1254 3616 
L 2176 1210 
L 2842 3021 
L 2662 3501 
Q 2509 3917 2400 4013 
Q 2291 4109 2010 4115 
L 2010 4237 
L 3706 4237 
L 3706 4115 
Q 3213 4102 3213 3891 
Q 3213 3808 3322 3520 
L 4237 1190 
L 5043 3360 
Q 5152 3667 5152 3853 
Q 5152 4109 4704 4115 
L 4704 4237 
L 5965 4237 
z
" transform="scale(0.015625)"/>
       <path id="STIXGeneral-Regular-4d" d="M 5530 0 
L 3738 0 
L 3738 122 
Q 4115 147 4214 265 
Q 4314 384 4314 787 
L 4314 3661 
L 2682 0 
L 2592 0 
L 979 3514 
L 979 966 
Q 979 448 1088 294 
Q 1197 141 1574 122 
L 1574 0 
L 77 0 
L 77 122 
Q 358 141 480 205 
Q 602 269 650 432 
Q 698 595 698 966 
L 698 3514 
Q 698 3878 589 3984 
Q 480 4090 90 4115 
L 90 4237 
L 1357 4237 
L 2835 1024 
L 4250 4237 
L 5523 4237 
L 5523 4115 
Q 5178 4109 5072 3993 
Q 4966 3878 4966 3520 
L 4966 717 
Q 4966 378 5072 262 
Q 5178 147 5530 122 
L 5530 0 
z
" transform="scale(0.015625)"/>
       <path id="STIXGeneral-Italic-3b1" d="M 3514 2739 
L 2605 1069 
L 2605 954 
Q 2605 704 2662 512 
Q 2720 320 2822 320 
Q 2970 320 3149 794 
L 3251 749 
Q 3014 -58 2605 -58 
Q 2291 -58 2272 614 
Q 1709 -70 1030 -70 
Q 589 -70 381 198 
Q 173 467 173 902 
Q 173 1293 329 1673 
Q 486 2054 755 2330 
Q 973 2547 1270 2684 
Q 1568 2822 1862 2822 
Q 2246 2822 2457 2595 
Q 2669 2368 2669 2061 
L 2963 2739 
L 3514 2739 
z
M 2298 1741 
Q 2298 2688 1805 2688 
Q 1472 2688 1085 2099 
Q 698 1510 698 800 
Q 698 493 806 278 
Q 915 64 1139 64 
Q 1606 64 2195 1286 
Q 2202 1325 2230 1411 
Q 2259 1498 2278 1581 
Q 2298 1664 2298 1741 
z
" transform="scale(0.015625)"/>
       <path id="STIXGeneral-Regular-3d" d="M 4077 2048 
L 307 2048 
L 307 2470 
L 4077 2470 
L 4077 2048 
z
M 4077 768 
L 307 768 
L 307 1190 
L 4077 1190 
L 4077 768 
z
" transform="scale(0.015625)"/>
       <path id="STIXGeneral-Regular-2e" d="M 1158 275 
Q 1158 134 1052 32 
Q 947 -70 800 -70 
Q 653 -70 550 32 
Q 448 134 448 281 
Q 448 429 553 534 
Q 659 640 806 640 
Q 947 640 1052 531 
Q 1158 422 1158 275 
z
" transform="scale(0.015625)"/>
      </defs>
      <use xlink:href="#STIXGeneral-Regular-45" transform="translate(0 0.40625)"/>
      <use xlink:href="#STIXGeneral-Regular-57" transform="translate(61.099991 0.40625)"/>
      <use xlink:href="#STIXGeneral-Regular-4d" transform="translate(155.499985 0.40625)"/>
      <use xlink:href="#STIXGeneral-Regular-41" transform="translate(244.399979 0.40625)"/>
      <use xlink:href="#STIXGeneral-Regular-20" transform="translate(316.59996 0.40625)"/>
      <use xlink:href="#STIXGeneral-Regular-28" transform="translate(341.599945 0.40625)"/>
      <use xlink:href="#STIXGeneral-Italic-3b1" transform="translate(374.899933 0.40625)"/>
      <use xlink:href="#STIXGeneral-Regular-3d" transform="translate(444.539926 0.40625)"/>
      <use xlink:href="#STIXGeneral-Regular-30" transform="translate(527.479907 0.40625)"/>
      <use xlink:href="#STIXGeneral-Regular-2e" transform="translate(577.479892 0.40625)"/>
      <use xlink:href="#STIXGeneral-Regular-30" transform="translate(602.479877 0.40625)"/>
      <use xlink:href="#STIXGeneral-Regular-33" transform="translate(652.479861 0.40625)"/>
      <use xlink:href="#STIXGeneral-Regular-29" transform="translate(702.479846 0.40625)"/>
     </g>
    </g>
    <g id="line2d_25">
     <path d="M 47.04875 57.220312 
L 57.04875 57.220312 
L 67.04875 57.220312 
" style="fill: none; stroke-dasharray: 12.8,3.2,2,3.2; stroke-dashoffset: 0; stroke: #fdb462; stroke-width: 2"/>
    </g>
    <g id="text_23">
     <!-- 28D MA -->
     <g style="fill: #323034" transform="translate(75.04875 60.720312)scale(0.1 -0.1)">
      <use xlink:href="#STIXGeneral-Regular-32"/>
      <use xlink:href="#STIXGeneral-Regular-38" x="49.999985"/>
      <use xlink:href="#STIXGeneral-Regular-44" x="99.999969"/>
      <use xlink:href="#STIXGeneral-Regular-20" x="172.199951"/>
      <use xlink:href="#STIXGeneral-Regular-4d" x="197.199936"/>
      <use xlink:href="#STIXGeneral-Regular-41" x="286.09993"/>
     </g>
    </g>
   </g>
  </g>
 </g>
 <defs>
  <clipPath id="pdfe5a4f97d">
   <rect x="40.04875" y="7.2" width="334.8" height="195.84"/>
  </clipPath>
 </defs>
</svg>
