<?xml version="1.0" encoding="utf-8" standalone="no"?>
<!DOCTYPE svg PUBLIC "-//W3C//DTD SVG 1.1//EN"
  "http://www.w3.org/Graphics/SVG/1.1/DTD/svg11.dtd">
<svg xmlns:xlink="http://www.w3.org/1999/xlink" width="382.04875pt" height="260.390887pt" viewBox="0 0 382.04875 260.390887" xmlns="http://www.w3.org/2000/svg" version="1.1">
 <metadata>
  <rdf:RDF xmlns:dc="http://purl.org/dc/elements/1.1/" xmlns:cc="http://creativecommons.org/ns#" xmlns:rdf="http://www.w3.org/1999/02/22-rdf-syntax-ns#">
   <cc:Work>
    <dc:type rdf:resource="http://purl.org/dc/dcmitype/StillImage"/>
    <dc:date>2022-09-06T12:55:30.573459</dc:date>
    <dc:format>image/svg+xml</dc:format>
    <dc:creator>
     <cc:Agent>
      <dc:title>Matplotlib v3.5.2, https://matplotlib.org/</dc:title>
     </cc:Agent>
    </dc:creator>
   </cc:Work>
  </rdf:RDF>
 </metadata>
 <defs>
  <style type="text/css">*{stroke-linejoin: round; stroke-linecap: butt}</style>
 </defs>
 <g id="figure_1">
  <g id="patch_1">
   <path d="M 0 260.390887 
L 382.04875 260.390887 
L 382.04875 0 
L 0 0 
L 0 260.390887 
z
" style="fill: none"/>
  </g>
  <g id="axes_1">
   <g id="patch_2">
    <path d="M 40.04875 203.04 
L 374.84875 203.04 
L 374.84875 7.2 
L 40.04875 7.2 
z
" style="fill: #ffffff"/>
   </g>
   <g id="matplotlib.axis_1">
    <g id="xtick_1">
     <g id="line2d_1">
      <defs>
       <path id="m2f7840c77c" d="M 0 0 
L 0 3.5 
" style="stroke: #323034; stroke-width: 0.8"/>
      </defs>
      <g>
       <use xlink:href="#m2f7840c77c" x="54.573621" y="203.04" style="fill: #323034; stroke: #323034; stroke-width: 0.8"/>
      </g>
     </g>
     <g id="text_1">
      <!-- 2017-01 -->
      <g style="fill: #323034" transform="translate(18.634206 237.135432)rotate(-30)scale(0.12 -0.12)">
       <defs>
        <path id="STIXGeneral-Regular-32" d="M 3034 877 
L 2688 0 
L 186 0 
L 186 77 
L 1325 1286 
Q 1773 1754 1965 2144 
Q 2157 2534 2157 2950 
Q 2157 3379 1920 3616 
Q 1683 3853 1267 3853 
Q 922 3853 720 3673 
Q 518 3494 326 3021 
L 192 3053 
Q 301 3648 630 3987 
Q 960 4326 1523 4326 
Q 2054 4326 2380 4006 
Q 2707 3686 2707 3200 
Q 2707 2477 1888 1613 
L 832 486 
L 2330 486 
Q 2541 486 2665 569 
Q 2790 653 2944 915 
L 3034 877 
z
" transform="scale(0.015625)"/>
        <path id="STIXGeneral-Regular-30" d="M 3046 2112 
Q 3046 1683 2963 1302 
Q 2880 922 2717 602 
Q 2554 282 2266 96 
Q 1978 -90 1600 -90 
Q 1210 -90 915 108 
Q 621 307 461 640 
Q 301 973 227 1350 
Q 154 1728 154 2150 
Q 154 2746 301 3222 
Q 448 3699 790 4012 
Q 1133 4326 1626 4326 
Q 2253 4326 2649 3712 
Q 3046 3098 3046 2112 
z
M 2432 2080 
Q 2432 3091 2217 3625 
Q 2003 4160 1587 4160 
Q 1190 4160 979 3622 
Q 768 3085 768 2106 
Q 768 1120 979 598 
Q 1190 77 1600 77 
Q 2003 77 2217 598 
Q 2432 1120 2432 2080 
z
" transform="scale(0.015625)"/>
        <path id="STIXGeneral-Regular-31" d="M 2522 0 
L 755 0 
L 755 96 
Q 1107 115 1235 227 
Q 1363 339 1363 608 
L 1363 3482 
Q 1363 3795 1171 3795 
Q 1082 3795 883 3718 
L 710 3654 
L 710 3744 
L 1856 4326 
L 1914 4307 
L 1914 486 
Q 1914 275 2042 185 
Q 2170 96 2522 96 
L 2522 0 
z
" transform="scale(0.015625)"/>
        <path id="STIXGeneral-Regular-37" d="M 2874 4134 
L 1517 -51 
L 1101 -51 
L 2368 3763 
L 992 3763 
Q 717 3763 582 3667 
Q 448 3571 243 3238 
L 128 3296 
L 512 4237 
L 2874 4237 
L 2874 4134 
z
" transform="scale(0.015625)"/>
        <path id="STIXGeneral-Regular-2d" d="M 1824 1242 
L 250 1242 
L 250 1645 
L 1824 1645 
L 1824 1242 
z
" transform="scale(0.015625)"/>
       </defs>
       <use xlink:href="#STIXGeneral-Regular-32"/>
       <use xlink:href="#STIXGeneral-Regular-30" x="49.999985"/>
       <use xlink:href="#STIXGeneral-Regular-31" x="99.999969"/>
       <use xlink:href="#STIXGeneral-Regular-37" x="149.999954"/>
       <use xlink:href="#STIXGeneral-Regular-2d" x="199.999939"/>
       <use xlink:href="#STIXGeneral-Regular-30" x="233.299927"/>
       <use xlink:href="#STIXGeneral-Regular-31" x="283.299911"/>
      </g>
     </g>
    </g>
    <g id="xtick_2">
     <g id="line2d_2">
      <g>
       <use xlink:href="#m2f7840c77c" x="85.772627" y="203.04" style="fill: #323034; stroke: #323034; stroke-width: 0.8"/>
      </g>
     </g>
     <g id="text_2">
      <!-- 2017-04 -->
      <g style="fill: #323034" transform="translate(49.833212 237.135432)rotate(-30)scale(0.12 -0.12)">
       <defs>
        <path id="STIXGeneral-Regular-34" d="M 3027 1069 
L 2368 1069 
L 2368 0 
L 1869 0 
L 1869 1069 
L 77 1069 
L 77 1478 
L 2086 4326 
L 2368 4326 
L 2368 1478 
L 3027 1478 
L 3027 1069 
z
M 1869 1478 
L 1869 3674 
L 333 1478 
L 1869 1478 
z
" transform="scale(0.015625)"/>
       </defs>
       <use xlink:href="#STIXGeneral-Regular-32"/>
       <use xlink:href="#STIXGeneral-Regular-30" x="49.999985"/>
       <use xlink:href="#STIXGeneral-Regular-31" x="99.999969"/>
       <use xlink:href="#STIXGeneral-Regular-37" x="149.999954"/>
       <use xlink:href="#STIXGeneral-Regular-2d" x="199.999939"/>
       <use xlink:href="#STIXGeneral-Regular-30" x="233.299927"/>
       <use xlink:href="#STIXGeneral-Regular-34" x="283.299911"/>
      </g>
     </g>
    </g>
    <g id="xtick_3">
     <g id="line2d_3">
      <g>
       <use xlink:href="#m2f7840c77c" x="117.318288" y="203.04" style="fill: #323034; stroke: #323034; stroke-width: 0.8"/>
      </g>
     </g>
     <g id="text_3">
      <!-- 2017-07 -->
      <g style="fill: #323034" transform="translate(81.378873 237.135432)rotate(-30)scale(0.12 -0.12)">
       <use xlink:href="#STIXGeneral-Regular-32"/>
       <use xlink:href="#STIXGeneral-Regular-30" x="49.999985"/>
       <use xlink:href="#STIXGeneral-Regular-31" x="99.999969"/>
       <use xlink:href="#STIXGeneral-Regular-37" x="149.999954"/>
       <use xlink:href="#STIXGeneral-Regular-2d" x="199.999939"/>
       <use xlink:href="#STIXGeneral-Regular-30" x="233.299927"/>
       <use xlink:href="#STIXGeneral-Regular-37" x="283.299911"/>
      </g>
     </g>
    </g>
    <g id="xtick_4">
     <g id="line2d_4">
      <g>
       <use xlink:href="#m2f7840c77c" x="149.210605" y="203.04" style="fill: #323034; stroke: #323034; stroke-width: 0.8"/>
      </g>
     </g>
     <g id="text_4">
      <!-- 2017-10 -->
      <g style="fill: #323034" transform="translate(113.271191 237.135432)rotate(-30)scale(0.12 -0.12)">
       <use xlink:href="#STIXGeneral-Regular-32"/>
       <use xlink:href="#STIXGeneral-Regular-30" x="49.999985"/>
       <use xlink:href="#STIXGeneral-Regular-31" x="99.999969"/>
       <use xlink:href="#STIXGeneral-Regular-37" x="149.999954"/>
       <use xlink:href="#STIXGeneral-Regular-2d" x="199.999939"/>
       <use xlink:href="#STIXGeneral-Regular-31" x="233.299927"/>
       <use xlink:href="#STIXGeneral-Regular-30" x="283.299911"/>
      </g>
     </g>
    </g>
    <g id="xtick_5">
     <g id="line2d_5">
      <g>
       <use xlink:href="#m2f7840c77c" x="181.102923" y="203.04" style="fill: #323034; stroke: #323034; stroke-width: 0.8"/>
      </g>
     </g>
     <g id="text_5">
      <!-- 2018-01 -->
      <g style="fill: #323034" transform="translate(145.163508 237.135432)rotate(-30)scale(0.12 -0.12)">
       <defs>
        <path id="STIXGeneral-Regular-38" d="M 2848 992 
Q 2848 499 2505 204 
Q 2163 -90 1587 -90 
Q 1050 -90 704 204 
Q 358 499 358 954 
Q 358 1293 524 1533 
Q 691 1773 1190 2125 
Q 710 2522 553 2765 
Q 397 3008 397 3328 
Q 397 3782 745 4054 
Q 1094 4326 1638 4326 
Q 2106 4326 2410 4060 
Q 2714 3795 2714 3411 
Q 2714 3059 2531 2848 
Q 2349 2637 1856 2374 
Q 2432 1990 2640 1689 
Q 2848 1389 2848 992 
z
M 2272 3411 
Q 2272 3744 2086 3945 
Q 1901 4147 1574 4147 
Q 1248 4147 1059 3977 
Q 870 3808 870 3513 
Q 870 3219 1059 2979 
Q 1248 2739 1670 2490 
Q 1997 2682 2134 2896 
Q 2272 3110 2272 3411 
z
M 1734 1741 
L 1357 1997 
Q 1075 1766 960 1545 
Q 845 1325 845 1011 
Q 845 576 1065 333 
Q 1286 90 1658 90 
Q 1971 90 2166 285 
Q 2362 480 2362 794 
Q 2362 1082 2214 1299 
Q 2067 1517 1734 1741 
z
" transform="scale(0.015625)"/>
       </defs>
       <use xlink:href="#STIXGeneral-Regular-32"/>
       <use xlink:href="#STIXGeneral-Regular-30" x="49.999985"/>
       <use xlink:href="#STIXGeneral-Regular-31" x="99.999969"/>
       <use xlink:href="#STIXGeneral-Regular-38" x="149.999954"/>
       <use xlink:href="#STIXGeneral-Regular-2d" x="199.999939"/>
       <use xlink:href="#STIXGeneral-Regular-30" x="233.299927"/>
       <use xlink:href="#STIXGeneral-Regular-31" x="283.299911"/>
      </g>
     </g>
    </g>
    <g id="xtick_6">
     <g id="line2d_6">
      <g>
       <use xlink:href="#m2f7840c77c" x="212.301929" y="203.04" style="fill: #323034; stroke: #323034; stroke-width: 0.8"/>
      </g>
     </g>
     <g id="text_6">
      <!-- 2018-04 -->
      <g style="fill: #323034" transform="translate(176.362514 237.135432)rotate(-30)scale(0.12 -0.12)">
       <use xlink:href="#STIXGeneral-Regular-32"/>
       <use xlink:href="#STIXGeneral-Regular-30" x="49.999985"/>
       <use xlink:href="#STIXGeneral-Regular-31" x="99.999969"/>
       <use xlink:href="#STIXGeneral-Regular-38" x="149.999954"/>
       <use xlink:href="#STIXGeneral-Regular-2d" x="199.999939"/>
       <use xlink:href="#STIXGeneral-Regular-30" x="233.299927"/>
       <use xlink:href="#STIXGeneral-Regular-34" x="283.299911"/>
      </g>
     </g>
    </g>
    <g id="xtick_7">
     <g id="line2d_7">
      <g>
       <use xlink:href="#m2f7840c77c" x="243.84759" y="203.04" style="fill: #323034; stroke: #323034; stroke-width: 0.8"/>
      </g>
     </g>
     <g id="text_7">
      <!-- 2018-07 -->
      <g style="fill: #323034" transform="translate(207.908176 237.135432)rotate(-30)scale(0.12 -0.12)">
       <use xlink:href="#STIXGeneral-Regular-32"/>
       <use xlink:href="#STIXGeneral-Regular-30" x="49.999985"/>
       <use xlink:href="#STIXGeneral-Regular-31" x="99.999969"/>
       <use xlink:href="#STIXGeneral-Regular-38" x="149.999954"/>
       <use xlink:href="#STIXGeneral-Regular-2d" x="199.999939"/>
       <use xlink:href="#STIXGeneral-Regular-30" x="233.299927"/>
       <use xlink:href="#STIXGeneral-Regular-37" x="283.299911"/>
      </g>
     </g>
    </g>
    <g id="xtick_8">
     <g id="line2d_8">
      <g>
       <use xlink:href="#m2f7840c77c" x="275.739908" y="203.04" style="fill: #323034; stroke: #323034; stroke-width: 0.8"/>
      </g>
     </g>
     <g id="text_8">
      <!-- 2018-10 -->
      <g style="fill: #323034" transform="translate(239.800493 237.135432)rotate(-30)scale(0.12 -0.12)">
       <use xlink:href="#STIXGeneral-Regular-32"/>
       <use xlink:href="#STIXGeneral-Regular-30" x="49.999985"/>
       <use xlink:href="#STIXGeneral-Regular-31" x="99.999969"/>
       <use xlink:href="#STIXGeneral-Regular-38" x="149.999954"/>
       <use xlink:href="#STIXGeneral-Regular-2d" x="199.999939"/>
       <use xlink:href="#STIXGeneral-Regular-31" x="233.299927"/>
       <use xlink:href="#STIXGeneral-Regular-30" x="283.299911"/>
      </g>
     </g>
    </g>
    <g id="xtick_9">
     <g id="line2d_9">
      <g>
       <use xlink:href="#m2f7840c77c" x="307.632225" y="203.04" style="fill: #323034; stroke: #323034; stroke-width: 0.8"/>
      </g>
     </g>
     <g id="text_9">
      <!-- 2019-01 -->
      <g style="fill: #323034" transform="translate(271.69281 237.135432)rotate(-30)scale(0.12 -0.12)">
       <defs>
        <path id="STIXGeneral-Regular-39" d="M 378 -141 
L 358 -13 
Q 1094 115 1603 608 
Q 2112 1101 2304 1882 
Q 1933 1517 1344 1517 
Q 826 1517 509 1875 
Q 192 2234 192 2816 
Q 192 3462 573 3894 
Q 954 4326 1523 4326 
Q 2131 4326 2528 3840 
Q 2938 3328 2938 2522 
Q 2938 1958 2742 1462 
Q 2547 966 2170 621 
Q 1773 262 1395 105 
Q 1018 -51 378 -141 
z
M 2317 2272 
L 2317 2522 
Q 2317 4147 1472 4147 
Q 1171 4147 1005 3930 
Q 909 3802 845 3546 
Q 781 3290 781 3034 
Q 781 2464 995 2128 
Q 1210 1792 1568 1792 
Q 1824 1792 2070 1917 
Q 2317 2042 2317 2272 
z
" transform="scale(0.015625)"/>
       </defs>
       <use xlink:href="#STIXGeneral-Regular-32"/>
       <use xlink:href="#STIXGeneral-Regular-30" x="49.999985"/>
       <use xlink:href="#STIXGeneral-Regular-31" x="99.999969"/>
       <use xlink:href="#STIXGeneral-Regular-39" x="149.999954"/>
       <use xlink:href="#STIXGeneral-Regular-2d" x="199.999939"/>
       <use xlink:href="#STIXGeneral-Regular-30" x="233.299927"/>
       <use xlink:href="#STIXGeneral-Regular-31" x="283.299911"/>
      </g>
     </g>
    </g>
    <g id="xtick_10">
     <g id="line2d_10">
      <g>
       <use xlink:href="#m2f7840c77c" x="338.831231" y="203.04" style="fill: #323034; stroke: #323034; stroke-width: 0.8"/>
      </g>
     </g>
     <g id="text_10">
      <!-- 2019-04 -->
      <g style="fill: #323034" transform="translate(302.891816 237.135432)rotate(-30)scale(0.12 -0.12)">
       <use xlink:href="#STIXGeneral-Regular-32"/>
       <use xlink:href="#STIXGeneral-Regular-30" x="49.999985"/>
       <use xlink:href="#STIXGeneral-Regular-31" x="99.999969"/>
       <use xlink:href="#STIXGeneral-Regular-39" x="149.999954"/>
       <use xlink:href="#STIXGeneral-Regular-2d" x="199.999939"/>
       <use xlink:href="#STIXGeneral-Regular-30" x="233.299927"/>
       <use xlink:href="#STIXGeneral-Regular-34" x="283.299911"/>
      </g>
     </g>
    </g>
    <g id="xtick_11">
     <g id="line2d_11">
      <g>
       <use xlink:href="#m2f7840c77c" x="370.376892" y="203.04" style="fill: #323034; stroke: #323034; stroke-width: 0.8"/>
      </g>
     </g>
     <g id="text_11">
      <!-- 2019-07 -->
      <g style="fill: #323034" transform="translate(334.437478 237.135432)rotate(-30)scale(0.12 -0.12)">
       <use xlink:href="#STIXGeneral-Regular-32"/>
       <use xlink:href="#STIXGeneral-Regular-30" x="49.999985"/>
       <use xlink:href="#STIXGeneral-Regular-31" x="99.999969"/>
       <use xlink:href="#STIXGeneral-Regular-39" x="149.999954"/>
       <use xlink:href="#STIXGeneral-Regular-2d" x="199.999939"/>
       <use xlink:href="#STIXGeneral-Regular-30" x="233.299927"/>
       <use xlink:href="#STIXGeneral-Regular-37" x="283.299911"/>
      </g>
     </g>
    </g>
    <g id="text_12">
     <!-- Date -->
     <g transform="translate(196.12 250.586512)scale(0.12 -0.12)">
      <defs>
       <path id="STIXGeneral-Regular-44" d="M 102 4237 
L 1830 4237 
Q 3078 4237 3750 3654 
Q 4384 3110 4384 2138 
Q 4384 966 3514 410 
Q 2880 0 1901 0 
L 102 0 
L 102 122 
Q 474 147 570 252 
Q 666 358 666 736 
L 666 3520 
Q 666 3891 570 3990 
Q 474 4090 102 4115 
L 102 4237 
z
M 1318 3731 
L 1318 538 
Q 1318 365 1379 301 
Q 1440 237 1626 237 
Q 2125 237 2432 307 
Q 2739 378 3021 570 
Q 3686 1018 3686 2099 
Q 3686 3027 3078 3558 
Q 2803 3802 2476 3901 
Q 2150 4000 1658 4000 
Q 1472 4000 1395 3942 
Q 1318 3885 1318 3731 
z
" transform="scale(0.015625)"/>
       <path id="STIXGeneral-Regular-61" d="M 2829 422 
L 2829 243 
Q 2586 -64 2253 -64 
Q 1888 -64 1843 403 
L 1837 403 
Q 1427 -64 909 -64 
Q 608 -64 422 112 
Q 237 288 237 602 
Q 237 1050 685 1350 
Q 992 1555 1837 1869 
L 1837 2214 
Q 1837 2502 1699 2646 
Q 1562 2790 1338 2790 
Q 1146 2790 1018 2697 
Q 890 2605 890 2477 
Q 890 2419 909 2348 
Q 928 2278 928 2208 
Q 928 2112 841 2029 
Q 755 1946 634 1946 
Q 525 1946 441 2029 
Q 358 2112 358 2240 
Q 358 2547 685 2752 
Q 986 2944 1421 2944 
Q 1939 2944 2176 2656 
Q 2291 2522 2323 2384 
Q 2355 2246 2355 1946 
L 2355 723 
Q 2355 301 2554 301 
Q 2682 301 2829 422 
z
M 1837 813 
L 1837 1715 
Q 1248 1510 1018 1293 
Q 800 1094 800 800 
Q 800 557 921 432 
Q 1043 307 1242 307 
Q 1453 307 1613 410 
Q 1747 506 1792 589 
Q 1837 672 1837 813 
z
" transform="scale(0.015625)"/>
       <path id="STIXGeneral-Regular-74" d="M 1702 493 
L 1786 422 
Q 1478 -64 1011 -64 
Q 448 -64 448 749 
L 448 2675 
L 109 2675 
Q 83 2694 83 2720 
Q 83 2771 192 2842 
Q 435 2982 813 3526 
Q 826 3546 874 3606 
Q 922 3667 941 3706 
Q 986 3706 986 3622 
L 986 2880 
L 1632 2880 
L 1632 2675 
L 986 2675 
L 986 845 
Q 986 538 1062 403 
Q 1139 269 1318 269 
Q 1510 269 1702 493 
z
" transform="scale(0.015625)"/>
       <path id="STIXGeneral-Regular-65" d="M 2611 1050 
L 2714 1005 
Q 2330 -64 1376 -64 
Q 813 -64 486 329 
Q 160 723 160 1389 
Q 160 2074 525 2509 
Q 890 2944 1485 2944 
Q 2061 2944 2374 2502 
Q 2560 2246 2592 1773 
L 621 1773 
Q 646 1370 700 1158 
Q 755 947 915 730 
Q 1184 378 1626 378 
Q 1939 378 2153 531 
Q 2368 685 2611 1050 
z
M 634 1978 
L 1939 1978 
Q 1882 2381 1750 2547 
Q 1619 2714 1312 2714 
Q 1043 2714 864 2525 
Q 685 2336 634 1978 
z
" transform="scale(0.015625)"/>
      </defs>
      <use xlink:href="#STIXGeneral-Regular-44"/>
      <use xlink:href="#STIXGeneral-Regular-61" x="72.199982"/>
      <use xlink:href="#STIXGeneral-Regular-74" x="116.599976"/>
      <use xlink:href="#STIXGeneral-Regular-65" x="144.399963"/>
     </g>
    </g>
   </g>
   <g id="matplotlib.axis_2">
    <g id="ytick_1">
     <g id="line2d_12">
      <defs>
       <path id="mb2c9a99573" d="M 0 0 
L -3.5 0 
" style="stroke: #323034; stroke-width: 0.8"/>
      </defs>
      <g>
       <use xlink:href="#mb2c9a99573" x="40.04875" y="176.717347" style="fill: #323034; stroke: #323034; stroke-width: 0.8"/>
      </g>
     </g>
     <g id="text_13">
      <!-- $\mathdefault{30}$ -->
      <g style="fill: #323034" transform="translate(21.04875 180.81516)scale(0.12 -0.12)">
       <defs>
        <path id="STIXGeneral-Regular-33" d="M 390 3264 
L 288 3290 
Q 435 3770 748 4048 
Q 1062 4326 1542 4326 
Q 1990 4326 2265 4083 
Q 2541 3840 2541 3450 
Q 2541 2925 1946 2566 
Q 2298 2413 2477 2227 
Q 2758 1914 2758 1402 
Q 2758 890 2464 506 
Q 2246 211 1840 60 
Q 1434 -90 979 -90 
Q 262 -90 262 275 
Q 262 378 339 442 
Q 416 506 525 506 
Q 685 506 915 339 
Q 1197 141 1466 141 
Q 1818 141 2058 425 
Q 2298 710 2298 1120 
Q 2298 1856 1632 2048 
Q 1434 2112 979 2112 
L 979 2202 
Q 1338 2323 1517 2432 
Q 2035 2726 2035 3290 
Q 2035 3610 1852 3776 
Q 1670 3942 1344 3942 
Q 768 3942 390 3264 
z
" transform="scale(0.015625)"/>
       </defs>
       <use xlink:href="#STIXGeneral-Regular-33" transform="translate(0 0.40625)"/>
       <use xlink:href="#STIXGeneral-Regular-30" transform="translate(49.999985 0.40625)"/>
      </g>
     </g>
    </g>
    <g id="ytick_2">
     <g id="line2d_13">
      <g>
       <use xlink:href="#mb2c9a99573" x="40.04875" y="145.706178" style="fill: #323034; stroke: #323034; stroke-width: 0.8"/>
      </g>
     </g>
     <g id="text_14">
      <!-- $\mathdefault{35}$ -->
      <g style="fill: #323034" transform="translate(21.04875 149.80399)scale(0.12 -0.12)">
       <defs>
        <path id="STIXGeneral-Regular-35" d="M 2803 4358 
L 2573 3814 
Q 2534 3731 2400 3731 
L 1158 3731 
L 902 3187 
Q 1606 3053 1920 2896 
Q 2234 2739 2502 2368 
Q 2726 2061 2726 1555 
Q 2726 1094 2576 780 
Q 2426 467 2099 224 
Q 1664 -90 1011 -90 
Q 646 -90 422 19 
Q 198 128 198 307 
Q 198 550 486 550 
Q 717 550 960 352 
Q 1210 147 1414 147 
Q 1747 147 2012 480 
Q 2278 813 2278 1229 
Q 2278 1843 1850 2189 
Q 1293 2637 486 2637 
Q 410 2637 410 2688 
L 416 2720 
L 1114 4237 
L 2438 4237 
Q 2547 4237 2608 4269 
Q 2669 4301 2746 4403 
L 2803 4358 
z
" transform="scale(0.015625)"/>
       </defs>
       <use xlink:href="#STIXGeneral-Regular-33" transform="translate(0 0.203125)"/>
       <use xlink:href="#STIXGeneral-Regular-35" transform="translate(49.999985 0.203125)"/>
      </g>
     </g>
    </g>
    <g id="ytick_3">
     <g id="line2d_14">
      <g>
       <use xlink:href="#mb2c9a99573" x="40.04875" y="114.695009" style="fill: #323034; stroke: #323034; stroke-width: 0.8"/>
      </g>
     </g>
     <g id="text_15">
      <!-- $\mathdefault{40}$ -->
      <g style="fill: #323034" transform="translate(21.04875 118.792821)scale(0.12 -0.12)">
       <use xlink:href="#STIXGeneral-Regular-34" transform="translate(0 0.40625)"/>
       <use xlink:href="#STIXGeneral-Regular-30" transform="translate(49.999985 0.40625)"/>
      </g>
     </g>
    </g>
    <g id="ytick_4">
     <g id="line2d_15">
      <g>
       <use xlink:href="#mb2c9a99573" x="40.04875" y="83.683839" style="fill: #323034; stroke: #323034; stroke-width: 0.8"/>
      </g>
     </g>
     <g id="text_16">
      <!-- $\mathdefault{45}$ -->
      <g style="fill: #323034" transform="translate(21.04875 87.781652)scale(0.12 -0.12)">
       <use xlink:href="#STIXGeneral-Regular-34" transform="translate(0 0.203125)"/>
       <use xlink:href="#STIXGeneral-Regular-35" transform="translate(49.999985 0.203125)"/>
      </g>
     </g>
    </g>
    <g id="ytick_5">
     <g id="line2d_16">
      <g>
       <use xlink:href="#mb2c9a99573" x="40.04875" y="52.67267" style="fill: #323034; stroke: #323034; stroke-width: 0.8"/>
      </g>
     </g>
     <g id="text_17">
      <!-- $\mathdefault{50}$ -->
      <g style="fill: #323034" transform="translate(21.04875 56.770482)scale(0.12 -0.12)">
       <use xlink:href="#STIXGeneral-Regular-35" transform="translate(0 0.203125)"/>
       <use xlink:href="#STIXGeneral-Regular-30" transform="translate(49.999985 0.203125)"/>
      </g>
     </g>
    </g>
    <g id="ytick_6">
     <g id="line2d_17">
      <g>
       <use xlink:href="#mb2c9a99573" x="40.04875" y="21.661501" style="fill: #323034; stroke: #323034; stroke-width: 0.8"/>
      </g>
     </g>
     <g id="text_18">
      <!-- $\mathdefault{55}$ -->
      <g style="fill: #323034" transform="translate(21.04875 25.759313)scale(0.12 -0.12)">
       <use xlink:href="#STIXGeneral-Regular-35" transform="translate(0 0.203125)"/>
       <use xlink:href="#STIXGeneral-Regular-35" transform="translate(49.999985 0.203125)"/>
      </g>
     </g>
    </g>
    <g id="text_19">
     <!-- Close ($) -->
     <g transform="translate(15.444375 127.284375)rotate(-90)scale(0.12 -0.12)">
      <defs>
       <path id="STIXGeneral-Regular-43" d="M 3930 838 
L 4051 723 
Q 3482 -90 2304 -90 
Q 1376 -90 794 480 
Q 179 1082 179 2080 
Q 179 3014 755 3661 
Q 1357 4326 2310 4326 
Q 2720 4326 3072 4230 
Q 3475 4115 3514 4115 
Q 3725 4115 3782 4326 
L 3910 4326 
L 3968 2874 
L 3821 2874 
Q 3718 3334 3488 3584 
Q 3034 4070 2458 4070 
Q 1747 4070 1334 3548 
Q 922 3027 922 2182 
Q 922 1152 1382 653 
Q 1811 192 2522 192 
Q 2944 192 3251 339 
Q 3558 486 3930 838 
z
" transform="scale(0.015625)"/>
       <path id="STIXGeneral-Regular-6c" d="M 1645 0 
L 134 0 
L 134 96 
Q 435 122 531 221 
Q 627 320 627 589 
L 627 3590 
Q 627 3821 569 3910 
Q 512 4000 358 4000 
Q 224 4000 122 3987 
L 122 4090 
Q 730 4237 1133 4371 
L 1165 4346 
L 1165 557 
Q 1165 288 1254 201 
Q 1344 115 1645 96 
L 1645 0 
z
" transform="scale(0.015625)"/>
       <path id="STIXGeneral-Regular-6f" d="M 3008 1478 
Q 3008 806 2608 371 
Q 2208 -64 1568 -64 
Q 979 -64 582 368 
Q 186 800 186 1459 
Q 186 2125 582 2534 
Q 979 2944 1626 2944 
Q 2221 2944 2614 2537 
Q 3008 2131 3008 1478 
z
M 2432 1306 
Q 2432 2035 2112 2445 
Q 1856 2765 1504 2765 
Q 1171 2765 966 2493 
Q 762 2221 762 1747 
Q 762 928 1101 435 
Q 1318 115 1677 115 
Q 2029 115 2230 432 
Q 2432 749 2432 1306 
z
" transform="scale(0.015625)"/>
       <path id="STIXGeneral-Regular-73" d="M 998 1926 
L 1664 1523 
Q 1984 1331 2105 1164 
Q 2227 998 2227 736 
Q 2227 416 1961 176 
Q 1696 -64 1331 -64 
Q 1030 -64 864 -6 
Q 691 51 570 51 
Q 461 51 416 -26 
L 333 -26 
L 333 979 
L 435 979 
Q 538 512 730 294 
Q 922 77 1248 77 
Q 1485 77 1632 211 
Q 1779 346 1779 550 
Q 1779 845 1440 1030 
L 1094 1222 
Q 326 1651 326 2150 
Q 326 2522 566 2730 
Q 806 2938 1210 2938 
Q 1491 2938 1638 2867 
Q 1754 2816 1818 2816 
Q 1862 2816 1920 2880 
L 1990 2880 
L 2022 2010 
L 1926 2010 
Q 1818 2445 1654 2621 
Q 1491 2797 1203 2797 
Q 986 2797 854 2688 
Q 723 2579 723 2362 
Q 723 2253 796 2128 
Q 870 2003 998 1926 
z
" transform="scale(0.015625)"/>
       <path id="STIXGeneral-Regular-20" transform="scale(0.015625)"/>
       <path id="STIXGeneral-Regular-28" d="M 1946 -1030 
L 1869 -1133 
Q 1126 -710 716 32 
Q 307 774 307 1613 
Q 307 3386 1888 4326 
L 1946 4224 
Q 1293 3667 1075 3126 
Q 858 2586 858 1632 
Q 858 685 1082 96 
Q 1306 -493 1946 -1030 
z
" transform="scale(0.015625)"/>
       <path id="STIXGeneral-Regular-24" d="M 1690 4077 
L 1690 2502 
Q 2234 2208 2445 2045 
Q 2656 1882 2797 1664 
Q 2931 1466 2931 1088 
Q 2931 570 2614 326 
Q 2298 83 1690 0 
L 1690 -557 
L 1472 -557 
L 1472 0 
Q 1062 0 806 73 
Q 550 147 282 326 
L 282 1158 
L 378 1158 
Q 480 685 761 432 
Q 1043 179 1472 179 
L 1472 1984 
Q 800 2362 566 2624 
Q 333 2886 333 3283 
Q 333 3731 659 3974 
Q 986 4218 1472 4250 
L 1472 4653 
L 1690 4653 
L 1690 4250 
Q 2426 4205 2720 3910 
L 2720 3200 
L 2624 3200 
Q 2528 3597 2301 3814 
Q 2074 4032 1690 4077 
z
M 1472 2605 
L 1472 4077 
Q 806 3942 806 3405 
Q 806 3194 937 3037 
Q 1069 2880 1472 2605 
z
M 1690 1875 
L 1690 179 
Q 2086 262 2252 432 
Q 2419 602 2419 941 
Q 2419 1235 2272 1427 
Q 2125 1619 1690 1875 
z
" transform="scale(0.015625)"/>
       <path id="STIXGeneral-Regular-29" d="M 186 4224 
L 262 4326 
Q 992 3891 1408 3148 
Q 1824 2406 1824 1581 
Q 1824 -166 243 -1133 
L 186 -1030 
Q 845 -486 1059 54 
Q 1274 595 1274 1562 
Q 1274 2534 1059 3120 
Q 845 3706 186 4224 
z
" transform="scale(0.015625)"/>
      </defs>
      <use xlink:href="#STIXGeneral-Regular-43"/>
      <use xlink:href="#STIXGeneral-Regular-6c" x="66.699997"/>
      <use xlink:href="#STIXGeneral-Regular-6f" x="94.499985"/>
      <use xlink:href="#STIXGeneral-Regular-73" x="144.499969"/>
      <use xlink:href="#STIXGeneral-Regular-65" x="183.399963"/>
      <use xlink:href="#STIXGeneral-Regular-20" x="227.799957"/>
      <use xlink:href="#STIXGeneral-Regular-28" x="252.799942"/>
      <use xlink:href="#STIXGeneral-Regular-24" x="286.09993"/>
      <use xlink:href="#STIXGeneral-Regular-29" x="336.099915"/>
     </g>
    </g>
   </g>
   <g id="line2d_18">
    <path d="M 55.266932 193.952115 
L 55.613587 194.138182 
L 55.960243 193.264907 
L 56.306899 191.406718 
L 57.346866 189.839414 
L 57.693521 189.653967 
L 58.040177 188.724872 
L 58.386832 189.430686 
L 58.733488 189.759405 
L 60.120111 188.365763 
L 60.466766 188.378167 
L 60.813422 188.675254 
L 61.160077 188.365763 
L 62.200044 188.229314 
L 62.5467 188.415381 
L 62.893356 185.628097 
L 63.586667 185.528861 
L 64.626634 186.018217 
L 64.973289 186.389731 
L 65.319945 175.656145 
L 65.6666 175.940828 
L 66.013256 175.1978 
L 67.053223 173.370622 
L 67.399879 171.624073 
L 67.746534 170.905854 
L 68.09319 169.45019 
L 68.439845 169.902333 
L 69.479812 168.180593 
L 69.826468 165.690396 
L 70.173124 164.959773 
L 70.519779 165.189255 
L 70.866435 164.644079 
L 72.253057 163.213224 
L 72.599713 162.618429 
L 72.946369 163.516513 
L 73.293024 163.269044 
L 74.679647 162.804496 
L 75.026302 158.697997 
L 75.372958 159.948988 
L 75.719614 158.710402 
L 76.75958 159.379623 
L 77.106236 159.106724 
L 77.452892 159.886966 
L 77.799547 160.357715 
L 78.146203 159.67671 
L 79.18617 159.577474 
L 79.532825 159.905572 
L 79.879481 157.725487 
L 80.226137 157.403591 
L 80.572792 158.431921 
L 81.612759 156.276025 
L 81.959415 158.635975 
L 82.30607 156.338047 
L 82.652726 157.075493 
L 82.999382 157.465613 
L 84.039348 157.137515 
L 84.386004 152.863556 
L 84.73266 152.411413 
L 85.425971 153.080634 
L 86.465938 153.018612 
L 86.812593 151.445105 
L 87.159249 152.535458 
L 87.85256 153.557586 
L 88.892527 153.805055 
L 89.239183 156.047163 
L 89.585838 155.781087 
L 89.932494 156.877021 
L 91.319117 155.737671 
L 92.012428 157.422198 
L 92.359083 154.839588 
L 92.705739 155.074652 
L 93.745706 153.111645 
L 94.092362 151.79243 
L 94.439017 153.049623 
L 94.785673 152.882163 
L 95.132328 153.093039 
L 96.518951 147.431639 
L 97.212262 148.881102 
L 97.558918 145.325981 
L 98.94554 137.968271 
L 99.292196 139.070408 
L 99.638851 137.137792 
L 99.985507 133.96659 
L 101.37213 134.88328 
L 101.718785 142.544899 
L 102.065441 139.175846 
L 102.412096 138.425996 
L 103.452063 137.07577 
L 103.798719 137.305252 
L 104.145375 137.998662 
L 104.49203 137.212219 
L 104.838686 137.596137 
L 106.225308 137.503724 
L 106.571964 138.884341 
L 106.91862 138.246751 
L 107.265275 134.901887 
L 108.305242 137.150196 
L 108.651898 136.394764 
L 108.998553 135.025931 
L 109.345209 135.602119 
L 109.691865 144.421695 
L 110.731831 149.636534 
L 111.078487 147.871378 
L 111.425143 150.026654 
L 111.771798 151.259658 
L 112.118454 154.244793 
L 113.158421 148.261498 
L 113.505076 150.231328 
L 113.851732 148.961731 
L 114.198388 149.308435 
L 114.545043 148.354532 
L 115.58501 149.036157 
L 115.931666 152.101922 
L 116.278321 149.023753 
L 116.624977 152.182551 
L 116.971633 151.668385 
L 118.011599 152.448626 
L 118.704911 151.56915 
L 119.051566 153.582395 
L 119.398222 151.426498 
L 120.438189 150.150699 
L 120.784844 149.463491 
L 121.1315 149.15338 
L 121.478156 146.186851 
L 121.824811 144.32246 
L 122.864778 143.542219 
L 123.211434 142.786787 
L 123.558089 141.405549 
L 123.904745 142.415273 
L 124.251401 142.526293 
L 125.984679 137.813215 
L 126.331334 142.092757 
L 126.67799 143.622848 
L 127.717957 144.793209 
L 128.064612 142.836404 
L 128.411268 132.455726 
L 128.757924 134.747451 
L 130.144546 129.971731 
L 130.837857 126.689509 
L 131.184513 134.214679 
L 131.531169 131.02487 
L 132.571136 127.568985 
L 132.917791 124.99878 
L 133.264447 125.933456 
L 133.611102 130.467289 
L 133.957758 131.000061 
L 134.997725 131.446002 
L 135.344381 127.674423 
L 135.691036 127.364312 
L 136.037692 128.411249 
L 137.424314 125.196631 
L 137.77097 123.010344 
L 138.117626 122.372134 
L 138.464281 121.461646 
L 138.810937 121.400244 
L 140.197559 124.286143 
L 140.544215 124.534232 
L 140.890871 125.468909 
L 141.237526 129.309332 
L 142.277493 125.147013 
L 142.624149 126.069906 
L 143.31746 129.835902 
L 143.664116 127.519368 
L 144.704082 129.24731 
L 145.050738 129.185288 
L 145.744049 137.07577 
L 146.090705 139.256475 
L 147.130672 141.219482 
L 147.477327 137.392083 
L 147.823983 135.830981 
L 148.170639 137.212219 
L 148.517294 135.998442 
L 149.557261 136.456787 
L 149.903917 135.478074 
L 150.250572 136.958547 
L 150.597228 134.109241 
L 150.943884 134.251892 
L 151.98385 133.428236 
L 152.330506 133.335202 
L 152.677162 132.424714 
L 153.023817 133.204955 
L 154.41044 127.519368 
L 154.757095 126.627486 
L 155.103751 127.704814 
L 155.450407 133.21736 
L 155.797062 132.883059 
L 156.837029 132.976093 
L 157.183685 131.619664 
L 157.53034 132.63497 
L 157.876996 131.13651 
L 158.223652 122.793265 
L 159.263619 117.44818 
L 159.610274 114.0047 
L 159.95693 117.219318 
L 160.303585 115.385937 
L 160.650241 108.9505 
L 162.036863 105.550435 
L 162.383519 103.42617 
L 162.730175 103.95274 
L 163.07683 104.832216 
L 164.116797 105.835118 
L 164.810108 113.08801 
L 165.156764 110.065661 
L 165.50342 111.496517 
L 166.543387 111.762592 
L 166.890042 107.068122 
L 167.236698 104.404882 
L 167.930009 104.386276 
L 168.969976 105.686884 
L 169.316632 107.166737 
L 169.663287 112.475229 
L 170.009943 109.000118 
L 170.356598 110.14629 
L 171.396565 111.998277 
L 171.743221 112.22714 
L 172.089877 113.131425 
L 172.436532 112.722698 
L 172.783188 112.642069 
L 173.823155 107.773936 
L 174.16981 109.2296 
L 174.516466 108.362528 
L 174.863122 108.443157 
L 175.209777 105.835118 
L 176.249744 102.224797 
L 176.5964 105.042472 
L 176.943055 105.290561 
L 177.289711 104.324253 
L 177.636366 104.324253 
L 179.022989 110.883116 
L 179.369645 110.8397 
L 179.7163 110.102875 
L 180.062956 112.859147 
L 181.449578 108.381135 
L 181.796234 108.42455 
L 182.14289 107.222557 
L 182.489545 104.34286 
L 183.529512 105.228539 
L 184.222823 105.389177 
L 184.569479 103.909324 
L 184.916135 101.283298 
L 186.302757 102.5653 
L 186.649413 98.272734 
L 186.996068 98.031467 
L 187.342724 99.208031 
L 188.382691 101.381914 
L 188.729346 101.326714 
L 189.422658 110.053257 
L 189.769313 109.495676 
L 191.155936 116.190987 
L 191.849247 115.008221 
L 192.195903 125.74801 
L 193.235869 131.694091 
L 193.582525 122.006822 
L 194.275836 133.632289 
L 196.009114 119.071305 
L 196.35577 114.58709 
L 196.702426 106.244465 
L 197.049081 107.086728 
L 198.435704 107.953801 
L 198.782359 109.124162 
L 199.129015 106.98129 
L 199.475671 102.515682 
L 200.515638 97.387055 
L 200.862293 98.23552 
L 201.208949 98.620059 
L 201.555604 103.264912 
L 201.90226 101.487352 
L 202.942227 100.607875 
L 203.288883 100.837358 
L 203.635538 103.221496 
L 203.982194 100.422428 
L 204.328849 95.901 
L 205.368816 93.323971 
L 206.062128 98.167916 
L 206.408783 97.857804 
L 206.755439 98.774495 
L 207.795406 102.825173 
L 208.142061 102.8996 
L 208.488717 108.827075 
L 208.835372 112.382196 
L 209.182028 118.167019 
L 210.221995 106.578765 
L 210.568651 113.168639 
L 210.915306 115.906305 
L 211.261962 113.961284 
L 212.648584 115.61542 
L 212.99524 113.08801 
L 213.341896 108.306708 
L 213.688551 106.53535 
L 214.035207 113.106617 
L 215.075174 110.623242 
L 215.421829 105.853724 
L 215.768485 107.068122 
L 216.115141 104.571723 
L 216.461796 103.661235 
L 217.501763 102.057337 
L 217.848419 98.452599 
L 218.195074 99.053595 
L 218.54173 106.53535 
L 218.888386 117.045655 
L 219.928352 117.733483 
L 220.275008 121.201772 
L 220.968319 119.256752 
L 221.314975 122.068844 
L 222.354942 117.708674 
L 222.701597 112.010682 
L 223.048253 100.979389 
L 223.394909 100.496235 
L 223.741564 90.165794 
L 224.781531 88.214571 
L 225.128187 86.876749 
L 225.474842 84.96274 
L 225.821498 80.99269 
L 226.168154 82.045829 
L 227.20812 82.708228 
L 227.554776 85.266649 
L 227.901432 82.65861 
L 228.248087 84.429968 
L 228.594743 85.445894 
L 229.63471 83.470482 
L 229.981365 84.163892 
L 230.328021 82.386332 
L 230.674677 82.708228 
L 231.021332 82.058234 
L 232.407955 83.092146 
L 232.75461 83.668334 
L 233.101266 84.616035 
L 233.447922 79.586644 
L 234.487889 77.214909 
L 234.834544 75.028002 
L 235.1812 74.018898 
L 235.527855 74.799139 
L 235.874511 77.400356 
L 236.914478 78.119195 
L 237.261134 76.589104 
L 237.607789 78.887032 
L 237.954445 78.738178 
L 238.3011 81.668113 
L 239.341067 81.810144 
L 239.687723 86.368786 
L 240.034378 85.173616 
L 240.381034 86.690682 
L 240.72769 87.502555 
L 241.767657 91.608434 
L 242.114312 88.245582 
L 242.460968 88.660512 
L 242.807623 86.634862 
L 243.154279 87.223454 
L 244.194246 84.132881 
L 244.540902 89.013419 
L 245.234213 86.777514 
L 245.580868 82.981126 
L 246.620835 79.072478 
L 246.967491 79.426006 
L 247.314147 83.123157 
L 247.660802 78.379069 
L 248.007458 77.957937 
L 249.047425 78.565136 
L 249.39408 77.77187 
L 249.740736 79.351579 
L 250.087392 77.140483 
L 250.434047 77.790477 
L 251.474014 77.524401 
L 251.82067 75.492549 
L 252.167325 72.785894 
L 252.513981 73.665991 
L 252.860637 78.459698 
L 253.900603 80.088404 
L 254.247259 79.524621 
L 254.593915 62.808361 
L 254.94057 54.056388 
L 255.287226 53.164507 
L 256.327193 51.548205 
L 256.673848 54.489924 
L 257.020504 54.279669 
L 257.36716 51.83909 
L 257.713815 52.75578 
L 258.753782 50.798975 
L 259.100438 49.442547 
L 259.447093 48.723708 
L 259.793749 44.128473 
L 260.140405 37.773664 
L 261.180371 40.932461 
L 261.527027 41.551444 
L 261.873683 41.53904 
L 262.220338 40.889046 
L 262.566994 39.87312 
L 263.606961 37.23469 
L 263.953616 34.596259 
L 264.300272 29.709519 
L 264.993583 22.748132 
L 266.380206 21.626768 
L 266.726861 23.88128 
L 267.073517 29.523452 
L 267.420173 32.186691 
L 268.46014 36.633693 
L 268.806795 28.371697 
L 269.153451 32.527814 
L 269.500106 24.57469 
L 269.846762 28.390304 
L 270.886729 37.321521 
L 271.233384 36.770142 
L 271.58004 36.572291 
L 271.926696 34.119308 
L 272.273351 37.649619 
L 273.313318 32.961351 
L 273.659974 30.879881 
L 274.006629 33.518311 
L 274.353285 26.742991 
L 274.699941 25.559605 
L 275.739908 23.311295 
L 276.086563 20.282744 
L 276.433219 16.101818 
L 277.12653 27.690072 
L 278.166497 28.495742 
L 278.513153 23.88128 
L 278.859808 39.576033 
L 279.206464 42.449528 
L 279.553119 31.003925 
L 280.593086 38.083155 
L 280.939742 30.941903 
L 281.286398 32.341747 
L 281.633053 40.077794 
L 281.979709 35.166245 
L 283.019676 33.177808 
L 283.366331 30.081033 
L 283.712987 41.477638 
L 284.059643 34.453608 
L 284.406298 39.656662 
L 285.446265 45.713764 
L 285.792921 44.147079 
L 286.139576 35.834845 
L 286.486232 30.830263 
L 286.832888 52.824004 
L 287.872854 61.624974 
L 288.21951 58.398572 
L 288.566166 49.163446 
L 288.912821 50.253799 
L 289.259477 56.261282 
L 290.299444 71.708566 
L 290.646099 74.613072 
L 290.992755 82.77025 
L 291.339411 75.877088 
L 291.686066 72.681076 
L 292.726033 84.163892 
L 293.072689 97.480088 
L 293.419344 97.765391 
L 294.112656 104.528307 
L 295.152622 101.053815 
L 295.499278 101.59279 
L 295.845934 91.546411 
L 296.539245 95.089747 
L 297.579212 85.730576 
L 297.925867 97.888816 
L 298.619179 100.89938 
L 298.965834 110.208313 
L 300.005801 108.547975 
L 300.352457 109.991234 
L 300.699112 109.291622 
L 301.045768 106.516743 
L 301.392424 114.723539 
L 302.432391 117.033251 
L 302.779046 113.825455 
L 303.819013 136.846907 
L 304.85898 142.668944 
L 305.552291 127.185067 
L 305.898947 128.72074 
L 306.245602 128.596696 
L 307.285569 126.317995 
L 307.97888 126.057501 
L 308.325536 149.636534 
L 308.672192 140.544679 
L 309.712159 141.052642 
L 310.40547 132.976093 
L 310.752125 132.238647 
L 311.098781 134.486957 
L 312.138748 137.906249 
L 312.485404 133.304191 
L 312.832059 130.504503 
L 313.52537 127.717219 
L 314.911993 132.988497 
L 315.258649 132.07801 
L 315.605304 133.880379 
L 315.95196 126.286984 
L 316.991927 128.491878 
L 317.338582 130.900826 
L 317.685238 115.082648 
L 318.031894 113.274077 
L 318.378549 113.168639 
L 319.418516 106.058398 
L 319.765172 101.685823 
L 320.111827 101.59279 
L 320.458483 106.53535 
L 320.805138 106.225858 
L 321.845105 107.718116 
L 322.191761 105.519424 
L 322.538417 106.578765 
L 322.885072 105.649671 
L 323.231728 106.207252 
L 324.61835 105.463604 
L 324.965006 103.785279 
L 325.311662 105.265752 
L 325.658317 102.385435 
L 326.698284 100.496235 
L 327.04494 100.341799 
L 327.391595 99.524345 
L 327.738251 102.100753 
L 328.084907 99.375491 
L 329.124873 98.031467 
L 329.471529 98.514621 
L 329.818185 100.062699 
L 330.16484 103.079465 
L 330.511496 102.472266 
L 331.898118 90.413263 
L 332.244774 89.224295 
L 332.938085 82.584803 
L 333.978052 79.723093 
L 334.324708 81.971403 
L 334.671363 79.506015 
L 335.018019 69.101147 
L 335.364675 75.170653 
L 336.404641 78.614133 
L 336.751297 81.568878 
L 337.097953 79.029063 
L 337.444608 78.645145 
L 337.791264 76.830371 
L 338.831231 74.873566 
L 339.177886 70.680236 
L 339.524542 68.698622 
L 339.871198 68.196861 
L 340.217853 66.202223 
L 341.25782 61.513954 
L 341.604476 62.436847 
L 341.951131 60.764104 
L 342.297787 63.272908 
L 342.644443 63.396953 
L 343.68441 62.839372 
L 344.031065 62.808361 
L 344.377721 56.980121 
L 344.724376 55.889769 
L 346.110999 54.874463 
L 346.457655 50.439866 
L 346.80431 50.9224 
L 347.150966 53.734492 
L 347.497621 55.208763 
L 348.537588 54.750418 
L 348.884244 60.684095 
L 349.2309 45.837808 
L 349.577555 47.912455 
L 349.924211 44.004428 
L 350.964178 48.940786 
L 351.310833 57.376444 
L 351.657489 57.333028 
L 352.3508 64.789974 
L 353.390767 82.107852 
L 354.084078 74.247761 
L 354.777389 77.152887 
L 355.817356 86.090306 
L 356.164012 80.794839 
L 356.857323 91.267931 
L 357.203979 92.32107 
L 358.590601 93.429409 
L 358.937257 94.717613 
L 359.283913 93.323971 
L 359.630568 98.198927 
L 359.630568 98.198927 
" clip-path="url(#p062e0a9acc)" style="fill: none; stroke: #bc80bd; stroke-opacity: 0.5; stroke-width: 2; stroke-linecap: square"/>
   </g>
   <g id="line2d_19">
    <path d="M 55.266932 193.952115 
L 55.613587 194.045148 
L 55.960243 193.785068 
L 56.306899 193.19048 
L 57.346866 192.520267 
L 58.040177 191.568596 
L 58.733488 191.130029 
L 60.120111 190.853603 
L 61.160077 190.304247 
L 62.5467 190.039994 
L 63.586667 189.294685 
L 64.973289 188.985614 
L 66.013256 187.239437 
L 67.053223 186.66157 
L 68.439845 184.348576 
L 69.479812 183.791059 
L 70.866435 181.528007 
L 72.253057 180.989337 
L 73.293024 179.54166 
L 74.332991 179.103494 
L 75.719614 177.287968 
L 76.75958 176.871494 
L 78.146203 175.414944 
L 79.18617 175.084997 
L 80.572792 173.79897 
L 81.612759 173.468348 
L 82.999382 172.339256 
L 84.039348 172.077157 
L 85.425971 170.830787 
L 86.465938 170.548054 
L 87.85256 169.479794 
L 88.892527 169.249283 
L 89.932494 168.699388 
L 91.319117 168.519364 
L 92.705739 167.86041 
L 93.745706 167.668868 
L 95.132328 166.929878 
L 96.172295 166.708787 
L 97.558918 165.812039 
L 98.598885 165.50872 
L 99.985507 164.257162 
L 101.025474 163.934382 
L 102.065441 163.142812 
L 102.412096 162.885345 
L 103.452063 162.619267 
L 104.838686 161.625556 
L 106.225308 161.389067 
L 107.265275 160.702075 
L 108.305242 160.479887 
L 109.691865 159.657387 
L 111.078487 159.462683 
L 112.118454 159.263927 
L 113.851732 159.006832 
L 114.545043 158.837243 
L 116.624977 158.571077 
L 116.971633 158.515855 
L 120.438189 158.258917 
L 123.904745 157.485038 
L 124.251401 157.377421 
L 125.638023 157.122005 
L 126.67799 156.789802 
L 128.064612 156.612063 
L 129.104579 156.148221 
L 130.144546 155.973712 
L 131.531169 155.299789 
L 132.571136 155.120881 
L 133.957758 154.441108 
L 134.997725 154.297388 
L 136.384347 153.649893 
L 137.424314 153.477449 
L 138.810937 152.733867 
L 140.197559 152.566527 
L 141.237526 152.113423 
L 142.624149 151.810509 
L 143.664116 151.416139 
L 145.050738 151.169474 
L 146.090705 150.928652 
L 147.477327 150.802999 
L 148.517294 150.572322 
L 150.250572 150.348115 
L 150.943884 150.180576 
L 152.330506 150.00828 
L 153.370473 149.742579 
L 154.757095 149.515888 
L 155.797062 149.246221 
L 157.183685 149.080871 
L 159.610274 148.474267 
L 160.650241 147.986629 
L 161.690208 147.792062 
L 163.07683 146.996618 
L 164.463453 146.640161 
L 165.50342 146.168097 
L 166.543387 146.014501 
L 167.236698 145.658059 
L 170.009943 144.837387 
L 170.356598 144.687857 
L 171.743221 144.409437 
L 172.783188 144.009723 
L 174.16981 143.712585 
L 175.209777 143.264251 
L 176.5964 142.93941 
L 177.636366 142.474312 
L 179.369645 142.220393 
L 180.062956 141.975458 
L 181.796234 141.710062 
L 182.489545 141.428278 
L 183.876168 141.146954 
L 184.916135 140.712881 
L 186.302757 140.566722 
L 187.342724 140.088737 
L 188.729346 139.797501 
L 189.769313 139.446761 
L 191.155936 139.269717 
L 192.195903 139.045085 
L 194.275836 138.895378 
L 196.35577 138.648665 
L 197.049081 138.423432 
L 198.782359 138.21445 
L 199.475671 137.982047 
L 200.862293 137.705008 
L 201.90226 137.330459 
L 203.288883 137.08227 
L 204.328849 136.707432 
L 205.715472 136.42684 
L 206.755439 136.049017 
L 208.142061 135.8314 
L 209.182028 135.610238 
L 212.99524 135.179209 
L 214.035207 134.934449 
L 215.421829 134.767076 
L 216.461796 134.490678 
L 217.848419 134.279347 
L 218.888386 134.034076 
L 222.354942 133.775466 
L 223.394909 133.514037 
L 223.741564 133.385407 
L 225.128187 133.114966 
L 226.168154 132.672441 
L 227.554776 132.389389 
L 228.594743 131.972577 
L 229.981365 131.696615 
L 231.021332 131.276339 
L 232.75461 131.00574 
L 233.447922 130.730996 
L 234.834544 130.425915 
L 235.874511 129.968686 
L 237.261134 129.678799 
L 238.3011 129.269665 
L 239.687723 129.024121 
L 240.72769 128.679901 
L 242.114312 128.472111 
L 243.154279 128.145255 
L 245.234213 127.816728 
L 245.580868 127.698739 
L 246.967491 127.445077 
L 248.007458 127.073973 
L 249.39408 126.821232 
L 250.434047 126.446408 
L 251.82067 126.191623 
L 252.860637 125.802602 
L 254.247259 125.570884 
L 255.287226 125.054175 
L 256.327193 124.870868 
L 257.713815 124.164402 
L 258.753782 123.983699 
L 260.140405 123.213293 
L 261.180371 123.013096 
L 262.566994 122.222253 
L 263.606961 122.017956 
L 264.993583 121.126575 
L 266.380206 120.890233 
L 267.420173 120.236744 
L 268.46014 120.040031 
L 269.846762 119.186195 
L 270.886729 118.995812 
L 272.273351 118.233435 
L 273.313318 118.037407 
L 274.699941 117.227728 
L 275.739908 117.014282 
L 277.12653 116.15439 
L 278.166497 115.957404 
L 279.553119 115.2293 
L 280.593086 115.057864 
L 281.979709 114.349266 
L 283.019676 114.170867 
L 284.406298 113.493275 
L 285.792921 113.195822 
L 286.832888 112.721473 
L 288.21951 112.495251 
L 289.259477 112.107602 
L 290.992755 111.880418 
L 291.686066 111.721762 
L 301.045768 111.307639 
L 303.819013 111.43622 
L 310.40547 111.937769 
L 313.52537 112.212983 
L 321.845105 112.350292 
L 332.59143 111.86555 
L 335.364675 111.501506 
L 337.444608 111.273483 
L 337.791264 111.212306 
L 339.524542 111.001379 
L 340.217853 110.847147 
L 341.604476 110.675667 
L 342.644443 110.423323 
L 344.031065 110.25776 
L 344.724376 110.071199 
L 346.457655 109.872878 
L 347.497621 109.581206 
L 348.884244 109.40359 
L 349.924211 109.079133 
L 351.657489 108.801867 
L 352.3508 108.646106 
L 354.084078 108.491595 
L 354.777389 108.383909 
L 359.630568 108.121966 
L 359.630568 108.121966 
" clip-path="url(#p062e0a9acc)" style="fill: none; stroke-dasharray: 2,3.3; stroke-dashoffset: 0; stroke: #fb8072; stroke-width: 2"/>
   </g>
   <g id="line2d_20">
    <path d="M 55.266932 193.952115 
L 55.613587 194.046565 
L 55.960243 193.778037 
L 56.306899 193.157853 
L 57.346866 192.453131 
L 58.040177 191.446432 
L 58.733488 190.990706 
L 60.120111 190.690799 
L 60.813422 190.273485 
L 61.160077 190.09845 
L 62.5467 189.812467 
L 63.586667 188.934057 
L 64.973289 188.58075 
L 66.013256 186.329117 
L 67.053223 185.579468 
L 68.439845 182.554102 
L 69.479812 181.818998 
L 70.866435 178.795926 
L 72.253057 178.07114 
L 73.293024 176.142443 
L 74.332991 175.562705 
L 75.372958 173.712767 
L 75.719614 173.089196 
L 76.75958 172.525875 
L 77.799547 171.050953 
L 78.146203 170.6026 
L 79.18617 170.172065 
L 80.572792 168.465778 
L 81.612759 168.00922 
L 82.999382 166.527607 
L 84.039348 166.187834 
L 85.425971 164.373244 
L 86.465938 163.974012 
L 87.505905 162.803972 
L 87.85256 162.485157 
L 89.239183 161.977346 
L 89.932494 161.600701 
L 91.665772 161.243191 
L 92.359083 160.905505 
L 92.705739 160.711407 
L 93.745706 160.459255 
L 94.785673 159.705797 
L 95.132328 159.489027 
L 96.172295 159.139622 
L 97.558918 157.688103 
L 98.598885 157.098501 
L 99.985507 154.637055 
L 101.025474 153.995883 
L 101.37213 153.38665 
L 102.065441 152.601344 
L 102.412096 152.151945 
L 103.452063 151.674799 
L 104.838686 149.973633 
L 106.225308 149.582014 
L 107.265275 148.464142 
L 108.305242 148.110725 
L 109.345209 146.983233 
L 109.691865 146.903594 
L 111.425143 147.109171 
L 112.118454 147.454415 
L 113.505076 147.564322 
L 116.624977 148.025108 
L 116.971633 148.136889 
L 118.704911 148.370203 
L 119.398222 148.618446 
L 121.478156 148.627021 
L 121.824811 148.495667 
L 122.864778 148.344589 
L 124.251401 147.63923 
L 125.291368 147.401862 
L 126.331334 146.714844 
L 126.67799 146.620914 
L 128.064612 146.452217 
L 129.104579 145.31644 
L 130.144546 144.851276 
L 131.184513 143.520546 
L 131.531169 143.142203 
L 132.571136 142.670808 
L 133.264447 141.645844 
L 133.957758 140.996052 
L 134.997725 140.707343 
L 136.384347 139.211212 
L 137.424314 138.787996 
L 138.810937 136.855567 
L 140.197559 136.476346 
L 140.890871 135.794992 
L 141.237526 135.599416 
L 142.277493 135.28427 
L 142.970804 134.791645 
L 143.664116 134.427656 
L 145.744049 134.177838 
L 146.090705 134.330778 
L 148.517294 134.775227 
L 150.943884 134.865933 
L 152.677162 134.707165 
L 153.370473 134.575515 
L 154.41044 134.363336 
L 155.103751 133.937533 
L 157.876996 133.676812 
L 158.223652 133.349726 
L 159.263619 132.871858 
L 160.650241 130.683636 
L 161.690208 129.952526 
L 163.07683 127.021599 
L 164.116797 126.385198 
L 165.156764 125.037191 
L 165.50342 124.630515 
L 166.543387 124.244056 
L 167.236698 123.147939 
L 167.930009 122.584529 
L 168.969976 122.077111 
L 169.663287 121.354507 
L 170.356598 120.658154 
L 171.396565 120.398142 
L 172.783188 119.512615 
L 173.823155 119.160204 
L 175.209777 117.871086 
L 176.249744 117.401411 
L 177.636366 115.947522 
L 179.369645 115.646761 
L 180.062956 115.401688 
L 181.449578 115.190974 
L 182.14289 114.754828 
L 182.489545 114.442336 
L 183.529512 114.165809 
L 184.916135 112.990718 
L 186.302757 112.677845 
L 187.342724 111.440529 
L 188.382691 111.138677 
L 189.076002 110.683693 
L 189.769313 110.629692 
L 190.80928 110.75254 
L 191.849247 111.172085 
L 192.195903 111.609467 
L 193.582525 112.50605 
L 194.275836 113.568484 
L 194.622492 114.086327 
L 196.35577 114.456415 
L 197.049081 113.996276 
L 198.782359 113.674224 
L 200.515638 112.671823 
L 201.208949 111.830055 
L 201.90226 111.270453 
L 202.942227 110.950535 
L 204.328849 109.697469 
L 205.368816 109.20621 
L 206.408783 108.169222 
L 206.755439 107.887353 
L 208.488717 107.627488 
L 208.835372 107.770141 
L 209.182028 108.082074 
L 210.221995 108.036971 
L 211.261962 108.588591 
L 213.341896 108.909435 
L 213.688551 108.838208 
L 214.035207 108.966269 
L 215.075174 109.015981 
L 217.501763 108.388598 
L 218.195074 107.819382 
L 218.54173 107.780859 
L 218.888386 108.058816 
L 219.928352 108.34907 
L 221.314975 109.762234 
L 222.701597 110.06094 
L 223.394909 109.509706 
L 223.741564 108.929369 
L 224.781531 108.307904 
L 225.821498 106.204101 
L 226.168154 105.479331 
L 227.20812 104.796178 
L 228.594743 102.463354 
L 229.63471 101.893553 
L 231.021332 99.704081 
L 232.407955 99.205712 
L 233.447922 97.753978 
L 234.487889 97.137795 
L 235.874511 94.637627 
L 236.914478 94.142066 
L 237.954445 92.74054 
L 238.3011 92.408362 
L 239.687723 91.91876 
L 240.381034 91.56563 
L 240.72769 91.443736 
L 242.114312 91.352583 
L 245.234213 90.635757 
L 245.580868 90.406116 
L 246.620835 90.066104 
L 248.007458 88.87545 
L 249.047425 88.566138 
L 250.434047 87.354725 
L 251.474014 87.059813 
L 252.860637 85.692418 
L 253.900603 85.524296 
L 254.247259 85.344305 
L 254.94057 83.749863 
L 255.287226 82.832298 
L 256.327193 81.89377 
L 257.713815 78.615239 
L 258.753782 77.780748 
L 259.793749 75.125707 
L 260.140405 74.005141 
L 261.180371 73.012957 
L 262.566994 69.334108 
L 263.606961 68.371122 
L 264.646928 65.04069 
L 264.993583 63.77191 
L 266.380206 62.507552 
L 267.073517 60.393999 
L 267.420173 59.547778 
L 268.46014 58.860354 
L 269.846762 55.370458 
L 270.886729 54.828989 
L 272.273351 52.701166 
L 273.313318 52.10897 
L 274.699941 49.46832 
L 275.739908 48.683608 
L 276.779874 46.139012 
L 277.12653 45.585543 
L 278.166497 45.072848 
L 278.513153 44.4371 
L 279.206464 44.236016 
L 279.553119 43.839053 
L 280.593086 43.666376 
L 281.286398 42.956354 
L 281.633053 42.869997 
L 281.979709 42.638884 
L 283.019676 42.355052 
L 283.366331 41.986831 
L 283.712987 41.971555 
L 284.059643 41.746016 
L 284.406298 41.683336 
L 285.792921 41.874534 
L 286.139576 41.693343 
L 286.486232 41.36745 
L 286.832888 41.711147 
L 287.872854 42.308562 
L 288.21951 42.791263 
L 288.912821 43.20057 
L 289.259477 43.592391 
L 290.299444 44.435877 
L 291.686066 48.106496 
L 292.726033 49.188218 
L 293.419344 52.050828 
L 294.112656 53.625154 
L 295.152622 55.048014 
L 295.845934 57.49742 
L 296.539245 59.676948 
L 297.579212 60.458557 
L 297.925867 61.581465 
L 298.619179 62.761003 
L 298.965834 64.184423 
L 300.005801 65.51533 
L 301.392424 70.638151 
L 302.432391 72.030005 
L 303.125702 74.733854 
L 303.819013 78.138701 
L 305.552291 81.487923 
L 306.245602 84.275662 
L 307.285569 85.536932 
L 307.97888 86.75255 
L 308.672192 90.196238 
L 309.712159 91.721931 
L 310.752125 95.411146 
L 311.098781 96.583421 
L 312.138748 97.823106 
L 313.178715 100.715223 
L 313.52537 101.525283 
L 314.911993 102.469179 
L 315.95196 104.933548 
L 316.991927 105.640298 
L 317.338582 106.398114 
L 318.378549 107.046459 
L 319.418516 107.016817 
L 320.111827 106.698964 
L 324.61835 106.593825 
L 327.04494 105.999079 
L 328.084907 105.504168 
L 329.124873 105.279987 
L 329.818185 104.926596 
L 330.511496 104.799215 
L 331.551463 104.458865 
L 332.59143 103.070789 
L 332.938085 102.45621 
L 333.978052 101.774216 
L 334.671363 100.529908 
L 335.364675 98.854553 
L 336.404641 98.247341 
L 337.444608 96.62924 
L 337.791264 96.035274 
L 338.831231 95.400423 
L 340.217853 92.302298 
L 341.25782 91.378647 
L 342.644443 88.064731 
L 343.68441 87.30797 
L 344.377721 85.685196 
L 344.724376 84.791333 
L 346.110999 83.893827 
L 347.150966 81.085273 
L 347.497621 80.308978 
L 348.537588 79.542221 
L 348.884244 78.976477 
L 349.924211 76.087948 
L 350.964178 75.273533 
L 352.004144 73.806181 
L 352.3508 73.535695 
L 355.817356 74.423792 
L 356.164012 74.614924 
L 356.857323 75.462507 
L 357.203979 75.968264 
L 358.590601 76.492099 
L 359.630568 78.147563 
L 359.630568 78.147563 
" clip-path="url(#p062e0a9acc)" style="fill: none; stroke-dasharray: 7.4,3.2; stroke-dashoffset: 0; stroke: #b3de69; stroke-width: 2"/>
   </g>
   <g id="line2d_21">
    <path d="M 68.439845 184.348576 
L 69.479812 183.428164 
L 70.866435 179.565103 
L 72.253057 178.620791 
L 73.293024 175.816827 
L 74.332991 174.907026 
L 75.372958 171.908179 
L 75.719614 170.853933 
L 76.75958 169.816941 
L 78.146203 166.113565 
L 79.18617 165.155985 
L 80.572792 162.773884 
L 81.612759 162.225739 
L 82.999382 160.478459 
L 84.039348 160.172999 
L 85.425971 158.495406 
L 86.465938 158.152555 
L 87.505905 156.987709 
L 87.85256 156.657462 
L 89.239183 156.343363 
L 89.932494 156.149366 
L 91.665772 155.913814 
L 92.359083 155.63622 
L 92.705739 155.475405 
L 93.745706 155.232765 
L 94.785673 154.667165 
L 96.172295 154.202219 
L 97.558918 152.834295 
L 98.598885 152.354286 
L 99.985507 150.102654 
L 101.025474 149.499664 
L 101.37213 148.869229 
L 102.065441 147.979319 
L 102.412096 147.430067 
L 103.452063 146.752517 
L 104.838686 144.075943 
L 106.225308 143.364569 
L 107.265275 141.543394 
L 108.305242 141.020457 
L 109.345209 139.163242 
L 109.691865 139.006857 
L 111.425143 139.119206 
L 111.771798 139.331123 
L 112.118454 139.860462 
L 113.158421 140.228077 
L 113.851732 141.048965 
L 114.545043 142.0895 
L 115.58501 142.59496 
L 116.278321 143.287993 
L 116.971633 144.300464 
L 118.704911 145.325959 
L 119.398222 146.40455 
L 120.438189 146.856227 
L 121.824811 148.282763 
L 122.864778 148.538029 
L 123.558089 149.022468 
L 123.904745 148.95081 
L 124.251401 148.696873 
L 125.291368 148.409975 
L 126.67799 146.932803 
L 127.717957 146.738584 
L 128.064612 146.519822 
L 129.104579 144.877848 
L 130.144546 144.087484 
L 131.531169 141.04418 
L 132.571136 140.187032 
L 133.264447 138.255722 
L 133.957758 136.893335 
L 134.997725 136.260929 
L 136.037692 134.453731 
L 136.384347 133.909573 
L 137.424314 133.330684 
L 138.810937 130.636455 
L 140.197559 130.153346 
L 141.237526 128.324905 
L 143.31746 127.088157 
L 143.664116 127.000573 
L 145.397394 127.088157 
L 145.744049 127.304261 
L 146.090705 127.721671 
L 147.130672 128.300982 
L 147.477327 128.710219 
L 148.517294 129.286229 
L 149.557261 129.599885 
L 150.943884 130.75257 
L 151.98385 131.124638 
L 153.370473 132.597181 
L 155.103751 132.687866 
L 155.797062 133.21942 
L 157.183685 133.465183 
L 157.876996 133.715355 
L 159.263619 132.927871 
L 160.650241 129.378465 
L 161.690208 128.325547 
L 163.07683 123.77612 
L 164.116797 122.664569 
L 165.50342 119.423968 
L 166.543387 118.686035 
L 167.236698 116.774662 
L 167.930009 115.94848 
L 168.969976 115.200601 
L 170.356598 112.057996 
L 171.396565 111.357232 
L 172.089877 109.985342 
L 172.436532 109.625679 
L 172.783188 109.454032 
L 173.823155 109.231505 
L 174.516466 108.695322 
L 177.636366 108.57347 
L 180.062956 108.584081 
L 181.796234 108.511758 
L 182.489545 108.610839 
L 183.876168 108.528792 
L 184.916135 107.777369 
L 186.302757 107.440477 
L 187.342724 105.920155 
L 189.422658 105.214739 
L 189.769313 105.252329 
L 190.80928 105.569773 
L 191.502591 106.442183 
L 191.849247 106.789243 
L 192.195903 107.554377 
L 193.582525 108.929146 
L 193.929181 109.51446 
L 194.622492 110.996484 
L 195.662459 111.46586 
L 196.35577 112.10912 
L 197.049081 112.243399 
L 198.782359 112.470577 
L 199.475671 112.624304 
L 200.862293 112.438038 
L 201.208949 112.459059 
L 201.555604 112.603948 
L 202.942227 112.58204 
L 203.635538 112.171718 
L 203.982194 111.847674 
L 204.328849 111.17544 
L 205.368816 110.358761 
L 206.408783 108.061587 
L 206.755439 106.885887 
L 207.795406 106.200828 
L 208.835372 103.787317 
L 210.568651 103.170616 
L 211.261962 103.761201 
L 213.341896 104.223733 
L 213.688551 104.367292 
L 214.035207 104.928705 
L 216.461796 105.984503 
L 217.501763 106.028073 
L 218.195074 105.808869 
L 218.54173 106.188667 
L 218.888386 107.03587 
L 219.928352 107.815159 
L 221.314975 110.851573 
L 222.701597 111.494169 
L 223.048253 111.086926 
L 223.741564 109.869649 
L 224.781531 108.978432 
L 226.168154 104.560824 
L 227.20812 103.646593 
L 227.554776 102.886996 
L 228.248087 100.864094 
L 228.594743 100.135242 
L 229.63471 99.29247 
L 231.021332 96.527248 
L 232.407955 95.957196 
L 232.75461 95.140517 
L 233.447922 92.619929 
L 234.487889 91.04897 
L 235.874511 84.695202 
L 236.914478 83.484792 
L 237.607789 81.841953 
L 237.954445 81.433824 
L 238.3011 81.200022 
L 239.687723 81.069288 
L 240.72769 81.55572 
L 241.767657 81.782212 
L 242.460968 82.132838 
L 244.194246 82.308228 
L 244.540902 82.54491 
L 245.580868 82.723202 
L 248.007458 82.358223 
L 249.39408 82.618583 
L 249.740736 82.781171 
L 251.82067 82.672321 
L 252.860637 82.054291 
L 253.900603 81.829992 
L 254.247259 81.628242 
L 254.593915 80.775302 
L 255.287226 78.207798 
L 256.327193 76.897178 
L 257.713815 72.136919 
L 258.753782 70.772117 
L 260.140405 65.479663 
L 261.180371 63.972852 
L 262.566994 58.657803 
L 263.606961 57.153629 
L 264.646928 52.099628 
L 264.993583 50.215899 
L 266.380206 48.388787 
L 267.420173 43.152263 
L 268.46014 41.620444 
L 268.806795 40.390563 
L 269.500106 38.600621 
L 269.846762 37.773553 
L 270.886729 37.160396 
L 272.273351 34.854605 
L 273.313318 34.26599 
L 273.659974 33.628711 
L 274.353285 32.855824 
L 274.699941 32.306793 
L 275.739908 31.655359 
L 276.779874 29.379428 
L 277.12653 29.038548 
L 278.166497 28.820673 
L 278.513153 28.612521 
L 278.859808 29.07461 
L 279.206464 29.778231 
L 279.553119 30.11313 
L 280.939742 30.670998 
L 281.286398 30.676536 
L 281.633053 30.79954 
L 281.979709 31.042202 
L 283.019676 31.065416 
L 283.366331 31.262071 
L 283.712987 31.729476 
L 284.059643 31.627051 
L 285.446265 32.056622 
L 285.792921 32.414756 
L 286.486232 32.273833 
L 286.832888 33.057552 
L 287.872854 34.061361 
L 288.566166 36.034912 
L 289.259477 38.282092 
L 290.299444 40.268047 
L 291.686066 47.54247 
L 292.726033 49.134894 
L 293.419344 53.484609 
L 294.112656 55.85765 
L 295.152622 58.361647 
L 295.845934 62.673063 
L 296.539245 66.972563 
L 297.579212 68.960046 
L 297.925867 70.974731 
L 298.619179 73.347794 
L 298.965834 75.867496 
L 300.005801 78.111575 
L 301.392424 88.000395 
L 302.432391 89.979262 
L 303.125702 94.54641 
L 303.819013 100.190575 
L 305.552291 104.602446 
L 306.245602 108.126378 
L 307.97888 111.538182 
L 308.672192 114.928744 
L 309.712159 116.233185 
L 311.098781 121.543781 
L 312.138748 123.072942 
L 312.832059 125.936845 
L 313.178715 126.945506 
L 313.52537 127.570824 
L 314.911993 128.4437 
L 315.95196 130.816763 
L 316.991927 131.308489 
L 317.338582 131.80376 
L 317.685238 131.84866 
L 318.031894 131.550709 
L 318.378549 131.03156 
L 319.418516 129.93197 
L 319.765172 128.468287 
L 320.805138 125.962983 
L 321.845105 125.298702 
L 322.191761 124.565199 
L 322.885072 121.781172 
L 323.231728 120.536693 
L 324.61835 119.416526 
L 325.658317 116.264196 
L 326.698284 114.928124 
L 327.738251 111.678707 
L 328.084907 110.666503 
L 329.124873 109.418037 
L 330.16484 106.182731 
L 330.511496 105.253459 
L 331.551463 103.91608 
L 332.938085 100.373984 
L 333.978052 99.589601 
L 334.324708 98.888837 
L 334.671363 97.923504 
L 335.364675 95.435212 
L 336.404641 94.474309 
L 337.791264 90.623386 
L 338.831231 89.590825 
L 340.217853 84.779708 
L 341.25782 83.422194 
L 342.644443 78.131068 
L 343.68441 76.801663 
L 344.724376 72.397103 
L 346.110999 71.12786 
L 346.80431 68.483405 
L 347.497621 66.577525 
L 348.537588 65.605347 
L 349.2309 64.102302 
L 349.924211 61.892734 
L 350.964178 60.727445 
L 352.004144 58.613458 
L 352.3508 58.253329 
L 353.390767 58.661458 
L 355.817356 60.934068 
L 356.510668 62.481614 
L 357.203979 64.529923 
L 358.590601 65.623532 
L 359.630568 69.855538 
L 359.630568 69.855538 
" clip-path="url(#p062e0a9acc)" style="fill: none; stroke-dasharray: 12.8,3.2,2,3.2; stroke-dashoffset: 0; stroke: #fdb462; stroke-width: 2"/>
   </g>
   <g id="patch_3">
    <path d="M 40.04875 203.04 
L 40.04875 7.2 
" style="fill: none; stroke: #000000; stroke-width: 0.6; stroke-linejoin: miter; stroke-linecap: square"/>
   </g>
   <g id="patch_4">
    <path d="M 40.04875 203.04 
L 374.84875 203.04 
" style="fill: none; stroke: #000000; stroke-width: 0.6; stroke-linejoin: miter; stroke-linecap: square"/>
   </g>
   <g id="legend_1">
    <g id="patch_5">
     <path d="M 47.04875 64.890625 
L 154.750313 64.890625 
Q 156.750313 64.890625 156.750313 62.890625 
L 156.750313 14.2 
Q 156.750313 12.2 154.750313 12.2 
L 47.04875 12.2 
Q 45.04875 12.2 45.04875 14.2 
L 45.04875 62.890625 
Q 45.04875 64.890625 47.04875 64.890625 
z
" style="fill: #ffffff; opacity: 0.8; stroke: #e6e6e6; stroke-width: 0.8; stroke-linejoin: miter"/>
    </g>
    <g id="line2d_22">
     <path d="M 47.04875 17.7 
L 57.04875 17.7 
L 67.04875 17.7 
" style="fill: none; stroke: #bc80bd; stroke-opacity: 0.5; stroke-width: 2; stroke-linecap: square"/>
    </g>
    <g id="text_20">
     <!-- Raw -->
     <g style="fill: #323034" transform="translate(75.04875 21.2)scale(0.1 -0.1)">
      <defs>
       <path id="STIXGeneral-Regular-52" d="M 4224 0 
L 3187 0 
L 1664 1971 
L 1306 1958 
L 1306 717 
Q 1306 352 1405 249 
Q 1504 147 1875 122 
L 1875 0 
L 109 0 
L 109 122 
Q 474 154 563 262 
Q 653 371 653 794 
L 653 3526 
Q 653 3885 563 3987 
Q 474 4090 109 4115 
L 109 4237 
L 1850 4237 
Q 2726 4237 3187 3859 
Q 3501 3603 3501 3091 
Q 3501 2221 2342 2042 
L 3622 422 
Q 3757 256 3878 198 
Q 4000 141 4224 122 
L 4224 0 
z
M 1306 3731 
L 1306 2195 
Q 1766 2202 1990 2246 
Q 2214 2291 2438 2413 
Q 2803 2618 2803 3142 
Q 2803 4000 1632 4000 
Q 1459 4000 1382 3945 
Q 1306 3891 1306 3731 
z
" transform="scale(0.015625)"/>
       <path id="STIXGeneral-Regular-77" d="M 4442 2880 
L 4442 2784 
Q 4346 2752 4301 2691 
Q 4256 2630 4179 2438 
L 3296 224 
Q 3168 -90 3117 -90 
Q 3085 -90 3062 -48 
Q 3040 -6 2963 186 
L 2381 1696 
L 1664 160 
Q 1549 -90 1504 -90 
Q 1446 -90 1338 192 
L 474 2381 
Q 378 2630 314 2700 
Q 250 2771 134 2784 
L 134 2880 
L 1286 2880 
L 1286 2784 
Q 1120 2765 1056 2720 
Q 992 2675 992 2573 
Q 992 2477 1030 2381 
L 1664 710 
L 2246 1984 
L 2118 2342 
Q 2029 2598 1942 2681 
Q 1856 2765 1677 2784 
L 1677 2880 
L 2976 2880 
L 2976 2784 
Q 2752 2752 2678 2707 
Q 2605 2662 2605 2560 
Q 2605 2458 2714 2176 
L 3251 742 
L 3827 2163 
Q 3936 2432 3936 2592 
Q 3936 2669 3875 2710 
Q 3814 2752 3654 2784 
L 3654 2880 
L 4442 2880 
z
" transform="scale(0.015625)"/>
      </defs>
      <use xlink:href="#STIXGeneral-Regular-52"/>
      <use xlink:href="#STIXGeneral-Regular-61" x="66.699997"/>
      <use xlink:href="#STIXGeneral-Regular-77" x="111.099991"/>
     </g>
    </g>
    <g id="line2d_23">
     <path d="M 47.04875 30.870312 
L 57.04875 30.870312 
L 67.04875 30.870312 
" style="fill: none; stroke-dasharray: 2,3.3; stroke-dashoffset: 0; stroke: #fb8072; stroke-width: 2"/>
    </g>
    <g id="text_21">
     <!-- Expanding Average -->
     <g style="fill: #323034" transform="translate(75.04875 34.370312)scale(0.1 -0.1)">
      <defs>
       <path id="STIXGeneral-Regular-45" d="M 3821 1082 
L 3526 0 
L 77 0 
L 77 122 
Q 442 147 538 252 
Q 634 358 634 730 
L 634 3520 
Q 634 3878 534 3987 
Q 435 4096 77 4115 
L 77 4237 
L 3469 4237 
L 3494 3322 
L 3334 3322 
Q 3264 3750 3085 3872 
Q 2906 3994 2349 3994 
L 1510 3994 
Q 1370 3994 1328 3952 
Q 1286 3910 1286 3763 
L 1286 2355 
L 2253 2355 
Q 2656 2355 2787 2470 
Q 2918 2586 2976 2970 
L 3123 2970 
L 3123 1472 
L 2976 1472 
Q 2918 1875 2790 1984 
Q 2662 2093 2253 2093 
L 1286 2093 
L 1286 538 
Q 1286 346 1420 291 
Q 1555 237 1933 237 
L 2163 237 
Q 2848 237 3136 403 
Q 3424 570 3642 1082 
L 3821 1082 
z
" transform="scale(0.015625)"/>
       <path id="STIXGeneral-Regular-78" d="M 3066 0 
L 1779 0 
L 1779 96 
Q 1939 109 1987 137 
Q 2035 166 2035 250 
Q 2035 307 1997 365 
L 1414 1261 
L 909 474 
Q 781 275 781 211 
Q 781 96 1037 96 
L 1037 0 
L 109 0 
L 109 96 
Q 269 109 355 169 
Q 442 230 576 422 
L 1306 1478 
L 704 2400 
Q 557 2624 454 2704 
Q 352 2784 211 2784 
L 154 2784 
L 154 2880 
L 1478 2880 
L 1478 2784 
Q 1203 2778 1203 2643 
Q 1203 2509 1498 2074 
Q 1581 1958 1587 1946 
Q 1619 1990 1779 2227 
Q 1811 2285 1856 2349 
Q 1901 2413 1923 2451 
Q 1946 2490 1971 2528 
Q 1997 2566 2006 2595 
Q 2016 2624 2016 2643 
Q 2016 2765 1760 2784 
L 1760 2880 
L 2771 2880 
L 2771 2784 
Q 2445 2771 2253 2502 
L 1722 1734 
L 2541 480 
Q 2790 96 3066 96 
L 3066 0 
z
" transform="scale(0.015625)"/>
       <path id="STIXGeneral-Regular-70" d="M 1018 2931 
L 1018 2438 
Q 1421 2944 1939 2944 
Q 2406 2944 2707 2560 
Q 3008 2176 3008 1581 
Q 3008 883 2621 409 
Q 2234 -64 1664 -64 
Q 1466 -64 1328 -6 
Q 1190 51 1018 211 
L 1018 -794 
Q 1018 -1094 1120 -1180 
Q 1222 -1267 1581 -1274 
L 1581 -1389 
L 32 -1389 
L 32 -1280 
Q 314 -1254 397 -1171 
Q 480 -1088 480 -838 
L 480 2157 
Q 480 2381 429 2451 
Q 378 2522 218 2522 
Q 115 2522 58 2515 
L 58 2618 
Q 506 2752 979 2944 
L 1018 2931 
z
M 1018 2138 
L 1018 563 
Q 1018 422 1238 281 
Q 1459 141 1683 141 
Q 2029 141 2243 467 
Q 2458 794 2458 1325 
Q 2458 1888 2243 2224 
Q 2029 2560 1670 2560 
Q 1446 2560 1232 2419 
Q 1018 2278 1018 2138 
z
" transform="scale(0.015625)"/>
       <path id="STIXGeneral-Regular-6e" d="M 3104 0 
L 1773 0 
L 1779 96 
Q 2016 115 2096 233 
Q 2176 352 2176 672 
L 2176 1946 
Q 2176 2592 1709 2592 
Q 1549 2592 1408 2515 
Q 1267 2438 1050 2227 
L 1050 461 
Q 1050 269 1136 192 
Q 1222 115 1466 96 
L 1466 0 
L 115 0 
L 115 96 
Q 358 115 435 214 
Q 512 314 512 602 
L 512 2157 
Q 512 2394 467 2483 
Q 422 2573 288 2573 
Q 160 2573 102 2547 
L 102 2656 
Q 550 2784 979 2944 
L 1030 2925 
L 1030 2426 
L 1037 2426 
Q 1491 2944 1958 2944 
Q 2323 2944 2518 2688 
Q 2714 2432 2714 1958 
L 2714 544 
Q 2714 288 2790 205 
Q 2867 122 3104 96 
L 3104 0 
z
" transform="scale(0.015625)"/>
       <path id="STIXGeneral-Regular-64" d="M 3142 269 
L 2202 -64 
L 2176 -45 
L 2176 365 
Q 1869 -64 1357 -64 
Q 826 -64 499 317 
Q 173 698 173 1312 
Q 173 1990 563 2467 
Q 954 2944 1504 2944 
Q 1850 2944 2176 2669 
L 2176 3667 
Q 2176 3866 2118 3930 
Q 2061 3994 1882 3994 
Q 1792 3994 1741 3987 
L 1741 4090 
Q 2323 4243 2682 4371 
L 2714 4358 
L 2714 730 
Q 2714 506 2768 435 
Q 2822 365 2995 365 
Q 3034 365 3142 371 
L 3142 269 
z
M 2176 653 
L 2176 2125 
Q 2176 2381 1981 2573 
Q 1786 2765 1523 2765 
Q 1158 2765 940 2438 
Q 723 2112 723 1568 
Q 723 979 963 624 
Q 1203 269 1606 269 
Q 1907 269 2080 474 
Q 2176 582 2176 653 
z
" transform="scale(0.015625)"/>
       <path id="STIXGeneral-Regular-69" d="M 1152 4045 
Q 1152 3904 1056 3811 
Q 960 3718 819 3718 
Q 685 3718 592 3811 
Q 499 3904 499 4045 
Q 499 4179 595 4275 
Q 691 4371 826 4371 
Q 966 4371 1059 4275 
Q 1152 4179 1152 4045 
z
M 1619 0 
L 102 0 
L 102 96 
Q 435 115 521 211 
Q 608 307 608 666 
L 608 2118 
Q 608 2342 563 2432 
Q 518 2522 397 2522 
Q 243 2522 128 2490 
L 128 2592 
L 1120 2944 
L 1146 2918 
L 1146 672 
Q 1146 314 1226 218 
Q 1306 122 1619 96 
L 1619 0 
z
" transform="scale(0.015625)"/>
       <path id="STIXGeneral-Regular-67" d="M 3008 2483 
L 2477 2483 
Q 2598 2208 2598 1946 
Q 2598 1453 2265 1203 
Q 1933 954 1600 954 
Q 1530 954 1357 973 
L 1235 986 
Q 1107 947 979 812 
Q 851 678 851 582 
Q 851 435 1350 410 
L 2176 371 
Q 2528 358 2739 172 
Q 2950 -13 2950 -314 
Q 2950 -685 2566 -986 
Q 2035 -1395 1286 -1395 
Q 826 -1395 502 -1212 
Q 179 -1030 179 -774 
Q 179 -595 320 -419 
Q 461 -243 806 6 
Q 602 102 534 172 
Q 467 243 467 346 
Q 467 531 762 787 
Q 909 915 1037 1043 
Q 717 1203 579 1401 
Q 442 1600 442 1901 
Q 442 2336 752 2640 
Q 1062 2944 1510 2944 
Q 1766 2944 2022 2848 
L 2163 2797 
Q 2349 2733 2515 2733 
L 3008 2733 
L 3008 2483 
z
M 973 2163 
L 973 2144 
Q 973 1683 1155 1398 
Q 1338 1114 1632 1114 
Q 1850 1114 1978 1270 
Q 2106 1427 2106 1690 
Q 2106 2112 1914 2464 
Q 1754 2765 1446 2765 
Q 1222 2765 1097 2605 
Q 973 2445 973 2163 
z
M 2771 -410 
Q 2771 -230 2595 -163 
Q 2419 -96 1978 -96 
Q 1344 -96 941 -13 
Q 749 -243 688 -348 
Q 627 -454 627 -563 
Q 627 -774 880 -902 
Q 1133 -1030 1555 -1030 
Q 2099 -1030 2435 -860 
Q 2771 -691 2771 -410 
z
" transform="scale(0.015625)"/>
       <path id="STIXGeneral-Regular-41" d="M 4525 0 
L 2893 0 
L 2893 122 
Q 3149 122 3245 179 
Q 3334 224 3334 333 
Q 3334 499 3213 781 
L 2950 1382 
L 1274 1382 
L 979 653 
Q 922 506 922 384 
Q 922 237 1027 179 
Q 1133 122 1370 122 
L 1370 0 
L 96 0 
L 96 122 
Q 365 147 486 316 
Q 608 486 902 1190 
L 2221 4314 
L 2349 4314 
L 3923 710 
Q 4064 378 4176 262 
Q 4288 147 4525 122 
L 4525 0 
z
M 2861 1645 
L 2118 3405 
L 1382 1645 
L 2861 1645 
z
" transform="scale(0.015625)"/>
       <path id="STIXGeneral-Regular-76" d="M 3053 2880 
L 3053 2784 
Q 2906 2771 2835 2688 
Q 2765 2605 2637 2285 
L 1818 230 
Q 1690 -90 1638 -90 
Q 1587 -90 1523 77 
Q 1510 96 1497 141 
Q 1485 186 1472 211 
L 704 2048 
Q 499 2534 403 2652 
Q 307 2771 122 2784 
L 122 2880 
L 1376 2880 
L 1376 2784 
Q 1210 2771 1146 2732 
Q 1082 2694 1082 2611 
Q 1082 2509 1139 2368 
L 1792 730 
L 2426 2387 
Q 2464 2483 2464 2579 
Q 2464 2758 2163 2784 
L 2163 2880 
L 3053 2880 
z
" transform="scale(0.015625)"/>
       <path id="STIXGeneral-Regular-72" d="M 1024 2931 
L 1024 2342 
Q 1267 2688 1430 2816 
Q 1594 2944 1792 2944 
Q 1958 2944 2051 2854 
Q 2144 2765 2144 2605 
Q 2144 2470 2077 2393 
Q 2010 2317 1894 2317 
Q 1773 2317 1638 2445 
Q 1536 2541 1472 2541 
Q 1338 2541 1181 2355 
Q 1024 2170 1024 2016 
L 1024 576 
Q 1024 301 1133 205 
Q 1242 109 1568 96 
L 1568 0 
L 32 0 
L 32 96 
Q 339 154 412 224 
Q 486 294 486 538 
L 486 2138 
Q 486 2349 438 2435 
Q 390 2522 269 2522 
Q 166 2522 45 2496 
L 45 2598 
Q 448 2726 992 2944 
L 1024 2931 
z
" transform="scale(0.015625)"/>
      </defs>
      <use xlink:href="#STIXGeneral-Regular-45"/>
      <use xlink:href="#STIXGeneral-Regular-78" x="61.099991"/>
      <use xlink:href="#STIXGeneral-Regular-70" x="111.099976"/>
      <use xlink:href="#STIXGeneral-Regular-61" x="161.09996"/>
      <use xlink:href="#STIXGeneral-Regular-6e" x="205.499954"/>
      <use xlink:href="#STIXGeneral-Regular-64" x="255.499939"/>
      <use xlink:href="#STIXGeneral-Regular-69" x="305.499924"/>
      <use xlink:href="#STIXGeneral-Regular-6e" x="333.299911"/>
      <use xlink:href="#STIXGeneral-Regular-67" x="383.299896"/>
      <use xlink:href="#STIXGeneral-Regular-20" x="433.299881"/>
      <use xlink:href="#STIXGeneral-Regular-41" x="458.299866"/>
      <use xlink:href="#STIXGeneral-Regular-76" x="530.499847"/>
      <use xlink:href="#STIXGeneral-Regular-65" x="580.499832"/>
      <use xlink:href="#STIXGeneral-Regular-72" x="624.899826"/>
      <use xlink:href="#STIXGeneral-Regular-61" x="658.199814"/>
      <use xlink:href="#STIXGeneral-Regular-67" x="702.599808"/>
      <use xlink:href="#STIXGeneral-Regular-65" x="752.599792"/>
     </g>
    </g>
    <g id="line2d_24">
     <path d="M 47.04875 44.05 
L 57.04875 44.05 
L 67.04875 44.05 
" style="fill: none; stroke-dasharray: 7.4,3.2; stroke-dashoffset: 0; stroke: #b3de69; stroke-width: 2"/>
    </g>
    <g id="text_22">
     <!-- EWMA ($\alpha=$0.03) -->
     <g style="fill: #323034" transform="translate(75.04875 47.55)scale(0.1 -0.1)">
      <defs>
       <path id="STIXGeneral-Regular-57" d="M 5965 4237 
L 5965 4115 
Q 5709 4064 5616 3990 
Q 5523 3917 5434 3667 
Q 4704 1709 4128 -70 
L 4032 -70 
Q 3642 1011 3008 2637 
L 2022 -70 
L 1926 -70 
Q 1709 576 1277 1753 
Q 845 2931 698 3347 
Q 538 3808 406 3958 
Q 275 4109 32 4115 
L 32 4237 
L 1594 4237 
L 1594 4115 
Q 1357 4109 1270 4064 
Q 1184 4019 1184 3917 
Q 1184 3808 1254 3616 
L 2176 1210 
L 2842 3021 
L 2662 3501 
Q 2509 3917 2400 4013 
Q 2291 4109 2010 4115 
L 2010 4237 
L 3706 4237 
L 3706 4115 
Q 3213 4102 3213 3891 
Q 3213 3808 3322 3520 
L 4237 1190 
L 5043 3360 
Q 5152 3667 5152 3853 
Q 5152 4109 4704 4115 
L 4704 4237 
L 5965 4237 
z
" transform="scale(0.015625)"/>
       <path id="STIXGeneral-Regular-4d" d="M 5530 0 
L 3738 0 
L 3738 122 
Q 4115 147 4214 265 
Q 4314 384 4314 787 
L 4314 3661 
L 2682 0 
L 2592 0 
L 979 3514 
L 979 966 
Q 979 448 1088 294 
Q 1197 141 1574 122 
L 1574 0 
L 77 0 
L 77 122 
Q 358 141 480 205 
Q 602 269 650 432 
Q 698 595 698 966 
L 698 3514 
Q 698 3878 589 3984 
Q 480 4090 90 4115 
L 90 4237 
L 1357 4237 
L 2835 1024 
L 4250 4237 
L 5523 4237 
L 5523 4115 
Q 5178 4109 5072 3993 
Q 4966 3878 4966 3520 
L 4966 717 
Q 4966 378 5072 262 
Q 5178 147 5530 122 
L 5530 0 
z
" transform="scale(0.015625)"/>
       <path id="STIXGeneral-Italic-3b1" d="M 3514 2739 
L 2605 1069 
L 2605 954 
Q 2605 704 2662 512 
Q 2720 320 2822 320 
Q 2970 320 3149 794 
L 3251 749 
Q 3014 -58 2605 -58 
Q 2291 -58 2272 614 
Q 1709 -70 1030 -70 
Q 589 -70 381 198 
Q 173 467 173 902 
Q 173 1293 329 1673 
Q 486 2054 755 2330 
Q 973 2547 1270 2684 
Q 1568 2822 1862 2822 
Q 2246 2822 2457 2595 
Q 2669 2368 2669 2061 
L 2963 2739 
L 3514 2739 
z
M 2298 1741 
Q 2298 2688 1805 2688 
Q 1472 2688 1085 2099 
Q 698 1510 698 800 
Q 698 493 806 278 
Q 915 64 1139 64 
Q 1606 64 2195 1286 
Q 2202 1325 2230 1411 
Q 2259 1498 2278 1581 
Q 2298 1664 2298 1741 
z
" transform="scale(0.015625)"/>
       <path id="STIXGeneral-Regular-3d" d="M 4077 2048 
L 307 2048 
L 307 2470 
L 4077 2470 
L 4077 2048 
z
M 4077 768 
L 307 768 
L 307 1190 
L 4077 1190 
L 4077 768 
z
" transform="scale(0.015625)"/>
       <path id="STIXGeneral-Regular-2e" d="M 1158 275 
Q 1158 134 1052 32 
Q 947 -70 800 -70 
Q 653 -70 550 32 
Q 448 134 448 281 
Q 448 429 553 534 
Q 659 640 806 640 
Q 947 640 1052 531 
Q 1158 422 1158 275 
z
" transform="scale(0.015625)"/>
      </defs>
      <use xlink:href="#STIXGeneral-Regular-45" transform="translate(0 0.40625)"/>
      <use xlink:href="#STIXGeneral-Regular-57" transform="translate(61.099991 0.40625)"/>
      <use xlink:href="#STIXGeneral-Regular-4d" transform="translate(155.499985 0.40625)"/>
      <use xlink:href="#STIXGeneral-Regular-41" transform="translate(244.399979 0.40625)"/>
      <use xlink:href="#STIXGeneral-Regular-20" transform="translate(316.59996 0.40625)"/>
      <use xlink:href="#STIXGeneral-Regular-28" transform="translate(341.599945 0.40625)"/>
      <use xlink:href="#STIXGeneral-Italic-3b1" transform="translate(374.899933 0.40625)"/>
      <use xlink:href="#STIXGeneral-Regular-3d" transform="translate(444.539926 0.40625)"/>
      <use xlink:href="#STIXGeneral-Regular-30" transform="translate(527.479907 0.40625)"/>
      <use xlink:href="#STIXGeneral-Regular-2e" transform="translate(577.479892 0.40625)"/>
      <use xlink:href="#STIXGeneral-Regular-30" transform="translate(602.479877 0.40625)"/>
      <use xlink:href="#STIXGeneral-Regular-33" transform="translate(652.479861 0.40625)"/>
      <use xlink:href="#STIXGeneral-Regular-29" transform="translate(702.479846 0.40625)"/>
     </g>
    </g>
    <g id="line2d_25">
     <path d="M 47.04875 57.220312 
L 57.04875 57.220312 
L 67.04875 57.220312 
" style="fill: none; stroke-dasharray: 12.8,3.2,2,3.2; stroke-dashoffset: 0; stroke: #fdb462; stroke-width: 2"/>
    </g>
    <g id="text_23">
     <!-- 28D MA -->
     <g style="fill: #323034" transform="translate(75.04875 60.720312)scale(0.1 -0.1)">
      <use xlink:href="#STIXGeneral-Regular-32"/>
      <use xlink:href="#STIXGeneral-Regular-38" x="49.999985"/>
      <use xlink:href="#STIXGeneral-Regular-44" x="99.999969"/>
      <use xlink:href="#STIXGeneral-Regular-20" x="172.199951"/>
      <use xlink:href="#STIXGeneral-Regular-4d" x="197.199936"/>
      <use xlink:href="#STIXGeneral-Regular-41" x="286.09993"/>
     </g>
    </g>
   </g>
  </g>
 </g>
 <defs>
  <clipPath id="p062e0a9acc">
   <rect x="40.04875" y="7.2" width="334.8" height="195.84"/>
  </clipPath>
 </defs>
</svg>
