<?xml version="1.0" encoding="utf-8" standalone="no"?>
<!DOCTYPE svg PUBLIC "-//W3C//DTD SVG 1.1//EN"
  "http://www.w3.org/Graphics/SVG/1.1/DTD/svg11.dtd">
<svg xmlns:xlink="http://www.w3.org/1999/xlink" width="388.350914pt" height="260.390887pt" viewBox="0 0 388.350914 260.390887" xmlns="http://www.w3.org/2000/svg" version="1.1">
 <metadata>
  <rdf:RDF xmlns:dc="http://purl.org/dc/elements/1.1/" xmlns:cc="http://creativecommons.org/ns#" xmlns:rdf="http://www.w3.org/1999/02/22-rdf-syntax-ns#">
   <cc:Work>
    <dc:type rdf:resource="http://purl.org/dc/dcmitype/StillImage"/>
    <dc:date>2023-07-06T23:27:11.389909</dc:date>
    <dc:format>image/svg+xml</dc:format>
    <dc:creator>
     <cc:Agent>
      <dc:title>Matplotlib v3.5.2, https://matplotlib.org/</dc:title>
     </cc:Agent>
    </dc:creator>
   </cc:Work>
  </rdf:RDF>
 </metadata>
 <defs>
  <style type="text/css">*{stroke-linejoin: round; stroke-linecap: butt}</style>
 </defs>
 <g id="figure_1">
  <g id="patch_1">
   <path d="M -0 260.390887 
L 388.350914 260.390887 
L 388.350914 0 
L -0 0 
L -0 260.390887 
z
" style="fill: none"/>
  </g>
  <g id="axes_1">
   <g id="patch_2">
    <path d="M 46.350914 203.04 
L 381.150914 203.04 
L 381.150914 7.2 
L 46.350914 7.2 
z
" style="fill: #ffffff"/>
   </g>
   <g id="PolyCollection_1">
    <defs>
     <path id="m40e4790f54" d="M 61.569096 -94.150844 
L 61.569096 -66.252705 
L 61.946251 -67.147067 
L 62.323405 -68.104687 
L 63.454868 -69.04754 
L 63.832023 -69.939914 
L 64.209177 -70.777354 
L 64.586332 -71.648552 
L 64.963486 -72.507926 
L 66.472104 -73.448878 
L 66.849258 -74.43826 
L 67.226413 -75.391539 
L 67.603567 -76.401279 
L 68.735031 -77.489853 
L 69.112185 -78.618568 
L 69.489339 -79.795075 
L 69.866494 -81.067097 
L 70.243648 -82.207991 
L 71.375112 -83.416086 
L 71.752266 -84.706827 
L 72.129421 -86.13912 
L 72.506575 -87.754932 
L 72.883729 -88.523495 
L 74.015193 -89.370091 
L 74.392347 -90.206369 
L 74.769502 -90.939892 
L 75.146656 -91.602075 
L 75.523811 -92.249237 
L 76.655274 -92.822962 
L 77.032428 -93.462739 
L 77.409583 -94.016475 
L 77.786737 -94.417315 
L 78.163892 -94.791082 
L 79.295355 -95.141212 
L 79.672509 -95.446782 
L 80.049664 -95.71041 
L 80.426818 -95.980927 
L 80.803973 -96.237859 
L 81.935436 -96.259285 
L 82.312591 -96.282844 
L 82.689745 -96.445188 
L 83.066899 -96.394964 
L 83.444054 -96.342277 
L 84.575517 -96.353109 
L 84.952672 -96.47167 
L 85.329826 -96.768288 
L 85.706981 -97.082517 
L 87.215598 -97.436258 
L 87.592753 -97.765275 
L 87.969907 -98.125102 
L 88.347062 -98.539631 
L 88.724216 -98.867304 
L 89.855679 -99.208921 
L 90.232834 -99.621099 
L 90.609988 -99.963544 
L 90.987143 -100.434365 
L 91.364297 -100.788499 
L 92.495761 -101.221433 
L 92.872915 -101.692274 
L 93.250069 -102.161343 
L 93.627224 -102.459659 
L 94.004378 -102.693529 
L 95.135842 -102.80627 
L 95.512996 -102.991361 
L 95.890151 -103.107267 
L 96.267305 -103.114377 
L 96.644459 -103.039227 
L 97.775923 -103.215456 
L 98.153077 -103.349567 
L 98.530232 -103.539778 
L 98.907386 -103.83313 
L 99.284541 -104.149299 
L 100.416004 -104.510798 
L 100.793158 -104.691876 
L 101.170313 -105.05367 
L 101.547467 -105.339626 
L 101.924622 -105.499637 
L 103.433239 -105.63785 
L 103.810394 -105.71248 
L 104.187548 -105.623871 
L 104.564703 -105.701796 
L 105.696166 -105.82734 
L 106.073321 -105.993011 
L 106.450475 -105.979532 
L 106.827629 -106.018107 
L 107.204784 -106.127453 
L 108.336247 -106.28504 
L 108.713402 -106.342235 
L 109.090556 -106.322001 
L 109.467711 -106.281243 
L 109.844865 -106.243603 
L 110.976328 -106.236475 
L 111.353483 -106.261452 
L 111.730637 -106.28316 
L 112.107792 -106.277726 
L 112.484946 -106.259368 
L 113.616409 -106.187899 
L 113.993564 -106.155923 
L 114.370718 -106.090225 
L 114.747873 -106.067855 
L 115.125027 -106.027732 
L 116.256491 -105.918053 
L 117.010799 -105.773431 
L 117.387954 -105.606923 
L 117.765108 -105.606041 
L 118.896572 -105.568867 
L 119.273726 -105.467188 
L 119.650881 -105.316793 
L 120.028035 -105.210977 
L 120.405189 -105.189052 
L 121.536653 -105.176111 
L 121.913807 -105.302614 
L 122.290962 -105.580194 
L 122.668116 -105.812587 
L 123.045271 -106.166172 
L 124.176734 -106.591324 
L 124.553888 -107.170786 
L 124.931043 -107.467112 
L 125.308197 -107.875855 
L 125.685352 -108.250128 
L 126.816815 -108.676708 
L 127.193969 -109.123849 
L 127.571124 -109.629618 
L 127.948278 -110.324135 
L 128.325433 -110.875636 
L 129.456896 -111.632172 
L 129.834051 -112.393611 
L 130.211205 -113.231467 
L 130.588359 -114.033072 
L 130.965514 -115.031109 
L 132.096977 -115.912388 
L 132.474132 -116.74866 
L 132.851286 -117.507148 
L 133.228441 -118.157622 
L 133.605595 -118.535367 
L 134.737058 -118.708176 
L 135.114213 -119.010839 
L 135.491367 -119.33413 
L 135.868522 -119.532643 
L 136.245676 -119.839703 
L 137.377139 -120.142819 
L 137.754294 -120.336075 
L 138.131448 -120.425109 
L 138.508603 -120.569625 
L 138.885757 -120.946288 
L 140.394375 -121.468099 
L 140.771529 -122.110135 
L 141.148684 -122.661644 
L 141.525838 -122.637129 
L 142.657302 -122.740242 
L 143.034456 -122.877238 
L 143.411611 -122.921379 
L 143.788765 -122.926996 
L 144.165919 -122.792609 
L 145.297383 -122.841359 
L 145.674537 -122.783624 
L 146.051692 -122.709001 
L 146.428846 -122.599586 
L 146.806001 -122.535241 
L 147.937464 -122.5649 
L 148.314618 -122.498631 
L 148.691773 -122.363685 
L 149.068927 -122.302247 
L 149.446082 -122.211139 
L 150.577545 -121.949413 
L 150.954699 -121.647153 
L 151.331854 -121.363471 
L 151.709008 -121.047023 
L 152.086163 -120.811349 
L 153.217626 -120.642543 
L 153.594781 -120.532912 
L 153.971935 -120.556141 
L 154.349089 -120.627244 
L 154.726244 -120.703284 
L 155.857707 -120.900934 
L 156.234862 -121.009048 
L 156.612016 -121.111059 
L 156.989171 -121.247072 
L 157.366325 -121.472209 
L 158.497788 -121.670199 
L 158.874943 -121.953487 
L 159.252097 -122.255744 
L 159.629252 -122.718168 
L 160.006406 -123.376285 
L 161.137869 -124.163764 
L 161.515024 -125.089794 
L 161.892178 -125.82898 
L 162.269333 -126.514589 
L 162.646487 -127.298139 
L 163.777951 -128.069405 
L 164.155105 -128.894453 
L 164.532259 -129.700386 
L 164.909414 -130.628745 
L 165.286568 -131.43168 
L 166.418032 -132.269638 
L 166.795186 -133.109465 
L 167.172341 -133.982539 
L 167.549495 -134.840358 
L 167.926649 -135.791133 
L 169.058113 -136.636545 
L 169.435267 -137.249955 
L 169.812422 -137.844307 
L 170.566731 -138.468036 
L 171.698194 -139.596616 
L 172.075348 -140.774912 
L 172.452503 -142.072588 
L 172.829657 -143.379836 
L 173.206812 -144.95215 
L 174.338275 -146.59791 
L 174.715429 -147.484701 
L 175.092584 -147.955626 
L 175.469738 -148.18495 
L 175.846893 -148.678328 
L 176.978356 -148.961022 
L 177.35551 -148.942656 
L 177.732665 -148.917598 
L 178.109819 -148.924647 
L 178.486974 -148.917088 
L 179.618437 -148.902781 
L 179.995592 -148.779122 
L 180.372746 -148.689789 
L 180.7499 -148.449106 
L 181.127055 -148.264041 
L 182.635673 -147.998711 
L 183.012827 -147.823219 
L 183.389982 -146.815613 
L 183.767136 -145.198022 
L 185.275754 -144.52576 
L 185.652908 -143.508614 
L 186.030063 -142.037904 
L 186.407217 -140.931274 
L 187.53868 -140.573188 
L 187.915835 -140.260102 
L 188.292989 -140.143215 
L 188.670144 -140.246459 
L 189.047298 -140.347285 
L 190.555916 -140.462086 
L 190.93307 -140.546234 
L 191.310225 -140.663683 
L 191.687379 -140.711096 
L 192.818843 -140.76991 
L 193.195997 -140.828661 
L 193.573152 -140.898486 
L 193.950306 -140.924222 
L 194.32746 -140.926865 
L 195.458924 -140.954028 
L 195.836078 -140.985278 
L 196.213233 -140.995093 
L 196.590387 -141.017477 
L 196.967542 -141.148965 
L 198.099005 -141.267923 
L 198.476159 -141.408302 
L 198.853314 -141.647073 
L 199.230468 -141.768811 
L 199.607623 -141.895697 
L 200.739086 -141.968688 
L 201.11624 -141.988435 
L 201.493395 -141.912696 
L 201.870549 -141.737817 
L 202.247704 -141.346127 
L 203.756322 -141.302793 
L 204.133476 -141.062946 
L 204.51063 -140.74327 
L 204.887785 -140.482619 
L 206.019248 -140.176823 
L 206.396403 -139.96596 
L 206.773557 -139.884159 
L 207.150712 -139.834903 
L 207.527866 -139.674443 
L 208.659329 -139.661223 
L 209.036484 -139.724409 
L 209.413638 -139.913987 
L 209.790793 -140.193482 
L 210.167947 -140.463476 
L 211.29941 -140.735558 
L 211.676565 -141.553364 
L 212.053719 -142.838395 
L 212.430874 -143.435665 
L 212.808028 -144.043858 
L 213.939492 -145.197496 
L 214.316646 -145.952717 
L 214.6938 -146.044419 
L 215.070955 -146.033242 
L 215.448109 -145.606906 
L 216.579573 -145.182901 
L 216.956727 -145.038443 
L 217.333882 -145.141754 
L 217.711036 -145.282161 
L 219.219654 -145.278641 
L 219.596808 -145.179022 
L 219.973963 -145.038324 
L 220.351117 -144.870599 
L 220.728272 -144.6191 
L 221.859735 -144.508399 
L 222.236889 -144.427502 
L 222.614044 -144.411846 
L 222.991198 -144.376081 
L 223.368353 -144.43955 
L 224.499816 -144.481453 
L 224.87697 -144.454655 
L 225.254125 -144.427349 
L 225.631279 -144.408368 
L 226.008434 -144.435889 
L 227.139897 -144.466361 
L 227.517052 -144.53566 
L 227.894206 -144.707539 
L 228.27136 -144.900516 
L 228.648515 -145.256136 
L 229.779978 -145.755885 
L 230.157133 -146.54071 
L 230.534287 -146.867824 
L 230.911442 -147.506346 
L 231.288596 -148.339712 
L 232.420059 -149.122178 
L 232.797214 -150.020016 
L 233.174368 -150.837738 
L 233.551523 -151.466105 
L 233.928677 -152.035273 
L 235.06014 -152.932018 
L 235.437295 -153.686851 
L 235.814449 -154.25372 
L 236.191604 -154.868363 
L 236.568758 -155.372366 
L 237.700222 -155.764292 
L 238.077376 -156.166637 
L 238.45453 -156.431414 
L 238.831685 -156.757876 
L 239.208839 -157.399749 
L 240.717457 -158.731921 
L 241.094612 -160.087444 
L 241.471766 -161.84887 
L 241.84892 -163.71599 
L 242.980384 -165.709051 
L 243.357538 -168.248091 
L 243.734693 -170.615783 
L 244.111847 -172.717753 
L 244.489002 -173.810158 
L 245.620465 -174.979328 
L 245.997619 -175.331243 
L 246.374774 -175.585134 
L 246.751928 -175.780778 
L 247.129083 -175.907092 
L 248.260546 -175.931091 
L 248.6377 -175.964774 
L 249.014855 -175.978036 
L 249.392009 -176.111272 
L 249.769164 -176.185477 
L 250.900627 -176.29968 
L 251.277782 -176.465087 
L 251.654936 -176.181147 
L 252.03209 -175.535275 
L 252.409245 -175.042742 
L 253.540708 -174.665921 
L 253.917863 -174.540593 
L 254.672172 -174.526606 
L 255.049326 -174.531315 
L 256.180789 -174.677774 
L 256.557944 -174.668448 
L 256.935098 -174.62211 
L 257.312253 -174.564421 
L 257.689407 -174.420418 
L 258.82087 -174.176477 
L 259.198025 -174.194966 
L 259.575179 -174.321256 
L 259.952334 -174.463464 
L 260.329488 -174.719558 
L 261.460952 -175.008682 
L 261.838106 -175.413025 
L 262.21526 -175.840991 
L 262.592415 -176.435578 
L 262.969569 -177.004565 
L 264.101033 -177.654439 
L 264.478187 -178.429195 
L 264.855342 -179.563858 
L 265.232496 -180.698416 
L 265.60965 -181.948544 
L 266.741114 -183.174678 
L 267.118268 -184.448381 
L 267.495423 -185.654208 
L 267.872577 -187.134715 
L 268.249732 -188.60198 
L 269.381195 -189.928599 
L 269.758349 -191.099552 
L 270.135504 -192.33306 
L 270.512658 -193.834487 
L 270.889813 -195.103097 
L 272.021276 -196.423098 
L 272.39843 -197.839241 
L 272.775585 -199.259846 
L 273.152739 -200.855238 
L 273.529894 -202.386757 
L 274.661357 -204.033189 
L 275.038512 -205.735209 
L 275.415666 -207.354777 
L 275.79282 -208.938258 
L 276.169975 -210.669863 
L 277.678593 -212.887239 
L 278.055747 -215.450952 
L 278.432902 -218.020168 
L 278.810056 -219.154371 
L 279.941519 -219.996483 
L 280.318674 -220.670664 
L 280.695828 -221.41712 
L 281.072983 -222.368092 
L 281.450137 -223.138077 
L 282.5816 -223.921806 
L 282.958755 -224.859287 
L 283.335909 -225.755103 
L 283.713064 -226.236263 
L 284.090218 -226.958818 
L 285.221681 -227.197456 
L 285.598836 -226.780286 
L 285.97599 -226.606628 
L 286.353145 -226.845406 
L 286.730299 -227.214389 
L 287.861763 -226.403277 
L 288.238917 -224.804541 
L 288.616071 -223.544337 
L 288.993226 -222.929615 
L 289.37038 -222.183624 
L 290.501844 -221.059177 
L 290.878998 -218.74905 
L 291.256153 -216.392425 
L 291.633307 -213.497983 
L 292.010461 -211.450271 
L 293.141925 -209.779895 
L 293.519079 -207.412042 
L 293.896234 -204.015768 
L 294.273388 -200.89845 
L 294.650543 -197.411786 
L 295.782006 -194.444735 
L 296.15916 -191.68335 
L 296.536315 -189.698171 
L 296.913469 -187.662605 
L 297.290624 -185.598561 
L 298.422087 -184.143446 
L 298.799241 -182.050312 
L 299.176396 -179.859373 
L 299.55355 -177.210123 
L 299.930705 -174.771964 
L 301.062168 -172.365033 
L 301.439323 -170.122981 
L 301.816477 -168.1675 
L 302.193631 -165.919619 
L 302.570786 -163.603282 
L 303.702249 -161.54221 
L 304.079404 -159.149691 
L 304.456558 -156.576552 
L 304.833713 -153.472011 
L 305.210867 -150.144678 
L 306.34233 -147.948026 
L 306.719485 -145.733581 
L 307.096639 -143.700539 
L 307.850948 -141.889831 
L 308.982411 -140.124183 
L 309.359566 -137.221819 
L 309.73672 -135.046156 
L 310.113875 -133.053215 
L 310.491029 -131.247483 
L 311.622493 -129.87643 
L 311.999647 -128.582811 
L 312.753956 -127.209227 
L 313.13111 -125.829275 
L 314.262574 -125.015952 
L 314.639728 -124.704991 
L 315.016883 -124.004702 
L 315.394037 -123.297564 
L 315.771191 -122.54747 
L 316.902655 -122.25028 
L 317.279809 -122.061801 
L 317.656964 -122.16351 
L 318.034118 -121.859551 
L 318.411273 -121.50045 
L 319.542736 -121.489992 
L 320.297045 -121.742425 
L 320.674199 -122.217789 
L 321.051354 -122.471484 
L 322.182817 -122.498834 
L 322.937126 -122.524354 
L 323.31428 -122.521488 
L 323.691435 -122.529081 
L 324.822898 -122.531215 
L 325.200053 -122.670655 
L 325.577207 -122.785114 
L 325.954361 -122.885593 
L 326.331516 -123.258431 
L 327.462979 -123.339519 
L 327.840134 -123.368806 
L 328.217288 -123.363455 
L 328.594443 -123.336096 
L 328.971597 -123.296343 
L 330.480215 -123.259087 
L 330.857369 -123.214417 
L 331.234524 -123.248818 
L 331.611678 -123.305555 
L 332.743141 -123.31631 
L 333.120296 -123.495491 
L 333.49745 -123.889012 
L 333.874605 -124.69644 
L 334.251759 -125.854617 
L 335.383223 -126.261138 
L 335.760377 -126.728607 
L 336.137531 -127.223516 
L 336.514686 -127.634498 
L 336.89184 -128.030509 
L 338.023304 -129.730337 
L 338.400458 -130.990162 
L 338.777613 -132.331998 
L 339.154767 -133.278383 
L 339.531921 -134.269354 
L 341.040539 -135.357707 
L 341.417694 -136.676924 
L 341.794848 -138.264583 
L 342.172003 -139.646125 
L 343.303466 -140.91835 
L 343.68062 -142.163773 
L 344.057775 -143.345474 
L 344.434929 -144.919852 
L 344.812084 -146.535351 
L 345.943547 -148.362973 
L 346.320701 -149.687925 
L 346.697856 -151.29929 
L 347.07501 -153.182302 
L 347.452165 -154.179886 
L 348.583628 -155.153225 
L 348.960783 -156.182769 
L 349.337937 -156.911082 
L 349.715091 -157.413275 
L 350.092246 -157.957432 
L 351.223709 -158.778391 
L 351.600864 -159.579336 
L 351.978018 -160.551278 
L 352.355173 -161.528692 
L 352.732327 -162.643583 
L 353.86379 -163.768824 
L 354.240945 -165.012143 
L 354.618099 -166.143391 
L 354.995254 -167.297435 
L 355.372408 -168.559782 
L 356.503871 -169.8038 
L 356.881026 -171.034877 
L 357.25818 -172.309092 
L 357.635335 -173.570934 
L 358.012489 -174.996599 
L 359.143953 -175.850085 
L 359.521107 -176.801636 
L 359.898261 -177.919037 
L 360.275416 -179.142861 
L 360.65257 -180.59103 
L 361.784034 -181.663469 
L 362.161188 -182.363409 
L 362.538343 -182.588914 
L 362.915497 -182.462226 
L 364.424115 -182.096314 
L 364.801269 -181.485342 
L 365.178424 -180.682319 
L 365.555578 -180.081514 
L 365.932733 -179.083764 
L 365.932733 -210.090776 
L 365.932733 -210.090776 
L 365.555578 -209.903965 
L 365.178424 -209.79567 
L 364.801269 -209.643145 
L 364.424115 -209.502636 
L 362.915497 -209.403003 
L 362.538343 -209.364985 
L 362.161188 -209.42393 
L 361.784034 -209.574683 
L 360.65257 -209.936441 
L 360.275416 -210.259876 
L 359.898261 -210.419929 
L 359.521107 -210.484556 
L 359.143953 -210.551833 
L 358.012489 -210.656206 
L 357.635335 -210.463254 
L 357.25818 -210.036619 
L 356.881026 -209.445019 
L 356.503871 -208.805456 
L 355.372408 -207.730929 
L 354.995254 -206.335602 
L 354.618099 -205.065749 
L 354.240945 -203.610286 
L 353.86379 -202.878717 
L 352.732327 -201.795833 
L 352.355173 -200.68217 
L 351.978018 -199.413026 
L 351.600864 -197.921048 
L 351.223709 -196.30187 
L 350.092246 -194.881661 
L 349.715091 -193.443114 
L 349.337937 -192.005887 
L 348.960783 -190.8579 
L 348.583628 -189.704034 
L 347.452165 -188.513583 
L 347.07501 -187.263558 
L 346.697856 -186.103869 
L 346.320701 -184.849604 
L 345.943547 -183.364554 
L 344.812084 -182.256148 
L 344.434929 -181.100346 
L 344.057775 -179.885662 
L 343.68062 -178.59296 
L 343.303466 -177.4841 
L 342.172003 -176.427836 
L 341.794848 -175.438143 
L 341.417694 -174.471595 
L 341.040539 -173.495094 
L 339.531921 -172.257087 
L 339.154767 -170.740314 
L 338.777613 -168.748544 
L 338.400458 -167.420335 
L 338.023304 -166.139132 
L 336.89184 -164.805962 
L 336.514686 -163.316025 
L 336.137531 -161.985867 
L 335.760377 -160.772707 
L 335.383223 -159.578301 
L 334.251759 -158.521498 
L 333.874605 -157.935841 
L 333.49745 -157.278355 
L 333.120296 -156.472702 
L 332.743141 -155.64967 
L 331.611678 -154.975241 
L 331.234524 -154.265939 
L 330.857369 -153.752743 
L 330.480215 -153.404735 
L 328.971597 -152.979217 
L 328.594443 -152.52754 
L 328.217288 -152.232824 
L 327.840134 -152.013074 
L 327.462979 -152.167577 
L 326.331516 -152.577283 
L 325.954361 -153.838438 
L 325.577207 -154.397037 
L 325.200053 -155.072784 
L 324.822898 -155.818414 
L 323.691435 -156.086288 
L 323.31428 -156.318252 
L 322.937126 -156.402439 
L 322.182817 -156.593979 
L 321.051354 -156.803789 
L 320.674199 -158.007331 
L 320.297045 -160.239142 
L 319.542736 -162.113939 
L 318.411273 -163.505249 
L 318.034118 -165.588049 
L 317.656964 -167.747498 
L 317.279809 -170.887084 
L 316.902655 -174.3265 
L 315.771191 -177.626346 
L 315.394037 -180.11214 
L 315.016883 -182.27225 
L 314.639728 -184.882801 
L 314.262574 -188.895943 
L 313.13111 -192.311073 
L 312.753956 -194.998593 
L 311.999647 -197.476198 
L 311.622493 -200.199005 
L 310.491029 -203.102087 
L 310.113875 -205.432877 
L 309.73672 -208.254149 
L 309.359566 -210.736301 
L 308.982411 -212.799915 
L 307.850948 -214.764254 
L 307.096639 -217.030451 
L 306.719485 -219.233893 
L 306.34233 -220.951517 
L 305.210867 -222.927421 
L 304.833713 -223.947854 
L 304.456558 -225.063142 
L 304.079404 -226.994114 
L 303.702249 -228.641389 
L 302.570786 -230.317069 
L 302.193631 -232.115234 
L 301.816477 -234.145774 
L 301.439323 -235.931303 
L 301.062168 -237.419293 
L 299.930705 -238.675213 
L 299.55355 -239.785956 
L 299.176396 -240.46369 
L 298.799241 -241.310358 
L 298.422087 -242.03391 
L 297.290624 -242.664668 
L 296.913469 -243.245659 
L 296.536315 -243.685844 
L 296.15916 -244.076967 
L 295.782006 -244.103807 
L 294.650543 -244.289069 
L 294.273388 -244.27099 
L 293.896234 -243.983835 
L 293.519079 -243.585631 
L 293.141925 -243.279745 
L 292.010461 -243.366113 
L 291.633307 -243.329323 
L 291.256153 -242.989627 
L 290.878998 -242.931656 
L 290.501844 -242.745539 
L 289.37038 -242.906214 
L 288.993226 -243.051505 
L 288.616071 -243.068738 
L 288.238917 -242.726686 
L 287.861763 -242.071599 
L 286.730299 -241.778249 
L 286.353145 -241.682645 
L 285.97599 -241.673416 
L 285.598836 -241.639231 
L 285.221681 -241.566526 
L 284.090218 -241.611169 
L 283.713064 -241.714651 
L 283.335909 -241.850267 
L 282.958755 -241.847282 
L 282.5816 -241.935418 
L 281.450137 -241.995853 
L 281.072983 -242.14973 
L 280.695828 -242.139859 
L 280.318674 -241.992365 
L 279.941519 -242.012275 
L 278.810056 -241.85433 
L 278.432902 -242.105311 
L 278.055747 -242.941474 
L 277.678593 -243.066789 
L 276.169975 -243.116628 
L 275.79282 -242.853699 
L 275.415666 -242.242234 
L 275.038512 -241.285305 
L 274.661357 -240.504054 
L 273.529894 -239.78704 
L 273.152739 -239.080842 
L 272.775585 -238.393938 
L 272.39843 -237.894717 
L 272.021276 -237.242154 
L 270.889813 -236.610095 
L 270.512658 -236.111774 
L 270.135504 -235.487305 
L 269.758349 -234.861708 
L 269.381195 -234.197489 
L 268.249732 -233.543291 
L 267.872577 -232.477586 
L 267.495423 -231.162591 
L 267.118268 -230.129675 
L 266.741114 -228.850249 
L 265.60965 -227.90723 
L 265.232496 -226.707398 
L 264.855342 -225.29446 
L 264.478187 -223.490966 
L 264.101033 -221.407881 
L 262.969569 -219.283787 
L 262.592415 -217.313362 
L 262.21526 -215.449932 
L 261.838106 -213.829648 
L 261.460952 -212.306349 
L 260.329488 -210.909422 
L 259.952334 -209.51709 
L 259.575179 -208.138756 
L 259.198025 -206.678662 
L 258.82087 -205.115079 
L 257.689407 -203.264892 
L 257.312253 -201.824178 
L 256.935098 -200.625368 
L 256.557944 -199.374196 
L 256.180789 -198.115998 
L 255.049326 -196.880284 
L 254.672172 -195.504167 
L 253.917863 -194.24023 
L 253.540708 -192.918908 
L 252.409245 -191.190288 
L 252.03209 -189.430043 
L 251.654936 -187.478027 
L 251.277782 -186.297713 
L 250.900627 -186.206219 
L 249.769164 -186.132086 
L 249.392009 -186.024127 
L 249.014855 -185.654099 
L 248.6377 -185.236895 
L 248.260546 -184.986268 
L 247.129083 -184.859825 
L 246.751928 -184.674985 
L 246.374774 -184.448247 
L 245.997619 -184.31765 
L 245.620465 -184.131886 
L 244.489002 -184.349645 
L 244.111847 -184.443341 
L 243.734693 -185.086272 
L 243.357538 -185.953581 
L 242.980384 -186.642681 
L 241.84892 -186.892474 
L 241.471766 -187.148522 
L 241.094612 -187.416546 
L 240.717457 -187.526134 
L 239.208839 -187.430478 
L 238.831685 -187.234567 
L 238.45453 -187.022271 
L 238.077376 -186.862241 
L 237.700222 -186.665404 
L 236.568758 -186.534446 
L 236.191604 -186.297961 
L 235.814449 -186.028573 
L 235.437295 -185.698285 
L 235.06014 -185.400909 
L 233.928677 -184.939926 
L 233.551523 -184.430312 
L 233.174368 -183.775902 
L 232.797214 -183.109897 
L 232.420059 -182.314678 
L 231.288596 -181.542239 
L 230.911442 -180.705133 
L 230.534287 -179.679085 
L 230.157133 -178.593678 
L 229.779978 -177.507027 
L 228.648515 -176.48114 
L 228.27136 -175.568242 
L 227.894206 -174.96804 
L 227.517052 -174.308847 
L 227.139897 -173.697812 
L 226.008434 -173.042885 
L 225.631279 -172.399721 
L 225.254125 -171.7939 
L 224.87697 -171.369197 
L 224.499816 -170.803129 
L 223.368353 -170.195316 
L 222.991198 -169.44356 
L 222.614044 -168.619171 
L 222.236889 -167.937978 
L 221.859735 -167.042396 
L 220.728272 -166.011171 
L 220.351117 -164.994954 
L 219.973963 -164.25144 
L 219.596808 -163.654779 
L 219.219654 -162.93474 
L 217.711036 -162.201727 
L 217.333882 -161.967834 
L 216.956727 -161.768589 
L 216.579573 -161.837747 
L 215.448109 -161.911076 
L 215.070955 -161.809314 
L 214.6938 -161.80617 
L 214.316646 -161.83688 
L 213.939492 -162.174571 
L 212.808028 -162.63847 
L 212.430874 -162.804903 
L 212.053719 -162.730976 
L 211.676565 -162.599983 
L 211.29941 -162.233654 
L 210.167947 -161.943881 
L 209.790793 -161.700128 
L 209.413638 -161.475552 
L 209.036484 -161.333035 
L 208.659329 -161.238232 
L 207.527866 -161.249727 
L 207.150712 -161.419501 
L 206.773557 -161.596205 
L 206.396403 -161.814832 
L 206.019248 -162.206116 
L 204.887785 -162.663151 
L 204.51063 -163.083102 
L 204.133476 -163.34218 
L 203.756322 -163.617967 
L 202.247704 -163.690443 
L 201.870549 -163.853088 
L 201.493395 -163.984269 
L 201.11624 -164.064633 
L 200.739086 -164.021771 
L 199.607623 -163.904001 
L 199.230468 -163.612251 
L 198.853314 -163.27746 
L 198.476159 -162.878913 
L 198.099005 -162.403723 
L 196.967542 -161.762813 
L 196.590387 -161.244343 
L 196.213233 -161.097472 
L 195.836078 -161.059449 
L 195.458924 -160.897484 
L 194.32746 -160.732268 
L 193.950306 -160.70292 
L 193.573152 -160.617159 
L 193.195997 -160.260829 
L 192.818843 -159.880245 
L 191.687379 -159.425312 
L 191.310225 -159.244609 
L 190.93307 -159.116477 
L 190.555916 -159.044496 
L 189.047298 -158.934657 
L 188.670144 -158.812488 
L 188.292989 -158.666108 
L 187.915835 -158.74187 
L 187.53868 -158.865692 
L 186.407217 -158.900152 
L 186.030063 -158.819911 
L 185.652908 -158.561555 
L 185.275754 -158.535356 
L 183.767136 -158.626707 
L 183.389982 -158.077441 
L 183.012827 -157.676563 
L 182.635673 -157.653428 
L 181.127055 -157.624003 
L 180.7499 -157.573533 
L 180.372746 -157.549135 
L 179.995592 -157.618599 
L 179.618437 -157.721439 
L 178.486974 -157.774026 
L 178.109819 -157.675372 
L 177.732665 -157.501577 
L 177.35551 -157.166712 
L 176.978356 -156.67465 
L 175.846893 -156.214915 
L 175.469738 -156.072564 
L 175.092584 -155.750005 
L 174.715429 -155.633579 
L 174.338275 -155.765327 
L 173.206812 -156.29142 
L 172.829657 -156.674775 
L 172.452503 -156.798697 
L 172.075348 -156.979103 
L 171.698194 -157.096325 
L 170.566731 -157.147443 
L 169.812422 -157.127116 
L 169.435267 -157.004588 
L 169.058113 -156.894409 
L 167.926649 -156.832987 
L 167.549495 -156.530848 
L 167.172341 -156.169603 
L 166.795186 -155.826039 
L 166.418032 -155.434432 
L 165.286568 -154.882992 
L 164.909414 -154.459318 
L 164.532259 -154.150609 
L 164.155105 -153.780196 
L 163.777951 -153.424073 
L 162.646487 -152.970886 
L 162.269333 -152.688535 
L 161.892178 -152.371662 
L 161.515024 -152.05837 
L 161.137869 -151.726634 
L 160.006406 -151.331596 
L 159.629252 -150.821452 
L 159.252097 -150.238136 
L 158.874943 -149.815456 
L 158.497788 -149.140838 
L 157.366325 -148.391677 
L 156.989171 -147.512751 
L 156.612016 -146.630434 
L 156.234862 -145.90811 
L 155.857707 -145.435558 
L 154.726244 -144.860458 
L 154.349089 -144.268266 
L 153.971935 -143.842817 
L 153.594781 -143.234899 
L 153.217626 -142.450002 
L 152.086163 -141.559788 
L 151.709008 -140.525034 
L 151.331854 -139.358999 
L 150.954699 -138.223033 
L 150.577545 -137.001031 
L 149.446082 -135.895054 
L 149.068927 -135.284297 
L 148.691773 -134.769294 
L 148.314618 -133.877688 
L 147.937464 -133.223503 
L 146.806001 -132.920259 
L 146.428846 -133.081658 
L 146.051692 -133.303529 
L 145.674537 -133.40463 
L 145.297383 -133.431548 
L 144.165919 -133.422542 
L 143.788765 -133.571359 
L 143.411611 -133.556305 
L 143.034456 -133.455367 
L 142.657302 -133.332013 
L 141.525838 -133.306676 
L 141.148684 -133.314663 
L 140.771529 -133.414495 
L 140.394375 -133.559467 
L 138.885757 -133.639007 
L 138.508603 -133.675516 
L 138.131448 -133.659348 
L 137.754294 -133.664024 
L 137.377139 -133.668136 
L 136.245676 -133.707937 
L 135.868522 -133.736643 
L 135.491367 -133.753234 
L 135.114213 -133.774778 
L 134.737058 -133.81065 
L 133.605595 -133.848863 
L 133.228441 -133.925966 
L 132.851286 -134.052506 
L 132.474132 -134.101337 
L 132.096977 -134.028082 
L 130.965514 -133.947198 
L 130.588359 -133.814544 
L 130.211205 -133.673309 
L 129.834051 -133.445238 
L 129.456896 -133.096147 
L 128.325433 -132.67984 
L 127.948278 -132.376067 
L 127.571124 -131.91518 
L 127.193969 -131.357986 
L 126.816815 -130.760978 
L 125.685352 -129.976849 
L 125.308197 -129.158094 
L 124.931043 -128.35823 
L 124.553888 -127.55909 
L 124.176734 -126.87836 
L 123.045271 -126.274941 
L 122.668116 -125.690807 
L 122.290962 -125.033563 
L 121.913807 -124.358386 
L 121.536653 -123.921982 
L 120.405189 -123.709386 
L 120.028035 -123.489691 
L 119.650881 -122.930014 
L 119.273726 -122.252478 
L 118.896572 -121.832692 
L 117.765108 -121.482209 
L 117.387954 -121.278733 
L 117.010799 -120.643055 
L 116.256491 -120.090012 
L 115.125027 -119.666242 
L 114.747873 -119.431854 
L 114.370718 -119.298525 
L 113.993564 -119.03239 
L 113.616409 -119.191742 
L 112.484946 -119.363967 
L 112.107792 -119.39237 
L 111.730637 -119.69968 
L 111.353483 -119.862478 
L 110.976328 -120.10161 
L 109.844865 -120.211613 
L 109.467711 -120.323904 
L 109.090556 -120.476063 
L 108.713402 -120.541831 
L 108.336247 -120.488849 
L 107.204784 -120.414815 
L 106.827629 -120.361322 
L 106.450475 -120.345886 
L 106.073321 -120.347716 
L 105.696166 -120.355937 
L 104.564703 -120.363002 
L 104.187548 -120.370504 
L 103.810394 -120.359569 
L 103.433239 -120.367278 
L 101.924622 -120.391568 
L 101.547467 -120.414019 
L 101.170313 -120.472667 
L 100.793158 -120.503175 
L 100.416004 -120.526534 
L 99.284541 -120.54788 
L 98.907386 -120.541872 
L 98.530232 -120.542882 
L 98.153077 -120.522981 
L 97.775923 -120.512794 
L 96.644459 -120.479961 
L 96.267305 -120.478981 
L 95.890151 -120.478061 
L 95.512996 -120.464169 
L 95.135842 -120.423272 
L 94.004378 -120.404059 
L 93.627224 -120.291308 
L 93.250069 -119.840781 
L 92.872915 -119.350596 
L 92.495761 -118.907355 
L 91.364297 -118.475878 
L 90.987143 -117.900056 
L 90.609988 -117.48636 
L 90.232834 -117.074328 
L 89.855679 -116.578596 
L 88.724216 -116.060922 
L 88.347062 -115.498662 
L 87.969907 -114.962805 
L 87.592753 -114.356399 
L 87.215598 -113.704953 
L 85.706981 -113.107229 
L 85.329826 -112.522954 
L 84.952672 -112.101076 
L 84.575517 -111.156944 
L 83.444054 -110.120123 
L 83.066899 -108.94025 
L 82.689745 -107.954705 
L 82.312591 -107.0874 
L 81.935436 -106.029724 
L 80.803973 -105.016649 
L 80.426818 -104.484445 
L 80.049664 -104.159014 
L 79.672509 -103.765945 
L 79.295355 -103.324801 
L 78.163892 -102.963927 
L 77.786737 -102.822896 
L 77.409583 -102.668079 
L 77.032428 -102.565388 
L 76.655274 -102.419506 
L 75.523811 -102.284437 
L 75.146656 -102.244825 
L 74.769502 -102.178863 
L 74.392347 -102.22049 
L 74.015193 -102.252567 
L 72.883729 -102.222705 
L 72.506575 -102.176582 
L 72.129421 -102.464528 
L 71.752266 -102.596606 
L 71.375112 -102.511102 
L 70.243648 -102.331418 
L 69.866494 -102.06033 
L 69.489339 -101.775776 
L 69.112185 -101.356493 
L 68.735031 -100.951757 
L 67.603567 -100.496153 
L 67.226413 -99.957132 
L 66.849258 -99.350629 
L 66.472104 -98.739396 
L 64.963486 -98.279389 
L 64.586332 -97.782652 
L 64.209177 -97.240521 
L 63.832023 -96.624582 
L 63.454868 -96.095271 
L 62.323405 -95.43344 
L 61.946251 -94.842058 
L 61.569096 -94.150844 
z
" style="stroke: #000000; stroke-opacity: 0.2; stroke-width: 0.8"/>
    </defs>
    <g clip-path="url(#p5d6f849f2c)">
     <use xlink:href="#m40e4790f54" x="0" y="260.390887" style="fill: #bc80bd; fill-opacity: 0.2; stroke: #000000; stroke-opacity: 0.2; stroke-width: 0.8"/>
    </g>
   </g>
   <g id="matplotlib.axis_1">
    <g id="xtick_1">
     <g id="line2d_1">
      <defs>
       <path id="m8111073a22" d="M 0 0 
L 0 3.5 
" style="stroke: #323034; stroke-width: 0.8"/>
      </defs>
      <g>
       <use xlink:href="#m8111073a22" x="47.237227" y="203.04" style="fill: #323034; stroke: #323034; stroke-width: 0.8"/>
      </g>
     </g>
     <g id="text_1">
      <!-- 2017-01 -->
      <g style="fill: #323034" transform="translate(11.297812 237.135432)rotate(-30)scale(0.12 -0.12)">
       <defs>
        <path id="STIXGeneral-Regular-32" d="M 3034 877 
L 2688 0 
L 186 0 
L 186 77 
L 1325 1286 
Q 1773 1754 1965 2144 
Q 2157 2534 2157 2950 
Q 2157 3379 1920 3616 
Q 1683 3853 1267 3853 
Q 922 3853 720 3673 
Q 518 3494 326 3021 
L 192 3053 
Q 301 3648 630 3987 
Q 960 4326 1523 4326 
Q 2054 4326 2380 4006 
Q 2707 3686 2707 3200 
Q 2707 2477 1888 1613 
L 832 486 
L 2330 486 
Q 2541 486 2665 569 
Q 2790 653 2944 915 
L 3034 877 
z
" transform="scale(0.015625)"/>
        <path id="STIXGeneral-Regular-30" d="M 3046 2112 
Q 3046 1683 2963 1302 
Q 2880 922 2717 602 
Q 2554 282 2266 96 
Q 1978 -90 1600 -90 
Q 1210 -90 915 108 
Q 621 307 461 640 
Q 301 973 227 1350 
Q 154 1728 154 2150 
Q 154 2746 301 3222 
Q 448 3699 790 4012 
Q 1133 4326 1626 4326 
Q 2253 4326 2649 3712 
Q 3046 3098 3046 2112 
z
M 2432 2080 
Q 2432 3091 2217 3625 
Q 2003 4160 1587 4160 
Q 1190 4160 979 3622 
Q 768 3085 768 2106 
Q 768 1120 979 598 
Q 1190 77 1600 77 
Q 2003 77 2217 598 
Q 2432 1120 2432 2080 
z
" transform="scale(0.015625)"/>
        <path id="STIXGeneral-Regular-31" d="M 2522 0 
L 755 0 
L 755 96 
Q 1107 115 1235 227 
Q 1363 339 1363 608 
L 1363 3482 
Q 1363 3795 1171 3795 
Q 1082 3795 883 3718 
L 710 3654 
L 710 3744 
L 1856 4326 
L 1914 4307 
L 1914 486 
Q 1914 275 2042 185 
Q 2170 96 2522 96 
L 2522 0 
z
" transform="scale(0.015625)"/>
        <path id="STIXGeneral-Regular-37" d="M 2874 4134 
L 1517 -51 
L 1101 -51 
L 2368 3763 
L 992 3763 
Q 717 3763 582 3667 
Q 448 3571 243 3238 
L 128 3296 
L 512 4237 
L 2874 4237 
L 2874 4134 
z
" transform="scale(0.015625)"/>
        <path id="STIXGeneral-Regular-2d" d="M 1824 1242 
L 250 1242 
L 250 1645 
L 1824 1645 
L 1824 1242 
z
" transform="scale(0.015625)"/>
       </defs>
       <use xlink:href="#STIXGeneral-Regular-32"/>
       <use xlink:href="#STIXGeneral-Regular-30" x="49.999985"/>
       <use xlink:href="#STIXGeneral-Regular-31" x="99.999969"/>
       <use xlink:href="#STIXGeneral-Regular-37" x="149.999954"/>
       <use xlink:href="#STIXGeneral-Regular-2d" x="199.999939"/>
       <use xlink:href="#STIXGeneral-Regular-30" x="233.299927"/>
       <use xlink:href="#STIXGeneral-Regular-31" x="283.299911"/>
      </g>
     </g>
    </g>
    <g id="xtick_2">
     <g id="line2d_2">
      <g>
       <use xlink:href="#m8111073a22" x="81.181127" y="203.04" style="fill: #323034; stroke: #323034; stroke-width: 0.8"/>
      </g>
     </g>
     <g id="text_2">
      <!-- 2017-04 -->
      <g style="fill: #323034" transform="translate(45.241712 237.135432)rotate(-30)scale(0.12 -0.12)">
       <defs>
        <path id="STIXGeneral-Regular-34" d="M 3027 1069 
L 2368 1069 
L 2368 0 
L 1869 0 
L 1869 1069 
L 77 1069 
L 77 1478 
L 2086 4326 
L 2368 4326 
L 2368 1478 
L 3027 1478 
L 3027 1069 
z
M 1869 1478 
L 1869 3674 
L 333 1478 
L 1869 1478 
z
" transform="scale(0.015625)"/>
       </defs>
       <use xlink:href="#STIXGeneral-Regular-32"/>
       <use xlink:href="#STIXGeneral-Regular-30" x="49.999985"/>
       <use xlink:href="#STIXGeneral-Regular-31" x="99.999969"/>
       <use xlink:href="#STIXGeneral-Regular-37" x="149.999954"/>
       <use xlink:href="#STIXGeneral-Regular-2d" x="199.999939"/>
       <use xlink:href="#STIXGeneral-Regular-30" x="233.299927"/>
       <use xlink:href="#STIXGeneral-Regular-34" x="283.299911"/>
      </g>
     </g>
    </g>
    <g id="xtick_3">
     <g id="line2d_3">
      <g>
       <use xlink:href="#m8111073a22" x="115.502182" y="203.04" style="fill: #323034; stroke: #323034; stroke-width: 0.8"/>
      </g>
     </g>
     <g id="text_3">
      <!-- 2017-07 -->
      <g style="fill: #323034" transform="translate(79.562767 237.135432)rotate(-30)scale(0.12 -0.12)">
       <use xlink:href="#STIXGeneral-Regular-32"/>
       <use xlink:href="#STIXGeneral-Regular-30" x="49.999985"/>
       <use xlink:href="#STIXGeneral-Regular-31" x="99.999969"/>
       <use xlink:href="#STIXGeneral-Regular-37" x="149.999954"/>
       <use xlink:href="#STIXGeneral-Regular-2d" x="199.999939"/>
       <use xlink:href="#STIXGeneral-Regular-30" x="233.299927"/>
       <use xlink:href="#STIXGeneral-Regular-37" x="283.299911"/>
      </g>
     </g>
    </g>
    <g id="xtick_4">
     <g id="line2d_4">
      <g>
       <use xlink:href="#m8111073a22" x="150.200391" y="203.04" style="fill: #323034; stroke: #323034; stroke-width: 0.8"/>
      </g>
     </g>
     <g id="text_4">
      <!-- 2017-10 -->
      <g style="fill: #323034" transform="translate(114.260976 237.135432)rotate(-30)scale(0.12 -0.12)">
       <use xlink:href="#STIXGeneral-Regular-32"/>
       <use xlink:href="#STIXGeneral-Regular-30" x="49.999985"/>
       <use xlink:href="#STIXGeneral-Regular-31" x="99.999969"/>
       <use xlink:href="#STIXGeneral-Regular-37" x="149.999954"/>
       <use xlink:href="#STIXGeneral-Regular-2d" x="199.999939"/>
       <use xlink:href="#STIXGeneral-Regular-31" x="233.299927"/>
       <use xlink:href="#STIXGeneral-Regular-30" x="283.299911"/>
      </g>
     </g>
    </g>
    <g id="xtick_5">
     <g id="line2d_5">
      <g>
       <use xlink:href="#m8111073a22" x="184.898599" y="203.04" style="fill: #323034; stroke: #323034; stroke-width: 0.8"/>
      </g>
     </g>
     <g id="text_5">
      <!-- 2018-01 -->
      <g style="fill: #323034" transform="translate(148.959185 237.135432)rotate(-30)scale(0.12 -0.12)">
       <defs>
        <path id="STIXGeneral-Regular-38" d="M 2848 992 
Q 2848 499 2505 204 
Q 2163 -90 1587 -90 
Q 1050 -90 704 204 
Q 358 499 358 954 
Q 358 1293 524 1533 
Q 691 1773 1190 2125 
Q 710 2522 553 2765 
Q 397 3008 397 3328 
Q 397 3782 745 4054 
Q 1094 4326 1638 4326 
Q 2106 4326 2410 4060 
Q 2714 3795 2714 3411 
Q 2714 3059 2531 2848 
Q 2349 2637 1856 2374 
Q 2432 1990 2640 1689 
Q 2848 1389 2848 992 
z
M 2272 3411 
Q 2272 3744 2086 3945 
Q 1901 4147 1574 4147 
Q 1248 4147 1059 3977 
Q 870 3808 870 3513 
Q 870 3219 1059 2979 
Q 1248 2739 1670 2490 
Q 1997 2682 2134 2896 
Q 2272 3110 2272 3411 
z
M 1734 1741 
L 1357 1997 
Q 1075 1766 960 1545 
Q 845 1325 845 1011 
Q 845 576 1065 333 
Q 1286 90 1658 90 
Q 1971 90 2166 285 
Q 2362 480 2362 794 
Q 2362 1082 2214 1299 
Q 2067 1517 1734 1741 
z
" transform="scale(0.015625)"/>
       </defs>
       <use xlink:href="#STIXGeneral-Regular-32"/>
       <use xlink:href="#STIXGeneral-Regular-30" x="49.999985"/>
       <use xlink:href="#STIXGeneral-Regular-31" x="99.999969"/>
       <use xlink:href="#STIXGeneral-Regular-38" x="149.999954"/>
       <use xlink:href="#STIXGeneral-Regular-2d" x="199.999939"/>
       <use xlink:href="#STIXGeneral-Regular-30" x="233.299927"/>
       <use xlink:href="#STIXGeneral-Regular-31" x="283.299911"/>
      </g>
     </g>
    </g>
    <g id="xtick_6">
     <g id="line2d_6">
      <g>
       <use xlink:href="#m8111073a22" x="218.842499" y="203.04" style="fill: #323034; stroke: #323034; stroke-width: 0.8"/>
      </g>
     </g>
     <g id="text_6">
      <!-- 2018-04 -->
      <g style="fill: #323034" transform="translate(182.903085 237.135432)rotate(-30)scale(0.12 -0.12)">
       <use xlink:href="#STIXGeneral-Regular-32"/>
       <use xlink:href="#STIXGeneral-Regular-30" x="49.999985"/>
       <use xlink:href="#STIXGeneral-Regular-31" x="99.999969"/>
       <use xlink:href="#STIXGeneral-Regular-38" x="149.999954"/>
       <use xlink:href="#STIXGeneral-Regular-2d" x="199.999939"/>
       <use xlink:href="#STIXGeneral-Regular-30" x="233.299927"/>
       <use xlink:href="#STIXGeneral-Regular-34" x="283.299911"/>
      </g>
     </g>
    </g>
    <g id="xtick_7">
     <g id="line2d_7">
      <g>
       <use xlink:href="#m8111073a22" x="253.163554" y="203.04" style="fill: #323034; stroke: #323034; stroke-width: 0.8"/>
      </g>
     </g>
     <g id="text_7">
      <!-- 2018-07 -->
      <g style="fill: #323034" transform="translate(217.224139 237.135432)rotate(-30)scale(0.12 -0.12)">
       <use xlink:href="#STIXGeneral-Regular-32"/>
       <use xlink:href="#STIXGeneral-Regular-30" x="49.999985"/>
       <use xlink:href="#STIXGeneral-Regular-31" x="99.999969"/>
       <use xlink:href="#STIXGeneral-Regular-38" x="149.999954"/>
       <use xlink:href="#STIXGeneral-Regular-2d" x="199.999939"/>
       <use xlink:href="#STIXGeneral-Regular-30" x="233.299927"/>
       <use xlink:href="#STIXGeneral-Regular-37" x="283.299911"/>
      </g>
     </g>
    </g>
    <g id="xtick_8">
     <g id="line2d_8">
      <g>
       <use xlink:href="#m8111073a22" x="287.861763" y="203.04" style="fill: #323034; stroke: #323034; stroke-width: 0.8"/>
      </g>
     </g>
     <g id="text_8">
      <!-- 2018-10 -->
      <g style="fill: #323034" transform="translate(251.922348 237.135432)rotate(-30)scale(0.12 -0.12)">
       <use xlink:href="#STIXGeneral-Regular-32"/>
       <use xlink:href="#STIXGeneral-Regular-30" x="49.999985"/>
       <use xlink:href="#STIXGeneral-Regular-31" x="99.999969"/>
       <use xlink:href="#STIXGeneral-Regular-38" x="149.999954"/>
       <use xlink:href="#STIXGeneral-Regular-2d" x="199.999939"/>
       <use xlink:href="#STIXGeneral-Regular-31" x="233.299927"/>
       <use xlink:href="#STIXGeneral-Regular-30" x="283.299911"/>
      </g>
     </g>
    </g>
    <g id="xtick_9">
     <g id="line2d_9">
      <g>
       <use xlink:href="#m8111073a22" x="322.559971" y="203.04" style="fill: #323034; stroke: #323034; stroke-width: 0.8"/>
      </g>
     </g>
     <g id="text_9">
      <!-- 2019-01 -->
      <g style="fill: #323034" transform="translate(286.620557 237.135432)rotate(-30)scale(0.12 -0.12)">
       <defs>
        <path id="STIXGeneral-Regular-39" d="M 378 -141 
L 358 -13 
Q 1094 115 1603 608 
Q 2112 1101 2304 1882 
Q 1933 1517 1344 1517 
Q 826 1517 509 1875 
Q 192 2234 192 2816 
Q 192 3462 573 3894 
Q 954 4326 1523 4326 
Q 2131 4326 2528 3840 
Q 2938 3328 2938 2522 
Q 2938 1958 2742 1462 
Q 2547 966 2170 621 
Q 1773 262 1395 105 
Q 1018 -51 378 -141 
z
M 2317 2272 
L 2317 2522 
Q 2317 4147 1472 4147 
Q 1171 4147 1005 3930 
Q 909 3802 845 3546 
Q 781 3290 781 3034 
Q 781 2464 995 2128 
Q 1210 1792 1568 1792 
Q 1824 1792 2070 1917 
Q 2317 2042 2317 2272 
z
" transform="scale(0.015625)"/>
       </defs>
       <use xlink:href="#STIXGeneral-Regular-32"/>
       <use xlink:href="#STIXGeneral-Regular-30" x="49.999985"/>
       <use xlink:href="#STIXGeneral-Regular-31" x="99.999969"/>
       <use xlink:href="#STIXGeneral-Regular-39" x="149.999954"/>
       <use xlink:href="#STIXGeneral-Regular-2d" x="199.999939"/>
       <use xlink:href="#STIXGeneral-Regular-30" x="233.299927"/>
       <use xlink:href="#STIXGeneral-Regular-31" x="283.299911"/>
      </g>
     </g>
    </g>
    <g id="xtick_10">
     <g id="line2d_10">
      <g>
       <use xlink:href="#m8111073a22" x="356.503871" y="203.04" style="fill: #323034; stroke: #323034; stroke-width: 0.8"/>
      </g>
     </g>
     <g id="text_10">
      <!-- 2019-04 -->
      <g style="fill: #323034" transform="translate(320.564457 237.135432)rotate(-30)scale(0.12 -0.12)">
       <use xlink:href="#STIXGeneral-Regular-32"/>
       <use xlink:href="#STIXGeneral-Regular-30" x="49.999985"/>
       <use xlink:href="#STIXGeneral-Regular-31" x="99.999969"/>
       <use xlink:href="#STIXGeneral-Regular-39" x="149.999954"/>
       <use xlink:href="#STIXGeneral-Regular-2d" x="199.999939"/>
       <use xlink:href="#STIXGeneral-Regular-30" x="233.299927"/>
       <use xlink:href="#STIXGeneral-Regular-34" x="283.299911"/>
      </g>
     </g>
    </g>
    <g id="text_11">
     <!-- Date -->
     <g transform="translate(202.422164 250.586512)scale(0.12 -0.12)">
      <defs>
       <path id="STIXGeneral-Regular-44" d="M 102 4237 
L 1830 4237 
Q 3078 4237 3750 3654 
Q 4384 3110 4384 2138 
Q 4384 966 3514 410 
Q 2880 0 1901 0 
L 102 0 
L 102 122 
Q 474 147 570 252 
Q 666 358 666 736 
L 666 3520 
Q 666 3891 570 3990 
Q 474 4090 102 4115 
L 102 4237 
z
M 1318 3731 
L 1318 538 
Q 1318 365 1379 301 
Q 1440 237 1626 237 
Q 2125 237 2432 307 
Q 2739 378 3021 570 
Q 3686 1018 3686 2099 
Q 3686 3027 3078 3558 
Q 2803 3802 2476 3901 
Q 2150 4000 1658 4000 
Q 1472 4000 1395 3942 
Q 1318 3885 1318 3731 
z
" transform="scale(0.015625)"/>
       <path id="STIXGeneral-Regular-61" d="M 2829 422 
L 2829 243 
Q 2586 -64 2253 -64 
Q 1888 -64 1843 403 
L 1837 403 
Q 1427 -64 909 -64 
Q 608 -64 422 112 
Q 237 288 237 602 
Q 237 1050 685 1350 
Q 992 1555 1837 1869 
L 1837 2214 
Q 1837 2502 1699 2646 
Q 1562 2790 1338 2790 
Q 1146 2790 1018 2697 
Q 890 2605 890 2477 
Q 890 2419 909 2348 
Q 928 2278 928 2208 
Q 928 2112 841 2029 
Q 755 1946 634 1946 
Q 525 1946 441 2029 
Q 358 2112 358 2240 
Q 358 2547 685 2752 
Q 986 2944 1421 2944 
Q 1939 2944 2176 2656 
Q 2291 2522 2323 2384 
Q 2355 2246 2355 1946 
L 2355 723 
Q 2355 301 2554 301 
Q 2682 301 2829 422 
z
M 1837 813 
L 1837 1715 
Q 1248 1510 1018 1293 
Q 800 1094 800 800 
Q 800 557 921 432 
Q 1043 307 1242 307 
Q 1453 307 1613 410 
Q 1747 506 1792 589 
Q 1837 672 1837 813 
z
" transform="scale(0.015625)"/>
       <path id="STIXGeneral-Regular-74" d="M 1702 493 
L 1786 422 
Q 1478 -64 1011 -64 
Q 448 -64 448 749 
L 448 2675 
L 109 2675 
Q 83 2694 83 2720 
Q 83 2771 192 2842 
Q 435 2982 813 3526 
Q 826 3546 874 3606 
Q 922 3667 941 3706 
Q 986 3706 986 3622 
L 986 2880 
L 1632 2880 
L 1632 2675 
L 986 2675 
L 986 845 
Q 986 538 1062 403 
Q 1139 269 1318 269 
Q 1510 269 1702 493 
z
" transform="scale(0.015625)"/>
       <path id="STIXGeneral-Regular-65" d="M 2611 1050 
L 2714 1005 
Q 2330 -64 1376 -64 
Q 813 -64 486 329 
Q 160 723 160 1389 
Q 160 2074 525 2509 
Q 890 2944 1485 2944 
Q 2061 2944 2374 2502 
Q 2560 2246 2592 1773 
L 621 1773 
Q 646 1370 700 1158 
Q 755 947 915 730 
Q 1184 378 1626 378 
Q 1939 378 2153 531 
Q 2368 685 2611 1050 
z
M 634 1978 
L 1939 1978 
Q 1882 2381 1750 2547 
Q 1619 2714 1312 2714 
Q 1043 2714 864 2525 
Q 685 2336 634 1978 
z
" transform="scale(0.015625)"/>
      </defs>
      <use xlink:href="#STIXGeneral-Regular-44"/>
      <use xlink:href="#STIXGeneral-Regular-61" x="72.199982"/>
      <use xlink:href="#STIXGeneral-Regular-74" x="116.599976"/>
      <use xlink:href="#STIXGeneral-Regular-65" x="144.399963"/>
     </g>
    </g>
   </g>
   <g id="matplotlib.axis_2">
    <g id="ytick_1">
     <g id="line2d_11">
      <defs>
       <path id="me33af00fab" d="M 0 0 
L -3.5 0 
" style="stroke: #323034; stroke-width: 0.8"/>
      </defs>
      <g>
       <use xlink:href="#me33af00fab" x="46.350914" y="182.330492" style="fill: #323034; stroke: #323034; stroke-width: 0.8"/>
      </g>
     </g>
     <g id="text_12">
      <!-- $\mathdefault{30}$ -->
      <g style="fill: #323034" transform="translate(27.350914 186.428305)scale(0.12 -0.12)">
       <defs>
        <path id="STIXGeneral-Regular-33" d="M 390 3264 
L 288 3290 
Q 435 3770 748 4048 
Q 1062 4326 1542 4326 
Q 1990 4326 2265 4083 
Q 2541 3840 2541 3450 
Q 2541 2925 1946 2566 
Q 2298 2413 2477 2227 
Q 2758 1914 2758 1402 
Q 2758 890 2464 506 
Q 2246 211 1840 60 
Q 1434 -90 979 -90 
Q 262 -90 262 275 
Q 262 378 339 442 
Q 416 506 525 506 
Q 685 506 915 339 
Q 1197 141 1466 141 
Q 1818 141 2058 425 
Q 2298 710 2298 1120 
Q 2298 1856 1632 2048 
Q 1434 2112 979 2112 
L 979 2202 
Q 1338 2323 1517 2432 
Q 2035 2726 2035 3290 
Q 2035 3610 1852 3776 
Q 1670 3942 1344 3942 
Q 768 3942 390 3264 
z
" transform="scale(0.015625)"/>
       </defs>
       <use xlink:href="#STIXGeneral-Regular-33" transform="translate(0 0.40625)"/>
       <use xlink:href="#STIXGeneral-Regular-30" transform="translate(49.999985 0.40625)"/>
      </g>
     </g>
    </g>
    <g id="ytick_2">
     <g id="line2d_12">
      <g>
       <use xlink:href="#me33af00fab" x="46.350914" y="148.641292" style="fill: #323034; stroke: #323034; stroke-width: 0.8"/>
      </g>
     </g>
     <g id="text_13">
      <!-- $\mathdefault{35}$ -->
      <g style="fill: #323034" transform="translate(27.350914 152.739104)scale(0.12 -0.12)">
       <defs>
        <path id="STIXGeneral-Regular-35" d="M 2803 4358 
L 2573 3814 
Q 2534 3731 2400 3731 
L 1158 3731 
L 902 3187 
Q 1606 3053 1920 2896 
Q 2234 2739 2502 2368 
Q 2726 2061 2726 1555 
Q 2726 1094 2576 780 
Q 2426 467 2099 224 
Q 1664 -90 1011 -90 
Q 646 -90 422 19 
Q 198 128 198 307 
Q 198 550 486 550 
Q 717 550 960 352 
Q 1210 147 1414 147 
Q 1747 147 2012 480 
Q 2278 813 2278 1229 
Q 2278 1843 1850 2189 
Q 1293 2637 486 2637 
Q 410 2637 410 2688 
L 416 2720 
L 1114 4237 
L 2438 4237 
Q 2547 4237 2608 4269 
Q 2669 4301 2746 4403 
L 2803 4358 
z
" transform="scale(0.015625)"/>
       </defs>
       <use xlink:href="#STIXGeneral-Regular-33" transform="translate(0 0.203125)"/>
       <use xlink:href="#STIXGeneral-Regular-35" transform="translate(49.999985 0.203125)"/>
      </g>
     </g>
    </g>
    <g id="ytick_3">
     <g id="line2d_13">
      <g>
       <use xlink:href="#me33af00fab" x="46.350914" y="114.952091" style="fill: #323034; stroke: #323034; stroke-width: 0.8"/>
      </g>
     </g>
     <g id="text_14">
      <!-- $\mathdefault{40}$ -->
      <g style="fill: #323034" transform="translate(27.350914 119.049903)scale(0.12 -0.12)">
       <use xlink:href="#STIXGeneral-Regular-34" transform="translate(0 0.40625)"/>
       <use xlink:href="#STIXGeneral-Regular-30" transform="translate(49.999985 0.40625)"/>
      </g>
     </g>
    </g>
    <g id="ytick_4">
     <g id="line2d_14">
      <g>
       <use xlink:href="#me33af00fab" x="46.350914" y="81.26289" style="fill: #323034; stroke: #323034; stroke-width: 0.8"/>
      </g>
     </g>
     <g id="text_15">
      <!-- $\mathdefault{45}$ -->
      <g style="fill: #323034" transform="translate(27.350914 85.360703)scale(0.12 -0.12)">
       <use xlink:href="#STIXGeneral-Regular-34" transform="translate(0 0.203125)"/>
       <use xlink:href="#STIXGeneral-Regular-35" transform="translate(49.999985 0.203125)"/>
      </g>
     </g>
    </g>
    <g id="ytick_5">
     <g id="line2d_15">
      <g>
       <use xlink:href="#me33af00fab" x="46.350914" y="47.57369" style="fill: #323034; stroke: #323034; stroke-width: 0.8"/>
      </g>
     </g>
     <g id="text_16">
      <!-- $\mathdefault{50}$ -->
      <g style="fill: #323034" transform="translate(27.350914 51.671502)scale(0.12 -0.12)">
       <use xlink:href="#STIXGeneral-Regular-35" transform="translate(0 0.203125)"/>
       <use xlink:href="#STIXGeneral-Regular-30" transform="translate(49.999985 0.203125)"/>
      </g>
     </g>
    </g>
    <g id="ytick_6">
     <g id="line2d_16">
      <g>
       <use xlink:href="#me33af00fab" x="46.350914" y="13.884489" style="fill: #323034; stroke: #323034; stroke-width: 0.8"/>
      </g>
     </g>
     <g id="text_17">
      <!-- $\mathdefault{55}$ -->
      <g style="fill: #323034" transform="translate(27.350914 17.982302)scale(0.12 -0.12)">
       <use xlink:href="#STIXGeneral-Regular-35" transform="translate(0 0.203125)"/>
       <use xlink:href="#STIXGeneral-Regular-35" transform="translate(49.999985 0.203125)"/>
      </g>
     </g>
    </g>
    <g id="text_18">
     <!-- Close ($) -->
     <g transform="translate(21.746539 127.284375)rotate(-90)scale(0.12 -0.12)">
      <defs>
       <path id="STIXGeneral-Regular-43" d="M 3930 838 
L 4051 723 
Q 3482 -90 2304 -90 
Q 1376 -90 794 480 
Q 179 1082 179 2080 
Q 179 3014 755 3661 
Q 1357 4326 2310 4326 
Q 2720 4326 3072 4230 
Q 3475 4115 3514 4115 
Q 3725 4115 3782 4326 
L 3910 4326 
L 3968 2874 
L 3821 2874 
Q 3718 3334 3488 3584 
Q 3034 4070 2458 4070 
Q 1747 4070 1334 3548 
Q 922 3027 922 2182 
Q 922 1152 1382 653 
Q 1811 192 2522 192 
Q 2944 192 3251 339 
Q 3558 486 3930 838 
z
" transform="scale(0.015625)"/>
       <path id="STIXGeneral-Regular-6c" d="M 1645 0 
L 134 0 
L 134 96 
Q 435 122 531 221 
Q 627 320 627 589 
L 627 3590 
Q 627 3821 569 3910 
Q 512 4000 358 4000 
Q 224 4000 122 3987 
L 122 4090 
Q 730 4237 1133 4371 
L 1165 4346 
L 1165 557 
Q 1165 288 1254 201 
Q 1344 115 1645 96 
L 1645 0 
z
" transform="scale(0.015625)"/>
       <path id="STIXGeneral-Regular-6f" d="M 3008 1478 
Q 3008 806 2608 371 
Q 2208 -64 1568 -64 
Q 979 -64 582 368 
Q 186 800 186 1459 
Q 186 2125 582 2534 
Q 979 2944 1626 2944 
Q 2221 2944 2614 2537 
Q 3008 2131 3008 1478 
z
M 2432 1306 
Q 2432 2035 2112 2445 
Q 1856 2765 1504 2765 
Q 1171 2765 966 2493 
Q 762 2221 762 1747 
Q 762 928 1101 435 
Q 1318 115 1677 115 
Q 2029 115 2230 432 
Q 2432 749 2432 1306 
z
" transform="scale(0.015625)"/>
       <path id="STIXGeneral-Regular-73" d="M 998 1926 
L 1664 1523 
Q 1984 1331 2105 1164 
Q 2227 998 2227 736 
Q 2227 416 1961 176 
Q 1696 -64 1331 -64 
Q 1030 -64 864 -6 
Q 691 51 570 51 
Q 461 51 416 -26 
L 333 -26 
L 333 979 
L 435 979 
Q 538 512 730 294 
Q 922 77 1248 77 
Q 1485 77 1632 211 
Q 1779 346 1779 550 
Q 1779 845 1440 1030 
L 1094 1222 
Q 326 1651 326 2150 
Q 326 2522 566 2730 
Q 806 2938 1210 2938 
Q 1491 2938 1638 2867 
Q 1754 2816 1818 2816 
Q 1862 2816 1920 2880 
L 1990 2880 
L 2022 2010 
L 1926 2010 
Q 1818 2445 1654 2621 
Q 1491 2797 1203 2797 
Q 986 2797 854 2688 
Q 723 2579 723 2362 
Q 723 2253 796 2128 
Q 870 2003 998 1926 
z
" transform="scale(0.015625)"/>
       <path id="STIXGeneral-Regular-20" transform="scale(0.015625)"/>
       <path id="STIXGeneral-Regular-28" d="M 1946 -1030 
L 1869 -1133 
Q 1126 -710 716 32 
Q 307 774 307 1613 
Q 307 3386 1888 4326 
L 1946 4224 
Q 1293 3667 1075 3126 
Q 858 2586 858 1632 
Q 858 685 1082 96 
Q 1306 -493 1946 -1030 
z
" transform="scale(0.015625)"/>
       <path id="STIXGeneral-Regular-24" d="M 1690 4077 
L 1690 2502 
Q 2234 2208 2445 2045 
Q 2656 1882 2797 1664 
Q 2931 1466 2931 1088 
Q 2931 570 2614 326 
Q 2298 83 1690 0 
L 1690 -557 
L 1472 -557 
L 1472 0 
Q 1062 0 806 73 
Q 550 147 282 326 
L 282 1158 
L 378 1158 
Q 480 685 761 432 
Q 1043 179 1472 179 
L 1472 1984 
Q 800 2362 566 2624 
Q 333 2886 333 3283 
Q 333 3731 659 3974 
Q 986 4218 1472 4250 
L 1472 4653 
L 1690 4653 
L 1690 4250 
Q 2426 4205 2720 3910 
L 2720 3200 
L 2624 3200 
Q 2528 3597 2301 3814 
Q 2074 4032 1690 4077 
z
M 1472 2605 
L 1472 4077 
Q 806 3942 806 3405 
Q 806 3194 937 3037 
Q 1069 2880 1472 2605 
z
M 1690 1875 
L 1690 179 
Q 2086 262 2252 432 
Q 2419 602 2419 941 
Q 2419 1235 2272 1427 
Q 2125 1619 1690 1875 
z
" transform="scale(0.015625)"/>
       <path id="STIXGeneral-Regular-29" d="M 186 4224 
L 262 4326 
Q 992 3891 1408 3148 
Q 1824 2406 1824 1581 
Q 1824 -166 243 -1133 
L 186 -1030 
Q 845 -486 1059 54 
Q 1274 595 1274 1562 
Q 1274 2534 1059 3120 
Q 845 3706 186 4224 
z
" transform="scale(0.015625)"/>
      </defs>
      <use xlink:href="#STIXGeneral-Regular-43"/>
      <use xlink:href="#STIXGeneral-Regular-6c" x="66.699997"/>
      <use xlink:href="#STIXGeneral-Regular-6f" x="94.499985"/>
      <use xlink:href="#STIXGeneral-Regular-73" x="144.499969"/>
      <use xlink:href="#STIXGeneral-Regular-65" x="183.399963"/>
      <use xlink:href="#STIXGeneral-Regular-20" x="227.799957"/>
      <use xlink:href="#STIXGeneral-Regular-28" x="252.799942"/>
      <use xlink:href="#STIXGeneral-Regular-24" x="286.09993"/>
      <use xlink:href="#STIXGeneral-Regular-29" x="336.099915"/>
     </g>
    </g>
   </g>
   <g id="line2d_17">
    <path d="M 61.569096 180.189112 
L 62.323405 178.621823 
L 63.454868 177.819481 
L 64.963486 174.997229 
L 66.472104 174.29675 
L 67.603567 171.942171 
L 68.735031 171.170082 
L 70.243648 168.121182 
L 71.375112 167.427293 
L 72.506575 165.42513 
L 72.883729 165.017787 
L 74.015193 164.579558 
L 75.523811 163.12405 
L 76.655274 162.769653 
L 77.409583 162.04861 
L 78.163892 161.513383 
L 79.295355 161.157881 
L 80.803973 159.763633 
L 81.935436 159.246382 
L 83.444054 157.159687 
L 84.575517 156.63586 
L 85.329826 155.745266 
L 85.706981 155.296014 
L 87.215598 154.820282 
L 88.724216 152.926773 
L 89.855679 152.497128 
L 91.364297 150.758698 
L 92.495761 150.326493 
L 93.627224 149.015403 
L 94.004378 148.842093 
L 95.512996 148.663122 
L 96.267305 148.594207 
L 96.644459 148.631293 
L 98.530232 148.349557 
L 99.284541 148.042298 
L 100.793158 147.793361 
L 101.547467 147.514064 
L 101.924622 147.445284 
L 106.827629 147.201173 
L 107.204784 147.119752 
L 109.090556 146.991855 
L 109.844865 147.163279 
L 111.353483 147.328922 
L 113.993564 147.79673 
L 115.125027 147.5439 
L 117.010799 147.182643 
L 117.387954 146.948059 
L 117.765108 146.846762 
L 119.273726 146.531054 
L 120.028035 146.040553 
L 120.405189 145.941668 
L 121.536653 145.84184 
L 121.913807 145.560387 
L 123.045271 144.17033 
L 124.176734 143.656044 
L 125.685352 141.277398 
L 126.816815 140.672044 
L 128.325433 138.613148 
L 129.456896 138.026727 
L 130.965514 135.901734 
L 132.096977 135.420652 
L 132.851286 134.61106 
L 133.605595 134.198772 
L 135.114213 133.998078 
L 136.245676 133.617067 
L 138.508603 133.268316 
L 138.885757 133.09824 
L 140.394375 132.877104 
L 141.148684 132.402733 
L 141.525838 132.418985 
L 143.034456 132.224585 
L 143.788765 132.141709 
L 144.165919 132.283312 
L 145.674537 132.29676 
L 146.806001 132.663137 
L 147.937464 132.496685 
L 149.446082 131.33779 
L 150.577545 130.915665 
L 152.086163 129.205318 
L 153.217626 128.844614 
L 154.726244 127.609016 
L 155.857707 127.222641 
L 156.612016 126.52014 
L 157.366325 125.458944 
L 158.497788 124.985368 
L 160.006406 123.036947 
L 161.137869 122.445688 
L 161.892178 121.290566 
L 162.646487 120.256375 
L 163.777951 119.644148 
L 165.286568 117.233551 
L 166.418032 116.538852 
L 167.926649 114.078826 
L 169.058113 113.62541 
L 169.812422 112.905176 
L 171.698194 112.044416 
L 173.206812 109.769102 
L 174.338275 109.209268 
L 175.092584 108.538071 
L 175.846893 107.944266 
L 177.35551 107.336202 
L 178.109819 107.090878 
L 178.486974 107.04533 
L 179.995592 107.192026 
L 181.127055 107.446865 
L 183.012827 107.640995 
L 183.389982 107.94436 
L 183.767136 108.478522 
L 185.275754 108.860329 
L 186.407217 110.475174 
L 187.53868 110.671447 
L 188.292989 110.986225 
L 189.047298 110.749916 
L 190.93307 110.559531 
L 191.687379 110.322683 
L 192.818843 110.065809 
L 193.573152 109.633065 
L 196.590387 109.259977 
L 196.967542 108.934998 
L 198.099005 108.555064 
L 199.230468 107.700356 
L 199.607623 107.491038 
L 201.493395 107.442404 
L 201.870549 107.595434 
L 202.247704 107.872602 
L 203.756322 107.930507 
L 204.887785 108.818002 
L 206.019248 109.199417 
L 206.396403 109.500491 
L 207.527866 109.928802 
L 209.036484 109.862165 
L 209.790793 109.444082 
L 210.167947 109.187208 
L 211.29941 108.906281 
L 212.430874 107.270603 
L 212.808028 107.049723 
L 215.070955 106.469608 
L 215.448109 106.631896 
L 216.956727 106.987371 
L 217.711036 106.648943 
L 219.219654 106.284197 
L 220.728272 105.075751 
L 221.859735 104.61549 
L 223.368353 103.073454 
L 224.499816 102.748596 
L 226.008434 101.6515 
L 227.139897 101.3088 
L 228.27136 100.156508 
L 228.648515 99.522248 
L 229.779978 98.759431 
L 230.534287 97.117432 
L 231.288596 95.449911 
L 232.420059 94.672459 
L 233.174368 93.084067 
L 233.928677 91.903288 
L 235.06014 91.224423 
L 236.191604 89.807725 
L 236.568758 89.437481 
L 237.700222 89.176039 
L 239.208839 87.975774 
L 240.717457 87.261859 
L 241.471766 85.892191 
L 241.84892 85.086655 
L 242.980384 84.215021 
L 243.734693 82.539859 
L 244.489002 81.310985 
L 245.997619 80.56644 
L 247.129083 80.007429 
L 248.260546 79.932207 
L 249.014855 79.574819 
L 249.392009 79.323188 
L 249.769164 79.232105 
L 251.277782 79.009487 
L 251.654936 78.5613 
L 252.409245 77.274372 
L 253.540708 76.598472 
L 253.917863 76.000476 
L 254.672172 75.3755 
L 255.049326 74.685087 
L 256.180789 73.994001 
L 257.689407 71.548232 
L 258.82087 70.745109 
L 260.329488 67.576397 
L 261.460952 66.733372 
L 262.21526 64.745426 
L 262.969569 62.246711 
L 264.101033 60.859727 
L 265.60965 55.463 
L 266.741114 54.378423 
L 268.249732 49.318251 
L 269.381195 48.327843 
L 270.889813 44.534291 
L 272.021276 43.558261 
L 273.529894 39.303988 
L 274.661357 38.122265 
L 276.169975 33.497641 
L 277.678593 32.413873 
L 278.432902 30.328148 
L 278.810056 29.886536 
L 279.941519 29.386508 
L 280.695828 28.612397 
L 281.450137 27.823922 
L 282.5816 27.462275 
L 283.335909 26.588202 
L 283.713064 26.41543 
L 284.090218 26.105894 
L 285.221681 26.008896 
L 285.97599 26.250865 
L 286.730299 25.894568 
L 287.861763 26.153449 
L 288.993226 27.400327 
L 289.37038 27.845968 
L 290.501844 28.488529 
L 292.010461 32.982695 
L 293.141925 33.861067 
L 293.519079 34.892051 
L 294.650543 39.54046 
L 295.782006 41.116616 
L 296.913469 44.936755 
L 297.290624 46.259272 
L 298.422087 47.302209 
L 299.55355 51.892848 
L 299.930705 53.667298 
L 301.062168 55.498724 
L 302.570786 63.430711 
L 303.702249 65.299088 
L 305.210867 73.854837 
L 306.34233 75.941115 
L 307.096639 80.025392 
L 307.850948 82.063844 
L 308.982411 83.928838 
L 310.491029 93.216102 
L 311.622493 95.353169 
L 311.999647 97.361383 
L 312.753956 99.286977 
L 313.13111 101.320713 
L 314.262574 103.434939 
L 315.016883 107.252411 
L 315.771191 110.303978 
L 316.902655 112.102497 
L 317.656964 115.435383 
L 318.411273 117.888037 
L 319.542736 118.588921 
L 320.297045 119.400103 
L 320.674199 120.278327 
L 321.051354 120.75325 
L 323.31428 120.971017 
L 323.691435 121.083202 
L 324.822898 121.216072 
L 326.331516 122.47303 
L 327.840134 122.699947 
L 328.594443 122.459069 
L 328.971597 122.253107 
L 330.857369 121.907307 
L 331.611678 121.250489 
L 332.743141 120.907897 
L 333.49745 119.807203 
L 334.251759 118.202829 
L 335.383223 117.471167 
L 336.89184 113.972652 
L 338.023304 112.456152 
L 339.531921 107.127666 
L 341.040539 105.964486 
L 342.172003 102.353907 
L 343.303466 101.189662 
L 344.434929 97.380788 
L 344.812084 95.995137 
L 345.943547 94.527124 
L 347.452165 89.044152 
L 348.583628 87.962257 
L 349.715091 84.962692 
L 350.092246 83.97134 
L 351.223709 82.850757 
L 352.732327 78.171179 
L 353.86379 77.067116 
L 354.618099 74.786317 
L 355.372408 72.245531 
L 356.503871 71.086259 
L 358.012489 67.564484 
L 359.143953 67.189928 
L 359.898261 66.221404 
L 360.65257 65.127151 
L 361.784034 64.771811 
L 362.161188 64.497217 
L 362.538343 64.413937 
L 364.424115 64.591412 
L 365.555578 65.398147 
L 365.932733 65.803617 
L 365.932733 65.803617 
" clip-path="url(#p5d6f849f2c)" style="fill: none; stroke: #bc80bd; stroke-width: 2; stroke-linecap: square"/>
   </g>
   <g id="patch_3">
    <path d="M 46.350914 203.04 
L 46.350914 7.2 
" style="fill: none; stroke: #000000; stroke-width: 0.6; stroke-linejoin: miter; stroke-linecap: square"/>
   </g>
   <g id="patch_4">
    <path d="M 46.350914 203.04 
L 381.150914 203.04 
" style="fill: none; stroke: #000000; stroke-width: 0.6; stroke-linejoin: miter; stroke-linecap: square"/>
   </g>
  </g>
 </g>
 <defs>
  <clipPath id="p5d6f849f2c">
   <rect x="46.350914" y="7.2" width="334.8" height="195.84"/>
  </clipPath>
 </defs>
</svg>
