<?xml version="1.0" encoding="UTF-8" standalone="no"?>
<!DOCTYPE svg PUBLIC "-//W3C//DTD SVG 1.1//EN"
 "http://www.w3.org/Graphics/SVG/1.1/DTD/svg11.dtd">
<!-- Generated by graphviz version 3.0.0 (0)
 -->
<!-- Pages: 1 -->
<svg width="324pt" height="279pt"
 viewBox="0.00 0.00 324.19 279.00" xmlns="http://www.w3.org/2000/svg" xmlns:xlink="http://www.w3.org/1999/xlink">
<g id="graph0" class="graph" transform="scale(1 1) rotate(0) translate(4 275)">
<polygon fill="white" stroke="transparent" points="-4,4 -4,-275 320.19,-275 320.19,4 -4,4"/>
<g id="clust1" class="cluster">
<title>cluster_0</title>
<polygon fill="lightgrey" stroke="lightgrey" points="70.1,-8 70.1,-227 186.1,-227 186.1,-8 70.1,-8"/>
<text text-anchor="middle" x="128.1" y="-211.8" font-family="Times,serif" font-size="14.00">Explore</text>
</g>
<!-- Import -->
<g id="node1" class="node">
<title>Import</title>
<ellipse fill="none" stroke="black" cx="35.1" cy="-253" rx="35.19" ry="18"/>
<text text-anchor="middle" x="35.1" y="-249.3" font-family="Times,serif" font-size="14.00">Import</text>
</g>
<!-- Tidy -->
<g id="node2" class="node">
<title>Tidy</title>
<ellipse fill="none" stroke="black" cx="35.1" cy="-178" rx="27.1" ry="18"/>
<text text-anchor="middle" x="35.1" y="-174.3" font-family="Times,serif" font-size="14.00">Tidy</text>
</g>
<!-- Import&#45;&gt;Tidy -->
<g id="edge1" class="edge">
<title>Import&#45;&gt;Tidy</title>
<path fill="none" stroke="black" d="M35.1,-234.7C35.1,-226.25 35.1,-215.87 35.1,-206.37"/>
<polygon fill="black" stroke="black" points="38.6,-206.18 35.1,-196.18 31.6,-206.18 38.6,-206.18"/>
</g>
<!-- Analyse -->
<g id="node4" class="node">
<title>Analyse</title>
<ellipse fill="white" stroke="white" cx="118.1" cy="-106" rx="39.79" ry="18"/>
<text text-anchor="middle" x="118.1" y="-102.3" font-family="Times,serif" font-size="14.00">Analyse</text>
</g>
<!-- Tidy&#45;&gt;Analyse -->
<g id="edge5" class="edge">
<title>Tidy&#45;&gt;Analyse</title>
<path fill="none" stroke="black" d="M51.5,-163.17C54.85,-160.34 58.54,-157.22 62.43,-153.95"/>
<polygon fill="black" stroke="black" points="64.71,-156.6 70.1,-147.48 60.2,-151.25 64.71,-156.6"/>
</g>
<!-- Visualise -->
<g id="node3" class="node">
<title>Visualise</title>
<ellipse fill="white" stroke="white" cx="129.1" cy="-178" rx="43.59" ry="18"/>
<text text-anchor="middle" x="129.1" y="-174.3" font-family="Times,serif" font-size="14.00">Visualise</text>
</g>
<!-- Visualise&#45;&gt;Analyse -->
<g id="edge2" class="edge">
<title>Visualise&#45;&gt;Analyse</title>
<path fill="none" stroke="black" d="M126.38,-159.7C125.17,-151.98 123.71,-142.71 122.36,-134.11"/>
<polygon fill="black" stroke="black" points="125.79,-133.44 120.78,-124.1 118.88,-134.53 125.79,-133.44"/>
</g>
<!-- Transform -->
<g id="node5" class="node">
<title>Transform</title>
<ellipse fill="white" stroke="white" cx="127.1" cy="-34" rx="48.19" ry="18"/>
<text text-anchor="middle" x="127.1" y="-30.3" font-family="Times,serif" font-size="14.00">Transform</text>
</g>
<!-- Analyse&#45;&gt;Transform -->
<g id="edge3" class="edge">
<title>Analyse&#45;&gt;Transform</title>
<path fill="none" stroke="black" d="M120.32,-87.7C121.31,-79.98 122.51,-70.71 123.61,-62.11"/>
<polygon fill="black" stroke="black" points="127.09,-62.47 124.9,-52.1 120.15,-61.58 127.09,-62.47"/>
</g>
<!-- Communicate -->
<g id="node6" class="node">
<title>Communicate</title>
<ellipse fill="none" stroke="black" cx="255.1" cy="-34" rx="61.19" ry="18"/>
<text text-anchor="middle" x="255.1" y="-30.3" font-family="Times,serif" font-size="14.00">Communicate</text>
</g>
<!-- Analyse&#45;&gt;Communicate -->
<g id="edge6" class="edge">
<title>Analyse&#45;&gt;Communicate</title>
<path fill="none" stroke="black" d="M186.1,-70.26C196.72,-64.83 207.37,-59.39 217,-54.46"/>
<polygon fill="black" stroke="black" points="218.67,-57.54 225.99,-49.87 215.49,-51.31 218.67,-57.54"/>
</g>
<!-- Transform&#45;&gt;Visualise -->
<g id="edge4" class="edge">
<title>Transform&#45;&gt;Visualise</title>
<path fill="none" stroke="black" d="M143.58,-51.01C152.41,-60.76 162.41,-74.01 167.1,-88 172.18,-103.17 171.99,-108.77 167.1,-124 163.77,-134.35 157.6,-144.39 151.18,-152.9"/>
<polygon fill="black" stroke="black" points="148.32,-150.86 144.77,-160.85 153.77,-155.26 148.32,-150.86"/>
</g>
</g>
</svg>
