<?xml version="1.0" encoding="UTF-8" standalone="no"?>
<!DOCTYPE svg PUBLIC "-//W3C//DTD SVG 1.1//EN"
 "http://www.w3.org/Graphics/SVG/1.1/DTD/svg11.dtd">
<!-- Generated by graphviz version 3.0.0 (0)
 -->
<!-- Pages: 1 -->
<svg width="328pt" height="279pt"
 viewBox="0.00 0.00 328.19 279.00" xmlns="http://www.w3.org/2000/svg" xmlns:xlink="http://www.w3.org/1999/xlink">
<g id="graph0" class="graph" transform="scale(1 1) rotate(0) translate(4 275)">
<polygon fill="white" stroke="transparent" points="-4,4 -4,-275 324.19,-275 324.19,4 -4,4"/>
<g id="clust1" class="cluster">
<title>cluster_0</title>
<polygon fill="lightgrey" stroke="lightgrey" points="74.1,-8 74.1,-227 190.1,-227 190.1,-8 74.1,-8"/>
<text text-anchor="middle" x="132.1" y="-211.8" font-family="Times,serif" font-size="14.00">Understand</text>
</g>
<!-- Import -->
<g id="node1" class="node">
<title>Import</title>
<ellipse fill="none" stroke="black" cx="35.1" cy="-253" rx="35.19" ry="18"/>
<text text-anchor="middle" x="35.1" y="-249.3" font-family="Times,serif" font-size="14.00">Import</text>
</g>
<!-- Clean -->
<g id="node2" class="node">
<title>Clean</title>
<ellipse fill="none" stroke="black" cx="35.1" cy="-178" rx="31.4" ry="18"/>
<text text-anchor="middle" x="35.1" y="-174.3" font-family="Times,serif" font-size="14.00">Clean</text>
</g>
<!-- Import&#45;&gt;Clean -->
<g id="edge1" class="edge">
<title>Import&#45;&gt;Clean</title>
<path fill="none" stroke="black" d="M35.1,-234.7C35.1,-226.25 35.1,-215.87 35.1,-206.37"/>
<polygon fill="black" stroke="black" points="38.6,-206.18 35.1,-196.18 31.6,-206.18 38.6,-206.18"/>
</g>
<!-- Analyse -->
<g id="node4" class="node">
<title>Analyse</title>
<ellipse fill="white" stroke="white" cx="122.1" cy="-106" rx="39.79" ry="18"/>
<text text-anchor="middle" x="122.1" y="-102.3" font-family="Times,serif" font-size="14.00">Analyse</text>
</g>
<!-- Clean&#45;&gt;Analyse -->
<g id="edge5" class="edge">
<title>Clean&#45;&gt;Analyse</title>
<path fill="none" stroke="black" d="M52.7,-162.83C56.74,-159.58 61.25,-155.95 65.98,-152.15"/>
<polygon fill="black" stroke="black" points="68.5,-154.62 74.1,-145.62 64.11,-149.16 68.5,-154.62"/>
</g>
<!-- Visualise -->
<g id="node3" class="node">
<title>Visualise</title>
<ellipse fill="white" stroke="white" cx="133.1" cy="-178" rx="42.79" ry="18"/>
<text text-anchor="middle" x="133.1" y="-174.3" font-family="Times,serif" font-size="14.00">Visualise</text>
</g>
<!-- Visualise&#45;&gt;Analyse -->
<g id="edge2" class="edge">
<title>Visualise&#45;&gt;Analyse</title>
<path fill="none" stroke="black" d="M130.38,-159.7C129.17,-151.98 127.71,-142.71 126.36,-134.11"/>
<polygon fill="black" stroke="black" points="129.79,-133.44 124.78,-124.1 122.88,-134.53 129.79,-133.44"/>
</g>
<!-- Transform -->
<g id="node5" class="node">
<title>Transform</title>
<ellipse fill="white" stroke="white" cx="131.1" cy="-34" rx="48.19" ry="18"/>
<text text-anchor="middle" x="131.1" y="-30.3" font-family="Times,serif" font-size="14.00">Transform</text>
</g>
<!-- Analyse&#45;&gt;Transform -->
<g id="edge3" class="edge">
<title>Analyse&#45;&gt;Transform</title>
<path fill="none" stroke="black" d="M124.32,-87.7C125.31,-79.98 126.51,-70.71 127.61,-62.11"/>
<polygon fill="black" stroke="black" points="131.09,-62.47 128.9,-52.1 124.15,-61.58 131.09,-62.47"/>
</g>
<!-- Communicate -->
<g id="node6" class="node">
<title>Communicate</title>
<ellipse fill="none" stroke="black" cx="259.1" cy="-34" rx="61.19" ry="18"/>
<text text-anchor="middle" x="259.1" y="-30.3" font-family="Times,serif" font-size="14.00">Communicate</text>
</g>
<!-- Analyse&#45;&gt;Communicate -->
<g id="edge6" class="edge">
<title>Analyse&#45;&gt;Communicate</title>
<path fill="none" stroke="black" d="M190.1,-70.26C200.72,-64.83 211.37,-59.39 221,-54.46"/>
<polygon fill="black" stroke="black" points="222.67,-57.54 229.99,-49.87 219.49,-51.31 222.67,-57.54"/>
</g>
<!-- Transform&#45;&gt;Visualise -->
<g id="edge4" class="edge">
<title>Transform&#45;&gt;Visualise</title>
<path fill="none" stroke="black" d="M147.58,-51.01C156.41,-60.76 166.41,-74.01 171.1,-88 176.18,-103.17 175.99,-108.77 171.1,-124 167.77,-134.35 161.6,-144.39 155.18,-152.9"/>
<polygon fill="black" stroke="black" points="152.32,-150.86 148.77,-160.85 157.77,-155.26 152.32,-150.86"/>
</g>
</g>
</svg>
